<svg xmlns="http://www.w3.org/2000/svg" xmlns:xlink="http://www.w3.org/1999/xlink" version="1.1" x="0px" y="0px" viewBox="0 0 100 125" style="enable-background:new 0 0 100 100;" xml:space="preserve"><g><g><path d="M49.3,33.2c-1.6,0-2.9,0.6-3.9,1.8c-1,1.2-1.5,2.9-1.5,5.1c0,2.2,0.5,3.9,1.5,5.1c1,1.2,2.3,1.8,3.9,1.8    c1.6,0,2.9-0.6,3.9-1.8c1-1.2,1.4-2.9,1.4-5.1c0-2.2-0.5-3.9-1.4-5.1C52.2,33.8,51,33.2,49.3,33.2z"/><path d="M72.5,34c-0.4-0.2-1.1-0.3-1.9-0.3H66V39h4.4c0.9,0,1.5-0.1,2-0.3c0.8-0.4,1.2-1.1,1.2-2.2C73.6,35.3,73.2,34.5,72.5,34z"/><path d="M84,5H16C9.9,5,5,9.6,5,15.3V67c0,5.7,4.9,10.3,11,10.3h7.2v15.3c0,0.9,0.6,1.8,1.5,2.2c0.4,0.2,0.7,0.2,1.1,0.2    c0.6,0,1.2-0.2,1.7-0.5l22.7-17.2H84c6.1,0,11-4.6,11-10.3V15.3C95,9.6,90.1,5,84,5z M35.6,41.5c-1.2,1-2.8,1.4-4.9,1.4h-4.1V50    h-4.1V30.3h8.5c2,0,3.5,0.5,4.7,1.5c1.2,1,1.7,2.6,1.7,4.7C37.3,38.9,36.7,40.5,35.6,41.5z M55.8,48.2c-1.5,1.5-3.6,2.3-6.5,2.3    s-5-0.8-6.5-2.3c-2-1.9-3-4.6-3-8.1c0-3.6,1-6.3,3-8.1c1.5-1.5,3.6-2.3,6.5-2.3s5,0.8,6.5,2.3c2,1.8,3,4.5,3,8.1    C58.8,43.7,57.8,46.4,55.8,48.2z M78.1,50h-4.6c-0.1-0.4-0.2-0.8-0.3-1.1c-0.1-0.6-0.2-1.1-0.2-1.7l0-1.8c0-1.3-0.2-2.1-0.7-2.5    c-0.4-0.4-1.2-0.6-2.3-0.6h-4V50h-4V30.3h9.4c1.3,0,2.4,0.2,3.1,0.5c0.7,0.3,1.3,0.8,1.8,1.4c0.4,0.5,0.7,1.1,1,1.7    c0.2,0.6,0.4,1.3,0.4,2.1c0,0.9-0.2,1.9-0.7,2.8s-1.3,1.5-2.3,1.9c0.9,0.4,1.6,0.9,1.9,1.6s0.6,1.7,0.6,3.1v1.3    c0,0.9,0,1.5,0.1,1.8c0.1,0.5,0.4,0.9,0.8,1.1V50z"/><path d="M30.2,33.7h-3.7v5.8h3.7c0.9,0,1.7-0.2,2.2-0.7c0.5-0.5,0.8-1.2,0.8-2.2c0-1-0.3-1.8-0.8-2.2    C31.9,33.9,31.2,33.7,30.2,33.7z"/></g></g><text x="0" y="115" fill="#000000" font-size="5px" font-weight="bold" font-family="'Helvetica Neue', Helvetica, Arial-Unicode, Arial, Sans-serif">Created by Jonathan Coutiño</text><text x="0" y="120" fill="#000000" font-size="5px" font-weight="bold" font-family="'Helvetica Neue', Helvetica, Arial-Unicode, Arial, Sans-serif">from the Noun Project</text></svg>