<svg xmlns="http://www.w3.org/2000/svg" xmlns:xlink="http://www.w3.org/1999/xlink" xml:space="preserve" version="1.1" style="shape-rendering:geometricPrecision;text-rendering:geometricPrecision;image-rendering:optimizeQuality;" viewBox="0 0 847 1058.75" x="0px" y="0px" fill-rule="evenodd" clip-rule="evenodd"><defs><style type="text/css">
   
    .fil0 {fill:black}
   
  </style></defs><g><path class="fil0" d="M377 602c36,63 98,148 123,152 -24,-22 -71,-101 -110,-160 1,-1 2,-3 3,-4 28,-37 -22,-181 -78,-291 -7,29 -18,56 -16,76 -5,-10 -4,-64 -1,-109 -23,-42 -46,-76 -63,-90 -12,3 -26,64 -26,64l11 -88c-4,-4 -8,-7 -12,-10 -77,-64 -142,-71 -142,-71 -25,114 32,240 32,240 25,10 56,32 68,42 -14,-7 -43,-19 -61,-24 22,48 210,284 267,275 2,-1 3,-1 5,-2z"/><path class="fil0" d="M24 775l237 0c9,0 14,-9 14,-17l-7 -131c0,-10 -6,-18 -13,-20l-59 -19c-6,-2 -10,-7 -12,-13l3 0c6,0 10,-4 10,-9l0 -46c0,-5 -4,-9 -10,-9l-89 0c-5,0 -10,4 -10,9l0 46c0,5 5,9 10,9l3 0c-2,6 -6,11 -12,13l-58 19c-8,2 -13,10 -14,20l-7 131c0,8 5,17 14,17z"/><rect class="fil0" x="526" y="763" width="310.532" height="11.3704" rx="5" ry="6"/><rect class="fil0" x="415" y="763" width="91.7966" height="11.3704" rx="1" ry="6"/></g><text x="0" y="862" fill="#000000" font-size="5px" font-weight="bold" font-family="'Helvetica Neue', Helvetica, Arial-Unicode, Arial, Sans-serif">Created by suib icon</text><text x="0" y="867" fill="#000000" font-size="5px" font-weight="bold" font-family="'Helvetica Neue', Helvetica, Arial-Unicode, Arial, Sans-serif">from the Noun Project</text></svg>