<svg xmlns="http://www.w3.org/2000/svg" version="1.1" viewBox="0 0 100 125" x="0px" y="0px"><path d="M53.092,16.08l-6.848-3.193l-0.987-2.448L17.363,70.26l-2.499,18.806l4.433-4.884l8.308-9.146l27.893-59.817L53.092,16.08z   M26.79,74.488l-8.422,9.26l-1.666-0.777l1.66-12.414l1.068-2.289c0.565,0.547,0.873,1.31,0.854,2.09  c-0.005,0.213,0.244,0.327,0.404,0.186c0.813-0.716,2.003-0.925,3.048-0.438c1.044,0.487,1.649,1.534,1.623,2.617  c-0.005,0.214,0.243,0.331,0.403,0.189c0.57-0.502,1.326-0.755,2.087-0.694L26.79,74.488z M53.149,15.003l2.982-1.024l-1.122-2.939  l-6.148-2.863L45.885,9.2l1.147,2.95L53.149,15.003z M48.931,10.628c0.195-0.419,1.281-0.325,2.425,0.208  c1.144,0.534,1.913,1.305,1.718,1.724c-0.195,0.419-1.281,0.325-2.425-0.208C49.505,11.818,48.736,11.047,48.931,10.628z   M68.551,4.896L30.093,87.37l16.585,7.734L85.137,12.63L68.551,4.896z M67.616,9.977l4.532,2.113l-0.423,0.906l-4.532-2.113  L67.616,9.977z M63.39,19.04l4.532,2.113l-0.423,0.906l-4.532-2.113L63.39,19.04z M59.164,28.103l4.532,2.113l-0.423,0.906  l-4.532-2.113L59.164,28.103z M54.938,37.166l4.532,2.113l-0.423,0.906l-4.532-2.113L54.938,37.166z M50.712,46.229l4.532,2.113  l-0.423,0.906l-4.532-2.113L50.712,46.229z M46.485,55.292l4.532,2.113l-0.423,0.906l-4.532-2.113L46.485,55.292z M42.259,64.355  l4.532,2.113l-0.423,0.906l-4.532-2.113L42.259,64.355z M38.033,73.419l4.532,2.113l-0.423,0.906l-4.532-2.113L38.033,73.419z   M37.916,85.501l-4.532-2.113l0.423-0.906l4.532,2.113L37.916,85.501z M42.929,82.322l-7.432-3.465l0.423-0.906l7.432,3.465  L42.929,82.322z M47.155,73.259l-7.432-3.465l0.423-0.906l7.432,3.465L47.155,73.259z M51.381,64.196L43.95,60.73l0.423-0.906  l7.432,3.465L51.381,64.196z M55.608,55.133l-7.432-3.465l0.423-0.906l7.432,3.465L55.608,55.133z M59.834,46.07l-7.432-3.465  l0.423-0.906l7.432,3.465L59.834,46.07z M64.06,37.006l-7.432-3.465l0.423-0.906l7.432,3.465L64.06,37.006z M68.286,27.943  l-7.432-3.465l0.423-0.906l7.432,3.465L68.286,27.943z M65.081,15.415l0.423-0.906l7.432,3.465l-0.423,0.906L65.081,15.415z"/><text x="0" y="115" fill="#000000" font-size="5px" font-weight="bold" font-family="'Helvetica Neue', Helvetica, Arial-Unicode, Arial, Sans-serif"></text><text x="0" y="120" fill="#000000" font-size="5px" font-weight="bold" font-family="'Helvetica Neue', Helvetica, Arial-Unicode, Arial, Sans-serif"></text></svg>
