<svg xmlns="http://www.w3.org/2000/svg" xmlns:xlink="http://www.w3.org/1999/xlink" version="1.1" x="0px" y="0px" viewBox="0 0 100 125" enable-background="new 0 0 100 100" xml:space="preserve"><path d="M20.745,53.608c-0.152-1.432-1.003-2.419-1.419-2.839c0.16-0.036,3.615-0.869,4.412-3.759c0.265-0.963,0.148-1.833,0-2.417  c1.063,1.233,1.731,2.326,2.148,3.107c0.486,0.91,0.831,1.771,1.765,2.455c0.544,0.399,1.088,0.591,1.458,0.691  c-0.329,0.328-2.454,2.516-2.225,5.831c0.188,2.717,1.835,4.417,2.263,4.834c-0.589,0.273-1.821,0.944-2.762,2.34  c-0.358,0.53-1.273,1.888-1.112,3.683c0.235,2.639,2.602,4.061,2.877,4.22c-1.08,0.734-2.326,1.742-3.529,3.107  c-2.824,3.203-3.894,6.646-4.335,8.631c-0.05,0.921-0.018,2.365,0.499,4.028c0.214,0.688,0.676,2.126,1.88,3.606  c1.474,1.812,3.187,2.611,4.028,2.992c1.118,0.507,2.121,0.753,2.839,0.882c0.773-0.239,1.86-0.651,3.031-1.381  c0.481-0.3,5.857-3.777,6.368-10.204c0.323-4.063-1.472-7.119-2.225-8.401c-0.902-1.537-1.904-2.65-2.647-3.376  c0.338-0.224,2.281-1.561,2.685-4.105c0.086-0.542,0.266-2.164-0.69-3.836c-0.845-1.477-2.094-2.151-2.57-2.378  c0.454-0.371,2.452-2.083,2.839-5.064c0.326-2.514-0.691-4.403-1.036-4.987c0.656-0.008,1.594-0.131,2.34-0.767  c0.569-0.484,0.792-1.067,0.921-1.381c0.614-1.502,1.67-2.783,2.493-4.181c1.218-2.067,2.101-3.449,3.491-4.412  c0.263-0.182,1.022-0.708,1.266-0.499c0.163,0.139,0.036,0.555-0.077,0.844c-2.129,1.07-3.372,3.361-3.107,5.716  c0.269,2.397,2.046,4.377,4.412,4.91c-0.334,0.415-1.363,1.802-1.304,3.759c0.094,3.131,2.881,4.802,3.069,4.91  c2.138-0.963,3.525-2.965,3.529-5.102c0.005-2.066-1.284-3.462-1.611-3.798c0.267-0.138,2.775-1.486,3.261-4.488  c0.025-0.156,0.446-3.065-1.65-5.256c-0.859-0.898-1.81-1.329-2.378-1.534c0.143-0.195,0.336-0.505,0.46-0.921  c0.41-1.372-0.325-2.594-0.537-2.916c-0.665-1.008-1.625-1.404-1.995-1.534c2.69-3.561,4.566-6.746,5.831-9.13  c1.967-3.708,2.294-5.176,2.302-6.598c0.017-3.42-1.804-5.93-2.532-6.905c-2.436-3.263-5.685-4.452-8.337-5.422  c-4.564-1.67-8.452-1.607-11.304-1.534c-4.09,0.104-7.075,0.856-9.974,1.586c-3.85,0.969-6.14,1.546-8.849,3.274  c-2.067,1.318-5.247,3.346-5.933,6.905c-0.366,1.899,0.118,3.501,0.358,4.297c0.785,2.598,2.301,3.956,4.194,6.087  c1.432,1.611,3.344,3.963,5.358,7.135c-1.315,0.58-2.161,1.792-2.148,3.069c0.011,1.112,0.67,1.881,0.882,2.11  c-3.05,1.18-4.962,3.938-4.795,6.713c0.147,2.446,1.858,4.025,2.302,4.412c-0.22,0.21-1.826,1.796-1.65,4.258  c0.172,2.396,1.894,3.724,2.148,3.913c-0.352,0.244-0.534,0.654-0.46,1.036c0.096,0.493,0.607,0.869,1.189,0.806  c0.445-0.027,0.834-0.295,0.997-0.69c0.204-0.495-0.046-0.944-0.077-0.997C19.629,57.824,20.965,55.68,20.745,53.608z M35.31,79.655  c0.268,0.741,0.519,1.579,0.716,2.506c0.451,2.123,0.471,4.008,0.358,5.473c-0.192,0.439-0.469,0.972-0.87,1.534  c-0.404,0.566-0.821,1.004-1.176,1.33c-0.008-1.569-0.024-3.155-0.051-4.757c-0.026-1.532-0.06-3.05-0.102-4.552  C34.559,80.678,34.935,80.167,35.31,79.655z M45.718,49.656c-0.123-0.085-1.826-1.302-1.765-3.453  c0.057-2.008,1.603-3.111,1.765-3.222c-0.204,0.877-0.387,2.026-0.384,3.376C45.338,47.672,45.518,48.794,45.718,49.656z   M20.374,48.608c0.242-0.778,0.518-1.988,0.46-3.478c-0.054-1.405-0.384-2.532-0.665-3.274c1.383,0.53,2.315,1.847,2.353,3.325  C22.56,46.646,21.711,48,20.374,48.608z M21.704,41.038c-0.727-0.42-1.41-0.713-1.995-0.921c0.163,0.02,0.896,0.091,1.586-0.409  c0.663-0.481,0.833-1.163,0.87-1.33c0.112,0.582,0.286,1.26,0.563,1.995c0.344,0.914,0.753,1.666,1.125,2.251  C23.321,42.132,22.611,41.562,21.704,41.038z M24.108,90.448c-0.215-0.032-0.54-0.114-0.818-0.358  c-0.471-0.412-0.539-1.047-0.563-1.432c-0.257-4.173,0.46-6.342,0.46-6.342c1.142-3.452,3.29-5.759,4.603-6.956  c-1.008,1.44-2.463,3.898-3.273,7.263C23.723,85.92,23.879,88.718,24.108,90.448z M28.046,88.402  c-0.165,1.58-0.336,3.148-0.512,4.706c-0.17-0.031-0.818-0.169-1.279-0.767c-0.312-0.405-0.387-0.825-0.409-1.023  c0.304-0.975,0.59-2.143,0.767-3.478c0.233-1.761,0.21-3.312,0.102-4.552c0.228,0.077,0.633,0.246,1.023,0.614  c0.383,0.362,0.574,0.75,0.665,0.972C28.289,86.043,28.17,87.22,28.046,88.402z M29.018,82.468  c-0.193-0.114-0.456-0.305-0.665-0.614c-0.651-0.962-0.233-2.272,0.307-3.887c0.268-0.801,0.694-1.889,1.381-3.12  c0.409,0.017,0.818,0.034,1.228,0.051c0.222,1.33,0.443,2.66,0.665,3.99c-0.139,0.52-0.477,1.496-1.33,2.404  C30.035,81.898,29.438,82.259,29.018,82.468z M31.831,92.391c-0.47,0.239-0.908,0.401-1.279,0.511  c0.017-2.847,0.034-5.695,0.051-8.542c0.188-0.285,0.454-0.629,0.818-0.972c0.483-0.454,0.966-0.741,1.33-0.921  c-0.089,1.458-0.132,3.032-0.102,4.706c0.029,1.618,0.122,3.14,0.256,4.552C32.616,91.941,32.258,92.174,31.831,92.391z   M34.747,67.073c0.129,2.156-1.975,3.928-4.066,3.836c-1.718-0.076-3.429-1.41-3.606-3.222c-0.206-2.101,1.734-3.974,3.836-3.99  C32.787,63.683,34.632,65.15,34.747,67.073z M31.064,59.937c-1.474-0.17-2.441-2.206-2.378-3.836  c0.067-1.745,1.345-3.805,2.915-3.759c1.557,0.045,2.773,2.139,2.685,3.913C34.194,58.123,32.631,60.118,31.064,59.937z   M52.777,45.974c0.028,1.422-0.742,2.753-1.995,3.453c0.172-0.943,0.306-2.173,0.23-3.606c-0.07-1.31-0.296-2.427-0.537-3.299  C51.848,43.135,52.747,44.484,52.777,45.974z M50.194,55.052c0.008,0.898-0.446,2.054-1.074,2.097  c-0.62,0.043-1.273-1.01-1.33-1.944c-0.065-1.074,0.64-2.277,1.279-2.251C49.678,52.98,50.186,54.123,50.194,55.052z M49.529,46.153  c0.083,2.159-0.959,3.663-1.279,4.092c-0.332-0.422-1.368-1.844-1.381-3.938c-0.013-2.042,0.953-3.451,1.279-3.887  C48.496,42.86,49.454,44.192,49.529,46.153z M49.018,37.764c0.103,0.724-0.38,1.507-1.151,1.611  c-0.762,0.103-1.436-0.508-1.534-1.228c-0.104-0.76,0.447-1.548,1.228-1.611C48.287,36.478,48.919,37.07,49.018,37.764z   M49.785,10.527c0.829,0.524,3.977,2.515,4.45,5.908c0.059,0.423,0.173,1.563-0.921,4.603c-1.22,3.393-2.731,5.78-3.453,6.905  c-2.645,4.126-4.728,7.323-6.368,9.821c1.105-2.994,1.944-5.52,2.532-7.365c2.021-6.345,2.353-8.675,2.455-10.665  c0.177-3.432-0.365-5.164-0.537-5.678c-0.861-2.57-2.398-4.29-3.376-5.217C45.804,8.93,47.787,9.264,49.785,10.527z M32.982,6.538  c3.557-0.168,6.341-0.272,8.9,1.611c2.53,1.862,3.403,4.625,3.759,5.754c0.314,0.995,0.797,2.939,0.23,7.596  c-0.336,2.759-0.7,3.674-2.839,11.509c-1.231,4.51-1.784,6.674-3.376,9.437c-0.57,0.989-1.712,2.895-3.913,4.22  c-0.905,0.544-2.009,1.209-3.529,1.151c-1.342-0.051-2.309-0.638-2.762-0.921c-1.692-1.055-2.507-2.606-3.299-4.297  c-1.953-4.167-3.042-7.674-3.146-7.979c-2.234-6.587-3.145-7.786-4.143-12.429c-0.633-2.942-0.651-4.284-0.46-5.601  c0.122-0.844,0.678-3.988,3.146-6.521C24.603,6.932,28.624,6.743,32.982,6.538z M13.571,23.493  c-1.464-1.851-2.604-3.174-2.609-5.141c-0.006-2.673,2.091-4.721,3.069-5.678c1.995-1.95,4.21-2.736,5.447-3.069  c-0.792,0.471-2.154,1.439-3.069,3.146c-0.212,0.395-1.038,2.019-0.844,5.294c0.139,2.344,0.699,3.834,2.225,7.979  c0.433,1.176,1.315,3.576,2.532,6.905C17.652,28.817,15.305,25.685,13.571,23.493z M19.402,35.769  c0.759-0.056,1.386,0.658,1.458,1.381c0.068,0.685-0.353,1.478-1.074,1.611c-0.771,0.142-1.508-0.538-1.611-1.304  C18.071,36.683,18.615,35.827,19.402,35.769z M18.328,41.754c0.319,0.543,1.051,1.956,0.972,3.887  c-0.079,1.924-0.917,3.269-1.279,3.785c-0.323-0.587-0.971-1.949-0.921-3.785C17.154,43.695,17.96,42.311,18.328,41.754z   M14.287,45.999c-0.182-1.501,0.602-3.014,1.995-3.836c-0.311,0.748-0.727,2.018-0.716,3.632c0.009,1.257,0.273,2.28,0.511,2.967  C15.875,48.631,14.496,47.717,14.287,45.999z M16.794,57.098c-0.855-0.076-1.494-1.43-1.458-2.532  c0.046-1.373,1.156-2.818,2.072-2.685c0.838,0.122,1.399,1.551,1.304,2.685C18.609,55.786,17.705,57.179,16.794,57.098z"/><path d="M55.36,81.65c-1.036-0.721-2.087-0.943-2.711-1.023c0.072-0.229,0.439-1.468-0.256-2.66  c-0.123-0.21-0.904-1.494-2.046-1.432c-1.196,0.064-2.108,1.567-2.046,2.864c0.047,0.987,0.65,1.667,0.87,1.893  c-2.61,1.173-4.234,3.739-4.092,6.394c0.181,3.378,3.188,6.295,6.752,6.138c3.694-0.162,6.029-3.542,6.189-6.496  C58.127,85.357,57.298,82.999,55.36,81.65z M51.575,81.19c0.205,0.391-0.133,0.992-0.563,1.023  c-0.386,0.028-0.791-0.407-0.716-0.818c0.047-0.255,0.269-0.451,0.511-0.511C51.108,80.808,51.444,80.941,51.575,81.19z   M50.347,77.916c0.289-0.085,0.62,0.039,0.767,0.307c0.177,0.323,0.035,0.762-0.307,0.921c-0.359,0.166-0.811-0.033-0.921-0.409  C49.786,78.39,50.008,78.017,50.347,77.916z M50.45,91.624c-1.596-0.423-2.939-2.051-2.967-3.836  c-0.038-2.453,2.417-4.51,4.859-4.297c1.8,0.157,3.514,1.541,3.785,3.222C56.56,89.403,53.224,92.36,50.45,91.624z"/><path d="M73.416,87.788c-0.663-0.341-1.292-0.369-1.637-0.358c-0.135-0.195-2.466-3.463-6.24-3.222  c-2.921,0.186-6.053,2.431-6.087,5.217c-0.037,3.055,3.665,5.47,6.905,5.371c3.332-0.102,5.351-2.836,5.626-3.222  c1.75-0.036,2.946-1.041,2.967-1.944C74.974,88.609,73.495,87.829,73.416,87.788z M64.669,92.34  c-1.659-0.123-3.64-1.262-3.785-2.813c-0.175-1.871,2.37-3.799,4.706-3.632c1.825,0.131,3.837,1.564,3.836,3.222  C69.425,90.997,66.839,92.501,64.669,92.34z M71.779,90.345c-0.417-0.03-0.755-0.409-0.716-0.818  c0.033-0.355,0.339-0.628,0.665-0.665c0.452-0.051,0.914,0.357,0.87,0.818C72.56,90.063,72.186,90.374,71.779,90.345z"/><path d="M83.134,47.585c-4.845-0.486-8.09,3.941-8.261,4.181c-0.825-0.192-2.228-0.414-3.862-0.089  c-4.995,0.991-8.962,6.452-8.849,11.764c0.018,0.864,0.137,4.128,2.609,6.854c1.376,1.518,2.928,2.258,3.836,2.609  c-0.131,0.255-0.394,0.862-0.256,1.586c0.223,1.163,1.386,2.115,2.609,2.046c1.514-0.085,2.357-1.693,2.404-2.864  c0.022-0.551-0.132-1.001-0.256-1.279c0.682-0.197,1.652-0.565,2.66-1.279c1.37-0.971,2.155-2.116,2.557-2.813  c0.275,0.142,0.635,0.298,1.074,0.409c0.547,0.139,1.026,0.163,1.381,0.153c-0.137,0.148-0.77,0.86-0.665,1.79  c0.133,1.177,1.371,2.039,2.557,1.995c1.33-0.049,2.35-1.228,2.455-2.455c0.112-1.303-0.849-2.192-0.972-2.302  c0.963-0.398,2.713-1.273,4.245-3.069c2.544-2.981,2.657-6.353,2.66-7.212c0.003-0.933,0.018-4.843-3.018-7.672  C87.482,49.414,85.756,47.848,83.134,47.585z M70.807,74.95c-0.401-0.04-0.806-0.364-0.87-0.767  c-0.097-0.614,0.622-1.246,1.279-1.176c0.339,0.036,0.72,0.265,0.818,0.614C72.203,74.214,71.51,75.019,70.807,74.95z M70.04,70.909  c-3.524-0.47-5.015-4.679-5.268-7.059c-0.536-5.022,3.535-10.366,6.956-10.23c0.752,0.03,1.42,0.323,1.995,0.716  c-0.448,1.029-1.18,3.101-0.921,5.729c0.397,4.024,2.841,6.552,3.58,7.263C74.872,69.787,72.378,71.221,70.04,70.909z   M77.456,65.589c-0.672-0.458-1.872-1.423-2.609-3.069c-1.547-3.454,0.331-6.813,0.563-7.212c0.603,0.558,2.019,2.02,2.609,4.399  C78.73,62.572,77.776,64.89,77.456,65.589z M82.418,71.523c-0.457-0.1-0.818-0.552-0.87-1.023c-0.082-0.752,0.629-1.51,1.381-1.432  c0.493,0.051,0.932,0.454,1.023,0.921C84.111,70.798,83.2,71.693,82.418,71.523z M81.497,66.817  c-1.003,0.055-1.844-0.189-2.404-0.409c0.515-1.023,1.366-3.076,1.228-5.729c-0.232-4.46-3.086-7.275-3.785-7.928  c0.282-0.368,2.3-2.911,5.729-3.018c0.659-0.02,3.333-0.012,5.268,2.046c1.587,1.687,1.74,3.755,1.79,4.603  C89.609,61.208,85.719,66.584,81.497,66.817z"/><text x="0" y="115" fill="#000000" font-size="5px" font-weight="bold" font-family="'Helvetica Neue', Helvetica, Arial-Unicode, Arial, Sans-serif"></text><text x="0" y="120" fill="#000000" font-size="5px" font-weight="bold" font-family="'Helvetica Neue', Helvetica, Arial-Unicode, Arial, Sans-serif"></text></svg>
