<svg xmlns="http://www.w3.org/2000/svg" xmlns:xlink="http://www.w3.org/1999/xlink" version="1.1" x="0px" y="0px" viewBox="0 0 100 125" enable-background="new 0 0 100 100" xml:space="preserve"><g><path d="M92.5,44.759L92.283,44.2l-1.96,0.76c-0.39-0.759-1.171-1.284-2.081-1.284c-1.295,0-2.35,1.054-2.35,2.349   c0,0.215,0.039,0.419,0.093,0.617l-3.462,1.342c-0.551,0.212-1.11,0.434-1.695,0.657l-0.457,0.177l0,0   c-6.84,2.652-15.832,6.139-24.83,9.628c-1.99,0.771-3.979,1.543-5.946,2.306c-1.469-0.473-3.373-0.706-5.745-0.706   c-0.164,0-0.328,0.004-0.492,0.007c2.405-2.213,4.901-4.509,7.396-6.805c6.561-6.037,13.122-12.072,18.043-16.6   c0.447-0.421,0.887-0.813,1.309-1.205l1.754-1.613c0.405,0.335,0.919,0.545,1.486,0.545c1.295,0,2.349-1.054,2.349-2.349   c0-0.497-0.157-0.957-0.422-1.337l1.726-1.587l-0.406-0.442l-1.728,1.589c-0.41-0.352-0.937-0.572-1.519-0.572   c-1.296,0-2.349,1.054-2.349,2.349c0,0.512,0.169,0.982,0.448,1.369l-1.797,1.652c-0.383,0.352-0.771,0.716-1.181,1.087   l-1.253,1.152h0.001c-4.766,4.384-10.815,9.95-16.868,15.519c-2.671,2.457-5.339,4.912-7.899,7.268   c-2.18,0.075-4.288,0.304-5.903,0.481c-0.122,0.014-0.235,0.026-0.352,0.039c4.427-2.073,7.965-5.694,9.893-10.158   c0.061-0.068,0.116-0.141,0.176-0.21c-1.082-1.544-3.292-4.296-6.757-6.824c-3.788,9.066-16.438,15.716-19.884,17.39   c-0.023,0.019-0.044,0.035-0.065,0.052c2.462,1.063,5.18,1.656,8.039,1.656c1.344,0,2.656-0.133,3.927-0.382   c0.939-0.046,1.95-0.108,3.05-0.19l0.145-0.011c0.522-0.039,1.219-0.115,1.957-0.196c1.25-0.138,2.797-0.306,4.432-0.41   c-1.792,1.648-3.517,3.235-5.137,4.725c-2.019,0.783-3.928,1.524-5.687,2.205c-0.859,0.338-1.691,0.641-2.471,0.96   c-0.776,0.327-1.512,0.638-2.204,0.93c-1.383,0.584-2.589,1.093-3.582,1.512c-1.983,0.847-3.116,1.331-3.116,1.331   s1.163-0.407,3.199-1.117c1.016-0.36,2.25-0.798,3.665-1.3c0.707-0.25,1.46-0.517,2.254-0.799c0.791-0.289,1.609-0.627,2.472-0.957   c1.339-0.519,2.767-1.072,4.261-1.652c-0.853,0.785-1.676,1.543-2.454,2.259c-0.609,0.571-1.219,1.092-1.764,1.624   c-0.545,0.534-1.06,1.041-1.545,1.517c-0.97,0.952-1.815,1.782-2.512,2.466c-1.386,1.374-2.178,2.159-2.178,2.159   s0.849-0.724,2.333-1.991c0.739-0.637,1.637-1.409,2.666-2.297c0.515-0.444,1.062-0.916,1.64-1.413   c0.576-0.499,1.146-1.063,1.766-1.624c1.114-1.024,2.316-2.131,3.58-3.293c3.842-1.489,8.081-3.134,12.46-4.831   c1.17,0.311,2.049,0.762,2.621,1.354c0.694,0.719,0.947,1.651,0.772,2.852l-0.089,0.618l0.967,0.081   c0.347,0.033,0.74,0.07,1.116,0.07c0.287,0,0.534-0.021,0.756-0.065l0.281-0.056l-0.232-1.149l-0.28,0.057   c-0.301,0.062-0.805,0.044-1.301-0.001c0.059-1.287-0.326-2.37-1.147-3.22c-0.46-0.477-1.053-0.873-1.78-1.194   c1.764-0.684,3.543-1.374,5.323-2.064c9.186-3.562,18.371-7.123,25.26-9.794c0.599-0.235,1.176-0.454,1.738-0.674l3.462-1.342   c0.406,0.701,1.157,1.179,2.024,1.179c1.295,0,2.349-1.054,2.349-2.349c0-0.173-0.021-0.341-0.057-0.503L92.5,44.759z    M43.905,61.214c1.448,0,2.708,0.094,3.781,0.279c-3.545,1.374-6.987,2.709-10.187,3.949c1.451-1.335,2.975-2.736,4.547-4.183   C42.663,61.231,43.286,61.214,43.905,61.214z"/><path d="M26.892,37.293c2.621,0.405,4.974,1.113,7.074,1.998c0.088-0.558,0.156-1.101,0.213-1.631   c-1.999-1.087-4.278-2.019-6.859-2.665c-10.458-2.619-15.995-1.226-18.09-0.38c-0.612,1.357-1.074,2.794-1.365,4.292   C9.641,37.853,15.162,35.481,26.892,37.293z"/><path d="M39.362,41.262c-1.258-1.092-2.709-2.164-4.36-3.134c-0.054,0.449-0.113,0.904-0.188,1.372   c-0.008,0.051-0.021,0.102-0.029,0.153c1.581,0.724,3.014,1.542,4.293,2.406C39.179,41.79,39.271,41.525,39.362,41.262z"/><path d="M12.023,32.958c3.129-0.543,8.123-0.643,15.504,1.206c2.521,0.631,4.756,1.529,6.736,2.576   c0.043-0.556,0.069-1.095,0.082-1.618c-2.156-0.987-4.593-1.782-7.328-2.231C19.869,31.715,15.051,32.192,12.023,32.958z"/><path d="M46.661,48.926c0.259-0.769,0.47-1.558,0.634-2.365c-0.611-1.028-2.678-4.216-6.391-7.301   c-0.151,0.574-0.325,1.164-0.522,1.77C43.868,44.185,45.854,47.427,46.661,48.926z"/><path d="M40.134,38.641c-1.423-1.105-3.057-2.179-4.923-3.11c-0.021,0.539-0.06,1.096-0.111,1.667   c1.72,0.981,3.231,2.07,4.549,3.188C39.833,39.789,39.995,39.207,40.134,38.641z"/><path d="M40.35,37.693c1.085-5.196,0.302-8.906-0.187-10.502c-2.146-1.7-4.649-2.975-7.386-3.694   c0.927,1.693,2.495,5.405,2.455,11.061C37.163,35.49,38.868,36.569,40.35,37.693z"/><path d="M33.804,40.149c-2.083-0.893-4.427-1.605-7.044-2.009c-14.002-2.163-18.955,1.832-19.004,1.872l-0.063-0.074   C7.569,40.83,7.5,41.739,7.5,42.664c0,7.725,4.476,14.415,11.005,17.691c0.124-0.058,0.346-0.162,0.663-0.318   C22.012,57.709,31.903,49.07,33.804,40.149z"/><path d="M27.153,32.005c2.672,0.439,5.065,1.198,7.199,2.144c-0.062-6.22-2.131-9.949-2.751-10.926   c-1.295-0.259-2.635-0.396-4.007-0.396c-7.334,0-13.747,3.879-17.256,9.671C13.302,31.485,18.595,30.599,27.153,32.005z"/><path d="M22.619,58.201c5.113-2.912,13.378-8.475,16.129-15.287c0.005-0.012,0.009-0.023,0.013-0.035   c-1.233-0.844-2.612-1.649-4.142-2.361C33.021,47.654,26.74,54.408,22.619,58.201z"/><path d="M47.514,45.27c0.114-0.853,0.175-1.722,0.175-2.606c0-5.689-2.431-10.816-6.318-14.434   c0.461,2.094,0.799,5.558-0.233,10.08C44.411,40.961,46.497,43.733,47.514,45.27z"/><path d="M40.081,41.907c-0.08,0.223-0.163,0.448-0.249,0.675c1.458,1.049,2.701,2.139,3.747,3.175   C42.667,44.563,41.512,43.233,40.081,41.907z"/></g><text x="0" y="115" fill="#000000" font-size="5px" font-weight="bold" font-family="'Helvetica Neue', Helvetica, Arial-Unicode, Arial, Sans-serif"></text><text x="0" y="120" fill="#000000" font-size="5px" font-weight="bold" font-family="'Helvetica Neue', Helvetica, Arial-Unicode, Arial, Sans-serif"></text></svg>
