<svg xmlns="http://www.w3.org/2000/svg" xmlns:xlink="http://www.w3.org/1999/xlink" xml:space="preserve" version="1.1" style="shape-rendering:geometricPrecision;text-rendering:geometricPrecision;image-rendering:optimizeQuality;" viewBox="0 0 60000 75000" x="0px" y="0px" fill-rule="evenodd" clip-rule="evenodd"><defs><style type="text/css">

    .str3 {stroke:black;stroke-width:200}
    .str5 {stroke:black;stroke-width:300}
    .str0 {stroke:black;stroke-width:800}
    .str1 {stroke:black;stroke-width:300;stroke-linecap:round}
    .str2 {stroke:black;stroke-width:500;stroke-linecap:round}
    .str4 {stroke:black;stroke-width:800;stroke-linecap:round}
    .fil0 {fill:none}
    .fil1 {fill:black;fill-rule:nonzero}

  </style></defs><g><path class="fil0 str0" d="M121848 8668c6047,0 10949,5518 10949,12324 0,3388 -1424,6289 -3181,8685 -2832,3862 -1906,11678 -6921,11678 -2038,0 -3808,-1158 -4641,-3825 -1147,-3672 -1212,-4885 -3758,-7617 -2092,-2244 -3396,-5411 -3396,-8921 0,-6806 4902,-12324 10949,-12324z"/><path class="fil0 str0" d="M122710 25205c191,0 346,186 346,415 0,229 -155,415 -346,415 -191,0 -346,-186 -346,-415 0,-229 155,-415 346,-415z"/><path class="fil0 str0" d="M119609 25443c196,0 354,194 354,434 0,240 -159,434 -354,434 -196,0 -354,-194 -354,-434 0,-240 159,-434 354,-434z"/><path class="fil0 str0" d="M120748 29054c1157,-252 2474,1292 2943,3449 469,2156 -89,4108 -1245,4359 -1157,252 -2474,-1292 -2943,-3449 -469,-2156 89,-4108 1245,-4359z"/><path class="fil0 str1" d="M113719 22249c0,-1067 853,-1931 1905,-1931m1905 1931c0,1067 -853,1931 -1905,1931 -671,0 -1261,-352 -1601,-884"/><path class="fil0 str2" d="M130513 22560c-861,4673 -5903,5800 -3378,13859"/><path class="fil0 str2" d="M111833 21713c1305,5468 5534,9137 5940,14605"/><path class="fil0 str2" d="M129547 27309c-1724,1993 -1690,4155 -1589,6108"/><path class="fil0 str2" d="M114439 24808c88,3112 3942,5486 4207,9737"/><path class="fil0 str1" d="M114380 23161c988,710 2055,520 2686,-609"/><path class="fil0 str1" d="M127925 22209c0,-1140 -911,-2064 -2035,-2064m-2035 2064c0,1140 911,2064 2035,2064 717,0 1348,-376 1710,-944"/><path class="fil0 str2" d="M119831 11427c-3281,617 -4392,2399 -5239,3757"/><line class="fil0 str3" x1="125122" y1="21772" x2="126022" y2="21772"/><line class="fil0 str3" x1="125109" y1="22116" x2="126009" y2="22116"/><line class="fil0 str3" x1="125149" y1="22474" x2="126048" y2="22474"/><path class="fil0 str4" d="M132678 19168c-18,-684 95,-2903 819,-3150 1797,-23 1464,4253 1759,7261 113,1155 229,1160 -10,2341l-3284 9765c-1182,3986 811,6385 1217,9578 289,1655 -331,2195 -1009,2406 -849,265 -1367,-258 -1821,-1002 -1245,-2041 -1310,-4224 -1985,-7966 -370,-2081 -109,-4852 315,-7039"/><path class="fil0 str0" d="M110924 21825c-938,-852 -1188,-1742 -1393,-4148 -63,-735 -115,-1706 -878,-1675 -1926,79 -2028,2197 -1825,4394 653,7056 1945,7432 4004,12971 784,2108 577,3741 765,5564 144,1395 -6,1972 -137,3356 -179,1887 -217,3763 -30,5599 -18,1279 1102,2346 2646,1376 1958,-2249 212,-5450 953,-8255 807,-3170 2383,-6834 -431,-10765"/><path class="fil0 str4" d="M133179 44963c4110,1300 3880,6621 5821,9932"/><path class="fil0 str0" d="M110887 34248c-11959,4620 -9776,15657 -9829,20648"/><path class="fil0 str2" d="M144834 8399c-7197,15980 -3598,28892 -318,40321"/><path class="fil0 str2" d="M150019 8399c-7197,13934 -4506,27763 -1119,37146"/><path class="fil0 str2" d="M152771 16494c-3528,9419 -2399,17674 -423,24765"/><path class="fil0 str2" d="M112184 8399c-5997,4109 -8819,8325 -9737,12328"/><path class="fil0 str2" d="M112686 3318c-8738,4048 -14331,12097 -15107,17647"/><line class="fil0 str5" x1="114354" y1="21971" x2="115081" y2="21799"/><line class="fil0 str5" x1="114453" y1="22374" x2="115181" y2="22202"/><line class="fil0 str5" x1="114598" y1="22824" x2="115326" y2="22652"/><path class="fil0 str4" d="M116104 33142c1787,5182 1670,11317 5362,15546"/><path class="fil0 str4" d="M127781 35623c-441,4674 -1834,9904 -4657,13044"/><path class="fil0 str2" d="M110425 36126c-4957,2170 -6315,7038 -7726,10954"/><path class="fil0 str4" d="M115664 38669c1787,5182 2524,10394 6217,14623"/><path class="fil0 str4" d="M114935 41430c1787,5182 1860,10675 5553,14905"/><path class="fil1" d="M26673 8368c3143,0 5985,1431 8040,3744 1178,1326 2097,2943 2664,4745 159,-544 415,-981 815,-1118l57 -19 66 -1c1773,-23 1899,2716 2026,5455 34,745 69,1491 135,2165 26,269 51,463 72,627 80,628 109,856 -89,1831l-6 28 -3286 9772c-753,2541 -149,4435 456,6328 293,918 586,1836 739,2837 2745,1001 3565,3680 4383,6358 399,1304 797,2608 1421,3672 111,190 48,434 -142,545 -190,111 -434,48 -545,-142 -670,-1144 -1083,-2494 -1496,-3844 -716,-2344 -1433,-4687 -3512,-5677 22,571 -82,999 -261,1323 -265,478 -674,719 -1099,851 -553,173 -1004,85 -1395,-170 -352,-230 -631,-589 -886,-1006 -996,-1633 -1262,-3317 -1644,-5741 -113,-716 -236,-1497 -392,-2362l-2 -2c-30,-170 -56,-345 -79,-523 -291,1846 -734,3711 -1354,5448 -756,2118 -1778,4052 -3115,5540 -148,164 -400,177 -564,30 -164,-148 -177,-400 -30,-564 1261,-1403 2232,-3246 2956,-5274 597,-1673 1026,-3468 1310,-5245 -778,2204 -1913,3875 -4399,3875 -1150,0 -2225,-343 -3123,-1083 -784,-646 -1423,-1589 -1848,-2865 46,216 91,431 136,647 758,3615 1515,7231 3908,9971 145,166 128,418 -38,563 -166,145 -418,128 -563,-38 -2531,-2899 -3310,-6616 -4089,-10334 -170,-811 -340,-1622 -528,-2423 -87,842 -265,1662 -469,2458 421,1232 790,2483 1155,3721 1128,3829 2220,7535 4945,10657 145,166 128,418 -38,563 -166,145 -418,128 -563,-38 -2842,-3255 -3958,-7043 -5111,-10957 -248,-843 -498,-1691 -770,-2547 -94,338 -188,676 -284,1055l-2 3c-25,96 -48,193 -67,290 547,1607 934,3240 1316,4854 838,3537 1655,6990 4124,9818 145,166 128,418 -38,563 -166,145 -418,128 -563,-38 -2602,-2980 -3442,-6528 -4303,-10162 -188,-795 -377,-1594 -587,-2391 12,144 25,288 38,432 162,1818 318,3581 -959,5049l-37 42 -52 33c-497,312 -966,443 -1386,437 -335,-5 -637,-95 -896,-250 -256,-153 -468,-367 -629,-623 -224,-357 -348,-796 -346,-1257 -94,-924 -131,-1861 -122,-2805 9,-948 64,-1900 154,-2853 33,-345 61,-594 86,-822 94,-839 159,-1413 51,-2457 -54,-528 -76,-1040 -98,-1553 -38,-878 -75,-1757 -288,-2713 -9966,3977 -9624,12658 -9411,18030 32,795 60,1520 53,2162l-797 -6c6,-612 -22,-1333 -53,-2124 -222,-5604 -580,-14669 9999,-18837 -44,-140 -93,-281 -146,-425 -616,-1658 -1165,-2854 -1648,-3905 -1138,-2479 -1917,-4175 -2379,-9168 -106,-1141 -130,-2267 128,-3139 290,-979 905,-1641 2078,-1689 1117,-46 1210,1066 1285,1959l7 82c100,1174 209,1972 403,2566 50,155 107,296 172,428 82,-3363 1329,-6403 3304,-8626 2055,-2313 4898,-3744 8040,-3744zm-7310 33116c2,-17 5,-33 9,-49 26,-142 57,-284 95,-426l-1 0c90,-354 208,-777 328,-1207 102,-365 205,-735 303,-1111 3,-15 7,-29 11,-43 644,-2491 1024,-5220 -1002,-8059 -89,-99 -182,-200 -278,-304 -1101,-1181 -1990,-2608 -2597,-4202 -471,-1237 -772,-2574 -871,-3975 -454,-440 -751,-903 -962,-1551 -217,-665 -335,-1515 -440,-2747l-7 -82c-46,-553 -104,-1242 -457,-1227 -753,31 -1152,468 -1344,1117 -224,756 -198,1787 -100,2842 449,4856 1205,6502 2310,8909 488,1063 1043,2271 1670,3959 583,1567 638,2864 693,4160 21,496 42,991 95,1503 117,1132 49,1738 -51,2625 -29,260 -61,544 -86,809 -89,934 -142,1864 -151,2785 -8,918 28,1832 121,2738l2 19 0 25c-4,316 76,612 224,848 95,151 218,276 363,363 142,85 309,135 496,137 260,4 562,-81 899,-283 1017,-1209 877,-2786 732,-4412 -93,-1048 -188,-2115 -5,-3161zm-4213 -5487c126,-55 273,3 328,129 55,126 -3,273 -129,328 -4467,1955 -5960,6190 -7256,9868 -98,278 -195,552 -335,942 -46,129 -189,197 -318,150 -129,-46 -197,-189 -150,-318 82,-227 207,-582 333,-940 1330,-3772 2861,-8116 7528,-10159zm4239 -13219l728 -172 68 292 -728 172 -68 -292zm-146 -450l728 -172 68 292 -728 172 -68 -292zm-99 -403l728 -172 68 292 -728 172 -68 -292zm-1739 -18734c125,-58 273,-3 331,122 58,125 3,273 -122,331 -4032,1868 -7389,4596 -9904,7533 -2881,3366 -4652,6999 -5061,9922 -19,136 -145,232 -281,213 -136,-19 -232,-145 -213,-281 421,-3011 2232,-6739 5176,-10178 2557,-2987 5972,-5761 10073,-7662zm-538 5102c114,-78 269,-48 347,65 78,114 48,269 -65,347 -2976,2039 -5162,4102 -6716,6148 -1546,2037 -2467,4060 -2918,6030 -31,134 -165,218 -299,188 -134,-31 -218,-165 -188,-299 466,-2034 1415,-4120 3008,-6219 1586,-2089 3810,-4189 6831,-6259zm40494 8214c48,-129 191,-194 320,-146 129,48 194,191 146,320 -1752,4677 -2347,9065 -2260,13164 88,4102 860,7919 1843,11448 37,133 -41,270 -174,307 -133,37 -270,-41 -307,-174 -992,-3562 -1772,-7418 -1861,-11571 -89,-4156 515,-8605 2291,-13347zm-2740 -8122c63,-122 214,-171 336,-107 122,63 171,214 107,336 -3577,6925 -4696,13824 -4501,20158 195,6340 1708,12118 3395,16789 46,129 -21,272 -150,318 -129,46 -272,-21 -318,-150 -1701,-4712 -3226,-10540 -3424,-16944 -198,-6410 936,-13392 4556,-20401zm-5192 12c57,-126 204,-182 330,-125 126,57 182,204 125,330 -3579,7948 -4474,15132 -4066,21750 408,6625 2125,12697 3762,18400 38,133 -39,271 -172,309 -133,38 -271,-39 -309,-172 -1644,-5727 -3367,-11825 -3779,-18508 -412,-6690 492,-13952 4109,-21984zm-11820 36744c-4,-20 -6,-40 -7,-60 -133,-1016 -436,-1965 -739,-2914 -642,-2011 -1284,-4021 -462,-6794l3282 -9759c166,-824 141,-1019 74,-1547 -23,-179 -50,-392 -75,-649 -68,-696 -103,-1453 -138,-2209 -106,-2289 -212,-4578 -1140,-4688 -109,86 -207,343 -290,662 -183,706 -223,1628 -215,2045 80,609 121,1232 121,1865 0,1746 -367,3367 -961,4861 -590,1485 -1402,2838 -2298,4059 -341,466 -627,996 -875,1568 -223,1162 -399,2484 -457,3772 -49,1089 -13,2156 152,3080l-1 0c157,872 281,1659 395,2379 367,2328 623,3946 1538,5447 200,327 406,601 639,753 194,127 427,168 723,76 253,-79 493,-215 636,-473 162,-293 225,-753 100,-1474zm-4479 -13829c2,-5 4,-9 6,-14 273,-634 592,-1228 979,-1757 862,-1175 1640,-2470 2201,-3881 557,-1402 902,-2925 902,-4568 0,-3302 -1187,-6289 -3105,-8449 -1908,-2147 -4539,-3475 -7443,-3475 -2904,0 -5536,1328 -7443,3475 -1919,2160 -3105,5146 -3105,8449 0,1672 304,3263 853,4706 570,1498 1404,2837 2434,3943 711,763 1233,1410 1641,2022 -502,-1096 -1098,-2158 -1700,-3230 -1162,-2069 -2345,-4176 -2939,-6663 -32,-134 51,-269 186,-301 134,-32 269,51 301,186 578,2420 1743,4496 2888,6534 1376,2450 2722,4848 3026,7759 134,448 280,937 444,1463 375,1201 945,2070 1643,2645 745,614 1646,898 2617,898 2460,0 3366,-2200 4100,-4800 -1509,-5121 51,-7430 1579,-9691 806,-1192 1603,-2371 1894,-3950 25,-135 155,-225 290,-200 135,25 225,155 200,290 -311,1685 -1136,2905 -1970,4140 -1379,2040 -2785,4121 -1733,8458l63 -236c180,-677 363,-1361 569,-2030 -33,-843 -30,-1718 137,-2605 202,-1073 640,-2151 1536,-3186 90,-104 247,-115 352,-25 104,90 115,247 25,352 -829,958 -1235,1957 -1422,2952 -68,361 -107,722 -127,1082 40,-99 80,-197 122,-294zm-3159 -8838l900 0 0 200 -900 0 0 -200zm-40 -357l900 0 0 200 -900 0 0 -200zm13 -344l900 0 0 200 -900 0 0 -200zm-5338 -10490c135,-25 266,64 291,199 25,135 -64,266 -199,291 -1590,299 -2650,877 -3414,1543 -765,667 -1244,1436 -1659,2101 -73,117 -227,153 -344,80 -117,-73 -153,-227 -80,-344 432,-693 932,-1495 1754,-2212 824,-718 1960,-1340 3650,-1658zm8290 11027c0,83 -67,150 -150,150 -83,0 -150,-67 -150,-150 0,-529 -211,-1008 -553,-1354 -341,-346 -812,-559 -1333,-559 -83,0 -150,-67 -150,-150 0,-83 67,-150 150,-150 604,0 1150,248 1546,650 395,401 640,954 640,1564zm-4371 0c0,-83 67,-150 150,-150 83,0 150,67 150,150 0,529 211,1008 553,1354 341,346 812,559 1333,559 326,0 633,-84 900,-231 278,-153 513,-375 684,-643 44,-70 137,-90 206,-46 70,44 90,137 46,206 -198,311 -471,568 -792,745 -311,171 -666,269 -1044,269 -604,0 -1150,-248 -1546,-650 -395,-401 -640,-954 -640,-1564zm-9411 1074c-67,-48 -82,-142 -34,-209 48,-67 142,-82 209,-34 79,57 158,107 238,152 383,214 768,284 1123,208 354,-76 682,-299 950,-672 55,-76 107,-158 156,-247 40,-72 131,-98 203,-58 72,40 98,131 58,203 -55,99 -114,191 -175,276 -314,437 -704,699 -1131,791 -426,91 -883,10 -1330,-240 -89,-50 -178,-107 -267,-170zm-102 1532c-4,-138 105,-252 242,-256 138,-4 252,105 256,242 39,1384 885,2650 1801,4019 1083,1620 2260,3380 2405,5710 8,138 -97,256 -234,264 -138,8 -256,-97 -264,-234 -137,-2194 -1274,-3896 -2321,-5462 -958,-1432 -1842,-2755 -1885,-4283zm-322 -2567c0,83 -67,150 -150,150 -83,0 -150,-67 -150,-150 0,-574 230,-1094 601,-1471 372,-377 886,-611 1454,-611 83,0 150,67 150,150 0,83 -67,150 -150,150 -485,0 -923,199 -1240,521 -318,322 -515,768 -515,1261zm3510 0c0,-83 67,-150 150,-150 83,0 150,67 150,150 0,574 -230,1094 -601,1471 -372,377 -886,611 -1454,611 -355,0 -690,-92 -982,-253 -302,-167 -558,-409 -745,-701 -44,-70 -24,-162 46,-206 70,-44 162,-24 206,46 159,249 378,456 637,599 249,137 534,215 838,215 485,0 923,-199 1240,-521 318,-322 515,-768 515,-1261zm3285 6414c733,-159 1489,216 2117,953 574,672 1053,1659 1301,2802l9 43 0 1c238,1127 211,2206 -29,3044 -266,931 -798,1587 -1532,1747 -733,159 -1489,-216 -2117,-953 -574,-672 -1053,-1659 -1301,-2802l-9 -43 0 -1c-238,-1127 -211,-2206 29,-3044 266,-931 798,-1587 1532,-1747zm1511 1471c-437,-512 -919,-782 -1342,-690 -422,92 -747,538 -932,1184 -208,729 -227,1687 -7,2700l0 1c220,1013 635,1875 1126,2451 437,512 919,782 1342,690 422,-92 747,-538 932,-1184 208,-729 227,-1687 7,-2700l0 -1c-220,-1013 -635,-1875 -1126,-2451zm-2565 -5091c223,0 421,105 560,276 120,147 194,345 194,559 0,214 -74,411 -194,559 -139,170 -336,276 -560,276 -223,0 -421,-105 -560,-276 -120,-147 -194,-345 -194,-559 0,-214 74,-411 194,-559 139,-170 336,-276 560,-276zm3101 -238c220,0 414,101 551,265 121,144 195,339 195,549 0,210 -75,405 -195,549 -137,164 -331,265 -551,265 -220,0 -414,-101 -551,-265 -121,-144 -195,-339 -195,-549 0,-210 75,-405 195,-549 137,-164 331,-265 551,-265z"/></g><text x="0" y="60015" fill="#000000" font-size="5px" font-weight="bold" font-family="'Helvetica Neue', Helvetica, Arial-Unicode, Arial, Sans-serif"></text><text x="0" y="60020" fill="#000000" font-size="5px" font-weight="bold" font-family="'Helvetica Neue', Helvetica, Arial-Unicode, Arial, Sans-serif"></text></svg>
