<svg xmlns="http://www.w3.org/2000/svg" xmlns:xlink="http://www.w3.org/1999/xlink" version="1.1" x="0px" y="0px" viewBox="0 0 100 99.12625" enable-background="new 0 0 100 79.301" xml:space="preserve"><path d="M50,58.876c4.115,0,7.472-3.351,7.472-7.466c0-2.234-1.011-4.217-2.566-5.588V1.763C54.905,0.791,54.077,0,53.048,0h-6.272  c-1.025,0-1.854,0.791-1.854,1.763v44.208c-1.461,1.361-2.39,3.287-2.39,5.439C42.531,55.526,45.881,58.876,50,58.876z   M50.003,49.437c1.093,0,1.977,0.882,1.977,1.97c0,1.096-0.884,1.98-1.977,1.98c-1.095,0-1.973-0.885-1.973-1.98  C48.03,50.319,48.908,49.437,50.003,49.437z"/><path d="M98.721,36.999H56.543v7.246h42.184c0.703-0.006,1.273-0.57,1.273-1.279v-4.687C100,37.576,99.427,36.999,98.721,36.999z"/><path d="M43.29,36.999H1.28c-0.706,0-1.28,0.577-1.28,1.28v4.687c0,0.709,0.574,1.279,1.28,1.279h2.544H43.29V36.999z"/><path d="M59.169,51.495c0,5.061-4.104,9.166-9.166,9.166s-9.166-4.105-9.166-9.166c0-2.096,0.73-4.006,1.915-5.549H5.041v7.121  c0,14.5,12.8,26.234,28.617,26.234h32.685c15.817,0,28.616-11.734,28.616-26.234v-7.121H57.252  C58.438,47.489,59.169,49.399,59.169,51.495z"/><text x="0" y="94.301" fill="#000000" font-size="5px" font-weight="bold" font-family="'Helvetica Neue', Helvetica, Arial-Unicode, Arial, Sans-serif">Created by Catherine Peacock</text><text x="0" y="99.301" fill="#000000" font-size="5px" font-weight="bold" font-family="'Helvetica Neue', Helvetica, Arial-Unicode, Arial, Sans-serif">from the Noun Project</text></svg>