<svg xmlns="http://www.w3.org/2000/svg" xmlns:xlink="http://www.w3.org/1999/xlink" viewBox="0 0 60 70" version="1.1" x="0px" y="0px"><title>Construction - Outline - 060 - Finger Joint</title><desc>Created with Sketch.</desc><g stroke="none" stroke-width="1" fill="none" fill-rule="evenodd"><g fill-rule="nonzero" fill="#000000"><path d="M0.50977,34.87109 L16.49317,43.86175 L16.49517,43.86328 L16.4981,43.8645 L16.50982,43.87109 C16.5514865,43.8915473 16.5945671,43.9089888 16.63873,43.92328 C16.8332862,44.0078974 17.0510134,44.0230787 17.25543,43.96628 C17.28265,43.95908 17.30768,43.94406 17.33429,43.93454 C17.387629,43.9181462 17.4394815,43.897258 17.48929,43.8721 L23.48929,40.50198 C23.5231825,40.4766368 23.5553194,40.449027 23.58548,40.41934 C23.6428897,40.3797486 23.6959219,40.3341584 23.74368,40.28334 C23.8204659,40.1835013 23.8843658,40.0743852 23.93387,39.95857 C23.9548613,39.892123 23.9686537,39.8236133 23.97501,39.75422 C23.986115,39.7133797 23.9944638,39.6718395 24,39.62988 L24,36.58521 L29.48926,33.502 C29.5231525,33.4766568 29.5552894,33.449047 29.58545,33.41936 C29.6428597,33.3797686 29.6958919,33.3341784 29.74365,33.28336 C29.8204359,33.1835213 29.8843358,33.0744052 29.93384,32.95859 C29.9548313,32.892143 29.9686237,32.8236333 29.97498,32.75424 C29.986096,32.7133938 29.9944548,32.6718469 30,32.62988 L30,25 C29.9938901,24.9456764 29.983066,24.8919874 29.96765,24.83954 C29.97119,24.82349 29.96899,24.8067 29.97165,24.79047 C29.9815212,24.7336777 29.9862603,24.6761121 29.98581,24.61847 C29.9862417,24.5621457 29.9816671,24.5058944 29.97214,24.45038 C29.9564741,24.3599358 29.9281176,24.2721562 29.88791,24.18964 C29.87998,24.17377 29.88083,24.15625 29.87204,24.14064 C29.86642,24.13081 29.85666,24.12564 29.8508,24.11604 C29.7917954,24.015812 29.7152432,23.9270148 29.6248,23.85389 C29.61662,23.84736 29.6098,23.8401 29.60148,23.83389 C29.5666566,23.7987869 29.5291057,23.7664991 29.48918,23.73733 L24,20.65405 L24,12.63965 C23.994432,12.5973777 23.9859891,12.555534 23.97473,12.51441 C23.9681625,12.4479504 23.9549532,12.382316 23.9353,12.31849 C23.9198271,12.2732364 23.9009325,12.2292259 23.87878,12.18684 C23.8405102,12.1103404 23.7925052,12.0391127 23.73596,11.97493 C23.72265,11.96022 23.71472,11.94173 23.70068,11.92787 L23.69726,11.92287 L23.69213,11.91945 C23.6266496,11.8543463 23.5524561,11.7986389 23.47167,11.75392 L2.96289,0.47852 C2.34343609,0.138303951 1.59042038,0.150260032 0.982079624,0.509970511 C0.373738871,0.869680991 0.000396020404,1.52373812 0,2.23047 L0,34 C0.000103574411,34.3611273 0.194975593,34.6941227 0.50977,34.87109 Z M2,8.70935 L16,16.58435 L16,24.62988 C16,24.64648 16.00854,24.66003 16.0094,24.67639 C16.0225654,24.7718799 16.0417266,24.8664468 16.06677,24.95953 C16.0824374,25.0018853 16.1011531,25.0430497 16.12277,25.0827 C16.12546,25.08783 16.12497,25.09356 16.1279,25.09863 C16.13522,25.11175 16.14645,25.12091 16.15439,25.13363 C16.2077419,25.2376747 16.2864089,25.3266274 16.38315,25.3923 C16.4223469,25.4325559 16.4650339,25.4692595 16.51071,25.50198 L22,28.58521 L22,34.29145 L17.48926,31.75782 C17.47315,31.74873 17.45484,31.74946 17.43836,31.74134 C17.3140821,31.6931457 17.1847022,31.6593161 17.05274,31.64051 C17.03431,31.63951 17.0188,31.62989 17.00001,31.62989 C16.9579879,31.6354332 16.9163894,31.6438157 16.8755,31.65498 C16.8063678,31.6613855 16.7381135,31.6751295 16.67189,31.69598 C16.4835416,31.7576144 16.3211521,31.8803488 16.21046,32.04473 C16.1807973,32.0747727 16.1532261,32.1068109 16.12794,32.14062 C16.11878,32.15686 16.11964,32.17504 16.11146,32.19162 C16.0846301,32.2525372 16.0640967,32.3160372 16.05018,32.38113 C16.0303846,32.4450112 16.0171332,32.5107389 16.01063,32.5773 C16.00963,32.59573 16.00001,32.61124 16.00001,32.62991 L16.00001,41.29 L2,33.415 L2,8.70935 Z M23,26.85315 L19.02368,24.61963 L23,22.38611 L26.97632,24.61963 L23,26.85315 Z M22,19 L22,20.65405 L18,22.90082 L18,16.58429 L22,14.33386 L22,19 Z M18,34.33844 L22,36.58521 L22,39.04462 L18,41.291 L18,34.33844 Z M24,28.58521 L28,26.33844 L28,32.04462 L24,34.291 L24,28.58521 Z M2,2.23047 L20.93262,12.63965 L17,14.85254 L2,6.415 L2,2.23047 Z"/><path d="M59.00977,10.92383 C58.39766,10.5609689 57.6379644,10.5542584 57.01954,10.90625 L33.50977,24.12793 C33.4303207,24.1726591 33.3573754,24.2280645 33.29297,24.2926 L33.29197,24.29376 C33.2134921,24.3758288 33.1495769,24.4706736 33.10297,24.57422 C33.08966,24.60222 33.07941,24.63001 33.06867,24.6593 C33.0313533,24.7584192 33.0102888,24.8629144 33.00629,24.96875 C33.00586,24.97974 33,24.98889 33,25 L33,33 C33.000044,33.3787699 33.2140004,33.7250339 33.55273,33.89453 L39,36.61816 L39,39.38183 L33.55273,42.10546 C33.5193492,42.1282114 33.4874636,42.1530825 33.45727,42.17992 C33.4116283,42.2060804 33.3682272,42.2359688 33.32751,42.26928 C33.30737,42.28777 33.28906,42.30578 33.27051,42.3258 C33.2201762,42.4047285 33.1650739,42.4805126 33.10551,42.55273 C33.10063,42.56237 33.10185,42.57287 33.09745,42.58258 C33.0872,42.60449 33.07938,42.62616 33.07084,42.64886 C33.0453192,42.7550618 33.0237377,42.8621718 33.00614,42.96997 C33.00577,42.98053 33.00004,42.98932 33.00004,42.99997 L33.00004,51.99997 C33.000084,52.3787399 33.2140404,52.7250039 33.55277,52.8945 L39.55277,55.8945 C39.5662,55.90115 39.58158,55.8985 39.59513,55.9045 C39.7214941,55.9641514 39.8589879,55.9965692 39.99869,55.99965 L40,56 L40.00049,55.99994 L40.001,56 C40.0860482,55.9991929 40.1706418,55.9874807 40.25271,55.96515 C40.2803,55.95801 40.30571,55.94515 40.33254,55.93555 C40.3757165,55.9228399 40.4179693,55.9071797 40.459,55.88868 L59.459,46.07911 C59.4973927,46.0526889 59.5337878,46.0234766 59.56789,45.99171 C59.6278597,45.9534276 59.6834839,45.908731 59.73378,45.85841 C59.7731478,45.8106489 59.8078151,45.7592005 59.8373,45.70478 C59.8741828,45.6512163 59.9054732,45.5940102 59.93068,45.53406 C59.9515299,45.4680037 59.9652743,45.3999119 59.97168,45.33094 C59.9847034,45.2848974 59.9941712,45.2379226 60,45.19043 L60,12.64943 C60.003868,11.9381119 59.6258608,11.2793868 59.00977,10.92383 L59.00977,10.92383 Z M45,41.38147 L41,39.38178 L41,36.60478 L45,34.50456 L45,41.38147 Z M40,41.11816 L43.66187,42.94873 L39.98926,44.87646 L36.23633,43 L40,41.11816 Z M41,46.60473 L46.35742,43.79687 L46.49707,43.71679 C46.5289331,43.6923557 46.559189,43.6658942 46.58765,43.63757 C46.6456689,43.5969258 46.6991199,43.5501234 46.74707,43.49798 C46.8785405,43.3522907 46.958712,43.1675736 46.97534,42.97204 C46.9862732,42.9318237 46.9945115,42.8909229 47,42.84961 L47,32.84961 C47,32.83588 46.99268,32.82446 46.99219,32.81085 C46.9716838,32.6794551 46.9398997,32.5500704 46.89719,32.42413 C46.89119,32.41137 46.89231,32.3974 46.88572,32.38476 C46.8593766,32.3471354 46.8303299,32.3114778 46.79881,32.27807 C46.7601872,32.2186001 46.7152605,32.163471 46.66481,32.11364 C46.5632298,32.0380073 46.4544718,31.9725268 46.3401,31.91814 C46.2748843,31.8976953 46.207703,31.8841511 46.13966,31.87773 C46.093885,31.8648374 46.0471976,31.855437 46,31.84961 C45.9856,31.84961 45.97375,31.85718 45.95947,31.85779 C45.8287047,31.8784734 45.6999155,31.9101422 45.57447,31.95246 C45.56177,31.95846 45.54786,31.95728 45.53516,31.96387 L41,34.34521 L41,28.60468 L58,19.69318 L58,44.58105 L41,53.35805 L41,46.60473 Z M58,12.64453 L58,17.43553 L39.98926,26.877 L36.13184,24.94829 L58,12.64453 Z M35,32.38184 L35,26.61816 L39,28.61816 L39,34.38147 L35,32.38184 Z M35,51.38184 L35,44.61816 L39,46.61816 L39,53.38183 L35,51.38184 Z"/></g></g><text x="0" y="71" fill="#000000" font-size="5px" font-weight="bold" font-family="'Helvetica Neue', Helvetica, Arial-Unicode, Arial, Sans-serif"></text><text x="0" y="76" fill="#000000" font-size="5px" font-weight="bold" font-family="'Helvetica Neue', Helvetica, Arial-Unicode, Arial, Sans-serif"></text></svg>
