<svg xmlns="http://www.w3.org/2000/svg" xmlns:xlink="http://www.w3.org/1999/xlink" version="1.1" x="0px" y="0px" viewBox="0 0 100 125" enable-background="new 0 0 100 100" xml:space="preserve"><path d="M81.092,54.369h-2.771l1.095,2.566h2.917l0.462,0.958h0.958l-0.462-0.958h3.114c0.701,0,1.283-0.573,1.283-1.283  s-0.582-1.283-1.283-1.283H82.05l-0.12-0.248h-0.958L81.092,54.369z"/><polygon points="94.239,81.56 95,81.158 84.992,60.459 84.034,60.459 "/><polygon points="73.779,45.918 71.478,45.918 72.427,48.484 74.874,48.484 74.985,48.732 75.917,48.732 75.806,48.484   78.244,48.484 77.003,45.918 74.711,45.918 74.6,45.661 73.668,45.661 "/><polygon points="76.182,51.554 73.556,51.554 74.506,54.12 77.277,54.12 77.388,54.369 78.321,54.369 78.218,54.12 80.972,54.12   79.732,51.554 77.123,51.554 77.012,51.298 76.071,51.298 "/><polygon points="69.519,43.095 67.347,43.095 68.151,45.661 70.469,45.661 70.563,45.918 71.478,45.918 71.384,45.661   73.668,45.661 72.573,43.095 70.434,43.095 70.34,42.847 69.425,42.847 "/><polygon points="71.598,48.732 69.109,48.732 69.913,51.298 72.547,51.298 72.641,51.554 73.556,51.554 73.462,51.298   76.071,51.298 74.985,48.732 72.513,48.732 72.427,48.484 71.512,48.484 "/><polygon points="83.727,81.517 84.522,81.201 76.849,60.459 75.934,60.459 "/><path d="M83.23,35.1V20.43c0-1.1-0.89-1.99-1.99-1.99H19.11c-1.09,0-1.99,0.89-1.99,1.99V35.1h0.35v13.94  c-0.13,0.11-0.24,0.24-0.32,0.4h-0.03v0.06c-0.07,0.16-0.11,0.33-0.11,0.52c0,0.7,0.58,1.28,1.28,1.28h1.15l1.24-2.57h-1.8V35.1  h1.48v10.82c-0.71,0-1.28,0.57-1.28,1.28c0,0.7,0.57,1.28,1.28,1.28h0.44l-0.12,0.25h0.96l0.12-0.25h2.43l1.1-2.56H23l0.12-0.26  h-0.59c-0.12,0-0.23-0.02-0.35-0.05l-0.14,0.31h-0.27v-0.51c0.12,0.09,0.26,0.16,0.41,0.2l1.22-2.51h0.96l-1.24,2.56h2.28  l-0.11,0.26h0.93l0.11-0.26h2.29l0.95-2.56h-2.14l0.1-0.25H26.6l-0.11,0.25h-1.83v-0.46c0.2,0.13,0.43,0.21,0.68,0.21h1.26  l1.09-2.57h-0.14V35.1h1.48v5.18h-0.41l-1.09,2.57h2.13l-0.09,0.25h0.91l0.09-0.25h2.16l0.8-2.57h-0.21V35.1h1.48v5.18h-0.38  l-0.79,2.57h2.16l-0.06,0.25h0.88l0.06-0.25h2.18l0.52-2.57h-0.28V35.1h1.48v5.18h-0.33l-0.51,2.57h2.2l-0.04,0.25h0.87l0.03-0.25  h2.19l0.22-2.57h-0.33V35.1h1.48v5.18h-0.29l-0.22,2.57h2.2l-0.01,0.25h0.86l0.01-0.25h2.2l-0.07-2.57h-0.38V35.1h1.48v5.18h-0.24  l0.07,2.57h2.2l0.01,0.25h0.87l-0.02-0.25h2.19l-0.37-2.57h-0.42V35.1h1.48v5.18h-0.18l0.35,2.57h2.2l0.05,0.25h0.88l-0.05-0.25  h2.18l-0.66-2.57H62.2V35.1h1.48v5.18h-0.12l0.65,2.57h2.16l0.08,0.25h0.9l-0.08-0.25h2.16l-0.95-2.57h-0.51V35.1h1.48v5.18h-0.06  l0.95,2.57h2.13l0.1,0.25h0.94l-0.11-0.25h1.14c0.26,0,0.48-0.07,0.68-0.2v0.45h-1.71l1.09,2.56h2.28L77,45.92h0.97l-0.16-0.34  c0.11-0.05,0.21-0.1,0.3-0.16v0.5h1.41V35.1H81v13.63h-1.67l-0.12-0.25h-0.97l0.13,0.25h-2.45l1.09,2.57h2.6l0.12,0.25h0.96  l-0.12-0.25h1.02c0.71,0,1.28-0.58,1.28-1.28c0-0.4-0.18-0.75-0.46-0.98V35.1H83.23z M23.25,43.1h-0.72c-0.29,0-0.55,0.09-0.76,0.25  V35.1h1.48V43.1z M26.14,40.28h-0.8c-0.26,0-0.49,0.07-0.68,0.21c-0.07,0.04-0.13,0.09-0.19,0.14c0.06-0.06,0.12-0.11,0.19-0.15  V35.1h1.48V40.28z M31.91,40.28h-1.48V35.1h1.48V40.28z M37.68,40.28h-1.47V35.1h1.47V40.28z M43.46,40.28h-1.48V35.1h1.48V40.28z   M49.24,40.28h-1.48V35.1h1.48V40.28z M55.01,40.28h-1.47V35.1h1.47V40.28z M60.79,40.28h-1.48V35.1h1.48V40.28z M65.08,40.28V35.1  h1.48v5.18H65.08z M72.33,40.28h-1.47V35.1h1.47V40.28z M75.82,41.61c-0.01,0.09-0.02,0.18-0.04,0.27c0,0.02-0.01,0.04-0.02,0.07  c-0.03,0.07-0.05,0.15-0.09,0.22c-0.01,0.02-0.03,0.04-0.04,0.06c-0.04,0.06-0.08,0.11-0.12,0.16c-0.04,0.04-0.07,0.08-0.11,0.11  c-0.01,0.01-0.02,0.02-0.03,0.03l-1.1-2.25h-0.53V35.1h1.48v5.38c0.07,0.04,0.13,0.1,0.19,0.16l0.4,0.81c0,0.03,0.01,0.06,0.01,0.08  V41.61z M78.11,43.34c-0.21-0.15-0.47-0.24-0.75-0.24h-0.73v-8h1.48V43.34z M17.83,34.4V20.43c0-0.71,0.57-1.29,1.28-1.29h62.13  c0.71,0,1.29,0.58,1.29,1.29V34.4H17.83z"/><polygon points="67.329,45.918 64.994,45.918 65.653,48.484 68.133,48.484 68.21,48.732 69.109,48.732 69.032,48.484 71.512,48.484   70.563,45.918 68.228,45.918 68.151,45.661 67.252,45.661 "/><polygon points="73.206,81.475 74.035,81.244 68.715,60.459 67.834,60.459 "/><polygon points="62.702,81.423 63.549,81.295 60.581,60.459 59.717,60.459 "/><polygon points="52.198,81.372 53.054,81.346 52.463,60.459 51.608,60.459 "/><polygon points="41.703,81.321 42.55,81.398 44.338,60.459 43.482,60.459 "/><polygon points="31.208,81.269 32.046,81.449 36.22,60.459 35.348,60.459 "/><polygon points="35.228,48.484 37.734,48.484 38.247,45.918 35.887,45.918 35.955,45.661 35.074,45.661 35.006,45.918   32.671,45.918 31.867,48.484 34.347,48.484 34.287,48.732 35.168,48.732 "/><polygon points="20.721,81.227 21.534,81.5 28.12,60.459 27.222,60.459 "/><polygon points="32.748,45.661 35.074,45.661 35.733,43.095 33.552,43.095 33.629,42.847 32.73,42.847 32.653,43.095 30.481,43.095   29.531,45.661 31.849,45.661 31.772,45.918 32.671,45.918 "/><polygon points="10.235,81.184 11.022,81.543 20.02,60.459 19.079,60.459 "/><polygon points="23.929,51.298 26.538,51.298 27.487,48.732 25.015,48.732 25.126,48.484 24.194,48.484 24.083,48.732   21.637,48.732 20.396,51.298 22.988,51.298 22.877,51.554 23.818,51.554 "/><path d="M19.028,54.12h2.754l1.095-2.566h-2.609l0.128-0.257h-0.958l-0.128,0.257h-3.55c-0.71,0-1.283,0.573-1.283,1.283  c0,0.701,0.573,1.283,1.283,1.283h2.31l-0.12,0.248h0.958L19.028,54.12z"/><polygon points="36.614,43.095 35.955,45.661 38.299,45.661 38.247,45.918 39.12,45.918 39.171,45.661 41.523,45.661 41.891,43.095   39.676,43.095 39.727,42.847 38.855,42.847 38.803,43.095 "/><polygon points="42.755,43.095 42.387,45.661 44.74,45.661 44.714,45.918 45.578,45.918 45.603,45.661 47.964,45.661 48.033,43.095   45.826,43.095 45.843,42.847 44.979,42.847 44.962,43.095 "/><polygon points="48.888,43.095 48.82,45.661 51.18,45.661 51.189,45.918 52.044,45.918 52.036,45.661 54.397,45.661 54.174,43.095   51.967,43.095 51.959,42.847 51.103,42.847 51.112,43.095 "/><polygon points="55.038,43.095 55.26,45.661 57.613,45.661 57.647,45.918 58.511,45.918 58.477,45.661 60.829,45.661 60.324,43.095   58.109,43.095 58.075,42.847 57.211,42.847 57.245,43.095 "/><polygon points="61.197,43.095 61.701,45.661 64.045,45.661 64.113,45.918 64.994,45.918 64.926,45.661 67.252,45.661   66.448,43.095 64.267,43.095 64.207,42.847 63.326,42.847 63.386,43.095 "/><polygon points="27.573,48.484 27.487,48.732 28.402,48.732 28.488,48.484 30.968,48.484 31.772,45.918 29.437,45.918   29.531,45.661 28.616,45.661 28.522,45.918 26.221,45.918 25.126,48.484 "/><polygon points="41.121,48.484 41.087,48.732 41.951,48.732 41.985,48.484 44.5,48.484 44.714,45.918 42.353,45.918 42.387,45.661   41.523,45.661 41.489,45.918 39.12,45.918 38.607,48.484 "/><polygon points="47.879,48.484 47.87,48.732 48.726,48.732 48.734,48.484 51.266,48.484 51.189,45.918 48.811,45.918 48.82,45.661   47.964,45.661 47.956,45.918 45.578,45.918 45.364,48.484 "/><polygon points="54.636,48.484 54.662,48.732 55.526,48.732 55.5,48.484 58.015,48.484 57.647,45.918 55.286,45.918 55.26,45.661   54.397,45.661 54.422,45.918 52.044,45.918 52.121,48.484 "/><polygon points="61.393,48.484 61.445,48.732 62.317,48.732 62.266,48.484 64.772,48.484 64.113,45.918 61.753,45.918   61.701,45.661 60.829,45.661 60.88,45.918 58.511,45.918 58.879,48.484 "/><path d="M80.8,47.2c0,0.7-0.57,1.28-1.28,1.28h-0.31l-1.24-2.56h1.55C80.23,45.92,80.8,46.49,80.8,47.2z"/><polygon points="30.087,51.298 30.002,51.554 30.9,51.554 30.986,51.298 33.629,51.298 34.287,48.732 31.79,48.732 31.867,48.484   30.968,48.484 30.891,48.732 28.402,48.732 27.453,51.298 "/><polygon points="38.555,48.732 38.607,48.484 37.734,48.484 37.683,48.732 35.168,48.732 34.51,51.298 37.17,51.298 37.118,51.554   37.991,51.554 38.042,51.298 40.719,51.298 41.087,48.732 "/><polygon points="45.338,48.732 45.364,48.484 44.5,48.484 44.474,48.732 41.951,48.732 41.583,51.298 44.261,51.298 44.235,51.554   45.099,51.554 45.125,51.298 47.802,51.298 47.87,48.732 "/><polygon points="52.13,48.732 52.121,48.484 51.266,48.484 51.274,48.732 48.726,48.732 48.657,51.298 51.343,51.298 51.351,51.554   52.207,51.554 52.198,51.298 54.875,51.298 54.662,48.732 "/><polygon points="58.913,48.732 58.879,48.484 58.015,48.484 58.049,48.732 55.526,48.732 55.739,51.298 58.417,51.298   58.451,51.554 59.315,51.554 59.281,51.298 61.958,51.298 61.445,48.732 "/><polygon points="65.713,48.732 65.653,48.484 64.772,48.484 64.832,48.732 62.317,48.732 62.83,51.298 65.49,51.298 65.55,51.554   66.44,51.554 66.371,51.298 69.014,51.298 68.21,48.732 "/><polygon points="27.359,51.554 27.453,51.298 26.538,51.298 26.444,51.554 23.818,51.554 22.723,54.12 25.494,54.12 25.4,54.369   26.315,54.369 26.409,54.12 29.206,54.12 30.002,51.554 "/><polygon points="34.45,51.554 34.51,51.298 33.629,51.298 33.56,51.554 30.9,51.554 30.105,54.12 32.91,54.12 32.842,54.369   33.723,54.369 33.791,54.12 36.614,54.12 37.118,51.554 "/><polygon points="41.549,51.554 41.583,51.298 40.719,51.298 40.685,51.554 37.991,51.554 37.486,54.12 40.317,54.12 40.283,54.369   41.147,54.369 41.181,54.12 44.021,54.12 44.235,51.554 "/><polygon points="48.649,51.554 48.657,51.298 47.802,51.298 47.793,51.554 45.099,51.554 44.876,54.12 47.725,54.12 47.716,54.369   48.572,54.369 48.58,54.12 51.42,54.12 51.351,51.554 "/><polygon points="55.765,51.554 55.739,51.298 54.875,51.298 54.901,51.554 52.207,51.554 52.275,54.12 55.124,54.12 55.141,54.369   56.005,54.369 55.979,54.12 58.819,54.12 58.451,51.554 "/><polygon points="62.882,51.554 62.83,51.298 61.958,51.298 62.009,51.554 59.315,51.554 59.683,54.12 62.514,54.12 62.565,54.369   63.438,54.369 63.386,54.12 66.209,54.12 65.55,51.554 "/><polygon points="69.998,51.554 69.913,51.298 69.014,51.298 69.1,51.554 66.44,51.554 67.09,54.12 69.895,54.12 69.972,54.369   70.871,54.369 70.794,54.12 73.591,54.12 72.641,51.554 "/><path d="M84.12,54.12c0.71,0,1.283-0.582,1.283-1.283c0-0.71-0.573-1.283-1.283-1.283h-3.43l1.24,2.566H84.12z"/><path d="M13.485,54.369c-0.71,0-1.283,0.573-1.283,1.283s0.573,1.283,1.283,1.283h3.225l1.24-2.566H13.485z"/><polygon points="22.612,54.369 22.723,54.12 21.782,54.12 21.679,54.369 18.908,54.369 17.668,56.935 20.584,56.935 20.174,57.893   21.115,57.893 21.517,56.935 24.451,56.935 25.4,54.369 "/><polygon points="30.028,54.369 30.105,54.12 29.206,54.12 29.129,54.369 26.315,54.369 25.366,56.935 28.325,56.935 28.026,57.893   28.924,57.893 29.224,56.935 32.183,56.935 32.842,54.369 "/><polygon points="37.435,54.369 37.486,54.12 36.614,54.12 36.562,54.369 33.723,54.369 33.073,56.935 36.049,56.935 35.861,57.893   36.734,57.893 36.922,56.935 39.915,56.935 40.283,54.369 "/><polygon points="44.859,54.369 44.876,54.12 44.021,54.12 43.995,54.369 41.147,54.369 40.788,56.935 43.782,56.935 43.696,57.893   44.56,57.893 44.637,56.935 47.639,56.935 47.716,54.369 "/><polygon points="52.284,54.369 52.275,54.12 51.42,54.12 51.428,54.369 48.572,54.369 48.495,56.935 51.505,56.935 51.531,57.893   52.386,57.893 52.361,56.935 55.363,56.935 55.141,54.369 "/><polygon points="59.717,54.369 59.683,54.12 58.819,54.12 58.853,54.369 56.005,54.369 56.218,56.935 59.212,56.935 59.349,57.893   60.213,57.893 60.085,56.935 63.078,56.935 62.565,54.369 "/><polygon points="67.158,54.369 67.09,54.12 66.209,54.12 66.277,54.369 63.438,54.369 63.951,56.935 66.927,56.935 67.175,57.893   68.056,57.893 67.817,56.935 70.776,56.935 69.972,54.369 "/><polygon points="74.6,54.369 74.506,54.12 73.591,54.12 73.685,54.369 70.871,54.369 71.675,56.935 74.634,56.935 74.993,57.893   75.9,57.893 75.549,56.935 78.483,56.935 77.388,54.369 "/><path d="M17.206,57.893l0.462-0.958H16.71l-0.462,0.958h-4.884c-0.701,0-1.283,0.573-1.283,1.283s0.582,1.283,1.283,1.283h3.644  L5,81.158l0.761,0.402l10.204-21.102h3.113l1.095-2.566H17.206z"/><polygon points="25.007,57.893 25.366,56.935 24.451,56.935 24.1,57.893 21.115,57.893 20.02,60.459 23.151,60.459 15.478,81.201   16.273,81.517 24.066,60.459 27.222,60.459 28.026,57.893 "/><polygon points="32.825,57.893 33.073,56.935 32.183,56.935 31.944,57.893 28.924,57.893 28.12,60.459 31.285,60.459 25.965,81.244   26.794,81.475 32.166,60.459 35.348,60.459 35.861,57.893 "/><polygon points="40.651,57.893 40.788,56.935 39.915,56.935 39.787,57.893 36.734,57.893 36.22,60.459 39.419,60.459 36.451,81.295   37.298,81.423 40.283,60.459 43.482,60.459 43.696,57.893 "/><polygon points="48.469,57.893 48.495,56.935 47.639,56.935 47.614,57.893 44.56,57.893 44.338,60.459 47.537,60.459 46.946,81.346   47.802,81.372 48.392,60.459 51.608,60.459 51.531,57.893 "/><polygon points="56.304,57.893 56.218,56.935 55.363,56.935 55.44,57.893 52.386,57.893 52.463,60.459 55.662,60.459 57.45,81.398   58.297,81.321 56.518,60.459 59.717,60.459 59.349,57.893 "/><polygon points="64.139,57.893 63.951,56.935 63.078,56.935 63.266,57.893 60.213,57.893 60.581,60.459 63.78,60.459 67.954,81.449   68.792,81.269 64.652,60.459 67.834,60.459 67.175,57.893 "/><polygon points="71.974,57.893 71.675,56.935 70.776,56.935 71.076,57.893 68.056,57.893 68.715,60.459 71.88,60.459 78.466,81.5   79.279,81.227 72.778,60.459 75.934,60.459 74.993,57.893 "/><polygon points="82.794,57.893 79.826,57.893 79.416,56.935 78.483,56.935 78.885,57.893 75.9,57.893 76.849,60.459 79.98,60.459   88.978,81.543 89.765,81.184 80.921,60.459 84.034,60.459 "/><path d="M88.516,60.459c0.71,0,1.283-0.573,1.283-1.283s-0.573-1.283-1.283-1.283h-4.764l1.24,2.566H88.516z"/><text x="0" y="115" fill="#000000" font-size="5px" font-weight="bold" font-family="'Helvetica Neue', Helvetica, Arial-Unicode, Arial, Sans-serif">Created by Claire Jones</text><text x="0" y="120" fill="#000000" font-size="5px" font-weight="bold" font-family="'Helvetica Neue', Helvetica, Arial-Unicode, Arial, Sans-serif">from the Noun Project</text></svg>