<svg xmlns="http://www.w3.org/2000/svg" xmlns:xlink="http://www.w3.org/1999/xlink" version="1.1" x="0px" y="0px" viewBox="0 0 398.293 296.47875" style="enable-background:new 0 0 398.293 237.183;" xml:space="preserve"><g><path d="M105.926,47.549c-0.424-1.404-0.656-2.89-0.656-4.43c0-8.49,6.904-15.395,15.393-15.395   c8.488,0,15.393,6.904,15.393,15.395c0,8.488-6.904,15.394-15.393,15.394c-0.932,0-1.84-0.097-2.727-0.257   c0.293,0.413,0.592,0.82,0.873,1.249c1.598,2.438,3.033,5.14,4.318,8.099v-5.66c2.25-0.292,4.377-0.971,6.309-1.979l7.402,27.653   h3.969l-8-29.888c4.187-3.485,6.857-8.735,6.857-14.61c0-10.495-8.508-19.002-19.002-19.002c-10.496,0-19.002,8.507-19.002,19.002   c0,0.942,0.092,1.861,0.223,2.768c1.248,0.398,2.563,0.91,3.938,1.604C105.855,47.509,105.891,47.53,105.926,47.549z"/><path d="M120.662,54.904c6.498,0,11.785-5.286,11.785-11.786c0-6.498-5.287-11.785-11.785-11.785   c-6.498,0-11.785,5.287-11.785,11.785C108.877,49.618,114.164,54.904,120.662,54.904z M120.662,34.94c4.51,0,8.18,3.668,8.18,8.177   c0,4.511-3.67,8.18-8.18,8.18c-4.508,0-8.178-3.669-8.178-8.18C112.484,38.608,116.154,34.94,120.662,34.94z"/><circle cx="120.662" cy="43.119" r="4.57"/><path d="M371.664,43.119c0-10.495-8.508-19.002-19.002-19.002c-10.496,0-19.002,8.507-19.002,19.002   c0,6.573,3.338,12.365,8.41,15.776l-7.69,28.722h3.969l7.197-26.886c1.916,0.774,3.986,1.232,6.152,1.341v25.545h3.428V61.943   c2.25-0.292,4.377-0.971,6.309-1.979l7.402,27.653h3.969l-8-29.888C368.994,54.244,371.664,48.994,371.664,43.119z M352.662,58.513   c-8.488,0-15.393-6.905-15.393-15.394c0-8.49,6.904-15.395,15.393-15.395c8.488,0,15.393,6.904,15.393,15.395   C368.055,51.607,361.15,58.513,352.662,58.513z"/><path d="M364.447,43.118c0-6.498-5.287-11.785-11.785-11.785c-6.498,0-11.785,5.287-11.785,11.785   c0,6.5,5.287,11.786,11.785,11.786C359.16,54.904,364.447,49.618,364.447,43.118z M352.662,51.297c-4.508,0-8.178-3.669-8.178-8.18   c0-4.509,3.67-8.177,8.178-8.177c4.51,0,8.18,3.668,8.18,8.177C360.842,47.628,357.172,51.297,352.662,51.297z"/><circle cx="352.662" cy="43.119" r="4.57"/><path d="M284.221,71.58h-2.402l91.676,62.053H130.916c-0.063,1.442-0.137,2.904-0.217,4.375h267.594v-4.375h-18.412L284.221,71.58z   "/><path d="M192.646,71.58h-2.402l-59.203,38.403c0.041,1.059,0.068,2.145,0.096,3.229L192.646,71.58z"/><path d="M70.189,169.27l-0.943,0.14l-0.701-0.649c-0.254-0.23-6.186-5.711-10.172-9.951c-0.289-0.307-0.654-0.625-1.107-0.961   l-9.082,9.848v0.186l3.768,3.474l1.471,1.354l-1.357,1.471l-3.221,3.492l-0.66,0.718v46.43c0,6.83,5.537,12.363,12.363,12.363   c6.828,0,12.365-5.533,12.365-12.363V168.87L70.189,169.27z"/><path d="M51.451,154.567c-0.539-0.267-1.096-0.536-1.664-0.814c-0.527-0.257-1.064-0.519-1.604-0.784v5.143L51.451,154.567z"/><path d="M48.184,126.819v12.985c8.426,5.675,19.934,10.948,24.729,13.051v-18.308h4.635v19.509   c7.453,1.236,15.6,1.658,24.729,1.307v-17.407l-54.092-49.89v19.813V126.819z"/><path d="M93.609,163.469l-2.037,2.213l-0.48,0.52l-0.701,0.104l-12.844,1.885v56.629c0,6.83,5.537,12.363,12.363,12.363   c6.828,0,12.365-5.533,12.365-12.363v-61.447C99.246,163.481,96.385,163.517,93.609,163.469z"/><circle cx="75.229" cy="22.5" r="22.5"/><path d="M6.578,44.253c-1.742-3.429-3.055-5.841-3.061-5.854L0,40.312l0.002-0.001c0.006,0.01,2.559,4.702,5.254,10.279   c2.693,5.531,5.527,12.123,5.978,15.139c0.24,1.382,0.213,5.455,0.402,10.775c0.121,3.162,0.33,6.827,0.75,10.819l-2.654,2.878   l-1.326,20.373c0,0,6.09,5.616,10.631,9.241c1.416,1.129,2.785,3.062,4.24,5.408c-0.035-1.864-0.059-3.703-0.059-5.49   c0-2.677,0.045-5.263,0.121-7.779c-1.615-2.837-2.807-5.065-3.363-6.126c-1.035-3.563-1.834-7.09-2.438-10.492   c-1.266-7.139-1.711-13.724-1.902-18.98c-0.205-5.297-0.121-9.09-0.451-11.26c-0.672-3.994-3.449-10.221-6.133-15.84l23.396,21.579   c-0.119,0.285-0.238,0.562-0.354,0.854c-0.146,0.37-0.287,0.76-0.432,1.143c-2.225,5.949-4.018,13.361-5.143,22.747   c-0.828,6.915-1.299,14.885-1.305,24.154c0.002,5.859,0.19,12.228,0.596,19.161c0.25,4.252,3.775,7.532,7.98,7.533   c0.156,0,0.316-0.005,0.475-0.015c4.41-0.261,7.775-4.046,7.518-8.455c-0.391-6.651-0.568-12.709-0.568-18.225   c-0.01-6.975,0.277-13.063,0.773-18.376c0.061-0.664,0.127-1.315,0.195-1.955c0.736-6.903,1.832-12.404,3.076-16.748l85.705,79.048   c-5.816-2.225-12.248-4.487-16.283-4.834c-2.189-0.155-5.965,0.236-11.26,0.459c-7.766,0.348-18.445,0.365-29.713-1.943   c-3.584-1.53-20.275-8.841-29.943-16.291c-0.188,2.832-1.568,5.369-3.67,7.082c4.937,3.306,10.463,5.616,14.617,7.803   l-11.287,12.238l-9.004-8.306l-3.221,3.491l16.172,14.916l3.221-3.492l-5.33-4.915l11.687-12.673   c1.176,0.719,2.162,1.441,2.877,2.203c3.981,4.236,10.07,9.852,10.07,9.852l20.199-2.965l2.652-2.875   c4.01,0.096,7.682,0.01,10.848-0.129c5.316-0.242,9.375-0.596,10.771-0.468c3.041,0.21,9.842,2.499,15.572,4.738   c5.777,2.237,10.658,4.403,10.67,4.407l1.621-3.658c-0.014-0.006-2.523-1.118-6.08-2.577L45.91,80.529   c0.734-2.255,1.506-4.146,2.273-5.719v5.098l54.092,49.889v-2.978V107.88V74.863c0.592,1.215,1.189,2.609,1.777,4.234   c2.818,7.812,5.191,20.63,5.18,40.638c0.002,4.904-0.148,10.264-0.451,16.063l10.887,10.041c2.77-1.127,4.791-3.767,4.977-6.949   c0.402-6.934,0.588-13.3,0.59-19.155c-0.041-30.183-4.861-46.887-11.436-56.932c-3.285-4.986-7.129-8.184-10.678-9.954   c-3.422-1.726-6.428-2.114-8.23-2.134c-0.115-0.005-0.229-0.018-0.344-0.018H55.912c-0.105,0-0.205,0.012-0.309,0.016   c-1.799,0.016-4.828,0.396-8.274,2.135c-1.629,0.808-3.299,1.913-4.945,3.34c-2.906,2.518-5.74,6.063-8.182,10.826   c-0.311,0.606-0.613,1.232-0.91,1.879L6.578,44.253z"/><path d="M248.447,43.118c0-6.498-5.287-11.785-11.785-11.785c-6.498,0-11.785,5.287-11.785,11.785   c0,6.5,5.287,11.786,11.785,11.786C243.16,54.904,248.447,49.618,248.447,43.118z M228.484,43.117c0-4.509,3.67-8.177,8.178-8.177   c4.51,0,8.18,3.668,8.18,8.177c0,4.511-3.67,8.18-8.18,8.18C232.154,51.297,228.484,47.628,228.484,43.117z"/><circle cx="236.662" cy="43.119" r="4.57"/><path d="M239.127,87.617V61.943c2.25-0.292,4.377-0.971,6.309-1.979l7.402,27.653h3.969l-8-29.888   c4.187-3.485,6.857-8.735,6.857-14.61c0-10.495-8.508-19.002-19.002-19.002c-10.496,0-19.002,8.507-19.002,19.002   c0,6.573,3.338,12.365,8.41,15.776l-7.689,28.722h3.969l7.197-26.886c1.916,0.774,3.986,1.232,6.152,1.341v25.545H239.127z    M221.27,43.119c0-8.49,6.904-15.395,15.393-15.395c8.488,0,15.393,6.904,15.393,15.395c0,8.488-6.904,15.394-15.393,15.394   C228.174,58.513,221.27,51.607,221.27,43.119z"/><rect x="141.793" y="64.57" width="76" height="2.5"/><rect x="257.293" y="64.57" width="76" height="2.5"/></g><text x="0" y="252.183" fill="#000000" font-size="5px" font-weight="bold" font-family="'Helvetica Neue', Helvetica, Arial-Unicode, Arial, Sans-serif"></text><text x="0" y="257.183" fill="#000000" font-size="5px" font-weight="bold" font-family="'Helvetica Neue', Helvetica, Arial-Unicode, Arial, Sans-serif"></text></svg>
