<svg xmlns="http://www.w3.org/2000/svg" xmlns:xlink="http://www.w3.org/1999/xlink" xml:space="preserve" version="1.1" style="shape-rendering:geometricPrecision;text-rendering:geometricPrecision;image-rendering:optimizeQuality;" viewBox="0 0 247 382.5" x="0px" y="0px" fill-rule="evenodd" clip-rule="evenodd"><defs><style type="text/css">
   
    .fil0 {fill:black}
    .fil1 {fill:black}
   
  </style></defs><g><rect class="fil0" transform="matrix(1.30575 0.355251 -0.355251 1.30575 145.907 44.2813)" width="56.5819" height="26.0728"/><polygon class="fil0" points="221,71 247,78 240,102 214,95 "/><polygon class="fil0" points="13,0 69,15 55,64 0,49 "/></g><g><path class="fil1" d="M103 128l-70 177c-3,1 -6,1 -8,0l59 -177 19 0z"/><path class="fil1" d="M126 128l-5 177c-3,1 -6,1 -8,0l-6 -177 19 0z"/><path class="fil1" d="M149 128l59 177c-3,1 -6,1 -9,0l-68 -177 18 0z"/><path class="fil1" d="M124 110l19 0 5 14 -62 0 4 -14 19 0 0 -15 -1 0c-2,0 -4,-2 -4,-4l0 -17 -45 -12 12 -42 73 20 -11 42 -3 -1 0 10c0,2 -2,4 -4,4l-2 0 0 15zm-7 -30c-2,0 -4,2 -4,4 0,2 2,4 4,4 2,0 4,-2 4,-4 0,-2 -2,-4 -4,-4z"/></g><text x="0" y="321" fill="#000000" font-size="5px" font-weight="bold" font-family="'Helvetica Neue', Helvetica, Arial-Unicode, Arial, Sans-serif">Created by abdul karim</text><text x="0" y="326" fill="#000000" font-size="5px" font-weight="bold" font-family="'Helvetica Neue', Helvetica, Arial-Unicode, Arial, Sans-serif">from the Noun Project</text></svg>