<svg xmlns="http://www.w3.org/2000/svg" xmlns:xlink="http://www.w3.org/1999/xlink" version="1.1" x="0px" y="0px" viewBox="206 206 100 125" enable-background="new 206 206 100 100" xml:space="preserve"><g><path d="M232.783,256.397c-5.817,0-10.551,4.733-10.551,10.55c0,5.818,4.733,10.552,10.551,10.552   c5.818,0,10.551-4.733,10.551-10.552C243.334,261.13,238.601,256.397,232.783,256.397z M232.783,275.298   c-4.604,0-8.35-3.746-8.35-8.351c0-0.519,0.421-0.939,0.94-0.939s0.939,0.421,0.939,0.939c0,3.568,2.903,6.472,6.471,6.472   c0.519,0,0.94,0.421,0.94,0.939S233.302,275.298,232.783,275.298z"/><path d="M279.248,256.397c-5.817,0-10.551,4.733-10.551,10.55c0,5.818,4.733,10.552,10.551,10.552   c5.818,0,10.552-4.733,10.552-10.552C289.8,261.13,285.067,256.397,279.248,256.397z M279.248,275.298   c-4.604,0-8.35-3.746-8.35-8.351c0-0.519,0.42-0.939,0.939-0.939c0.519,0,0.939,0.421,0.939,0.939c0,3.568,2.903,6.472,6.471,6.472   c0.52,0,0.94,0.421,0.94,0.939S279.768,275.298,279.248,275.298z"/><path d="M255.902,258.623c-1.394,0-2.529,1.134-2.529,2.529c0,1.394,1.135,2.528,2.529,2.528c1.395,0,2.529-1.135,2.529-2.528   C258.431,259.757,257.296,258.623,255.902,258.623z"/><path d="M279.248,251.542c-8.494,0-15.404,6.911-15.404,15.405c0,8.495,6.91,15.405,15.404,15.405s15.405-6.91,15.406-15.405   C294.655,258.453,287.742,251.542,279.248,251.542z M279.248,279.378c-6.854,0-12.431-5.576-12.431-12.431   c0-6.854,5.576-12.43,12.431-12.43s12.431,5.576,12.431,12.43C291.679,273.802,286.103,279.378,279.248,279.378z"/><path d="M232.783,251.542c-8.494,0-15.405,6.911-15.405,15.405c0,8.495,6.911,15.405,15.405,15.405   c8.495,0,15.406-6.91,15.406-15.405C248.189,258.453,241.278,251.542,232.783,251.542z M232.783,279.378   c-6.854,0-12.43-5.576-12.43-12.431c0-6.854,5.576-12.43,12.43-12.43c6.854,0,12.431,5.576,12.43,12.43   C245.214,273.802,239.637,279.378,232.783,279.378z"/><path d="M297.304,260.911c-0.615-1.889-1.534-3.679-2.729-5.323c-0.028-0.039-0.055-0.081-0.077-0.124l-6.539-12.751   c-3.579-6.679-8.855-7.402-10.957-7.402c-0.35,0-0.551,0.023-0.553,0.023c-0.253,0.029-0.508-0.045-0.704-0.207   c-0.197-0.161-0.321-0.395-0.343-0.648c-0.03-0.349-0.854-8.598-9.47-8.598c-2.287,0-4.098,0.708-5.382,2.103   c-2.755,2.994-2.357,8.179-2.354,8.23c0.022,0.262-0.066,0.521-0.244,0.715c-0.179,0.193-0.43,0.303-0.692,0.303h-2.522   c-0.263,0-0.514-0.109-0.692-0.303c-0.178-0.194-0.267-0.453-0.245-0.715c0.004-0.051,0.391-5.256-2.358-8.236   c-1.284-1.393-3.093-2.098-5.376-2.098c-8.616,0-9.438,8.249-9.47,8.6c-0.022,0.253-0.146,0.488-0.344,0.649   c-0.198,0.16-0.453,0.234-0.706,0.204c0,0-0.202-0.023-0.549-0.023c-2.103,0-7.378,0.723-10.965,7.417l-6.533,12.736   c-0.022,0.043-0.047,0.085-0.076,0.124c-1.195,1.644-2.113,3.435-2.729,5.323c-0.004,0.013-0.008,0.025-0.013,0.037   c-0.626,1.93-0.943,3.925-0.943,5.932c0,10.609,8.631,19.241,19.241,19.241c10.015,0,18.435-7.826,19.169-17.815   c0.023-0.313,0.201-0.595,0.474-0.749s0.605-0.163,0.885-0.022c1.622,0.814,3.362,0.814,4.983,0c0.133-0.066,0.277-0.1,0.421-0.1   c0.161,0,0.321,0.041,0.465,0.122c0.272,0.154,0.449,0.436,0.473,0.749c0.734,9.989,9.154,17.815,19.169,17.815   c10.61,0,19.242-8.632,19.242-19.241c0-2.005-0.318-4.001-0.943-5.932C297.313,260.935,297.309,260.923,297.304,260.911z    M232.783,284.232c-9.53,0-17.284-7.754-17.284-17.285c0-9.53,7.754-17.284,17.284-17.284c9.531,0,17.285,7.753,17.285,17.284   C250.068,276.478,242.314,284.232,232.783,284.232z M255.902,265.559c-2.43,0-4.408-1.978-4.408-4.407   c0-2.432,1.978-4.409,4.408-4.409c2.432,0,4.409,1.978,4.409,4.409C260.311,263.582,258.333,265.559,255.902,265.559z    M279.248,284.232c-9.53,0-17.284-7.754-17.284-17.285c0-9.53,7.754-17.284,17.284-17.284c9.531,0,17.285,7.753,17.285,17.284   C296.533,276.478,288.78,284.232,279.248,284.232z"/></g><text x="206" y="321" fill="#000000" font-size="5px" font-weight="bold" font-family="'Helvetica Neue', Helvetica, Arial-Unicode, Arial, Sans-serif">Created by Iconika</text><text x="206" y="326" fill="#000000" font-size="5px" font-weight="bold" font-family="'Helvetica Neue', Helvetica, Arial-Unicode, Arial, Sans-serif">from the Noun Project</text></svg>