<svg xmlns="http://www.w3.org/2000/svg" xmlns:xlink="http://www.w3.org/1999/xlink" version="1.1" x="0px" y="0px" viewBox="0 0 183.677 322.955" style="enable-background:new 0 0 183.677 258.364;" xml:space="preserve"><g><path d="M12.411,169.589c-0.191,0.012-0.391,0.016-0.592,0.016c-0.589,0-1.163-0.059-1.726-0.157l0.008,4.039l0.063,33.877H8.166   l0.014-34.253l0.002-4.196c-0.342-0.134-0.676-0.284-0.998-0.454l-0.002,4.337l-0.014,34.566H5.333v-4.5   c0-1.473-1.193-2.667-2.666-2.667c-1.473,0-2.667,1.194-2.667,2.667v10.667c0,1.473,1.194,2.666,2.667,2.666   c1.473,0,2.666-1.193,2.666-2.666v-4.501h1.834l-0.001,1.166h0.998l0.001-1.166h2.002l0.007,3.566   c-1.221,0.381-2.112,1.506-2.112,2.851v39.25c0,1.657,1.344,3,3,3h1c1.657,0,3-1.343,3-3v-39.25c0-1.355-0.904-2.487-2.138-2.859   l-0.072-39.025l-0.008-4.02C12.699,169.558,12.557,169.58,12.411,169.589z"/><path d="M8.214,92.27l0.004-9.246l0.002-5.077h1.704l0.005,2.33l0.015,8.033c0.843-1.734,1.76-3.365,2.741-4.887l-0.013-6.747   L12.537,4.055c0.602,2.152,1.314,6.917,1.992,13.161c1.525,13.883,3.053,35.326,3.99,53.99c0.084,1.684,0.164,3.341,0.238,4.973   c0.318-0.286,0.639-0.567,0.964-0.834c-0.073-1.582-0.151-3.192-0.234-4.821c-0.481-9.459-1.108-19.592-1.811-29.08   c-0.782-10.569-1.653-20.332-2.511-27.461c-0.43-3.567-0.856-6.472-1.268-8.505c-0.207-1.019-0.408-1.816-0.617-2.389   c-0.213-0.456-0.289-0.866-0.747-1.056L12.53,0H9.78l0.005,2.468C8.961,2.869,8.37,3.459,7.998,4.105   c-0.68,1.157-0.762,2.411-0.764,3.047c0,0.257,0.016,0.414,0.016,0.428v2.617H3.999v2.5h3.249l-0.025,62.75H3.999v2.5h3.222   L7.219,84.83L7.215,94.996C7.535,94.067,7.866,93.154,8.214,92.27z M8.232,7.153C8.23,6.613,8.323,5.514,8.857,4.614   c0.229-0.373,0.526-0.719,0.93-1.001l0.012,6.585H8.248l0.001-2.667C8.245,7.478,8.232,7.368,8.232,7.153z M8.247,12.698h1.557   l0.116,62.75H8.221L8.247,12.698z"/><path d="M56.922,65.879c10.684-1.75,18.835-11.02,18.835-22.198c0-12.427-10.072-22.5-22.5-22.5c-12.426,0-22.5,10.073-22.5,22.5   c0,11.178,8.153,20.448,18.835,22.198c1.193,0.196,2.416,0.302,3.665,0.302S55.728,66.075,56.922,65.879z"/><path d="M171.792,127.826c-1.119-7.943-6.058-36.271-10.441-43.754c-4.259-7.27-0.352-16.201-9.017-15.872   c-0.097-1.614-0.212-3.32-0.349-5.03c-0.176-2.193-0.386-4.383-0.635-6.382c1.082-0.904,2.163-1.826,3.24-2.784   c3.299-2.94,3.59-7.995,0.652-11.294c-2.939-3.299-7.994-3.591-11.293-0.653c-31.203,27.88-65.582,29.757-70.826,29.849   c-0.184-0.013-0.364-0.027-0.551-0.027H33.938c-0.127,0-0.252,0.013-0.379,0.019c-1.806,0.024-4.797,0.416-8.201,2.132   c-5.378,2.668-11.178,8.502-15.234,18.841c-4.107,10.379-6.864,25.386-6.879,48.044c0,5.856,0.189,12.226,0.596,19.16   c0.248,4.249,3.773,7.531,7.978,7.531c0.158,0,0.316-0.004,0.477-0.014c4.411-0.259,7.776-4.044,7.517-8.454   c-0.391-6.651-0.568-12.708-0.566-18.223c-0.035-24.215,3.496-37.819,6.963-44.918V246c0,6.83,5.537,12.363,12.363,12.363   c6.828,0,12.365-5.533,12.365-12.363v-90.271h4.635V246c0,6.83,5.537,12.363,12.363,12.363c6.828,0,12.365-5.533,12.365-12.363   V106.881c3.331,0.557,7.019,0.934,10.919,0.935c0.04,0,0.081,0,0.12,0c18.397,0.001,41.432-8.571,52.921-45.483   c2.059-1.506,4.118-3.104,6.174-4.793c0.4,3.391,0.693,7.287,0.901,10.748c-9.466,1.281-7.255,28.656-6.934,31.428   c0,0-8.836,9.118-11.152,15.591c5.629-2.206,9.681,1.628,9.681,1.628s-0.753,14.415-0.093,21.293   c0.66,6.874-9.335,3.529-12.313,18.612c6.523-1.999,11.775-1.945,12.928-0.77l5.21,31.779c0,0,0.75,5.781,0.544,10.103   c-0.205,4.319-12.021,9.496-13.271,28.496c4.08-8.641,16.476-11.943,21.25-10.75c5.814,1.448,12.321,6.386,15,13   c1.271-21.283-11.654-25.074-11.25-30c1.197-14.636,5.415-33.385,7.324-35.982c1.905-2.602,7.627-11.257,15.416-5.314   C179.458,136.145,173.049,136.781,171.792,127.826z M91.221,106.815c-3.903,0-7.59-0.388-10.919-0.953V87.446   c12.411-1.279,37.267-6.085,62.563-24.105C131.299,98.86,109.103,106.778,91.221,106.815z M156.659,85.673   c0.014,1.365-1.085,2.484-2.45,2.497c-1.366,0.014-2.481-1.083-2.494-2.449c-0.011-1.364,1.082-2.482,2.449-2.494   C155.526,83.212,156.647,84.309,156.659,85.673z M162.184,96.945c0,0-4.748,6.875-13.914,1.8   C148.27,98.745,158.992,99.728,162.184,96.945z"/></g><text x="0" y="273.364" fill="#000000" font-size="5px" font-weight="bold" font-family="'Helvetica Neue', Helvetica, Arial-Unicode, Arial, Sans-serif"></text><text x="0" y="278.364" fill="#000000" font-size="5px" font-weight="bold" font-family="'Helvetica Neue', Helvetica, Arial-Unicode, Arial, Sans-serif"></text></svg>
