<svg xmlns="http://www.w3.org/2000/svg" xmlns:xlink="http://www.w3.org/1999/xlink" version="1.1" x="0px" y="0px" viewBox="0 0 100 125" enable-background="new 0 0 100 100" xml:space="preserve"><g><path d="M32.878,69.561c-0.579,0-1.05-0.471-1.05-1.051V29.644c0-0.58,0.471-1.05,1.05-1.05c0.58,0,1.051,0.47,1.051,1.05V68.51   C33.929,69.09,33.458,69.561,32.878,69.561z"/></g><path d="M33.648,30.276c0.282-0.465,0.486-0.948,0.527-1.25c1.132-0.165,2.443-0.507,3.744-1.063  c3.109-1.329,2.054-1.711,2.054-1.711s-2.249,0.085-1.492-1.283c0.757-1.368,0.167-3.089,0.902-3.597  c0.736-0.508,2.487-2.074,2.487-2.074c-0.859-1.285-3.243,0.279-3.243,0.279c1.792-1.389,1.025-1.803,1.025-1.803  s-0.641,0.755-0.9,1.093c0.046,0.024,0.081,0.068,0.087,0.124c0.009,0.089-0.055,0.168-0.145,0.177  c-5.209,0.537-8.017,3.547-8.044,3.577c-0.061,0.066-0.164,0.07-0.23,0.01c-0.006-0.005-0.01-0.01-0.015-0.016  c-0.05-0.06-0.05-0.152,0.006-0.212c0.028-0.031,2.912-3.131,8.25-3.68c0.014-0.001,0.026,0.002,0.038,0.003  c-0.106-0.467-1.078-1.742-1.136-2.603c-0.067-0.998-2.731-0.463-4.307-0.837c-1.576-0.373-2.789,2.218-3.193,1.607  c-0.405-0.612-1.763-2.116-3.783-1.38c-2.021,0.737-1.814,3.515-1.69,4.044c0.11,0.465,1.355,1.706,1.392,2.205  c0.485,0.042,5.173,0.519,9.266,3.511c0.073,0.052,0.089,0.153,0.036,0.226c-0.053,0.072-0.153,0.088-0.226,0.035  c-4.223-3.085-9.093-3.449-9.141-3.453c-0.046-0.002-0.086-0.025-0.114-0.058c-0.003-0.003-0.004-0.009-0.007-0.012  c-0.417,0.253-1.097,0.419-0.418,0.894c0.757,0.529,3.732,4.478,3.732,4.478s1.265,0.633,1.898,1.265  c0.115,0.116,0.317,0.207,0.589,0.27c-0.235,0.919,0.415,1.486,0.923,1.779 M33.145,16.567c0.064,0.028,1.569,0.701,1.932,2.319  c0.019,0.088-0.036,0.174-0.123,0.193c-0.061,0.014-0.122-0.009-0.16-0.055c-0.016-0.019-0.027-0.042-0.033-0.068  c-0.325-1.455-1.731-2.087-1.746-2.094c-0.083-0.035-0.119-0.131-0.083-0.212C32.968,16.569,33.063,16.532,33.145,16.567z   M29.465,21.61c-0.126-0.134-0.244-0.267-0.353-0.398c-1.505-1.806-1.473-3.305-1.471-3.372c0.004-0.09,0.078-0.16,0.167-0.156  c0.09,0.003,0.16,0.078,0.157,0.167c-0.001,0.022-0.024,1.667,1.735,3.537c0.062,0.065,0.059,0.167-0.006,0.229  C29.63,21.678,29.527,21.675,29.465,21.61z M32.263,20.526c-0.568-0.331-1.002-0.734-1.327-1.124  c-0.634-0.76-0.858-1.474-0.872-1.519c-0.026-0.086,0.021-0.176,0.106-0.202c0.086-0.026,0.176,0.022,0.203,0.107  c0.003,0.015,0.491,1.549,2.051,2.458c0.078,0.043,0.104,0.143,0.059,0.222C32.439,20.544,32.34,20.571,32.263,20.526z"/><g><rect x="34.147" y="55.718" transform="matrix(0.7068 0.7074 -0.7074 0.7068 51.6293 -7.2796)" width="0.901" height="5.86"/></g><g><rect x="34.502" y="47.015" transform="matrix(0.7066 0.7076 -0.7076 0.7066 45.5996 -10.0781)" width="0.9" height="5.86"/></g><g><rect x="33.755" y="39.708" transform="matrix(0.7068 0.7074 -0.7074 0.7068 39.7972 -11.8585)" width="0.901" height="4.753"/></g><g><rect x="34.043" y="32.648" transform="matrix(0.7066 0.7076 -0.7076 0.7066 34.9063 -14.1315)" width="0.9" height="4.753"/></g><path d="M35.658,34.121c0,0,0.517-6.843,9.815-7.103C45.473,27.018,44.698,36.316,35.658,34.121z"/><g><rect x="27.875" y="58.021" transform="matrix(0.7079 0.7064 -0.7064 0.7079 50.3009 -4.6771)" width="5.86" height="0.9"/></g><path d="M29.368,57.357c0,0-0.638-8.438-12.102-8.757C17.267,48.6,18.223,60.063,29.368,57.357z"/><g><rect x="27.519" y="49.317" transform="matrix(0.7077 0.7065 -0.7065 0.7077 44.0593 -6.9665)" width="5.86" height="0.9"/></g><path d="M29.013,48.653c0,0-0.637-8.438-12.101-8.757C16.912,39.896,17.867,51.36,29.013,48.653z"/><g><rect x="28.707" y="41.41" transform="matrix(0.7078 0.7064 -0.7064 0.7078 38.6724 -9.7729)" width="4.886" height="0.9"/></g><path d="M29.951,40.93c0,0-0.53-7.034-10.087-7.3C19.864,33.63,20.661,43.187,29.951,40.93z"/><g><rect x="28.411" y="32.653" transform="matrix(0.7079 0.7063 -0.7063 0.7079 32.3931 -12.1226)" width="4.886" height="0.901"/></g><path d="M29.951,32.071c0,0-0.532-7.034-10.087-7.3C19.864,24.771,20.66,34.329,29.951,32.071z"/><g><rect x="29.329" y="64.417" transform="matrix(0.7078 0.7064 -0.7064 0.7078 54.9864 -3.2055)" width="4.078" height="0.9"/></g><circle cx="44.129" cy="40.464" r="6.817"/><path d="M88.732,76.007l-2.535-0.157c-0.463-1.399-1.733-2.447-3.293-2.544l-4.554-0.282l3.45-6.019  c2.151-1.998,3-5.171,1.893-8.084c-5.835-15.36-17.689-20.275-23.774-20.758l-1.201-0.023c-4.105,0-7.432,3.327-7.432,7.432  c0,0.711,0.106,1.397,0.293,2.048l-0.784,6.293l-10.567-2.062c-1.725-0.335-3.399,0.79-3.737,2.516  c-0.336,1.727,0.79,3.399,2.516,3.736l10.314,2.012c-1.304,0.98-2.903,1.818-4.874,2.399c-1.687,0.498-2.651,2.269-2.154,3.956  c0.409,1.387,1.677,2.285,3.053,2.285c0.298,0,0.602-0.042,0.903-0.131c9.01-2.657,12.981-9.357,14.415-15.056  c2.171,0.896,5.544,3.09,8.121,8.326l-6.981,12.178c-0.639,1.114-0.657,2.479-0.047,3.61c0.608,1.131,1.759,1.867,3.041,1.946  l2.559,0.159c0.066,0.202,0.126,0.405,0.229,0.596c0.609,1.131,1.759,1.867,3.042,1.946l17.645,1.094  c0.079,0.005,0.157,0.007,0.234,0.007c1.947,0,3.583-1.516,3.705-3.486C92.338,77.896,90.781,76.134,88.732,76.007z"/><ellipse cx="32.841" cy="74.933" rx="25.394" ry="8.765"/><text x="0" y="115" fill="#000000" font-size="5px" font-weight="bold" font-family="'Helvetica Neue', Helvetica, Arial-Unicode, Arial, Sans-serif">Created by IconTrack</text><text x="0" y="120" fill="#000000" font-size="5px" font-weight="bold" font-family="'Helvetica Neue', Helvetica, Arial-Unicode, Arial, Sans-serif">from the Noun Project</text></svg>