<svg xmlns="http://www.w3.org/2000/svg" xmlns:xlink="http://www.w3.org/1999/xlink" version="1.1" x="0px" y="0px" viewBox="0 0 100 125" enable-background="new 0 0 100 100" xml:space="preserve"><g><path d="M65.381,57.283l0.564,1.129l1.129,0.845c0,0,0.564-0.704,1.27-0.422l0.846,0.988l4.092-2.259l-0.11-0.846L72,55.871V54.32   v-0.563v-1.271l-1.97,0.847l-0.493,1.27l-1.018-0.131L67.92,53h-1.27l-0.582,1.666l-2.275,1.106l1.023,0.667L65.381,57.283z"/><path d="M96.545,75.666l-1.477-2.123l-5.494-4.39l-1.131-2.825l-1.846-1.378l-2.604-1.37l-2.869-3.543l-1.686-2.951l-2.844-5.398   l-1.09-1.619l-1.975-4.796l-2.236-2.015l-0.143-2.431l-1.502-0.995l-1.914-0.894l-0.152-0.915l-1.795-0.359l-2.803,0.777   l-1.039,1.779l-2.766,2.351l-0.826,2.007l-0.164,1.754l-0.654,1.831l-0.381,0.382l0.299,0.376V49h0.002l0.299,0.221l0.191-0.232   l1.367,0.273l0.848-0.998l0.986,0.278l0.988-1.554l0.705,0.985l1.129-0.141l0.422-1.733L63.123,45H62v-1h-0.992l-0.141-1h-0.84   l2.523-2.164l0.992-1.663l2.277-0.635l1.025,0.202l0.129,0.778l2.262,1.049l1.096,0.729l0.137,2.365l2.318,2.026l1.977,4.777   l1.105,1.656l2.83,5.374l1.729,3.02l2.963,3.667l2.756,1.65L87.482,67h-2.07l-1.834,0.36l-1.27,1.856l-0.986,0.946l-2.68-0.304   l-1.553,0.6L75.68,70h-1.412l-2.256-0.786l-1.553,0.506l-0.707-0.928l-1.408,0.101l-1.41,0.543l-0.848-0.855l-0.563-2.123   l-0.426-2.823l-1.127-0.344c0,0-1.27,0.71-2.258,0.71h-0.988l-0.251-1.241L61,61.516v-1.129l-2-1.552V56.86l-0.548-1.896L58.045,53   h-0.986l-0.178-1.314l-1.092-0.747l1.965-1.88l-0.299-0.257l-0.299-0.277l-2.373,2.384l-1.094,2.161l-0.678,2.308l-2.233,2.497   l-2.575,0.388l-2.887-0.919l-0.99-1.238l-0.259-1.04l-1.296-1.78l-0.645-2.254l-2.39,0.342l-1.96,0.525l-1.774-0.889l-1.951,1.352   l-2.572,0.271l-2.568,1.467l-1.637,2.443l-3.434,1.924l-1.826,2.374l-0.49,2.814l-0.952,3.268l-2.171,1.898l-3.162,2.888   l-1.734,2.402l-2.092,0.392L9.359,75.83l-0.971-0.551l-3.172,1.81l-1.59,2.173l-1.219,2.785l7.162,0.767l3.355-0.42l5.079-0.282   l3.122-1.251l5.49,1.125l4.013-1.432l2.808-0.278l5.645,0.824l1.031,1.029l2.395,0.846l2.516-0.592l3.272-1.693l2.365-0.272   l4.773,0.56l5.734,1.004l4.232-1.14l3.041-0.142l2.625,0.272l3.029,0.717l2.057,0.146l6.633-2.116l3.922,0.262l2.996,0.854   l2.865,0.571l3.148,0.299l1.875-1.702L96.545,75.666z M57.896,61.805l-0.281,0.844l-1.266,0.817L55.223,64h-0.986L53,61.939v-0.988   l1.183-0.105l1.862,0.828L57.896,61.805z M48.716,59.127l2.781-0.461l0.827-1.088l-0.132,0.41l0.387,0.899L52.402,60h-1.551   l-0.706,1h-1.411l-1.128,1.74l-1.553,1.207l-0.141-1.073l-0.847-1.236l-0.988-1.671l0.726-1.105L46,58.074v0.002L48.716,59.127z    M24.332,59.16l3.449-1.931l1.646-2.453l2.233-1.313l2.588-0.273l1.825-1.199l1.612,0.807l2.222-0.598l1.575-0.225l-0.364,0.513   l-0.565,1.128l-0.141,2.398l-0.564,2.257l-1.693,0.706l-0.564-0.847l-0.988,0.141l-0.986,1.129l-0.564-1.129l-1.56,0.142L32,59.823   v1.552l-0.661,0.281l-0.243,1.129l0.215,1.129l1.729-0.282l0.3-0.706l1.139-0.141c0,0,0.991-0.706,1.414-0.706l0.991,0.706   l1.27-1.129l1.553,0.283l1.271,0.705l0.282,0.987l2.114,1.41l2.118,1.129l-0.282,1.551l-1.27,0.706l-2.398-0.141l-2.963-0.423   l-1.41,0.706l-1.693-0.283l-1.553,0.423l-0.846-0.423l-1.129-0.142l0.282-0.849l-0.706-0.28l-0.281-0.846l-1.129-0.142l0.143-0.704   l-0.988-1.411l-1.27,0.282l-0.282-1.417L26.446,62h-2.117l-0.722,0.41l-0.887-0.857l0.035-0.257L24.332,59.16z"/></g><text x="0" y="115" fill="#000000" font-size="5px" font-weight="bold" font-family="'Helvetica Neue', Helvetica, Arial-Unicode, Arial, Sans-serif"></text><text x="0" y="120" fill="#000000" font-size="5px" font-weight="bold" font-family="'Helvetica Neue', Helvetica, Arial-Unicode, Arial, Sans-serif"></text></svg>
