<svg xmlns="http://www.w3.org/2000/svg" xmlns:xlink="http://www.w3.org/1999/xlink" version="1.1" x="0px" y="0px" viewBox="0 0 100 125" enable-background="new 0 0 100 100" xml:space="preserve"><g><path d="M89.905,51.331c-0.049,0-0.094,0.014-0.141,0.016v-0.016h-8.066c0.019-0.396,0.051-0.785,0.051-1.189   c0-0.403-0.032-0.79-0.05-1.183l8.202,0.007c2.242,0,4.066-1.824,4.066-4.066c0-2.24-1.824-4.064-4.066-4.064l-10.123-0.009   c-3.056-6.522-9.479-10.517-17.861-10.517c-4.593,0-8.242,1.57-11.917,3.44c-3.671-1.869-7.321-3.44-11.917-3.44   c-8.381,0-14.803,3.992-17.859,10.512h-9.988v0.014c-0.047-0.002-0.092-0.014-0.141-0.014c-2.242,0-4.066,1.824-4.066,4.064   c0,2.242,1.824,4.066,4.066,4.066c0.049,0,0.094-0.012,0.141-0.014v0.014h8.066c-0.019,0.396-0.051,0.785-0.051,1.189   c0,0.403,0.032,0.79,0.05,1.184l-8.203-0.008c-2.241,0-4.065,1.824-4.065,4.066s1.824,4.066,4.065,4.066l10.123,0.009   c3.057,6.523,9.479,10.517,17.862,10.517c4.593,0,8.242-1.57,11.916-3.44c3.671,1.868,7.322,3.44,11.918,3.44   c8.381,0,14.803-3.992,17.859-10.512h9.988v-0.016c0.047,0.002,0.092,0.016,0.141,0.016c2.242,0,4.066-1.824,4.066-4.066   S92.147,51.331,89.905,51.331z M89.901,42.835c1.139,0,2.066,0.926,2.066,2.064c0,1.141-0.928,2.066-2.066,2.066l-8.377-0.008   c-0.188-1.454-0.506-2.833-0.946-4.131L89.901,42.835z M38.083,32.309c3.624,0,6.691,1.122,9.715,2.579   c0.734,0.354,1.467,0.729,2.203,1.11c0.299,0.155,0.596,0.308,0.896,0.465c1.182,0.618,2.401,1.251,3.689,1.869   c0.792,0.38,1.613,0.752,2.471,1.112c3.815,1.601,8.376,2.917,14.501,3.273c0.83,1.178,1.416,2.585,1.743,4.205   c-9.676-0.243-16.054-2.68-21.104-5.157c-0.759-0.373-1.491-0.745-2.197-1.111c-0.346-0.179-0.688-0.357-1.022-0.533   c-1.257-0.656-2.425-1.259-3.563-1.789c-0.858-0.399-1.702-0.748-2.544-1.036c-1.542-0.528-3.093-0.856-4.787-0.856   c-4.59,0-8.224,1.559-10.598,4.327c-0.764,0.032-1.545,0.054-2.359,0.054h-2.624C25.41,35.519,30.958,32.309,38.083,32.309z    M60.367,38.561c0.51-0.071,1.023-0.12,1.55-0.12c3.056,0,5.566,0.731,7.476,2.097C65.886,40.165,62.946,39.449,60.367,38.561z    M50,57.382c-5.495-2.806-12.432-5.806-23.574-6.026c-0.026-0.396-0.044-0.798-0.044-1.214s0.018-0.818,0.045-1.213   c11.142-0.221,18.079-3.22,23.573-6.025c5.495,2.805,12.432,5.804,23.573,6.025c0.027,0.396,0.045,0.798,0.045,1.213   s-0.019,0.818-0.045,1.214C62.432,51.576,55.494,54.577,50,57.382z M39.633,38.561c-2.578,0.888-5.518,1.604-9.025,1.977   c1.909-1.365,4.419-2.097,7.476-2.097C38.609,38.44,39.123,38.49,39.633,38.561z M10.095,46.952c-1.139,0-2.066-0.926-2.066-2.066   c0-1.139,0.928-2.064,2.066-2.064s2.066,0.926,2.066,2.064C12.161,46.026,11.233,46.952,10.095,46.952z M13.577,46.952   c0.361-0.607,0.584-1.309,0.584-2.066c0-0.756-0.223-1.457-0.584-2.064h5.846h2.13h3.573c0.33,0,0.642-0.012,0.964-0.018   c0.809-0.013,1.593-0.041,2.352-0.085c6.124-0.355,10.684-1.671,14.501-3.273c1.536,0.594,3.115,1.41,4.86,2.321   c-5.051,2.477-11.429,4.914-21.104,5.157c-0.52,0.013-1.034,0.029-1.572,0.029h-0.465h-4.165h-2.02H13.577z M20.251,50.142   c0-0.405,0.03-0.795,0.051-1.189h4.127c-0.024,0.391-0.047,0.783-0.047,1.189s0.022,0.798,0.047,1.188l-4.128-0.004   C20.281,50.934,20.251,50.545,20.251,50.142z M19.422,57.459l-9.324-0.009c-1.139,0-2.065-0.928-2.065-2.066   s0.927-2.066,2.065-2.066l8.378,0.008l2.02,0.002l4.166,0.004h0.465c0.538,0,1.053,0.016,1.571,0.029   c9.677,0.242,16.055,2.68,21.105,5.158c-1.745,0.911-3.325,1.728-4.861,2.32c-3.815-1.601-8.375-2.916-14.499-3.272   c-0.759-0.044-1.543-0.072-2.352-0.085c-0.322-0.006-0.634-0.018-0.964-0.018l-3.575-0.003L19.422,57.459z M39.63,61.724   c-0.509,0.07-1.021,0.119-1.547,0.119c-3.056,0-5.565-0.73-7.475-2.095C34.113,60.12,37.052,60.836,39.63,61.724z M47.799,65.396   c-3.022,1.456-6.091,2.579-9.716,2.579c-7.125,0-12.674-3.211-15.582-8.514l2.625,0.002c0.815,0,1.597,0.021,2.36,0.054   c2.374,2.768,6.008,4.325,10.597,4.325c1.694,0,3.245-0.327,4.786-0.855c0.842-0.288,1.686-0.637,2.544-1.036   c1.139-0.529,2.308-1.133,3.564-1.79c0.335-0.175,0.676-0.353,1.021-0.531c0.707-0.367,1.438-0.739,2.197-1.111   c5.051-2.478,11.43-4.916,21.107-5.158c-0.328,1.621-0.915,3.028-1.745,4.206c-6.123,0.356-10.683,1.672-14.499,3.273   c-0.857,0.359-1.679,0.732-2.472,1.112c-1.291,0.619-2.514,1.254-3.699,1.873c-0.297,0.155-0.592,0.308-0.887,0.461   C49.265,64.668,48.532,65.043,47.799,65.396z M69.391,59.748c-1.909,1.364-4.419,2.095-7.474,2.095   c-0.526,0-1.039-0.049-1.549-0.12C62.946,60.836,65.885,60.12,69.391,59.748z M61.917,67.976c-3.624,0-6.691-1.122-9.716-2.58   c1.546-0.807,3.158-1.635,4.928-2.408c1.543,0.527,3.094,0.855,4.788,0.855c4.588,0,8.222-1.558,10.596-4.325   c0.53-0.619,0.996-1.299,1.396-2.036c0.668-1.231,1.154-2.616,1.43-4.15c0.115-0.642,0.19-1.31,0.232-2   c0.024-0.391,0.047-0.783,0.047-1.189s-0.022-0.798-0.047-1.189c-0.042-0.69-0.117-1.359-0.232-2   c-0.275-1.533-0.762-2.918-1.429-4.148c-0.4-0.738-0.865-1.417-1.396-2.037c-2.374-2.769-6.008-4.327-10.598-4.327   c-1.694,0-3.245,0.328-4.787,0.856c-1.77-0.774-3.382-1.602-4.928-2.409c3.021-1.457,6.09-2.579,9.715-2.579   c7.126,0,12.675,3.21,15.583,8.515c0.352,0.641,0.677,1.301,0.949,2.001c0.497,1.282,0.842,2.669,1.056,4.132   c0.095,0.65,0.158,1.317,0.194,2c0.02,0.393,0.05,0.782,0.05,1.185c0,0.405-0.03,0.795-0.051,1.189   c-0.035,0.683-0.099,1.35-0.194,2c-0.213,1.463-0.559,2.851-1.058,4.133c-0.271,0.699-0.598,1.359-0.948,2   C74.589,64.766,69.041,67.976,61.917,67.976z M86.423,57.464h-5.847c0.44-1.299,0.758-2.679,0.947-4.133h4.899   c-0.361,0.607-0.584,1.309-0.584,2.066S86.062,56.856,86.423,57.464z M89.905,57.464c-1.139,0-2.066-0.928-2.066-2.066   s0.928-2.066,2.066-2.066s2.066,0.928,2.066,2.066S91.044,57.464,89.905,57.464z"/></g><text x="0" y="115" fill="#000000" font-size="5px" font-weight="bold" font-family="'Helvetica Neue', Helvetica, Arial-Unicode, Arial, Sans-serif"></text><text x="0" y="120" fill="#000000" font-size="5px" font-weight="bold" font-family="'Helvetica Neue', Helvetica, Arial-Unicode, Arial, Sans-serif"></text></svg>
