<svg xmlns:dc="http://purl.org/dc/elements/1.1/" xmlns:cc="http://creativecommons.org/ns#" xmlns:rdf="http://www.w3.org/1999/02/22-rdf-syntax-ns#" xmlns:svg="http://www.w3.org/2000/svg" xmlns="http://www.w3.org/2000/svg" version="1.1" viewBox="0 0 26.4583 33.072875" x="0px" y="0px"><g transform="translate(0,-270.542)"><path d="m 12.1208,273.192 c -2e-4,0 0,0 0,0 z m 0,0 -0.024,0.06 c -0.5928,1.472 -1.2889,2.923 -2.29396,4.162 -0.5745,0.737 -1.2051,1.484 -1.4298,2.413 -0.2647,1.29 0.4231,2.684 1.5601,3.322 -0.371,-1.546 0.41606,-2.924 0.41606,-2.924 -0.2047,2.029 1.3359,3.136 1.3861,3.171 0.244,-0.06 0.4764,-0.17 0.6792,-0.329 0.1703,-0.182 0.3886,-0.379 0.3909,-0.649 -0.1172,-0.327 -0.4376,-0.532 -0.5817,-0.845 -0.7648,-1.166 -1.0457,-2.62 -0.8271,-3.992 0.1652,-1.323 0.6005,-2.601 0.6817,-3.937 0.016,-0.145 0.028,-0.302 0.043,-0.454 z m 2.4495,3.354 v 0.01 c 0.049,1.506 0.1646,3.046 -0.2304,4.52 -0.3243,1.122 -0.9898,2.12 -1.7778,2.967 -0.2718,0.283 -0.5725,0.566 -0.68,0.962 -0.094,0.261 -0.1226,0.617 -0.045,0.917 0.1334,0.683 0.6194,1.256 1.2172,1.581 0.087,0.05 0.1782,0.09 0.269,0.126 0.6933,-0.403 3.1163,-2.014 2.7428,-4.675 0,0 1.5049,1.884 0.9675,4.074 0.9392,-0.738 1.5616,-1.882 1.6021,-3.082 0.018,-0.547 -0.089,-1.094 -0.3227,-1.588 -0.4542,-1.032 -1.2794,-1.829 -1.9603,-2.709 -0.7585,-0.928 -1.3904,-1.968 -1.7837,-3.103 z m -6.68426,5.436 c 0,0.13 0,0.263 0,0.395 -0.041,0.859 -0.1534,1.736 0.06,2.583 0.08,0.335 0.2368,0.69 0.4917,0.948 0.3024,0.339 0.7399,0.55 1.197,0.588 0.40706,0.06 0.80616,0 1.17676,-0.192 0.2122,-0.1 0.4153,-0.231 0.5783,-0.403 -0.7079,-0.262 -0.5152,-0.947 -0.9835,-1.534 -0.62216,-0.823 -1.96346,-1.512 -2.51406,-2.385 z m 13.37356,5.446 c -0.086,0 -0.1726,0.02 -0.2589,0.04 l -7.7737,2.083 -7.77024,-2.082 c -0.69097,-0.185 -1.39597,0.222 -1.58111,0.913 -0.18515,0.691 0.22185,1.396 0.91286,1.581 l 3.45053,0.925 -3.45053,0.924 c -0.69101,0.185 -1.09801,0.89 -0.91286,1.581 0.18514,0.691 0.89014,1.099 1.58111,0.914 l 7.77194,-2.082 7.772,2.082 c 0.6909,0.185 1.3968,-0.222 1.5819,-0.913 0.1852,-0.691 -0.2219,-1.396 -0.9128,-1.581 l -3.4532,-0.925 3.4523,-0.925 c 0.691,-0.185 1.0989,-0.891 0.9137,-1.582 -0.162,-0.605 -0.7226,-0.992 -1.323,-0.955 z" style="opacity:1;fill:#000000;fill-opacity:1;stroke:none;stroke-width:0.264583;stroke-linecap:round;stroke-linejoin:round;stroke-miterlimit:4;stroke-dasharray:none;stroke-dashoffset:0;stroke-opacity:1;paint-order:normal"/></g><text x="0" y="41.4583" fill="#000000" font-size="5px" font-weight="bold" font-family="'Helvetica Neue', Helvetica, Arial-Unicode, Arial, Sans-serif">Created by AdbA Icons ❤️</text><text x="0" y="46.4583" fill="#000000" font-size="5px" font-weight="bold" font-family="'Helvetica Neue', Helvetica, Arial-Unicode, Arial, Sans-serif">from the Noun Project</text></svg>