<svg xmlns="http://www.w3.org/2000/svg" xmlns:xlink="http://www.w3.org/1999/xlink" version="1.1" x="0px" y="0px" viewBox="0 0 100 125" style="enable-background:new 0 0 100 100;" xml:space="preserve"><path d="M65.5,8.3C51.3,2.5,35.1,9.2,29.1,23.4C28.4,25,28,26.2,28,27v4c0,0.6,0.4,1,1,1h6c0.6,0,1-0.4,1-1c0-1.3,0-2,0-2  c0-0.6,0.2-1.5,0.5-2.5c4.2-10.1,15.8-14.9,25.9-10.8c9.1,3.7,13.5,14.1,9.7,23.2c-0.1,0.3-2.7,5.4-7.7,15.2  C61.5,59.1,60,64.5,60,70c0,0.3,0,1.7,0,4c0,6.6-5.4,12-12,12s-12-5.4-12-12v-3c0-0.6-0.4-1-1-1h-6c-0.6,0-1,0.4-1,1v3  c0,11,9,20,20,20s20-9,20-20v-4c0-4.1,1.1-8.1,3.6-12.2c5.2-10.1,7.9-15.4,8.1-15.9C85,28.8,78.7,13.7,65.5,8.3z"/><path d="M28,67c0,0.6,0.4,1,1,1h6c0.6,0,1-0.4,1-1v-1h2V40h-2v-5c0-0.6-0.4-1-1-1h-6c-0.6,0-1,0.4-1,1v1h-2v28c1.1,0,2,0.9,2,2V67z"/><text x="0" y="115" fill="#000000" font-size="5px" font-weight="bold" font-family="'Helvetica Neue', Helvetica, Arial-Unicode, Arial, Sans-serif"></text><text x="0" y="120" fill="#000000" font-size="5px" font-weight="bold" font-family="'Helvetica Neue', Helvetica, Arial-Unicode, Arial, Sans-serif"></text></svg>
