<svg xmlns="http://www.w3.org/2000/svg" xmlns:xlink="http://www.w3.org/1999/xlink" viewBox="0 0 52 75" version="1.1" x="0px" y="0px"><title>2 -Canoe- (Solid)</title><desc>Created with Sketch.</desc><g stroke="none" stroke-width="1" fill="none" fill-rule="evenodd"><g transform="translate(-244.000000, -331.000000)" fill="#000000"><g transform="translate(244.000000, 331.000000)"><path d="M26,41.0023 C22.636,41.0023 20,36.1703 20,30.0023 C20,23.8343 22.636,19.0023 26,19.0023 C29.364,19.0023 32,23.8343 32,30.0023 C32,36.1703 29.364,41.0023 26,41.0023 M28.707,46.7093 L24.707,50.7093 C24.512,50.9043 24.256,51.0023 24,51.0023 C23.744,51.0023 23.488,50.9043 23.293,50.7093 C22.902,50.3183 22.902,49.6863 23.293,49.2953 L27.293,45.2953 C27.684,44.9043 28.316,44.9043 28.707,45.2953 C29.098,45.6863 29.098,46.3183 28.707,46.7093 M23.293,13.2953 L27.293,9.2953 C27.684,8.9043 28.316,8.9043 28.707,9.2953 C29.098,9.6863 29.098,10.3183 28.707,10.7093 L24.707,14.7093 C24.512,14.9043 24.256,15.0023 24,15.0023 C23.744,15.0023 23.488,14.9043 23.293,14.7093 C22.902,14.3183 22.902,13.6863 23.293,13.2953 M51.707,8.5383 L47.464,4.2953 C47.074,3.9043 46.441,3.9043 46.05,4.2953 L40.293,10.0523 C40.105,10.2403 40,10.4943 40,10.7593 L40,14.5883 L35.129,19.4593 C33.455,9.3863 29.76,0.0023 26,0.0023 C20.913,0.0023 15.938,17.1803 15.938,30.0023 C15.938,32.7633 16.066,35.5563 16.317,38.2713 L10.586,44.0023 L6.757,44.0023 C6.492,44.0023 6.238,44.1073 6.05,44.2953 L0.293,50.0523 C-0.098,50.4433 -0.098,51.0763 0.293,51.4663 L4.536,55.7093 C4.731,55.9043 4.987,56.0023 5.243,56.0023 C5.499,56.0023 5.754,55.9043 5.95,55.7093 L11.707,49.9523 C11.895,49.7643 12,49.5103 12,49.2453 L12,45.4163 L16.592,40.8243 C17.89,51.3083 21.099,60.0023 26,60.0023 C32.535,60.0023 36.062,44.5453 36.062,30.0023 C36.062,27.4263 35.858,24.6743 35.496,21.9203 L41.414,16.0023 L45.243,16.0023 C45.508,16.0023 45.762,15.8973 45.95,15.7093 L51.707,9.9523 C52.098,9.5613 52.098,8.9283 51.707,8.5383"/><path d="M26,21.0023 C24.108,21.0023 22,24.6983 22,30.0023 C22,35.3063 24.108,39.0023 26,39.0023 C27.892,39.0023 30,35.3063 30,30.0023 C30,24.6983 27.892,21.0023 26,21.0023"/></g></g></g><text x="0" y="75" fill="#000000" font-size="5px" font-weight="bold" font-family="'Helvetica Neue', Helvetica, Arial-Unicode, Arial, Sans-serif"></text><text x="0" y="80" fill="#000000" font-size="5px" font-weight="bold" font-family="'Helvetica Neue', Helvetica, Arial-Unicode, Arial, Sans-serif"></text></svg>
