<svg xmlns="http://www.w3.org/2000/svg" xmlns:xlink="http://www.w3.org/1999/xlink" version="1.1" x="0px" y="0px" viewBox="0 0 96 120" enable-background="new 0 0 96 96" xml:space="preserve"><path d="M52.912,28.034c1.929,0.537,3.596,1,4.06,2.12c0.788,1.899,2.703,3.013,4.241,3.907c1.266,0.736,2.181,1.268,2.237,2.163  c0.03,0.483-0.213,0.926-0.724,1.314c-1.402,1.068-3.807,2.398-4.739,2.901c-0.006,0.173-0.009,0.349-0.021,0.517  c2.139,0.625,8.996-0.048,11.429-0.624c-1.473-1.918-3.003-5.005-4.162-7.342c-0.576-1.163-1.229-2.48-1.439-2.71  c-0.151-0.128-0.341-0.314-0.566-0.537c-0.701-0.692-1.761-1.739-3.884-3.028c-1.259-0.764-1.899-1.521-2.016-2.382  c-0.163-1.196,0.737-2.152,1.69-3.164l0.168-0.179c1.341-1.43,4.998-9.341,5.672-12.402c-1.861,0.084-6.061,0.197-7.916-0.386  c-0.314-0.099-0.712-0.27-1.133-0.453c-0.412-0.179-1.103-0.479-1.518-0.576c0.026,0.107,0.071,0.252,0.147,0.445  c0.966,2.459-1.658,10.354-4.352,17.754c-0.182,0.499-0.326,0.893-0.416,1.152c-0.036,0.102-0.018,0.136-0.003,0.163  C49.938,27.207,51.728,27.705,52.912,28.034z"/><path d="M71.603,28.894c-1.4-1.992-1.872-2.663-1.591-3.318c0.058-0.135,0.165-0.402,0.307-0.757c0.601-1.502,1.853-4.628,2.78-6.23  c1.012-1.748,4.429-9.75,5.061-11.944c-0.492,0.024-1.285,0.14-1.958,0.237c-2.149,0.312-5.094,0.739-7.096-0.013  c-1.924-0.724-2.348-0.651-2.442-0.588c-0.044,0.031-0.19,0.231-0.19,1.511c0,2.72-4.613,12.537-6.195,14.225l-0.171,0.182  c-0.7,0.744-1.362,1.446-1.295,1.934c0.034,0.252,0.289,0.683,1.308,1.301c2.274,1.381,3.409,2.501,4.16,3.243  c0.196,0.193,0.36,0.356,0.51,0.485c0.349,0.299,0.722,1.018,1.786,3.164c1.291,2.604,3.059,6.171,4.567,7.757l0.453,0.476  l-0.413,0.593c-0.825,1.023-9.981,1.993-13.438,1.258c-0.247,1.114-0.666,2.096-1.273,2.906c-0.625,0.834-3.677,4.141-3.806,4.281  l-5.557,7.511c2.699,0.849,5.338,2.675,5.717,6.197c0.128,1.194-0.068,2.314-0.472,3.353c1.634,1.117,6.2,4.718,4.633,9.23  c-1.91,5.498-5.959,6.769-6.13,6.82c-0.201,0.061-0.451,0.063-1.047,0.065c-0.991,0.002-3.312,0.009-3.943,0.672  c-0.087,0.092-0.119,0.179-0.113,0.311c0.02,0.42,0.078,1.701,0.558,1.984c0.173,0.103,0.75,0.259,2.32-0.513  c1.069-0.525,1.885-0.883,2.605-1.199c1.525-0.668,2.533-1.109,4.615-2.553c1.684-1.168,4.859-5.048,4.929-9.138  c0.044-2.573-1.143-4.779-3.527-6.556l0.896-1.203c0.39,0.291,0.745,0.597,1.081,0.912c2.008-3.07,5.107-8.261,5.24-9.723  c0.246-2.7,1.139-3.151,5.844-5.094c4.746-1.96,9.854-5.042,7.209-11.517C75.732,34.77,73.247,31.234,71.603,28.894z"/><path d="M42.562,70.04c0.252-0.183,0.493-0.358,0.715-0.529c0.478-0.368,1.496-3.03,1.305-5.723  c-0.045-0.434-0.111-0.849-0.187-1.255c-0.273-1.132-0.87-2.316-2.131-2.99c-1.695-0.905-2.993-1.346-3.967-1.346  c-1.103,0-1.792,0.556-2.679,1.581c-1.666,1.925-4.195,3.932-4.95,4.483c-1.894,1.289-4.787,3.889-4.575,5.437  c0.303,2.208,2.069,6.767,5.593,6.767l0.054,0c3.837-0.048,6.441-0.979,7.146-2.553C39.682,72.132,41.279,70.972,42.562,70.04z   M37.866,69.955c-0.396,0-0.792-0.023-1.179-0.07c-0.337-0.041-0.62-0.061-0.797-0.055c0.005,0.093,0.014,0.203,0.022,0.3  c0.058,0.692,0.154,1.851-0.412,3.383c-0.452,1.224-1.387,1.897-2.632,1.897c-2.299,0-4.963-2.243-5.569-3.697  c-0.874-2.096,3.147-5.98,4.917-7.553c0.115-0.092,2.021-1.575,4.57-2.668c0.457-0.196,0.948-0.295,1.46-0.295  c2.503,0,5.266,2.525,5.374,4.912c0.037,0.806-0.255,1.558-0.844,2.174C41.776,69.33,39.94,69.955,37.866,69.955z"/><path d="M51.335,63.464c-0.439-4.088-4.662-5.127-6.969-5.393c0.683,1.159,1.233,2.594,1.542,4.376  c0.073,0.356,0.133,0.724,0.165,1.114c0.25,3.013-0.807,6.311-1.881,7.137c-0.233,0.179-0.485,0.363-0.749,0.554  c-0.142,0.103-0.286,0.208-0.431,0.315c0.285,0.404,0.54,0.869,0.744,1.372C45.886,71.798,51.84,68.165,51.335,63.464z"/><path d="M38.246,62.698c-0.308,0-0.6,0.059-0.869,0.174c-2.362,1.013-4.183,2.427-4.201,2.441c-2.625,2.336-4.784,5.127-4.493,5.824  c0.424,1.019,2.652,2.774,4.184,2.774c0.613,0,0.991-0.283,1.225-0.917c0.451-1.221,0.378-2.099,0.325-2.74  c-0.046-0.555-0.09-1.079,0.295-1.498c0.353-0.383,0.878-0.428,1.243-0.428c0.239,0,0.538,0.022,0.911,0.067  c1.942,0.236,3.979-0.263,4.825-1.148c0.308-0.322,0.448-0.672,0.43-1.069C42.056,64.722,40.09,62.698,38.246,62.698z"/><path d="M25.573,66.999c1.401-1.995,3.841-3.698,4.231-3.963c0.564-0.413,3.077-2.387,4.679-4.238c0.879-1.016,1.97-2.1,3.813-2.1  c1.132,0,2.483,0.424,4.179,1.279c-0.818-1.077-1.845-1.927-3.091-2.501c-3.825-1.762-8.741-0.734-11.423,1.128  C24.935,58.703,25.123,63.846,25.573,66.999z"/><path d="M40.012,54.112c1.039,0.479,2.184,1.224,3.204,2.37c0.69,0.008,1.482,0.078,2.317,0.233l5.979-8.075  c0.92-1.003,3.279-3.584,3.76-4.226c1.106-1.475,1.479-3.706,1.077-6.45c-0.358-2.448-2.907-3.528-3.68-3.801  c-1.574-0.555-2.869-0.43-3.198-0.125c-1.459,1.351-7.749,8.263-10.547,12.46c-2.588,3.883-1.57,6.374-1.56,6.398l-0.65,0.278  C37.843,53.328,38.958,53.627,40.012,54.112z"/><path d="M32.06,77.951c-0.103,0.003-0.196,0.013-0.301,0.014l-0.072,0c-0.304,0-0.595-0.029-0.878-0.075  c-1.146,1.175-5.017,5.103-6.251,5.814c-0.254,0.147-0.64,0.323-1.103,0.533c-1.865,0.844-4.988,2.256-5.022,4.568  c-0.011,0.749,0.304,0.846,0.456,0.892c1.208,0.371,4.041-1.136,5.053-2.685l0.132-0.202c1.496-2.29,1.766-2.703,3.852-3.34  c1.199-0.367,3.892-2.591,5.418-3.933C32.731,78.989,32.301,78.357,32.06,77.951z"/><path d="M40.254,74.525c-0.318,0.71-0.877,1.309-1.619,1.808c0.267,0.449,0.697,0.994,1.255,1.206  c0.461,0.175,0.967,0.112,1.549-0.192c0.722-0.378,1.131-0.929,1.252-1.685c0.166-1.038-0.263-2.284-0.853-3.155  C41.189,73.083,40.608,73.735,40.254,74.525z"/><path d="M33.8,77.837c0.456,0.571,1.105,1.16,1.855,1.256c0.73,0.093,1.523-0.282,2.358-1.105c-0.296-0.321-0.533-0.658-0.7-0.947  C36.34,77.433,35.153,77.694,33.8,77.837z"/><circle cx="26.105" cy="52.381" r="2.187"/><circle cx="20.729" cy="58.678" r="2.172"/><path d="M23.795,67.332c0-2.083-1.694-3.778-3.777-3.778s-3.777,1.695-3.777,3.778s1.694,3.777,3.777,3.777  S23.795,69.415,23.795,67.332z"/><circle cx="21.338" cy="75.878" r="2.087"/><circle cx="20.018" cy="47.81" r="2.027"/><circle cx="26.105" cy="45.296" r="1.436"/><text x="0" y="111" fill="#000000" font-size="5px" font-weight="bold" font-family="'Helvetica Neue', Helvetica, Arial-Unicode, Arial, Sans-serif"></text><text x="0" y="116" fill="#000000" font-size="5px" font-weight="bold" font-family="'Helvetica Neue', Helvetica, Arial-Unicode, Arial, Sans-serif"></text></svg>
