<svg xmlns="http://www.w3.org/2000/svg" xmlns:xlink="http://www.w3.org/1999/xlink" version="1.1" x="0px" y="0px" viewBox="0 0 95 118.75" enable-background="new 0 0 95 95" xml:space="preserve"><path d="M78.225,39.386c-4.245,0-7.728,3.263-8.082,7.416H60.104c-0.161-2.96-1.344-5.647-3.198-7.72l7.1-7.1  c3.188,2.688,7.956,2.531,10.958-0.471c3.169-3.17,3.169-8.307,0-11.475s-8.307-3.168-11.475,0  c-3.003,3.002-3.158,7.771-0.471,10.959l-7.1,7.099c-2.072-1.856-4.76-3.038-7.721-3.198l0.001-10.039  c4.154-0.354,7.416-3.836,7.416-8.082c0-4.48-3.633-8.113-8.114-8.113c-4.48,0-8.113,3.633-8.113,8.113  c0,4.246,3.261,7.728,7.415,8.082v10.039c-2.96,0.16-5.647,1.342-7.72,3.198l-7.099-7.099c2.687-3.188,2.531-7.957-0.471-10.959  c-3.169-3.168-8.307-3.168-11.476,0c-3.168,3.168-3.168,8.305,0,11.475c3.002,3.002,7.771,3.158,10.959,0.471l7.099,7.1  c-1.856,2.072-3.037,4.76-3.199,7.72H24.857c-0.354-4.153-3.836-7.416-8.082-7.416c-4.48,0-8.114,3.634-8.114,8.114  c0,4.481,3.634,8.114,8.114,8.114c4.246,0,7.728-3.262,8.082-7.415h10.038c0.162,2.959,1.343,5.646,3.199,7.719l-7.099,7.1  c-3.188-2.688-7.957-2.531-10.959,0.471c-3.168,3.168-3.168,8.307,0,11.475c3.169,3.168,8.307,3.168,11.476,0  c3.002-3.002,3.157-7.771,0.471-10.959l7.099-7.099c2.072,1.856,4.76,3.038,7.72,3.2v10.037c-4.154,0.354-7.415,3.836-7.415,8.082  c0,4.48,3.633,8.113,8.113,8.113c4.481,0,8.114-3.633,8.114-8.113c0-4.246-3.262-7.729-7.416-8.082l-0.001-10.037  c2.961-0.162,5.648-1.344,7.721-3.2l7.1,7.099c-2.688,3.188-2.532,7.956,0.471,10.959c3.168,3.168,8.306,3.168,11.475,0  c3.169-3.17,3.169-8.307,0-11.475c-3.002-3.002-7.771-3.158-10.958-0.471l-7.1-7.1c1.854-2.072,3.037-4.76,3.198-7.719h10.039  c0.354,4.153,3.837,7.415,8.082,7.415c4.48,0,8.114-3.633,8.114-8.114C86.339,43.02,82.705,39.386,78.225,39.386z M65.669,27.432  c0-0.602,0.488-1.088,1.09-1.088h1.35c-0.878-0.449-1.478-1.359-1.478-2.411c0-1.498,1.214-2.712,2.71-2.712  c1.498,0,2.71,1.214,2.71,2.712c0,1.052-0.601,1.962-1.476,2.411h1.349c0.602,0,1.089,0.486,1.089,1.089l0.385,1.579  c0.001,0.601-0.486,1.09-1.09,1.09h-5.934c-0.602,0-1.09-0.489-1.09-1.09L65.669,27.432z M28.631,30.102h-5.933  c-0.603,0-1.09-0.489-1.09-1.09l0.385-1.58c0-0.602,0.488-1.088,1.09-1.088h1.349c-0.877-0.449-1.477-1.359-1.477-2.411  c0-1.497,1.214-2.712,2.71-2.712c1.497,0,2.71,1.215,2.71,2.712c0,1.052-0.601,1.962-1.477,2.411h1.35  c0.602,0,1.089,0.486,1.089,1.09l0.385,1.578C29.723,29.612,29.234,30.102,28.631,30.102z M19.585,51.939h-5.933  c-0.602,0-1.089-0.488-1.089-1.09l0.384-1.578c0-0.602,0.488-1.09,1.09-1.09h1.349c-0.877-0.449-1.477-1.359-1.477-2.41  c0-1.498,1.214-2.713,2.71-2.713c1.497,0,2.71,1.215,2.71,2.713c0,1.051-0.601,1.961-1.476,2.41h1.349  c0.602,0,1.089,0.488,1.089,1.09l0.385,1.578C20.676,51.451,20.188,51.939,19.585,51.939z M28.631,73.777h-5.933  c-0.602,0-1.09-0.49-1.09-1.09l0.385-1.58c0-0.601,0.487-1.088,1.09-1.088h1.349c-0.877-0.449-1.478-1.359-1.478-2.41  c0.001-1.498,1.215-2.713,2.712-2.713c1.496,0,2.709,1.215,2.709,2.713c0,1.051-0.601,1.961-1.477,2.41h1.35  c0.601,0,1.089,0.487,1.089,1.089l0.385,1.58C29.722,73.287,29.234,73.777,28.631,73.777z M44.537,21.056  c-0.603,0-1.09-0.489-1.09-1.09l0.385-1.579c0-0.602,0.487-1.089,1.089-1.089h1.35c-0.878-0.449-1.478-1.36-1.478-2.411  c0-1.498,1.215-2.711,2.711-2.711s2.71,1.213,2.71,2.711c0,1.051-0.602,1.962-1.477,2.411h1.349c0.602,0,1.09,0.487,1.09,1.089  l0.385,1.579c0,0.601-0.487,1.09-1.091,1.09H44.537z M50.214,76.654c0,1.051-0.601,1.961-1.477,2.41h1.35  c0.602,0,1.089,0.488,1.089,1.09l0.385,1.579c0,0.601-0.487,1.09-1.091,1.09h-5.933c-0.603,0-1.09-0.489-1.09-1.09l0.385-1.579  c0-0.602,0.488-1.09,1.09-1.09h1.349c-0.877-0.449-1.477-1.359-1.477-2.41c0-1.498,1.214-2.711,2.71-2.711  C49.001,73.943,50.214,75.156,50.214,76.654z M52.528,55.027H42.471c-1.021,0-1.847-0.83-1.847-1.848l0.651-2.678  c0-1.02,0.827-1.846,1.847-1.846h2.287c-1.487-0.762-2.504-2.305-2.504-4.088c0-2.537,2.058-4.596,4.595-4.596  s4.594,2.059,4.594,4.596c0,1.783-1.019,3.326-2.503,4.088h2.287c1.021,0,1.847,0.826,1.847,1.846l0.652,2.678  C54.377,54.197,53.55,55.027,52.528,55.027z M65.669,71.108c0-0.601,0.487-1.089,1.09-1.089h1.349  c-0.877-0.448-1.478-1.359-1.478-2.41c0.001-1.498,1.215-2.712,2.711-2.713c1.497,0,2.71,1.215,2.71,2.713  c0,1.051-0.602,1.962-1.477,2.41h1.349c0.602,0,1.09,0.488,1.09,1.089l0.385,1.581c0,0.598-0.487,1.089-1.091,1.088h-5.933  c-0.603,0.001-1.09-0.49-1.09-1.09L65.669,71.108z M81.353,51.939H75.42c-0.603,0-1.09-0.488-1.09-1.09l0.385-1.578  c0-0.602,0.487-1.09,1.089-1.09h1.35c-0.878-0.449-1.477-1.359-1.477-2.41c0-1.498,1.214-2.713,2.71-2.713s2.71,1.215,2.71,2.713  c0,1.051-0.602,1.961-1.477,2.41h1.35c0.601,0,1.089,0.488,1.089,1.09l0.385,1.578C82.443,51.451,81.955,51.939,81.353,51.939z"/><text x="0" y="110" fill="#000000" font-size="5px" font-weight="bold" font-family="'Helvetica Neue', Helvetica, Arial-Unicode, Arial, Sans-serif">Created by Guilherme Furtado</text><text x="0" y="115" fill="#000000" font-size="5px" font-weight="bold" font-family="'Helvetica Neue', Helvetica, Arial-Unicode, Arial, Sans-serif">from the Noun Project</text></svg>