<svg xmlns:dc="http://purl.org/dc/elements/1.1/" xmlns:cc="http://creativecommons.org/ns#" xmlns:rdf="http://www.w3.org/1999/02/22-rdf-syntax-ns#" xmlns:svg="http://www.w3.org/2000/svg" xmlns="http://www.w3.org/2000/svg" xmlns:sodipodi="http://sodipodi.sourceforge.net/DTD/sodipodi-0.dtd" xmlns:inkscape="http://www.inkscape.org/namespaces/inkscape" version="1.1" x="0px" y="0px" viewBox="0 0 100 125"><g transform="translate(0,-952.36218)"><path style="text-indent:0;text-transform:none;direction:ltr;block-progression:tb;baseline-shift:baseline;color:#000000;enable-background:accumulate;" d="m 50,960.36217 c -23.1842,0 -42,18.84007 -42,42.01563 0,23.1755 18.8158,41.9844 42,41.9844 23.1841,0 42,-18.8089 42,-41.9844 0,-23.17556 -18.8159,-42.01563 -42,-42.01563 z m 0,8.99665 c 14.1186,0 26.1612,8.87772 30.875,21.33582 l -25.125,4.77947 c -1.5616,-1.30185 -3.5648,-2.09297 -5.75,-2.09297 -2.2594,0 -4.3233,0.83598 -5.9063,2.21792 L 19.0625,990.85083 C 23.7341,978.30989 35.8218,969.35882 50,969.35882 z m 0,26.02157 c 3.8778,0 7,3.12101 7,6.99741 0,3.8764 -3.1222,6.9974 -7,6.9974 -3.8779,0 -7,-3.121 -7,-6.9974 0,-3.8764 3.1221,-6.99741 7,-6.99741 z m 32.4687,1.15582 c 0.3382,1.89649 0.5313,3.84759 0.5313,5.84159 0,17.1987 -13.1385,31.2908 -29.9375,32.8315 l 1.875,-25.3343 c 1.7571,-1.1571 3.0774,-2.9068 3.6875,-4.9669 z m -64.9687,0.28115 23.9687,8.37184 c 0.6446,1.938 1.9175,3.5819 3.5938,4.6858 l 1.875,25.3343 C 30.1412,1033.6659 17,1019.5745 17,1002.3778 c 0,-1.8955 0.1936,-3.7524 0.5,-5.56044 z M 50,998.3793 c -2.2092,0 -4,1.7902 -4,3.9985 0,2.2083 1.7908,3.9985 4,3.9985 2.2091,0 4,-1.7902 4,-3.9985 0,-2.2083 -1.7909,-3.9985 -4,-3.9985 z" fill="#000000" fill-opacity="1" stroke="none" marker="none" visibility="visible" display="inline" overflow="visible"/></g><text x="0" y="115" fill="#000000" font-size="5px" font-weight="bold" font-family="'Helvetica Neue', Helvetica, Arial-Unicode, Arial, Sans-serif"></text><text x="0" y="120" fill="#000000" font-size="5px" font-weight="bold" font-family="'Helvetica Neue', Helvetica, Arial-Unicode, Arial, Sans-serif"></text></svg>
