<svg xmlns="http://www.w3.org/2000/svg" xmlns:xlink="http://www.w3.org/1999/xlink" version="1.1" x="0px" y="0px" viewBox="0 0 100 125" enable-background="new 0 0 100 100" xml:space="preserve"><path d="M70.623,39.211L81.33,27.739c7.256-7.256,16.325-18.139,12.697-21.767S79.516,11.415,72.261,18.67L60.789,29.377L25.1,18.67  c-9.069-1.814-10.883-1.814-14.511,1.814l34.464,23.58c-5.442,5.442-12.697,14.511-16.325,19.953l-1.961,3.138  c-19.807-4.95-19.862-4.895-21.619-3.138L21.551,75.5l-1.893,3.028l1.814,1.814l3.028-1.893l11.483,16.404  c1.758-1.758,1.812-1.812-3.138-21.619l3.138-1.961c5.442-3.628,14.511-10.883,19.953-16.325l23.58,34.464  c3.628-3.628,3.628-5.442,1.814-14.511L70.623,39.211z"/><text x="0" y="115" fill="#000000" font-size="5px" font-weight="bold" font-family="'Helvetica Neue', Helvetica, Arial-Unicode, Arial, Sans-serif"></text><text x="0" y="120" fill="#000000" font-size="5px" font-weight="bold" font-family="'Helvetica Neue', Helvetica, Arial-Unicode, Arial, Sans-serif"></text></svg>
