<svg xmlns="http://www.w3.org/2000/svg" xmlns:xlink="http://www.w3.org/1999/xlink" version="1.1" x="0px" y="0px" viewBox="0 0 90 112.5" enable-background="new 0 0 90 90" xml:space="preserve"><path d="M83.83,28.916c-0.318-0.769-1.063-1.235-1.85-1.235c-0.246,0-0.496,0.046-0.739,0.143l-4.4,1.823  c-1.434-2.976-3.265-5.714-5.468-8.177l3.337-3.337c0.047-0.047,0.093-0.096,0.134-0.147c0.65-0.795,0.602-1.965-0.125-2.692  c-3.932-3.93-8.517-6.996-13.629-9.112C60.844,6.08,60.584,6.03,60.325,6.03c-0.427,0-0.851,0.137-1.201,0.401  c-0.342,0.257-0.587,0.611-0.709,1.007l-1.746,4.213c-3.114-1.089-6.347-1.729-9.653-1.914V5c-0.002-1.104-0.897-2-2.001-2  C39.44,3,34.028,4.072,28.928,6.186c-1.021,0.423-1.505,1.593-1.082,2.613l1.812,4.372c-2.979,1.431-5.72,3.26-8.186,5.46  l-3.326-3.326c-0.375-0.375-0.889-0.591-1.419-0.591c-0.531,0-1.044,0.206-1.419,0.581c-3.927,3.928-6.991,8.51-9.108,13.619  c-0.376,0.908-0.037,1.955,0.8,2.47c0.09,0.055,0.197,0.111,0.294,0.151l4.339,1.798C10.542,36.451,9.899,39.688,9.715,43H5  c-1.104,0-2,0.896-2,2c0,5.572,1.071,10.982,3.185,16.084c0.319,0.77,1.063,1.234,1.848,1.234c0.248,0,0.499-0.047,0.743-0.146  l4.388-1.815c1.435,2.977,3.267,5.717,5.472,8.18l-3.33,3.33c-0.061,0.061-0.117,0.124-0.169,0.191  c-0.615,0.797-0.551,1.937,0.161,2.646c3.931,3.933,8.516,6.996,13.628,9.11c0.247,0.104,0.506,0.152,0.765,0.152  c0.427,0,0.85-0.137,1.202-0.4c0.342-0.258,0.586-0.61,0.709-1.008l1.744-4.209c3.115,1.088,6.349,1.729,9.656,1.912V85  c0,1.104,0.896,2,2,2c5.572,0,10.984-1.072,16.085-3.186c0.49-0.203,0.879-0.594,1.082-1.084c0.203-0.488,0.203-1.039,0-1.529  l-1.813-4.377c2.979-1.432,5.717-3.262,8.184-5.461l3.332,3.332c0.375,0.375,0.889,0.591,1.419,0.591  c0.528,0,1.044-0.206,1.419-0.581c3.93-3.928,6.992-8.512,9.107-13.619c0.375-0.906,0.037-1.954-0.799-2.469  c-0.092-0.057-0.199-0.111-0.297-0.152l-4.351-1.803c1.091-3.115,1.731-6.352,1.916-9.662h4.729c1.104,0,2-0.896,2-2  C87.016,39.428,85.943,34.017,83.83,28.916z M59.318,50.932c-0.785,1.896-1.916,3.584-3.359,5.021  c-1.441,1.438-3.133,2.563-5.029,3.347c-1.889,0.779-3.884,1.175-5.93,1.175s-4.041-0.396-5.929-1.175  c-1.897-0.782-3.589-1.907-5.029-3.346c-1.446-1.44-2.577-3.13-3.362-5.021C29.897,49.046,29.5,47.051,29.5,45  c0-2.052,0.398-4.05,1.182-5.938c0.787-1.892,1.919-3.582,3.367-5.024c1.445-1.438,3.139-2.563,5.035-3.343  c1.873-0.771,3.849-1.165,5.875-1.17c0.02,0,0.04,0.001,0.059,0.001c2.048,0.002,4.042,0.398,5.925,1.178  c1.891,0.782,3.58,1.909,5.021,3.349c1.442,1.438,2.571,3.127,3.355,5.02c0.783,1.885,1.18,3.879,1.18,5.927  C60.5,47.05,60.104,49.046,59.318,50.932z"/><text x="0" y="105" fill="#000000" font-size="5px" font-weight="bold" font-family="'Helvetica Neue', Helvetica, Arial-Unicode, Arial, Sans-serif"></text><text x="0" y="110" fill="#000000" font-size="5px" font-weight="bold" font-family="'Helvetica Neue', Helvetica, Arial-Unicode, Arial, Sans-serif"></text></svg>
