<svg xmlns="http://www.w3.org/2000/svg" xmlns:xlink="http://www.w3.org/1999/xlink" version="1.1" x="0px" y="0px" viewBox="0 0 50 62.5" enable-background="new 0 0 50 50" xml:space="preserve"><g><path fill-rule="evenodd" clip-rule="evenodd" d="M32.398,8.682h-9.522v4.956h-5.899v9.522h6.754v-0.408   c3.966-0.18,7.336-3.104,8.063-7.007h0.603V8.682z M15.311,22.311v-7.826c-4.732,0-8.601,3.88-8.601,8.601v4.165h7.826v-4.165   C14.536,22.657,14.881,22.311,15.311,22.311z M15.384,28.918H5.862v7.063h0.612c0.669,3.517,3.491,6.28,7.02,6.877v0.572h7.047   v-9.522h-5.158V28.918z M22.208,34.757v7.826h4.634v0.846h12.662v-0.846h4.634v-7.817l-4.634-0.009v-0.85h-4.869v-1.814h4.082   v-2.579H27.666v2.579h4.045v1.814h-4.87v0.85H22.208z M41.057,43.322c-1.16,1.693-4.163,6.678,0,6.678   C45.22,50,42.221,45.015,41.057,43.322z M31.642,7.016V0h-7.827v7.016H31.642z"/></g><text x="0" y="65" fill="#000000" font-size="5px" font-weight="bold" font-family="'Helvetica Neue', Helvetica, Arial-Unicode, Arial, Sans-serif"></text><text x="0" y="70" fill="#000000" font-size="5px" font-weight="bold" font-family="'Helvetica Neue', Helvetica, Arial-Unicode, Arial, Sans-serif"></text></svg>
