<svg xmlns="http://www.w3.org/2000/svg" xmlns:xlink="http://www.w3.org/1999/xlink" version="1.1" x="0px" y="0px" viewBox="0 0 100 125" enable-background="new 0 0 100 100" xml:space="preserve"><rect x="21.941" y="29.641" transform="matrix(-0.7072 -0.707 0.707 -0.7072 23.0351 69.8416)" width="8.08" height="1.02"/><rect x="25.367" y="29.64" transform="matrix(-0.7071 -0.7071 0.7071 -0.7071 28.8828 72.2625)" width="8.081" height="1.02"/><path d="M49.739,46.577v-4.313c0.164,0.032,0.336,0.064,0.522,0.064h0.633c1.327,0,2.418-1.088,2.418-2.418v-6.137  c0-1.33-1.091-2.408-2.418-2.408h-0.633c-0.186,0-0.358,0.021-0.522,0.055v-6.584c0-11.213-9.023-20.347-20.106-20.347  c-11.095,0-20.107,9.134-20.107,20.347v6.584c-0.175-0.034-0.35-0.055-0.524-0.055H8.37c-1.341,0-2.421,1.078-2.421,2.408v6.137  c0,1.328,1.091,2.418,2.421,2.418h0.631c0.175,0,0.349-0.032,0.524-0.064v4.313c0,11.216,9.012,20.338,20.107,20.338  C40.716,66.915,49.739,57.793,49.739,46.577z M52.288,39.908c0,0.775-0.632,1.395-1.394,1.395h-0.641  c-0.175,0-0.347-0.032-0.511-0.107v-1.472h2.546V39.908z M52.288,38.699h-2.549v-1.352h2.549V38.699z M52.288,36.333h-2.549v-1.351  h2.549V36.333z M49.736,32.486c0.165-0.066,0.339-0.11,0.515-0.11h0.644c0.762,0,1.394,0.622,1.394,1.395v0.198h-2.552V32.486z   M9.524,41.206c-0.165,0.055-0.35,0.097-0.525,0.097h-0.63c-0.774,0-1.395-0.619-1.395-1.395H6.973v-0.185h2.551V41.206z   M9.525,38.699H6.974v-1.352h2.551V38.699z M9.525,36.333H6.974v-1.351h2.551V36.333z M9.525,33.969H6.974v-0.198  c0-0.773,0.619-1.395,1.393-1.395h0.634c0.175,0,0.359,0.044,0.524,0.11V33.969z M15.311,36.42V24.835  c0-1.112,0.763-2.048,1.787-2.332v-2.149h4.034v2.06h16.195v-2.06h4.042v2.149c1.026,0.272,1.777,1.22,1.777,2.332V36.42  c0,1.331-1.079,2.407-2.407,2.407H17.73C16.401,38.828,15.311,37.748,15.311,36.42z"/><path d="M93.813,86.208l-13.919-9.092l7.696-0.96c0.262-0.03,0.446-0.261,0.446-0.522c-0.012-0.258-0.218-0.475-0.48-0.489  L74.73,74.317l1.96-1.384c0.188-0.134,0.264-0.374,0.188-0.59c-0.088-0.207-0.298-0.349-0.524-0.339l-8.651,0.719l-3.392-2.343  c-0.02-0.021-0.054-0.043-0.087-0.054l-6.363-2.844c-0.011-0.014-0.011-0.014-0.021-0.014c0,0-0.014,0-0.025-0.011  c-0.023,0-0.045-0.014-0.074-0.021h-0.014c-0.03,0-0.064-0.016-0.087-0.016l-0.926,0.023l0.087-0.201l-0.47-0.208  c-5.189-2.32-10.058-0.729-13.055,1.625l-0.252-0.285l-3.062,2.67c-1.298-0.107-2.811,0.533-4.61,1.994  c-4.542,3.685-12.466,14.998-13.437,19.227c-0.251,1.056-0.066,1.883,0.522,2.462c0.633,0.6,1.636,0.783,2.616,0.783  c1.375,0,2.714-0.358,2.954-0.423l0.208-0.07l0.098-0.196c0.021-0.029,2.418-4.402,6.691-9.208c0.208,0.077,0.436,0.12,0.696,0.12  c0.524,0,1.111-0.176,1.767-0.523c2.953-1.577,4.064-5.102,4.293-5.949c0.424-0.316,0.848-0.633,1.275-0.937  c0.492-0.339,0.816-0.96,0.926-1.733c0.076-0.567,0.031-1.168-0.11-1.721l2.748-2.41l-0.338-0.392  c1.427-1.059,4.424-2.626,8.229-0.927l0.468,0.217L55.122,71l0.601,0.697c0.009,0,0.009,0,0.009,0  c0.023,0.021,0.034,0.032,0.045,0.043c0.008,0.011,0.021,0.023,0.032,0.034c0.021,0.01,0.029,0.021,0.054,0.021  c0.011,0.011,0.021,0.022,0.043,0.032l6.345,2.835c0.03,0.021,0.064,0.032,0.108,0.042l4.021,0.971l4.447,5.353  c0.1,0.108,0.239,0.173,0.39,0.173c0.286,0,0.515-0.218,0.515-0.501c0-0.043,0-0.077-0.011-0.118l-0.11-1.883l7.879,5.001  c0.186,0.118,0.427,0.102,0.587-0.031c0.175-0.142,0.239-0.37,0.164-0.578l-0.645-1.73l13.745,5.743  c0.064,0.021,0.126,0.032,0.194,0.032c0.188,0,0.36-0.097,0.446-0.261C94.117,86.641,94.039,86.356,93.813,86.208z M36.989,84.332  c-0.502,0.26-0.938,0.4-1.287,0.4c-0.937,0-1.123-1.165-1.155-1.569c0.403-0.619,2.409-3.466,6.082-3.67  C40.237,80.67,39.168,83.153,36.989,84.332z M43.451,73.879c-0.1-0.176-0.195-0.326-0.306-0.469  c-0.088-0.11-0.175-0.218-0.261-0.339c-0.426-0.558-0.948-1.264-1.756-1.681l1.799-1.567l2.235,2.55L43.451,73.879z M55.581,69.977  l0.664-1.494l0.611-0.011l-0.884,1.96L55.581,69.977z M62.217,73.539L56.79,71.11l1.11-2.496l5.429,2.439L62.217,73.539z   M66.652,74.032l-0.272,0.609l-3.183-0.773l1.023-2.297l2.7,1.861L66.652,74.032z M78.915,79.97  c-0.069-0.021-0.131-0.032-0.198-0.032c-0.128,0-0.249,0.043-0.349,0.14c-0.153,0.145-0.196,0.351-0.13,0.547l0.521,1.408  l-7.441-4.721c-0.152-0.1-0.358-0.11-0.522-0.013c-0.175,0.101-0.263,0.285-0.252,0.481l0.077,1.405l-3.356-4.032l0.633-1.419  l6.669-0.553l-1.602,1.131c-0.175,0.121-0.264,0.339-0.199,0.559c0.057,0.206,0.239,0.346,0.447,0.37l8.901,0.576l-3.727,0.458  c-0.204,0.03-0.38,0.186-0.434,0.393c-0.042,0.205,0.046,0.426,0.221,0.542l10.427,6.813L78.915,79.97z"/><path d="M17.774,36.528h22.919h0.001V24.725h-22.92V36.528z M18.799,25.74h20.87v9.775h-20.87V25.74z"/><text x="0" y="115" fill="#000000" font-size="5px" font-weight="bold" font-family="'Helvetica Neue', Helvetica, Arial-Unicode, Arial, Sans-serif"></text><text x="0" y="120" fill="#000000" font-size="5px" font-weight="bold" font-family="'Helvetica Neue', Helvetica, Arial-Unicode, Arial, Sans-serif"></text></svg>
