<svg xmlns="http://www.w3.org/2000/svg" xmlns:xlink="http://www.w3.org/1999/xlink" version="1.1" x="0px" y="0px" viewBox="0 0 100 125" enable-background="new 0 0 100 100" xml:space="preserve"><ellipse transform="matrix(-0.2588 -0.9659 0.9659 -0.2588 61.5588 76.353)" fill-rule="evenodd" clip-rule="evenodd" cx="60.074" cy="14.558" rx="9.632" ry="8.428"/><path fill-rule="evenodd" clip-rule="evenodd" d="M68.579,70.709c-1.039,7.892-1.775,16.396-1.63,19.557  c0.1,2.318,2.061,4.116,4.378,4.017c2.318-0.1,4.117-2.061,4.017-4.379c-0.126-2.742,0.58-10.629,1.564-18.108  c0.21-1.592,0.431-3.154,0.655-4.632c0.372,1.569,0.708,3.166,1.017,4.798c1.073,5.688,1.797,11.75,2.422,18.502  c0.21,2.31,2.251,4.012,4.561,3.803s4.012-2.251,3.802-4.56c-0.654-7.069-1.408-13.397-2.521-19.292  c-1.777-9.42-2.867-21.221-4.806-29.163c-1.339-5.482-3.225-11.067-4.924-13.901c-2.042-3.413-6.464-4.525-9.877-2.483  c-2.502,1.497-3.533,4.258-3.46,6.995c0.108,4.036-0.906,8.465-2.747,12.326c-1.503,3.155-3.73,5.908-6.917,7.66  c-1.745,0.959-2.384,3.15-1.425,4.896c0.958,1.746,3.15,2.384,4.896,1.426c4.664-2.564,7.86-6.461,9.965-10.877  c0.261-0.546,0.504-1.101,0.73-1.662C70.963,57,70.154,58.754,68.579,70.709z"/><path fill-rule="evenodd" clip-rule="evenodd" d="M53.262,34.081l-4.724-1.266c-2.897-0.776-4.364-1.257-4.912-0.535L12.89,24.043  c-0.321-0.086-0.651,0.104-0.737,0.426l-1.514,5.648c-0.042,0.154-0.019,0.311,0.051,0.441l1.784,3.825  c0.14,0.301,0.497,0.432,0.798,0.292l3.314-1.545l1.545,3.313c0.14,0.301,0.497,0.431,0.798,0.292l3.314-1.545l1.545,3.313  c0.14,0.301,0.497,0.432,0.798,0.292l3.314-1.545l1.545,3.313c0.14,0.301,0.497,0.432,0.798,0.292l3.314-1.545l1.544,3.313  c0.14,0.301,0.497,0.431,0.798,0.292l3.314-1.545l1.544,3.313c0.078,0.168,0.224,0.283,0.39,0.328l2.231,0.599  c0.427,0.593,0.908,1.026,1.419,1.163l4.724,1.266c1.307,0.35,2.551-0.6,3.546-2.148c1.131,0.546,2.397,0.962,3.737,1.199  c0.307,0.054,0.617,0.1,0.934,0.135c0.864-1.077,1.594-2.274,2.202-3.551c0.573-1.204,1.07-2.481,1.474-3.797  c-1.148,0.283-2.308,0.29-3.367,0.102c-1.186-0.209-2.168-0.635-2.795-1.157C55.378,36.475,54.822,34.499,53.262,34.081  L53.262,34.081z M50.732,44.421c-0.758,0.737-1.633,1.087-2.439,0.871c-1.59-0.426-0.397-2.374,0.302-4.984  c0.699-2.609,0.641-4.893,2.23-4.467c0.762,0.204,1.324,0.875,1.626,1.805c-0.897,0.03-1.785,0.394-2.461,1.088  c-1.388,1.426-1.356,3.707,0.07,5.094C50.27,44.032,50.495,44.23,50.732,44.421L50.732,44.421z M43.244,33.423l-1.674,6.246  c-0.201,0.749,0.214,2.767,0.983,4.469l-0.823-0.221l-1.68-3.602c-0.14-0.301-0.498-0.432-0.798-0.292l-3.314,1.545l-1.545-3.312  c-0.14-0.301-0.497-0.432-0.798-0.292l-3.314,1.545l-1.544-3.313c-0.14-0.301-0.498-0.432-0.798-0.292l-3.314,1.545l-1.544-3.313  c-0.14-0.301-0.498-0.432-0.798-0.292l-3.314,1.545l-1.544-3.313c-0.14-0.301-0.498-0.432-0.798-0.292l-3.314,1.545l-1.452-3.113  l1.301-4.857L43.244,33.423z"/><rect x="20.929" y="51.655" fill-rule="evenodd" clip-rule="evenodd" width="24.081" height="6.02"/><polygon fill-rule="evenodd" clip-rule="evenodd" points="23.337,58.879 26.949,58.879 25.323,75.134 40.615,75.134 38.989,58.879   42.601,58.879 46.213,95 42.601,95 40.976,78.746 24.962,78.746 23.337,95 19.725,95 "/><rect x="25.745" y="48.043" fill-rule="evenodd" clip-rule="evenodd" width="14.448" height="2.408"/><text x="0" y="115" fill="#000000" font-size="5px" font-weight="bold" font-family="'Helvetica Neue', Helvetica, Arial-Unicode, Arial, Sans-serif"></text><text x="0" y="120" fill="#000000" font-size="5px" font-weight="bold" font-family="'Helvetica Neue', Helvetica, Arial-Unicode, Arial, Sans-serif"></text></svg>
