<svg xmlns="http://www.w3.org/2000/svg" xmlns:xlink="http://www.w3.org/1999/xlink" version="1.1" x="0px" y="0px" viewBox="0 0 100 125" style="enable-background:new 0 0 100 100;" xml:space="preserve"><g><g><path d="M53.2,34c-0.4-0.2-1.1-0.3-1.9-0.3h-4.6V39h4.4c0.9,0,1.5-0.1,2-0.3c0.8-0.4,1.2-1.1,1.2-2.2C54.3,35.3,53.9,34.5,53.2,34    z"/><polygon points="28.2,42.5 33.2,42.5 30.7,34.8   "/><polygon points="67.8,42.5 72.8,42.5 70.3,34.8   "/><path d="M84,5H16C9.9,5,5,9.6,5,15.3V67c0,5.7,4.9,10.3,11,10.3h7.2v15.3c0,0.9,0.6,1.8,1.5,2.2c0.4,0.2,0.7,0.2,1.1,0.2    c0.6,0,1.2-0.2,1.7-0.5l22.7-17.2H84c6.1,0,11-4.6,11-10.3V15.3C95,9.6,90.1,5,84,5z M35.6,50l-1.3-4.1h-7.3L25.7,50h-4.3l7-19.7    h4.7l7,19.7H35.6z M58.8,50h-4.6c-0.1-0.4-0.2-0.8-0.3-1.1c-0.1-0.6-0.2-1.1-0.2-1.7l0-1.8c0-1.3-0.2-2.1-0.7-2.5    c-0.4-0.4-1.2-0.6-2.3-0.6h-4V50h-4V30.3h9.4c1.3,0,2.4,0.2,3.1,0.5c0.7,0.3,1.3,0.8,1.8,1.4c0.4,0.5,0.7,1.1,1,1.7    c0.2,0.6,0.4,1.3,0.4,2.1c0,0.9-0.2,1.9-0.7,2.8s-1.3,1.5-2.3,1.9c0.9,0.4,1.6,0.9,1.9,1.6s0.6,1.7,0.6,3.1v1.3    c0,0.9,0,1.5,0.1,1.8c0.1,0.5,0.4,0.9,0.8,1.1V50z M75.2,50l-1.3-4.1h-7.3L65.3,50H61l7-19.7h4.7l7,19.7H75.2z"/></g></g><text x="0" y="115" fill="#000000" font-size="5px" font-weight="bold" font-family="'Helvetica Neue', Helvetica, Arial-Unicode, Arial, Sans-serif">Created by Jonathan Coutiño</text><text x="0" y="120" fill="#000000" font-size="5px" font-weight="bold" font-family="'Helvetica Neue', Helvetica, Arial-Unicode, Arial, Sans-serif">from the Noun Project</text></svg>