<svg xmlns="http://www.w3.org/2000/svg" xmlns:xlink="http://www.w3.org/1999/xlink" version="1.1" x="0px" y="0px" viewBox="0 0 100 125" style="enable-background:new 0 0 100 100;" xml:space="preserve"><g><g><path d="M68.3,33.2c-1.6,0-2.9,0.6-3.9,1.8c-1,1.2-1.5,2.9-1.5,5.1c0,2.2,0.5,3.9,1.5,5.1c1,1.2,2.3,1.8,3.9,1.8    c1.6,0,2.9-0.6,3.9-1.8c1-1.2,1.4-2.9,1.4-5.1c0-2.2-0.5-3.9-1.4-5.1C71.3,33.8,70,33.2,68.3,33.2z"/><path d="M84,5H16C9.9,5,5,9.6,5,15.3V67c0,5.7,4.9,10.3,11,10.3h7.2v15.3c0,0.9,0.6,1.8,1.5,2.2c0.4,0.2,0.7,0.2,1.1,0.2    c0.6,0,1.2-0.2,1.7-0.5l22.7-17.2H84c6.1,0,11-4.6,11-10.3V15.3C95,9.6,90.1,5,84,5z M36.9,50H21.7v-3.5l10.1-12.8h-9.8v-3.5h15    v3.3L26.7,46.5h10.2V50z M55.7,50h-4.1v-8.8h-7.7V50h-4.1V30.3h4.1v7.5h7.7v-7.5h4.1V50z M74.8,48.2c-1.5,1.5-3.6,2.3-6.5,2.3    s-5-0.8-6.5-2.3c-2-1.9-3-4.6-3-8.1c0-3.6,1-6.3,3-8.1c1.5-1.5,3.6-2.3,6.5-2.3s5,0.8,6.5,2.3c2,1.8,3,4.5,3,8.1    C77.8,43.7,76.8,46.4,74.8,48.2z"/></g></g><text x="0" y="115" fill="#000000" font-size="5px" font-weight="bold" font-family="'Helvetica Neue', Helvetica, Arial-Unicode, Arial, Sans-serif"></text><text x="0" y="120" fill="#000000" font-size="5px" font-weight="bold" font-family="'Helvetica Neue', Helvetica, Arial-Unicode, Arial, Sans-serif"></text></svg>
