<svg xmlns="http://www.w3.org/2000/svg" xmlns:xlink="http://www.w3.org/1999/xlink" version="1.1" x="0px" y="0px" viewBox="0 0 100 125" style="enable-background:new 0 0 100 100;" xml:space="preserve"><g><g><path d="M68.2,33.7h-3.8v12.9h3.8c1.9,0,3.3-1,4.1-2.9c0.4-1.1,0.6-2.3,0.6-3.8c0-2-0.3-3.5-0.9-4.6    C71.3,34.2,70.1,33.7,68.2,33.7z"/><path d="M84,5H16C9.9,5,5,9.6,5,15.3V67c0,5.7,4.9,10.3,11,10.3h7.2v15.3c0,0.9,0.6,1.8,1.5,2.2c0.4,0.2,0.7,0.2,1.1,0.2    c0.6,0,1.2-0.2,1.7-0.5l22.7-17.2H84c6.1,0,11-4.6,11-10.3V15.3C95,9.6,90.1,5,84,5z M39.8,50h-4.1l-8-14v14h-3.8V30.3h4.3    L35.9,44V30.3h3.8V50z M57.6,50h-14V30.3h4.1v16.2h9.9V50z M75.5,46.3c-1.4,2.5-3.6,3.7-6.6,3.7h-8.5V30.3h8.5    c1.2,0,2.2,0.2,3.1,0.4c1.4,0.5,2.5,1.3,3.4,2.5c0.7,1,1.2,2,1.4,3.2c0.2,1.1,0.4,2.2,0.4,3.3C77.1,42.3,76.6,44.5,75.5,46.3z"/></g></g><text x="0" y="115" fill="#000000" font-size="5px" font-weight="bold" font-family="'Helvetica Neue', Helvetica, Arial-Unicode, Arial, Sans-serif"></text><text x="0" y="120" fill="#000000" font-size="5px" font-weight="bold" font-family="'Helvetica Neue', Helvetica, Arial-Unicode, Arial, Sans-serif"></text></svg>
