<svg xmlns="http://www.w3.org/2000/svg" xmlns:xlink="http://www.w3.org/1999/xlink" version="1.1" x="0px" y="0px" viewBox="0 0 100 125" style="enable-background:new 0 0 100 100;" xml:space="preserve"><g><path d="M84,5H16C9.9,5,5,9.6,5,15.3V67c0,5.7,4.9,10.3,11,10.3h7.2v15.3c0,0.9,0.6,1.8,1.5,2.2c0.4,0.2,0.7,0.2,1.1,0.2   c0.6,0,1.2-0.2,1.7-0.5l22.7-17.2H84c6.1,0,11-4.6,11-10.3V15.3C95,9.6,90.1,5,84,5z M37.4,50h-15V30.3h14.5v3.5H26.5V38H36v3.4   h-9.6v5.1h10.9V50z M56.5,50h-4.1l-8-14v14h-3.8V30.3h4.3L52.7,44V30.3h3.8V50z M77.8,50H75l-0.4-2.5c-0.8,0.9-1.5,1.6-2.1,2   c-1.1,0.7-2.4,1-4,1c-2.6,0-4.8-0.9-6.4-2.7c-1.7-1.8-2.6-4.3-2.6-7.5c0-3.2,0.9-5.8,2.6-7.7s4.1-2.9,7-2.9c2.5,0,4.5,0.6,6,1.9   c1.5,1.3,2.4,2.9,2.6,4.8h-4.1c-0.3-1.3-1.1-2.3-2.3-2.8c-0.7-0.3-1.4-0.4-2.3-0.4c-1.6,0-2.9,0.6-3.9,1.8c-1,1.2-1.5,3-1.5,5.4   c0,2.4,0.6,4.1,1.7,5.1s2.4,1.5,3.8,1.5c1.4,0,2.5-0.4,3.4-1.2c0.9-0.8,1.4-1.8,1.6-3.1h-4.6v-3.3h8.2V50z"/></g><text x="0" y="115" fill="#000000" font-size="5px" font-weight="bold" font-family="'Helvetica Neue', Helvetica, Arial-Unicode, Arial, Sans-serif">Created by Jonathan Coutiño</text><text x="0" y="120" fill="#000000" font-size="5px" font-weight="bold" font-family="'Helvetica Neue', Helvetica, Arial-Unicode, Arial, Sans-serif">from the Noun Project</text></svg>