<svg xmlns="http://www.w3.org/2000/svg" xmlns:xlink="http://www.w3.org/1999/xlink" version="1.1" x="0px" y="0px" viewBox="0 0 100 125" style="enable-background:new 0 0 100 100;" xml:space="preserve"><g><g><path d="M30.9,33.7h-3.8v12.9h3.8c1.9,0,3.3-1,4.1-2.9c0.4-1.1,0.6-2.3,0.6-3.8c0-2-0.3-3.5-0.9-4.6C34,34.2,32.8,33.7,30.9,33.7z    "/><path d="M84,5H16C9.9,5,5,9.6,5,15.3V67c0,5.7,4.9,10.3,11,10.3h7.2v15.3c0,0.9,0.6,1.8,1.5,2.2c0.4,0.2,0.7,0.2,1.1,0.2    c0.6,0,1.2-0.2,1.7-0.5l22.7-17.2H84c6.1,0,11-4.6,11-10.3V15.3C95,9.6,90.1,5,84,5z M38.2,46.3c-1.4,2.5-3.6,3.7-6.6,3.7h-8.5    V30.3h8.5c1.2,0,2.2,0.2,3.1,0.4c1.4,0.5,2.5,1.3,3.4,2.5c0.7,1,1.2,2,1.4,3.2c0.2,1.1,0.4,2.2,0.4,3.3    C39.8,42.3,39.2,44.5,38.2,46.3z M57.9,50H43V30.3h14.5v3.5H47V38h9.6v3.4H47v5.1h10.9V50z M77,42.4c0,2.1-0.3,3.7-1,4.9    c-1.2,2.1-3.5,3.2-6.9,3.2c-3.4,0-5.7-1.1-6.9-3.2c-0.7-1.2-1-2.8-1-4.9V30.3h4.2v12.1c0,1.4,0.2,2.3,0.5,3    c0.5,1.1,1.6,1.7,3.3,1.7c1.7,0,2.7-0.6,3.2-1.7c0.3-0.6,0.5-1.6,0.5-3V30.3H77V42.4z"/></g></g><text x="0" y="115" fill="#000000" font-size="5px" font-weight="bold" font-family="'Helvetica Neue', Helvetica, Arial-Unicode, Arial, Sans-serif"></text><text x="0" y="120" fill="#000000" font-size="5px" font-weight="bold" font-family="'Helvetica Neue', Helvetica, Arial-Unicode, Arial, Sans-serif"></text></svg>
