<?xml version="1.0" encoding="utf-8"?><!DOCTYPE svg PUBLIC "-//W3C//DTD SVG 1.1//EN" "http://www.w3.org/Graphics/SVG/1.1/DTD/svg11.dtd"><svg version="1.1" xmlns="http://www.w3.org/2000/svg" xmlns:xlink="http://www.w3.org/1999/xlink" x="0px" y="0px" viewBox="0.646 0 99.173 125" enable-background="new 0.646 0 99.173 100" xml:space="preserve"><g><path d="M95.384,78.016c-0.764,0.138-2.339,0.403-3.296,0c-1.593-0.671-3.627-1.332-5.658-2.93
		c-3.614-2.843-9.387-9.404-10.673-11.917c-1.36-2.663-1.271-15.061-1.684-18.777c-0.624-5.592,0.193-6.972-3.965-9.26
		c-4.292-2.364-11.892-2.822-13.438-4.72c-1.549-1.897-0.898-4.448-0.898-4.448c3.195-3.262,4.593-7.714,4.593-12.308
		c0-4.593-3.793-8.964-10.186-8.964c-6.392,0-10.13,4.371-10.13,8.964c0,4.594,1.424,9.045,4.619,12.308
		c0,0,0.664,2.552-0.884,4.448c-1.548,1.897-9.139,2.356-13.435,4.72c-4.157,2.288-3.336,3.668-3.959,9.26
		c-0.414,3.715-0.322,16.114-1.684,18.777c-1.286,2.513-7.056,9.074-10.671,11.917c-2.03,1.598-4.066,2.259-5.66,2.93
		c-0.955,0.403-2.53,0.138-3.294,0c-2.597-0.465-6.051-0.099-3.595,2.724c2.958,3.403,5.327,2.269,5.327,2.269
		s-3.729,4.595,1.663,10.587c5.393,5.991,8.9,6.923,16.223,6.191c7.324-0.732,25.477-3.196,25.477-3.196s18.208,2.464,25.533,3.196
		c7.323,0.732,10.884-0.2,16.278-6.191c5.393-5.992,1.662-10.587,1.662-10.587s2.369,1.135,5.327-2.269
		C101.436,77.917,97.98,77.551,95.384,78.016z M36.572,68.896c-0.233,3.348-2.863,11.228-4.318,11.804
		c-3.139,1.245-15.812,0.093-15.904,0c8.231-3.86,15.164-13.004,16.094-14.399c0.93-1.396,3.196-20.772,3.196-20.772
		S36.805,65.547,36.572,68.896z M68.211,80.699c-1.453-0.576-4.084-8.456-4.316-11.804c-0.232-3.349,0.931-23.369,0.931-23.369
		s2.266,19.376,3.196,20.772c0.93,1.395,7.865,10.54,16.095,14.4C84.022,80.792,71.35,81.944,68.211,80.699z"/><path d="M45.694,3.945C45.694,2.776,45.653,0,50.136,0s4.441,2.776,4.441,3.945s-1.989,1.872-4.441,1.872
		C47.682,5.817,45.694,5.115,45.694,3.945z"/></g><text x="0.646" y="115" fill="#000000" font-size="5px" font-weight="bold" font-family="'Helvetica Neue', Helvetica, Arial-Unicode, Arial, Sans-serif"></text><text x="0.646" y="120" fill="#000000" font-size="5px" font-weight="bold" font-family="'Helvetica Neue', Helvetica, Arial-Unicode, Arial, Sans-serif"></text></svg>
