<svg xmlns="http://www.w3.org/2000/svg" xmlns:xlink="http://www.w3.org/1999/xlink" version="1.1" x="0px" y="0px" viewBox="0 0 100 125" style="enable-background:new 0 0 100 100;" xml:space="preserve"><g><path d="M84,5H16C9.9,5,5,9.6,5,15.3V67c0,5.7,4.9,10.3,11,10.3h7.2v15.3c0,0.9,0.6,1.8,1.5,2.2c0.4,0.2,0.7,0.2,1.1,0.2   c0.6,0,1.2-0.2,1.7-0.5l22.7-17.2H84c6.1,0,11-4.6,11-10.3V15.3C95,9.6,90.1,5,84,5z M34.1,48.7c-1.4,1.2-3.4,1.8-5.9,1.8   c-2.6,0-4.6-0.6-6.1-1.8s-2.2-2.8-2.2-4.8h3.9c0.1,0.9,0.4,1.6,0.8,2c0.7,0.8,1.9,1.2,3.5,1.2c1,0,1.8-0.1,2.4-0.3   c1.2-0.4,1.8-1.2,1.8-2.3c0-0.7-0.3-1.2-0.9-1.5c-0.6-0.3-1.5-0.7-2.7-0.9l-2.1-0.5c-2.1-0.5-3.5-1-4.3-1.5c-1.3-0.9-2-2.3-2-4.3   c0-1.8,0.6-3.2,2-4.4c1.3-1.2,3.2-1.8,5.7-1.8c2.1,0,3.9,0.6,5.4,1.7c1.5,1.1,2.3,2.7,2.3,4.8h-4c-0.1-1.2-0.6-2-1.6-2.5   c-0.7-0.3-1.5-0.5-2.5-0.5c-1.1,0-2,0.2-2.6,0.6c-0.6,0.4-1,1-1,1.8c0,0.7,0.3,1.2,1,1.6c0.4,0.2,1.3,0.5,2.6,0.8l3.5,0.8   c1.5,0.4,2.7,0.8,3.4,1.4c1.2,0.9,1.8,2.3,1.8,4C36.2,46,35.5,47.5,34.1,48.7z M56.9,50H53l-2.4-11.5l-0.7-3.8l-0.7,3.8L46.8,50H43   l-5.6-19.7h4.4l2.6,11.3l0.6,3.1l0.6-3.1l2.2-11.4h4.3l2.3,11.3l0.6,3.1l0.6-3l2.6-11.4h4.2L56.9,50z M80,50h-15V30.3h14.5v3.5   H69.1V38h9.6v3.4h-9.6v5.1H80V50z"/></g><text x="0" y="115" fill="#000000" font-size="5px" font-weight="bold" font-family="'Helvetica Neue', Helvetica, Arial-Unicode, Arial, Sans-serif"></text><text x="0" y="120" fill="#000000" font-size="5px" font-weight="bold" font-family="'Helvetica Neue', Helvetica, Arial-Unicode, Arial, Sans-serif"></text></svg>
