<svg xmlns="http://www.w3.org/2000/svg" xmlns:xlink="http://www.w3.org/1999/xlink" version="1.1" x="0px" y="0px" viewBox="0 0 100 125" enable-background="new 0 0 100 100" xml:space="preserve"><path d="M90.017,4.001H15c-0.553,0-1,0.448-1,1V95c0,0.553,0.447,1,1,1h75.017c0.553,0,1-0.447,1-1V5.001  C91.017,4.449,90.569,4.001,90.017,4.001z M16,6.703l3.065,3.055c-0.021,0.08-0.049,0.156-0.049,0.242v80.001  c0,0.086,0.028,0.162,0.049,0.242L16,93.298V6.703z M85.246,9.05C85.165,9.029,85.087,9,85,9H20.017  c-0.087,0-0.165,0.029-0.246,0.05l-3.06-3.049h71.595L85.246,9.05z M35.062,89.001c-0.362-1.002-0.553-2.053-0.553-3.138  c0-5.101,4.149-9.25,9.25-9.25s9.25,4.149,9.25,9.25c0,0.276,0.224,0.5,0.5,0.5s0.5-0.224,0.5-0.5c0-1.583-0.371-3.077-1.015-4.417  c1.357-1.767,3.46-2.821,5.693-2.821c1.576,0,3.072,0.5,4.326,1.447c0.219,0.164,0.533,0.123,0.7-0.099  c0.166-0.22,0.122-0.533-0.099-0.7c-1.429-1.078-3.133-1.648-4.928-1.648c-2.397,0-4.664,1.066-6.212,2.872  c-1.808-2.925-5.033-4.884-8.717-4.884c-5.652,0-10.25,4.598-10.25,10.25c0,1.079,0.172,2.129,0.497,3.138H25.07  c0.291-8.799,4.401-15.7,12.254-20.512c0.688-0.422,1.33-0.859,1.933-1.312c2.851,3.42,6.989,5.386,11.46,5.386  c3.696,0,7.208-1.359,9.949-3.816c1.7,1.327,3.698,2.353,5.898,2.978c0.509,0.146,1.137,0.304,1.829,0.479  c0.728,0.184,1.529,0.388,2.339,0.611c-0.825,0.281-1.71,0.812-2.445,1.793c-1.998,2.665-2.066,6.026-2.068,6.168  c-0.004,0.276,0.217,0.503,0.493,0.507c0.002,0,0.005,0,0.007,0c0.272,0,0.496-0.22,0.5-0.493c0-0.031,0.07-3.184,1.869-5.582  c1.458-1.944,3.659-1.71,4.034-1.652c1.229,0.434,2.316,0.925,2.967,1.49c4.002,3.483,4.771,11.205,4.918,13.957H35.062z   M55.653,28.094c-0.021,0.01-0.034,0.028-0.052,0.041c-0.033,0.021-0.065,0.042-0.092,0.07c-0.021,0.023-0.034,0.049-0.051,0.076  c-0.018,0.028-0.037,0.054-0.049,0.085c-0.013,0.033-0.016,0.068-0.021,0.104c-0.004,0.024-0.015,0.046-0.015,0.072v2.213  c0,0.276,0.224,0.5,0.5,0.5h1.388c-0.173,0.295-0.278,0.634-0.278,1c0,1.103,0.897,2,2,2s2-0.897,2-2c0-0.366-0.105-0.705-0.278-1  h1.963l-1.624,2.227c-0.162,0.223-0.113,0.536,0.109,0.698c0.089,0.065,0.192,0.096,0.295,0.096c0.154,0,0.306-0.071,0.404-0.206  l2.167-2.972c0.091-0.096,0.146-0.226,0.146-0.364c0-0.216-0.14-0.408-0.345-0.476c-0.101-0.032-0.201-0.032-0.297-0.004h-7.15  v-1.392c0.81-0.351,3.312-1.322,6.251-1.322c0.757,0,1.543,0.072,2.337,0.2c0.062,0.177,0.125,0.348,0.186,0.536  c1.195,3.724,1.934,14.869,2.077,17.197l-6.079,1.286c-0.252,0.053-0.422,0.289-0.394,0.545c0.064,0.577,0.121,1.2,0.169,1.849  l-0.796-0.798c-0.188-0.189-0.491-0.196-0.689-0.018l-1.29,1.165l-1.386-1.175c-0.188-0.161-0.471-0.158-0.657,0.009l-1.979,1.772  c-0.205,0.185-0.223,0.5-0.038,0.706c0.099,0.11,0.235,0.167,0.372,0.167c0.119,0,0.238-0.042,0.334-0.127l1.653-1.482l1.387,1.177  c0.188,0.161,0.472,0.158,0.658-0.01l1.262-1.14l1.255,1.259c0.012,0.259,0.022,0.518,0.03,0.779h-8.444c-0.276,0-0.5,0.224-0.5,0.5  s0.224,0.5,0.5,0.5h8.465c0.004,0.387,0.002,0.771-0.004,1.153c-0.391,0.271-1.402,0.882-2.596,0.882  c-1.547,0-3.688-1.517-3.709-1.532c-0.224-0.159-0.536-0.106-0.697,0.116c-0.161,0.225-0.109,0.537,0.115,0.697  c0.098,0.07,2.423,1.719,4.291,1.719c1.039,0,1.938-0.358,2.557-0.691c-0.144,2.958-0.653,5.459-1.81,5.873  c-1.08,0.387-2.19,0.583-3.299,0.583h-0.001c-8.681,0-15.798-11.562-16.884-19.521c-1.055-7.736,5.097-17.256,15.937-19.098  c1.33-0.226,2.38-0.332,3.304-0.332c1.974,0,3.652,0.456,5.025,2.202c-0.221-0.01-0.446-0.038-0.662-0.038  c-3.8,0-6.846,1.489-6.973,1.552c-0.248,0.123-0.349,0.422-0.227,0.67c0.088,0.176,0.265,0.278,0.448,0.278  c0.075,0,0.15-0.017,0.222-0.052c0.033-0.016,3.743-1.757,7.879-1.376c0.199,0.351,0.393,0.732,0.577,1.158  c-0.652-0.082-1.3-0.138-1.927-0.138C58.826,26.542,55.78,28.031,55.653,28.094z M59.984,32.255c0,0.551-0.448,1-1,1s-1-0.449-1-1  s0.448-1,1-1S59.984,31.704,59.984,32.255z M55.79,62.232c0.854,2.244,2.268,4.246,4.098,5.868  c-2.542,2.229-5.771,3.462-9.171,3.462c-4.161,0-8.015-1.827-10.674-5.004c3.17-2.621,5.004-5.746,5.567-9.468  C48.494,60.106,51.996,62.19,55.79,62.232z M38.032,41.851c0.203,1.489,0.614,3.099,1.2,4.738c-0.099,0.009-0.195,0.036-0.295,0.036  c-1.896,0-3.438-1.542-3.438-3.438c0-1.524,1.01-2.843,2.424-3.281C37.92,40.562,37.945,41.213,38.032,41.851z M58.263,21.287  c-0.981,0-2.085,0.11-3.472,0.345c-10.06,1.709-16.27,9.748-16.833,17.246c-1.993,0.454-3.458,2.229-3.458,4.31  c0,2.447,1.99,4.438,4.438,4.438c0.223,0,0.444-0.022,0.664-0.056c1.19,2.99,2.95,6.016,5.117,8.538  c-0.457,4.767-3.043,8.541-7.918,11.528c-0.931,0.57-1.801,1.174-2.631,1.8c-10.019-18.104-6.907-34.501-3.823-40.688  c3.743-7.509,10.349-11.992,17.668-11.992c4.704,0,9.2,1.761,12.65,4.835C59.937,21.39,59.142,21.287,58.263,21.287z M82.013,89.001  c-0.134-2.837-0.899-10.91-5.268-14.711c-0.767-0.668-2.001-1.226-3.371-1.706c-0.004,0-0.007-0.003-0.011-0.004  c0,0-0.002,0-0.003,0c-1.55-0.542-3.274-0.982-4.722-1.348c-0.682-0.172-1.3-0.328-1.801-0.47c-4.634-1.317-8.295-4.502-9.968-8.572  c0.9-0.083,1.797-0.28,2.674-0.595c3.305-1.183,2.504-11.398,2.25-13.95l6.06-1.282c0.241-0.051,0.409-0.271,0.396-0.518  c-0.031-0.553-0.779-13.607-2.147-17.875c-0.398-1.24-0.857-2.287-1.388-3.163c-0.018-0.032-0.033-0.063-0.057-0.09  c-0.093-0.15-0.186-0.298-0.283-0.437c-0.014-0.031-0.021-0.063-0.041-0.092c-3.75-5.281-9.851-8.434-16.318-8.434  c-7.707,0-14.646,4.69-18.562,12.546c-0.375,0.753-8.982,18.607,3.921,41.76c-5.934,4.804-9.056,11.156-9.303,18.939h-3.054V11H84  v78.001H82.013z M19.771,90.951c0.08,0.021,0.158,0.05,0.245,0.05H85c0.087,0,0.165-0.028,0.245-0.05L88.305,94H16.712  L19.771,90.951z M85.951,90.243C85.972,90.163,86,90.087,86,90.001V10c0-0.086-0.028-0.163-0.049-0.243l3.065-3.055v86.595  L85.951,90.243z"/><path d="M63.034,45.313c0.031,0,0.062-0.003,0.093-0.008l2.34-0.438c0.271-0.051,0.45-0.312,0.399-0.583  c-0.051-0.273-0.316-0.444-0.583-0.4l-2.34,0.438c-0.271,0.051-0.45,0.312-0.399,0.583C62.589,45.146,62.799,45.313,63.034,45.313z"/><path d="M58.374,46.188c0.031,0,0.062-0.003,0.093-0.009l2.603-0.488c0.271-0.051,0.45-0.312,0.399-0.583  c-0.051-0.272-0.317-0.448-0.583-0.399l-2.603,0.488c-0.271,0.051-0.45,0.312-0.399,0.583C57.929,46.02,58.139,46.188,58.374,46.188  z"/><path d="M54.304,37.335c-0.127-0.063-3.173-1.552-6.971-1.552c-3.8,0-6.846,1.489-6.973,1.552c-0.248,0.123-0.349,0.422-0.227,0.67  c0.088,0.176,0.265,0.278,0.448,0.278c0.075,0,0.15-0.017,0.222-0.052c0.029-0.014,2.961-1.448,6.529-1.448  c3.556,0,6.498,1.434,6.527,1.448c0.249,0.123,0.547,0.021,0.67-0.227C54.652,37.758,54.552,37.458,54.304,37.335z"/><path d="M54.304,35.108c-0.127-0.063-3.173-1.552-6.971-1.552c-3.8,0-6.846,1.489-6.973,1.552c-0.248,0.123-0.349,0.422-0.227,0.67  c0.088,0.176,0.265,0.278,0.448,0.278c0.075,0,0.15-0.017,0.222-0.052c0.029-0.014,2.961-1.448,6.529-1.448  c3.556,0,6.498,1.434,6.527,1.448c0.249,0.123,0.547,0.021,0.67-0.227C54.652,35.531,54.552,35.231,54.304,35.108z"/><path d="M52.874,39.75c0.002-0.015,0.011-0.027,0.011-0.042c0-0.011-0.007-0.02-0.008-0.031c-0.004-0.059-0.019-0.114-0.042-0.168  c-0.007-0.015-0.009-0.031-0.017-0.045c-0.034-0.061-0.079-0.116-0.139-0.16c-0.004-0.002-0.008-0.003-0.012-0.005  c-0.003-0.002-0.004-0.006-0.007-0.008c-0.098-0.064-2.423-1.583-5.328-1.583c-2.906,0-5.231,1.519-5.329,1.583  c-0.14,0.093-0.224,0.25-0.224,0.417s0.084,0.324,0.224,0.417c0.098,0.064,2.423,1.583,5.329,1.583c1.337,0,2.537-0.323,3.468-0.677  l-1.038,1.424c-0.162,0.223-0.113,0.536,0.109,0.698c0.089,0.065,0.192,0.096,0.295,0.096c0.154,0,0.306-0.071,0.404-0.206  l2.218-3.042c0.008-0.011,0.01-0.025,0.017-0.036c0.014-0.022,0.021-0.045,0.031-0.069C52.857,39.85,52.87,39.801,52.874,39.75z   M46.333,39.708c0-0.551,0.448-1,1-1s1,0.449,1,1s-0.448,1-1,1S46.333,40.26,46.333,39.708z M49.176,38.931  c0.892,0.208,1.652,0.522,2.175,0.778c-0.522,0.255-1.283,0.57-2.175,0.778c0.102-0.239,0.157-0.502,0.157-0.778  S49.277,39.17,49.176,38.931z M45.49,38.931c-0.102,0.239-0.157,0.502-0.157,0.778s0.056,0.539,0.157,0.778  c-0.893-0.208-1.653-0.522-2.176-0.778C43.837,39.453,44.598,39.138,45.49,38.931z"/><text x="0" y="115" fill="#000000" font-size="5px" font-weight="bold" font-family="'Helvetica Neue', Helvetica, Arial-Unicode, Arial, Sans-serif"></text><text x="0" y="120" fill="#000000" font-size="5px" font-weight="bold" font-family="'Helvetica Neue', Helvetica, Arial-Unicode, Arial, Sans-serif"></text></svg>
