<svg xmlns="http://www.w3.org/2000/svg" xmlns:xlink="http://www.w3.org/1999/xlink" version="1.1" x="0px" y="0px" viewBox="0 0 96.001 120" enable-background="new 0 0 96.001 96" xml:space="preserve"><path d="M30.514,33.165c7.42,0,13.457-6.037,13.457-13.458S37.934,6.25,30.514,6.25s-13.457,6.037-13.457,13.457  S23.094,33.165,30.514,33.165z"/><path d="M58.929,33.165c7.42,0,13.457-6.037,13.457-13.458S66.349,6.25,58.929,6.25c-7.421,0-13.458,6.037-13.458,13.457  S51.508,33.165,58.929,33.165z"/><polygon points="87.2,34.128 79.473,37.79 79.473,48.497 87.2,52.157 "/><polygon points="77.973,49.447 77.973,36.84 77.973,34.665 58.929,34.665 30.514,34.665 14.386,34.665 14.386,51.421 14.386,61.335   77.973,61.335 "/><rect x="8.801" y="34.665" width="4.085" height="15.257"/><polygon points="74.063,91.031 75.123,89.97 47.989,62.835 46.179,63.146 "/><polygon points="17.233,89.97 18.294,91.031 46.179,63.146 44.368,62.835 "/><text x="0" y="111" fill="#000000" font-size="5px" font-weight="bold" font-family="'Helvetica Neue', Helvetica, Arial-Unicode, Arial, Sans-serif"></text><text x="0" y="116" fill="#000000" font-size="5px" font-weight="bold" font-family="'Helvetica Neue', Helvetica, Arial-Unicode, Arial, Sans-serif"></text></svg>
