<svg xmlns="http://www.w3.org/2000/svg" viewBox="0 0 32 40" x="0px" y="0px"><title>53-Computer Graphic</title><g data-name="53-Computer Graphic"><path d="M24,29H22.87l-.43-3H9.56l-.43,3H8a1,1,0,0,0-1,1H5v2H27V30H25A1,1,0,0,0,24,29Z"/><path d="M2,19H0v4a1,1,0,0,0,1,1H31a1,1,0,0,0,1-1V19H2Z"/><path d="M6,6V17H26V6Zm14.92,7.38A1,1,0,0,1,20,14H12a1,1,0,0,1-.71-1.71l3-3a1,1,0,0,1,1.41,0L17,10.59l.29-.29a1,1,0,0,1,1.41,0l2,2A1,1,0,0,1,20.92,13.38Z"/><path d="M29,0H3A3,3,0,0,0,0,3V17H4V5A1,1,0,0,1,5,4H27a1,1,0,0,1,1,1V17h4V3A3,3,0,0,0,29,0Z"/></g><text x="0" y="47" fill="#000000" font-size="5px" font-weight="bold" font-family="'Helvetica Neue', Helvetica, Arial-Unicode, Arial, Sans-serif"></text><text x="0" y="52" fill="#000000" font-size="5px" font-weight="bold" font-family="'Helvetica Neue', Helvetica, Arial-Unicode, Arial, Sans-serif"></text></svg>
