<svg xmlns="http://www.w3.org/2000/svg" xmlns:xlink="http://www.w3.org/1999/xlink" version="1.1" x="0px" y="0px" viewBox="0 0 96.001 120" enable-background="new 0 0 96.001 96" xml:space="preserve"><rect x="16.328" y="58.719" width="8.796" height="2.223"/><path d="M46.998,26.219h31.36V15.45h-31.36V26.219z M56.105,20.086H69.25v1.5H56.105V20.086z"/><rect x="16.328" y="51.16" width="8.796" height="2.223"/><path d="M79.858,27.719h-34.36H27.61H13.843H6.251V80.55h83.5V27.719H79.858z M26.624,62.441H14.828v-5.223h11.796V62.441z   M26.624,54.883H14.828V49.66h11.796V54.883z M20.726,46.011c-3.252,0-5.897-2.646-5.897-5.897s2.646-5.897,5.897-5.897  s5.898,2.646,5.898,5.897S23.978,46.011,20.726,46.011z M59.392,71.917c-10.288,0-18.658-8.37-18.658-18.659  s8.37-18.659,18.658-18.659c10.289,0,18.659,8.37,18.659,18.659S69.681,71.917,59.392,71.917z"/><path d="M59.392,46.121c-3.935,0-7.136,3.201-7.136,7.137s3.201,7.137,7.136,7.137c3.936,0,7.137-3.201,7.137-7.137  S63.327,46.121,59.392,46.121z"/><path d="M20.726,35.716c-2.425,0-4.397,1.973-4.397,4.397s1.973,4.397,4.397,4.397c2.426,0,4.398-1.973,4.398-4.397  S23.151,35.716,20.726,35.716z"/><rect x="15.343" y="21.586" width="10.768" height="4.633"/><path d="M59.392,36.099c-9.461,0-17.158,7.697-17.158,17.159s7.697,17.159,17.158,17.159c9.462,0,17.159-7.697,17.159-17.159  S68.854,36.099,59.392,36.099z M59.392,61.895c-4.762,0-8.636-3.874-8.636-8.637s3.874-8.637,8.636-8.637  c4.763,0,8.637,3.874,8.637,8.637S64.154,61.895,59.392,61.895z"/><text x="0" y="111" fill="#000000" font-size="5px" font-weight="bold" font-family="'Helvetica Neue', Helvetica, Arial-Unicode, Arial, Sans-serif"></text><text x="0" y="116" fill="#000000" font-size="5px" font-weight="bold" font-family="'Helvetica Neue', Helvetica, Arial-Unicode, Arial, Sans-serif"></text></svg>
