<svg xmlns="http://www.w3.org/2000/svg" xmlns:xlink="http://www.w3.org/1999/xlink" version="1.1" x="0px" y="0px" viewBox="0 0 219.957 290.00374999999997" style="enable-background:new 0 0 219.957 232.003;" xml:space="preserve"><g><path d="M63,176.923c2.762,0,5-2.238,5-5v-5c0-2.762-2.238-5-5-5H5c-2.76,0-5,2.238-5,5v5c0,2.762,2.24,5,5,5h3.327l19.026,25.578   L6.957,229.921H20.25L34,211.437l13.75,18.483h13.293l-20.396-27.419l19.026-25.578H63z M34,204.923   c-1.75,0-3.166-1.418-3.166-3.166c0-1.75,1.416-3.166,3.166-3.166s3.168,1.416,3.168,3.166   C37.168,203.505,35.75,204.923,34,204.923z M34,193.565l-12.378-16.642H46.38L34,193.565z"/><polygon points="113.611,145.066 120.514,145.066 120.512,230.921 135.459,230.921 135.459,159.121 198.109,159.121    198.109,230.921 213.055,230.921 213.057,145.066 219.957,145.066 219.957,138.66 113.611,138.66  "/><path d="M149.35,68.655c0,1.447,1.636,2.765,4.316,3.774c-0.683,0.493-1.343,1.009-1.955,1.573   c-1.781,0.206-3.507,0.311-5.173,0.311c-13.413,0.006-23.879-6.227-31.337-12.879c-3.693-3.303-6.542-6.656-8.423-9.133   c-0.94-1.239-1.638-2.257-2.087-2.936c-0.224-0.341-0.384-0.596-0.479-0.752c-0.046-0.074-0.077-0.127-0.094-0.153h0.001   c-0.56-0.961-1.288-1.762-2.127-2.389c-1.437-1.386-3.146-2.402-5.114-2.892c-8.537-2.129-20.913,2.508-25.948,17.15   c-6.805,20.174-8.268,33.305-5.682,55.52c1.985,10.218,7.156,14.613,13.011,16.434c2.158,5.383,7.049,19.803,7.028,39.381   c-0.005,12.592-1.98,27.332-7.961,43.496c-2.396,6.473,0.909,13.665,7.384,16.061c1.432,0.529,2.898,0.781,4.339,0.781   c5.08,0,9.855-3.121,11.723-8.164c7.093-19.146,9.519-36.953,9.516-52.175c-0.024-24.67-6.255-42.503-9.184-49.555   c0.012-1.112-0.021-2.332-0.101-3.674c-1.392-10.381-0.166-21.808,1.622-32.319c-2.436-1.695-4.432-3.347-5.984-4.774   c-8.299-7.569-12.012-15.103-12.953-17.233c-2.175-5.151,0.21-11.029,5.286-13.177c1.242-0.526,2.55-0.792,3.888-0.792   c4.026,0,7.643,2.393,9.213,6.099c0.033,0.066,0.118,0.245,0.245,0.488c0.254,0.488,0.7,1.292,1.349,2.296   c1.207,1.864,3.308,4.685,6.435,7.53c8.361,7.495,18.78,11.162,31.841,11.206c4.573-0.002,9.481-0.488,14.58-1.444   c0.613-0.114,1.236-0.172,1.853-0.172c4.8,0,8.929,3.431,9.817,8.155c0.495,2.626-0.064,5.286-1.572,7.491   c-1.509,2.205-3.784,3.69-6.408,4.183c-4.107,0.771-8.135,1.27-12.062,1.541c3.646,6.031,10.618,10.115,18.633,10.115   c11.78,0,21.331-8.817,21.331-19.693c0-6.303-3.222-11.9-8.214-15.504c2.681-1.01,4.317-2.328,4.317-3.775   c0-3.172-7.806-5.743-17.435-5.743C157.155,62.912,149.35,65.483,149.35,68.655z M177.117,67.978c0,1.197-4.626,2.166-10.333,2.166   s-10.333-0.969-10.333-2.166c0-1.197,4.626-2.167,10.333-2.167S177.117,66.781,177.117,67.978z"/><polygon points="192.456,120.961 192.456,110.706 147.066,110.706 144.547,110.706 141.111,110.706 141.111,120.961    163.707,120.961 163.707,130.781 130.706,130.781 130.706,136.165 202.861,136.165 202.861,130.781 169.86,130.781 169.86,120.961     "/><ellipse transform="matrix(0.2268 -0.9739 0.9739 0.2268 70.4155 133.6955)" cx="119.413" cy="22.498" rx="22.493" ry="22.495"/><path d="M166.23,84.669c-0.816-4.343-4.996-7.203-9.337-6.387c-5.514,1.034-10.48,1.476-14.956,1.477   c-16.695-0.056-26.736-5.951-33.178-11.726c-3.19-2.9-5.399-5.81-6.771-7.925c-0.685-1.059-1.16-1.916-1.446-2.464   c-0.142-0.274-0.236-0.473-0.286-0.579c-0.009-0.017-0.016-0.032-0.021-0.044c-1.724-4.063-6.413-5.964-10.48-4.247   c-4.068,1.721-5.974,6.415-4.255,10.485v-0.002c0.308,0.691,3.696,8.587,12.496,16.613c8.71,8.002,23.135,15.888,43.724,15.888   c0.073,0,0.145,0,0.219,0c5.532,0,11.495-0.546,17.907-1.752C164.185,93.191,167.045,89.011,166.23,84.669z"/></g><text x="0" y="247.003" fill="#000000" font-size="5px" font-weight="bold" font-family="'Helvetica Neue', Helvetica, Arial-Unicode, Arial, Sans-serif"></text><text x="0" y="252.003" fill="#000000" font-size="5px" font-weight="bold" font-family="'Helvetica Neue', Helvetica, Arial-Unicode, Arial, Sans-serif"></text></svg>
