<svg xmlns="http://www.w3.org/2000/svg" xmlns:xlink="http://www.w3.org/1999/xlink" version="1.1" x="0px" y="0px" viewBox="0 0 1000 1250" style="enable-background:new 0 0 1000 1000;" xml:space="preserve"><g><g><g><path d="M68.5,825.4c3,6.5,7.1,12.4,12,17.4c10.7,10.7,25.4,17.3,41.7,17.3h712.1c16,0,29-13,29-29v-5.7H68.5z      M834.3,741.9V730c0-124.4,0-248.7-0.2-373.1c0-8.3-0.6-16.8-2.1-25c-13.7-74.1-73.8-124.1-149.3-124.1c-119.9,0-239.8,0-359.6,0     c-49.2,0-98.4,0-147.5,0v237.5c0,3.3-2.7,5.9-5.9,5.9h-6.3c-3.3,0-5.9-2.7-5.9-5.9V207.9h-4.9c-2.4,0-4.7,0.1-7,0.3V364     c0,3.3-2.7,5.9-5.9,5.9h-6.3c-3.3,0-5.9-2.7-5.9-5.9V211.7c-13.9,4.6-25.7,13.5-35,26.9c-10,14.4-16.1,29.8-15.1,48.5     c1.4,27.4,0,54.9,0.4,82.3c0.6,50.2,21.2,89.6,64.1,116.6c3.8,2.4,8.8,3.6,13.3,3.7c27.5,0.3,54.9,0.3,82.3,0     c4.5,0,9.5-1.3,13.3-3.6c37.1-22.7,57.3-56.3,63.7-100.2h7.8c60.8,0,121.5,0,182.3,0c29.1,0,47.7,18.5,47.8,47.8     c0.1,66.7,0.1,133.3,0,200c0,4.3-1.1,8.9-2.5,13c-12,32.7-29.6,62-52.4,88.4c-4.4,5.1-8.8,7.2-15.6,7.2     c-97.1-0.2-269.2-0.2-359.4-0.2c-32.6,0-59,26.4-59,59c0,3.2,0.3,6.3,0.7,9.3h799.3v-39.5C863.3,754.9,850.3,741.9,834.3,741.9z      M694.1,296.9c44.6,0.3,80.7,37,80.5,81.9c-0.2,45.4-36.5,81.5-81.9,81.2c-45.2-0.3-81.3-36.8-81.2-82.2     C611.5,333.2,649,296.5,694.1,296.9z M790.6,711.5c0,6.6-5.4,12-12,12H607.7c-6.6,0-12-5.4-12-12v-9.9c0-6.6,5.4-12,12-12h170.9     c6.6,0,12,5.4,12,12V711.5z M790.6,655.6c0,6.6-5.4,12-12,12H607.7c-6.6,0-12-5.4-12-12v-9.9c0-6.6,5.4-12,12-12h170.9     c6.6,0,12,5.4,12,12V655.6z M790.6,599.7c0,6.6-5.4,12-12,12H607.7c-6.6,0-12-5.4-12-12v-9.9c0-6.6,5.4-12,12-12h170.9     c6.6,0,12,5.4,12,12V599.7z M790.6,543.7c0,6.6-5.4,12-12,12H607.7c-6.6,0-12-5.4-12-12v-9.9c0-6.6,5.4-12,12-12h170.9     c6.6,0,12,5.4,12,12V543.7z"/></g><g><path d="M244.8,503.3v18.9c0,3.6-2.9,6.5-6.5,6.5h-9.7v9.2c0,3.6-2.9,6.5-6.5,6.5h-20.2v96.9l-11.5,27.2V544.4     h-21.3c-3.6,0-6.5-2.9-6.5-6.5v-9.2h-8.6c-3.6,0-6.5-2.9-6.5-6.5v-18.9c0-3.6,2.9-6.5,6.5-6.5h84.5     C241.9,496.8,244.8,499.7,244.8,503.3z"/></g></g><g><g><g><path d="M363.8,152.9h-45.1c-2.1,0-3.8-1.4-3.8-3.1l-7.1-6.7c0-1.7,1.7-3.1,3.8-3.1h59.4c2.1,0,3.8,1.4,3.8,3.1      l-7.1,6.7C367.6,151.5,365.9,152.9,363.8,152.9z"/></g></g><g><g><path d="M318.7,187h45.1c2.1,0,3.8,1.4,3.8,3.1l7.1,6.7c0,1.7-1.7,3.1-3.8,3.1h-59.4c-2.1,0-3.8-1.4-3.8-3.1      l7.1-6.7C314.9,188.4,316.6,187,318.7,187z"/></g></g><g><g><rect x="317" y="156.1" transform="matrix(1 2.263795e-003 -2.263795e-003 1 0.3563 -0.7722)" width="48.5" height="1.8"/></g></g><g><g><rect x="317" y="162" transform="matrix(1 2.263795e-003 -2.263795e-003 1 0.3696 -0.7721)" width="48.5" height="1.8"/></g></g><g><g><rect x="317" y="168.5" transform="matrix(1 2.263779e-003 -2.263779e-003 1 0.3842 -0.7721)" width="48.5" height="1.8"/></g></g><g><g><rect x="317" y="174.9" transform="matrix(1 2.263779e-003 -2.263779e-003 1 0.3989 -0.772)" width="48.5" height="1.8"/></g></g><g><g><rect x="317" y="181.4" transform="matrix(1 2.263795e-003 -2.263795e-003 1 0.4135 -0.7719)" width="48.5" height="1.8"/></g></g></g><g><g><g><path d="M606.8,152.9h-45.1c-2.1,0-3.8-1.4-3.8-3.1l-7.1-6.7c0-1.7,1.7-3.1,3.8-3.1h59.4c2.1,0,3.8,1.4,3.8,3.1      l-7.1,6.7C610.6,151.5,608.9,152.9,606.8,152.9z"/></g></g><g><g><path d="M561.7,187h45.1c2.1,0,3.8,1.4,3.8,3.1l7.1,6.7c0,1.7-1.7,3.1-3.8,3.1h-59.4c-2.1,0-3.8-1.4-3.8-3.1      l7.1-6.7C557.9,188.4,559.6,187,561.7,187z"/></g></g><g><g><rect x="560" y="156.1" transform="matrix(1 2.263795e-003 -2.263795e-003 1 0.3569 -1.3223)" width="48.5" height="1.8"/></g></g><g><g><rect x="560" y="162" transform="matrix(1 2.263795e-003 -2.263795e-003 1 0.3702 -1.3222)" width="48.5" height="1.8"/></g></g><g><g><rect x="560" y="168.5" transform="matrix(1 2.263779e-003 -2.263779e-003 1 0.3849 -1.3221)" width="48.5" height="1.8"/></g></g><g><g><rect x="560" y="174.9" transform="matrix(1 2.263779e-003 -2.263779e-003 1 0.3995 -1.3221)" width="48.5" height="1.8"/></g></g><g><g><rect x="560" y="181.4" transform="matrix(1 2.263795e-003 -2.263795e-003 1 0.4142 -1.322)" width="48.5" height="1.8"/></g></g></g><g><path d="M936.8,435.4v39.2c0,1.9-4.6,0.2-8.6-2.7l-13.3-9.4c-0.6-0.5-1.1-1.2-1.1-1.8v-0.7h-33.5v15    c0,6.6-5.4,12-12,12h-14c-6.6,0-12-5.4-12-12v-112c0-6.6,5.4-12,12-12h14c6.6,0,12,5.4,12,12v86h33.5c0.1-0.5,0.5-1.1,1.1-1.5    l13.3-9.4C932.2,435.2,936.8,433.5,936.8,435.4z"/></g></g><text x="0" y="1015" fill="#000000" font-size="5px" font-weight="bold" font-family="'Helvetica Neue', Helvetica, Arial-Unicode, Arial, Sans-serif"></text><text x="0" y="1020" fill="#000000" font-size="5px" font-weight="bold" font-family="'Helvetica Neue', Helvetica, Arial-Unicode, Arial, Sans-serif"></text></svg>
