<svg xmlns="http://www.w3.org/2000/svg" xmlns:xlink="http://www.w3.org/1999/xlink" version="1.1" x="0px" y="0px" viewBox="0 0 100 125" style="enable-background:new 0 0 100 100;" xml:space="preserve"><path d="M23.5,19.5c0.4-1.8,1.8-3.9,5.6-4.8c0.4-0.1,0.9,0,1.3,0.2l1.4,0.7c0.7,0.3,1.1,1,1.1,1.8v1.4c0,0.5-0.2,1-0.5,1.4l-1.1,1.2  c-0.4,0.4-0.9,0.6-1.5,0.6h-4.3C24.1,21.9,23.2,20.7,23.5,19.5z"/><path d="M16.4,3.5L17,4.2c0.1,0.1,0.1,0.3,0.2,0.4L19,14.7c0.4,2.3,1.3,4.5,2.5,6.6l1.9,3c0.5,0.9,1.3,1.5,2.3,1.9l0,0  c0.2,0.1,0.5,0.1,0.8,0l1.8-0.7c1.3-0.5,2.7-0.7,4.1-0.7l1.3,0.1c0.1,0,0.3,0,0.4,0.1l3.1,1.3c0,0,0.1,0,0.1,0l3.3,1  c1.1,0.3,2.1,0.5,3.2,0.6l7.2,0.7l2.3,0.3c1.2,0.2,1.2,1.8,0.1,2.1l0,0c-0.1,0-0.1,0-0.2,0h-8.5c-2.4,0-4.8-0.4-7.1-1l-4.1-1.2  L33,29.2L32.7,31c-0.3,1.5,0.3,3.1,1.5,4.1l0.6,0.5c0.1,0.1,0.3,0.2,0.5,0.2l10.2,1.7c0,0,0,0,0.1,0l7.2,1.6  c1.9,0.4,3.9,0.6,5.9,0.6l1.3,0c1,0,2,0.1,3,0.2l10.7,1.9c0.1,0,0.1,0,0.2,0h4h4.9c0.1,0,0.3,0,0.4,0.1l1.4,0.5  c0.4,0.2,0.7,0.5,0.7,1v0.8c0,0.6-0.5,1.1-1.1,1.1h-2.3c0,0-0.1,0-0.1,0L72.6,44c-0.1,0-0.1,0-0.2,0L67,44.4c0,0-0.1,0-0.1,0l-6-0.3  c-0.1,0-0.2,0-0.3,0l-0.7,0.2c-1.8,0.5-3.6,0.5-5.4,0.1h0c-0.1,0-0.2,0-0.3,0l-12.5,0.7c-0.4,0-0.7,0.2-0.9,0.5L40,46.9  c-0.1,0.1-0.1,0.3-0.1,0.5l-0.6,10.1c0,0,0,0.1,0,0.1l-0.9,5.2c-0.3,1.6-0.3,3.3,0,4.9l0.2,1.3c0.5,3,0.3,6.1-0.6,9l-1.3,4.5  c-0.3,1.2-0.5,2.4-0.4,3.6l0,0c0,0.3,0.1,0.5,0.4,0.7l1,0.9c0.4,0.3,0.5,0.9,0.2,1.3l0,0c-0.8,1.4-1.3,2.9-1.6,4.5l-0.7,4.3  c-0.1,0.5-0.5,0.9-1,0.9h-0.1c-0.5,0-0.9-0.3-1-0.8l-1.2-5.4c0-0.1,0-0.2,0-0.3l1.3-12.3l0.8-10.8c0-0.1,0-0.2,0-0.3l-0.8-4.7  c0,0,0-0.1,0-0.1L33,58c0,0,0-0.1,0-0.1l-1.6-10.8c0-0.3-0.2-0.5-0.4-0.7l-4.5-3.6h0c-1.5-1.3-2.6-3-3.1-4.9l-1-3.2  c0-0.1,0-0.1-0.1-0.2l-0.9-1.8c-0.1-0.2-0.1-0.4-0.1-0.6l0.2-2.5c0-0.2,0-0.4-0.1-0.6l-2.5-4.8c-1.7-3.3-2.6-6.9-2.7-10.6L16,8.1  c0-0.2-0.1-0.3-0.1-0.5l-1.3-2.1c-0.1-0.2-0.2-0.5-0.1-0.7l0.1-0.9C14.7,3,15.9,2.7,16.4,3.5z"/><text x="0" y="115" fill="#000000" font-size="5px" font-weight="bold" font-family="'Helvetica Neue', Helvetica, Arial-Unicode, Arial, Sans-serif"></text><text x="0" y="120" fill="#000000" font-size="5px" font-weight="bold" font-family="'Helvetica Neue', Helvetica, Arial-Unicode, Arial, Sans-serif"></text></svg>
