<svg xmlns:dc="http://purl.org/dc/elements/1.1/" xmlns:cc="http://creativecommons.org/ns#" xmlns:rdf="http://www.w3.org/1999/02/22-rdf-syntax-ns#" xmlns:svg="http://www.w3.org/2000/svg" xmlns="http://www.w3.org/2000/svg" xmlns:sodipodi="http://sodipodi.sourceforge.net/DTD/sodipodi-0.dtd" xmlns:inkscape="http://www.inkscape.org/namespaces/inkscape" viewBox="0 0 100 125" version="1.1" x="0px" y="0px"><g transform="translate(0,-952.36216)"><path style="" d="m 89.04139,1043.9966 c -0.0633,-0.7473 -0.68286,-1.2141 -1.83749,-1.1482 -0.48446,0.028 -1.01943,-0.05 -1.1888,-0.1729 -1.27974,-0.9279 -14.18222,-15.7842 -18.53429,-21.3408 -0.95335,-1.2173 -2.45091,-3.0827 -3.3277,-4.1454 -5.32025,-6.4482 -9.16133,-11.6883 -13.15011,-17.939 -2.96121,-4.5985 -6.08697,-9.0406 -9.21933,-13.1912 -4.65813,-6.4779 -9.59455,-12.8225 -14.73116,-18.919 -2.77617,-3.1163 -6.12935,-8.4307 -10.32426,-8.2746 -3.37652,0.1926 -5.95759,3.086 -5.76492,6.4625 0.59594,3.7863 4.12303,7.2155 6.4376,9.9456 8.71426,10.238 18.86268,20.3847 27.78576,28.5406 6.96327,6.3499 9.22066,8.705 20.5701,21.4586 4.23583,4.76 12.24396,14.3887 15.80886,19.0082 1.02732,1.3312 1.15682,1.5887 1.01871,2.0254 -0.0871,0.2752 -0.13945,0.827 -0.11668,1.2262 0.1161,2.035 2.65462,1.6825 5.07345,-0.7045 1.07068,-1.0566 1.56357,-2.0843 1.50026,-2.8315 z" fill="#000000"/><path d="m 60.747846,966.57086 c 0.115269,-5.79634 -4.492777,-10.59138 -10.289119,-10.70665 -5.796345,-0.11527 -10.591381,4.49278 -10.706649,10.28912 -0.115269,5.79635 4.492773,10.59138 10.289119,10.70665 5.796341,0.11527 10.591381,-4.49277 10.706649,-10.28912 z m -0.256164,-0.62337 -4.16e-4,-10e-6 c -0.101274,-0.002 -0.174838,0.0212 -0.190636,0.0601 -0.04278,0.10541 -0.152207,0.11609 -0.229118,0.0223 -0.07093,-0.0865 -0.07443,-0.0854 -0.155765,0.0428 -0.09497,0.14974 -0.138595,0.16047 -0.222541,0.0549 -0.04168,-0.0524 -0.05347,-0.18045 -0.03955,-0.42938 0.01145,-0.20472 -0.0025,-0.42074 -0.03306,-0.51098 -0.0607,-0.17935 -0.139152,-0.21436 -0.100247,-0.0447 0.02263,0.0987 -0.150191,0.69157 -0.266777,0.91509 -0.06013,0.11528 -0.215406,0.10162 -0.295258,-0.026 -0.06945,-0.11102 -0.06766,-0.13299 0.03457,-0.43116 0.0922,-0.26892 0.100772,-0.33894 0.05972,-0.48695 -0.02637,-0.0951 -0.07756,-0.19858 -0.113786,-0.22996 -0.05735,-0.0497 -0.06689,-0.0172 -0.0734,0.25142 -0.0061,0.25032 -0.03674,0.37107 -0.162691,0.64015 -0.188215,0.40207 -0.274159,0.46911 -0.398306,0.31108 -0.05581,-0.071 -0.07674,-0.14472 -0.05786,-0.20326 0.07915,-0.24536 0.136164,-0.69896 0.111658,-0.88844 -0.0299,-0.23118 -0.112494,-0.34911 -0.246459,-0.35177 -0.07838,-0.002 -0.08709,0.0328 -0.09383,0.37173 -0.01305,0.65644 -0.198488,1.0241 -0.434853,0.86203 -0.09134,-0.0626 -0.0967,-0.10307 -0.0944,-0.71032 0.0026,-0.68311 -0.01084,-0.73064 -0.221562,-0.78679 l -0.11321,-0.0301 -0.0061,0.3279 c -0.0032,0.18476 -0.04235,0.43974 -0.08919,0.58393 -0.06821,0.20996 -0.104605,0.26105 -0.202225,0.28355 -0.09054,0.0209 -0.13722,0.004 -0.194942,-0.0705 -0.06291,-0.0811 -0.07049,-0.15806 -0.04466,-0.45028 0.01713,-0.19386 0.01909,-0.46719 0.0044,-0.60738 -0.0261,-0.24971 -0.03098,-0.2573 -0.2426,-0.37014 -0.114002,-0.0608 -0.191635,-0.0848 -0.232259,-0.073 -0.0086,0.0238 -0.01682,0.0567 -0.02455,0.099 0.0018,0.006 0.0035,0.0123 0.006,0.019 0.03714,0.10312 -0.05716,0.61697 -0.146041,0.79547 -0.09014,0.18101 -0.229625,0.24358 -0.323848,0.1453 -0.04792,-0.05 -0.06363,-0.21549 -0.06365,-0.67145 -1.6e-5,-0.33281 -0.01438,-0.62953 -0.03197,-0.65937 -0.02939,-0.0499 -0.345385,-0.23888 -0.401238,-0.23999 -0.0133,-2.6e-4 -0.02666,0.0854 -0.02962,0.19031 -0.0085,0.30189 -0.13182,0.76142 -0.221266,0.82428 -0.103844,0.073 -0.156596,0.0703 -0.271858,-0.0141 -0.08813,-0.0645 -0.09189,-0.0964 -0.06084,-0.51071 0.01821,-0.24302 0.02144,-0.53126 0.0073,-0.64064 -0.02325,-0.17977 -0.04634,-0.21118 -0.24136,-0.32624 -0.11866,-0.07 -0.227941,-0.12745 -0.242788,-0.12774 -0.01484,-3e-4 -0.02891,0.0974 -0.03129,0.21709 -0.0053,0.2688 -0.234254,0.82605 -0.347363,0.84565 -0.04255,0.007 -0.125298,-0.0194 -0.183868,-0.0596 -0.103854,-0.0712 -0.105602,-0.0839 -0.07095,-0.51294 0.01954,-0.24196 0.0235,-0.55549 0.0087,-0.69674 -0.02403,-0.23001 -0.04382,-0.26895 -0.189262,-0.37265 -0.146388,-0.10438 -0.163903,-0.10792 -0.177988,-0.0365 -0.103086,0.52247 -0.515598,1.14217 -0.739814,1.11144 -0.168455,-0.0231 -0.220774,-0.20714 -0.122008,-0.42931 0.143848,-0.32359 0.273105,-0.78793 0.277243,-0.99604 0.0038,-0.19034 -0.01181,-0.22292 -0.172257,-0.35752 l -0.176584,-0.14803 -0.04022,0.10261 c -0.02217,0.0564 -0.06742,0.20771 -0.100431,0.33627 -0.07263,0.28287 -0.284577,0.57777 -0.441207,0.61389 -0.167612,0.0386 -0.302484,-0.10121 -0.268393,-0.27829 0.05739,-0.29806 0.168671,-0.72958 0.249194,-0.96637 l 0.08515,-0.25022 -0.170951,-0.1657 c -0.094,-0.0911 -0.183997,-0.16644 -0.200002,-0.16742 -0.016,-9.9e-4 -0.05571,0.10374 -0.0883,0.23277 -0.03259,0.12902 -0.14178,0.37943 -0.242669,0.5565 -0.160409,0.28154 -0.199238,0.32163 -0.309193,0.31944 -0.152455,-0.003 -0.22961,-0.0904 -0.22928,-0.25963 2.85e-4,-0.16492 0.178064,-0.79787 0.299868,-1.06772 l 0.09535,-0.21151 -0.164103,-0.17524 c -0.09024,-0.0964 -0.177434,-0.17558 -0.193819,-0.17591 -0.01638,-3.2e-4 -0.06468,0.11516 -0.107298,0.25652 -0.04262,0.14137 -0.166002,0.38646 -0.274276,0.54467 -0.16883,0.2467 -0.215712,0.28726 -0.329467,0.285 -0.09637,-0.002 -0.149955,-0.0351 -0.195964,-0.1212 -0.05812,-0.10882 -0.05067,-0.15588 0.09078,-0.57407 0.08475,-0.25056 0.194362,-0.51899 0.243622,-0.59645 0.118028,-0.18563 0.114891,-0.26065 -0.01646,-0.38937 l -0.109328,-0.10696 -0.101154,0.2174 c -0.05566,0.11963 -0.214405,0.36233 -0.352802,0.53921 -0.202681,0.25904 -0.274946,0.32109 -0.371581,0.31917 -0.275523,-0.005 -0.293004,-0.24243 -0.05325,-0.72079 0.09158,-0.18274 0.230491,-0.42855 0.308747,-0.5461 l 0.142269,-0.21366 -0.09769,-0.0998 -0.09777,-0.0997 -0.182989,0.19847 c -0.100657,0.10915 -0.24466,0.31738 -0.319926,0.46277 -0.13724,0.26511 -0.190308,0.32433 -0.316807,0.33042 -0.0054,0.002 -0.01053,0.002 -0.01523,0.002 -0.0034,-7e-5 -0.0068,-6.4e-4 -0.0103,-0.001 -0.0024,-5e-5 -0.0043,3.3e-4 -0.0067,2.8e-4 -0.151253,-0.002 -0.236266,-0.17104 -0.186925,-0.37163 0.04679,-0.19019 0.334565,-0.70824 0.496155,-0.89314 0.22919,-0.26227 0.07008,-0.34892 -0.219233,-0.11939 -0.09485,0.0752 -0.235946,0.24461 -0.313577,0.3763 -0.154236,0.26165 -0.281051,0.3698 -0.429959,0.36684 -0.190908,-0.004 -0.275341,-0.28193 -0.134184,-0.44199 0.03676,-0.0417 0.134981,-0.18559 0.218301,-0.31979 0.08332,-0.13419 0.205908,-0.30105 0.272442,-0.37085 0.105083,-0.11024 0.108238,-0.1206 0.02383,-0.079 -0.143218,0.0706 -0.472724,0.44608 -0.474609,0.54085 -0.0017,0.0849 -0.127006,0.17237 -0.243593,0.17005 -0.106152,-0.002 -0.205128,-0.1341 -0.202426,-0.26999 0.003,-0.15031 0.376139,-0.64208 0.644764,-0.84981 0.117288,-0.0907 0.167797,-0.15736 0.140732,-0.18558 -0.07461,-0.0778 -0.30527,0.0521 -0.611974,0.34461 -0.314552,0.30005 -0.43281,0.33846 -0.541595,0.17599 -0.09199,-0.13739 -0.08944,-0.14599 0.09927,-0.34718 0.09104,-0.0971 0.147838,-0.17683 0.126268,-0.17726 -0.02157,-4.2e-4 -0.06597,0.0403 -0.09872,0.0907 -0.08938,0.1373 -0.252973,0.094 -0.268444,-0.0711 -0.0067,-0.0718 -0.04039,-0.15981 -0.07467,-0.19555 -0.02214,-0.0231 -0.03532,-0.0556 -0.03928,-0.0917 0.88658,-0.35243 1.833417,-0.58387 2.819696,-0.67585 0.01459,0.0135 0.03053,0.0273 0.0493,0.0414 0.0456,0.0343 0.0723,0.0885 0.05935,0.12044 -0.01295,0.0319 0.01476,0.0941 0.06151,0.13826 0.04674,0.0441 0.08423,0.11493 0.08339,0.15739 -0.001,0.0507 0.04676,0.088 0.13919,0.10846 0.185592,0.0411 0.259708,0.11031 0.257121,0.24045 -0.0019,0.093 0.01905,0.1072 0.162312,0.11004 0.273769,0.005 0.395677,0.19467 0.270055,0.41911 -0.04951,0.0884 -0.04339,0.0914 0.141334,0.0703 0.265621,-0.0303 0.4434,0.0683 0.439907,0.24393 -0.0037,0.18471 -0.186676,0.31277 -0.439914,0.30774 -0.220027,-0.004 -0.479927,0.10138 -0.453302,0.18449 0.02711,0.0846 0.252606,0.0584 0.556444,-0.0647 0.531639,-0.21539 0.914169,-0.17322 0.908731,0.1002 -0.0025,0.12508 -0.195357,0.29 -0.336594,0.28786 -0.0521,-5.7e-4 -0.205242,0.0475 -0.340312,0.10729 l -0.240624,0.1065 c -4.96e-4,0.002 -0.0013,0.004 -0.0018,0.005 l 0.085,0.0885 0.08802,0.0918 0.298333,-0.17359 c 0.527308,-0.30693 0.980794,-0.2719 0.973892,0.0752 -0.0037,0.18474 -0.147997,0.34133 -0.311598,0.33808 -0.13488,-0.003 -0.422765,0.12887 -0.449986,0.20559 -0.0095,0.0269 0.0314,0.0823 0.09113,0.12326 0.104301,0.0715 0.119332,0.0678 0.378945,-0.0932 0.324368,-0.20111 0.716619,-0.30252 0.859258,-0.22231 0.194901,0.10961 0.162457,0.43095 -0.05292,0.52446 -0.05916,0.0257 -0.227425,0.0991 -0.373838,0.16307 l -0.266083,0.11632 0.14634,0.15758 c 0.08049,0.0866 0.166305,0.15782 0.190676,0.15831 0.02437,4.8e-4 0.137745,-0.074 0.252035,-0.16559 0.34798,-0.27873 0.496761,-0.36431 0.635702,-0.3655 0.176149,-0.002 0.268805,0.0859 0.265532,0.25044 -0.0028,0.13957 -0.169377,0.32796 -0.50419,0.57016 l -0.159073,0.11503 0.10616,0.11917 c 0.05844,0.0655 0.1395,0.11967 0.18014,0.12048 0.04064,8.1e-4 0.222025,-0.13706 0.403086,-0.30636 0.343509,-0.3212 0.420722,-0.35197 0.583428,-0.23284 0.155679,0.114 0.124801,0.32274 -0.09048,0.61177 -0.100517,0.13495 -0.213878,0.25655 -0.251842,0.2703 -0.118283,0.0428 -0.07798,0.13505 0.116935,0.2678 l 0.184503,0.12568 c 0.0018,4e-5 0.0035,7e-5 0.0054,-4.7e-4 l 0.15077,-0.16329 c 0.08422,-0.0912 0.2039,-0.26091 0.265906,-0.377 0.102148,-0.19124 0.127438,-0.21079 0.269772,-0.20796 0.301807,0.006 0.295503,0.32592 -0.01629,0.81917 l -0.161041,0.25496 0.109176,0.0696 c 0.06006,0.0383 0.158298,0.10095 0.21827,0.13919 0.05998,0.0382 0.117813,0.0697 0.128586,0.0699 0.0483,9.6e-4 0.12395,-0.30145 0.128139,-0.51207 0.0065,-0.3259 0.120753,-0.44478 0.347737,-0.36214 0.121807,0.0444 0.189085,0.20801 0.215729,0.52444 0.01771,0.21035 0.0033,0.2906 -0.08089,0.4481 -0.113124,0.21176 -0.103924,0.23497 0.135464,0.3408 0.15655,0.0692 0.167555,0.0684 0.214526,-0.0156 0.02723,-0.0486 0.04827,-0.26576 0.0468,-0.4825 -0.0015,-0.21673 0.01317,-0.41864 0.03256,-0.44874 0.0549,-0.0852 0.184564,-0.0618 0.28363,0.0512 0.231722,0.26441 0.306291,0.62569 0.197755,0.95828 -0.04004,0.12271 -0.07308,0.23414 -0.07381,0.24768 -0.0017,0.0432 0.307896,0.14549 0.355342,0.11739 0.06574,-0.0389 0.05976,-0.20943 -0.01799,-0.51304 -0.08388,-0.32759 -0.04849,-0.49893 0.102389,-0.49593 0.193946,0.004 0.505223,0.50079 0.501386,0.80039 -9.82e-4,0.0766 -0.02567,0.20391 -0.05494,0.28299 -0.05969,0.16123 -0.03377,0.20657 0.146027,0.25489 0.109762,0.0295 0.12282,0.0208 0.124876,-0.0826 0.0013,-0.0635 -0.0369,-0.2212 -0.08482,-0.35059 -0.05165,-0.13943 -0.08019,-0.30986 -0.07007,-0.41846 0.02497,-0.26806 0.150879,-0.26618 0.391274,0.006 0.135612,0.1535 0.201141,0.19884 0.237274,0.16402 0.211802,-0.20402 0.694765,0.41853 0.685515,0.88366 -0.0035,0.17358 0.0091,0.20376 0.08552,0.20528 0.13461,0.003 0.11959,-0.20583 -0.03712,-0.51488 -0.214374,-0.42275 -0.100759,-0.65708 0.204322,-0.42144 0.08884,0.0686 0.141788,0.0866 0.153953,0.0523 0.02972,-0.0838 0.198274,-0.0568 0.306178,0.0489 0.09172,0.0899 0.10517,0.0918 0.173653,0.0259 0.08173,-0.0787 0.125639,-0.0877 0.175366,-0.0358 0.01809,0.0189 0.109982,0.037 0.204233,0.0404 l 0.01566,7.3e-4 c 0.286474,0.87762 0.457445,1.80657 0.495472,2.76867 z m -6.093247,9.49679 c -0.0037,0.0417 -0.02657,0.0888 -0.06997,0.13597 -0.061,0.0662 -0.06885,0.0972 -0.02855,0.11219 0.01981,0.007 0.03675,0.0345 0.04599,0.0688 -0.842965,0.36783 -1.744238,0.6254 -2.685528,0.75488 -0.0094,-0.0101 -0.02011,-0.0202 -0.03335,-0.0303 -0.05422,-0.0414 -0.06755,-0.0918 -0.04564,-0.17247 0.02224,-0.0819 0.01091,-0.12218 -0.04005,-0.14296 -0.04669,-0.019 -0.05966,-0.0554 -0.03802,-0.10644 0.01809,-0.0427 0.04263,-0.10004 0.05452,-0.12743 0.01189,-0.0274 -0.01959,-0.0614 -0.06998,-0.0757 -0.118233,-0.0335 -0.114597,-0.14417 0.0086,-0.26287 0.08561,-0.0825 0.131156,-0.0901 0.376785,-0.0621 0.309154,0.0352 0.604439,-0.0188 0.60627,-0.11093 l 0,0 c 9.25e-4,-0.0465 -0.08499,-0.0569 -0.391097,-0.0474 -0.618652,0.0191 -0.989821,-0.14657 -0.794415,-0.35454 0.06749,-0.0718 0.153134,-0.0878 0.501864,-0.0937 0.40564,-0.007 0.558787,-0.0548 0.499046,-0.15612 -0.01817,-0.0308 -0.08036,-0.0257 -0.183157,0.015 -0.204731,0.081 -0.530387,0.066 -0.80609,-0.0371 -0.181577,-0.0679 -0.224435,-0.10462 -0.233871,-0.20026 -0.01657,-0.16792 0.124894,-0.22756 0.439837,-0.18549 0.265191,0.0354 0.542158,-0.0223 0.542216,-0.1131 2.6e-5,-0.0285 -0.03632,-0.10116 -0.0807,-0.16147 -0.0582,-0.0791 -0.104337,-0.10088 -0.165465,-0.0783 -0.239038,0.0884 -0.563961,0.0989 -0.791653,0.0254 -0.127771,-0.0412 -0.2574,-0.0827 -0.288012,-0.0921 -0.08305,-0.0255 -0.0632,-0.22016 0.03078,-0.30207 0.06343,-0.0553 0.134255,-0.0644 0.310298,-0.0399 0.271857,0.0378 0.551122,-0.001 0.550668,-0.0765 -1.56e-4,-0.0298 -0.02709,-0.0909 -0.05976,-0.13596 -0.05692,-0.0784 -0.07144,-0.0779 -0.346008,0.01 -0.319486,0.1018 -0.991488,0.12505 -1.105146,0.0382 -0.04465,-0.0341 -0.05596,-0.0882 -0.03479,-0.16617 0.04551,-0.16753 0.154833,-0.25419 0.317174,-0.25096 0.184177,0.003 0.717855,-0.13628 0.738044,-0.1932 0.0086,-0.0241 -0.03421,-0.0927 -0.0951,-0.15234 l -0.110759,-0.10838 -0.102521,0.0899 c -0.199965,0.1754 -0.741474,0.28831 -1.090959,0.22754 -0.177613,-0.0309 -0.21775,-0.0505 -0.22962,-0.12813 -0.0077,-0.0167 -0.009,-0.0353 -0.0039,-0.0556 -0.0034,-0.14575 0.06719,-0.191 0.395888,-0.27531 0.33439,-0.0858 0.680146,-0.23114 0.681245,-0.28638 8.9e-4,-0.0448 -0.27308,-0.33223 -0.317504,-0.33312 -0.0208,-4.1e-4 -0.0933,0.0381 -0.161004,0.0856 -0.153954,0.10792 -0.972663,0.3112 -1.09109,0.27091 -0.06499,-0.0221 -0.08707,-0.0701 -0.0848,-0.18406 0.0035,-0.17806 0.134834,-0.3296 0.286595,-0.33085 0.147619,-0.001 0.595682,-0.22284 0.607191,-0.30028 0.0054,-0.0365 -0.06906,-0.13694 -0.165507,-0.22319 l -0.175354,-0.15678 -0.134337,0.14168 c -0.272946,0.28785 -0.97872,0.47422 -1.093559,0.28882 -0.08949,-0.14449 0.02358,-0.3144 0.338558,-0.50911 0.506005,-0.3128 0.495184,-0.30076 0.366213,-0.4088 -0.141894,-0.11887 -0.143538,-0.11864 -0.237893,0.0344 -0.189287,0.30709 -0.810446,0.59864 -1.021969,0.47968 -0.201568,-0.11335 -0.102018,-0.32537 0.336763,-0.71711 l 0.304182,-0.27153 c 2.9e-5,-0.001 0.0012,-0.004 0.0012,-0.005 1.6e-4,-0.008 -0.0066,-0.02 -0.018,-0.0344 l -0.246273,-0.15681 -0.281653,-0.17928 -0.0728,0.107 c -0.170808,0.25149 -0.457822,0.55802 -0.63393,0.67692 -0.164969,0.11138 -0.204048,0.12092 -0.301555,0.074 -0.174335,-0.0838 -0.136906,-0.22018 0.191973,-0.69918 0.16494,-0.24023 0.30016,-0.45329 0.300559,-0.47339 7.83e-4,-0.0393 -0.233458,-0.17816 -0.302931,-0.17954 -0.02318,-4.7e-4 -0.07496,0.0769 -0.115115,0.17196 -0.09503,0.22497 -0.501136,0.69332 -0.675942,0.77957 -0.155357,0.0766 -0.297507,0.0472 -0.319399,-0.0663 -0.02647,-0.13725 0.06636,-0.42917 0.183447,-0.57686 0.130961,-0.1652 0.29395,-0.48985 0.297406,-0.59255 0.0014,-0.0398 -0.06742,-0.0965 -0.160811,-0.13244 -0.210405,-0.081 -0.2402,-0.0439 -0.432756,0.54006 -0.134895,0.40908 -0.256891,0.61057 -0.368472,0.60835 -0.02575,-5.1e-4 -0.09804,-0.0543 -0.160582,-0.11952 -0.105331,-0.10987 -0.111314,-0.13943 -0.08171,-0.40082 0.01757,-0.1552 0.07726,-0.39974 0.132743,-0.54342 0.05548,-0.14368 0.111551,-0.2939 0.12459,-0.33383 0.01768,-0.0541 -0.0289,-0.0918 -0.183167,-0.14792 l -0.175498,-0.0638 c -0.01278,-0.001 -0.02585,-0.003 -0.03537,-0.003 l -0.06988,0.15637 c -0.04063,0.0909 -0.103337,0.30333 -0.139448,0.47213 -0.07688,0.35938 -0.126272,0.4303 -0.297522,0.4269 -0.2669,-0.005 -0.33687,-0.39204 -0.158882,-0.87887 0.05212,-0.14255 0.09526,-0.28456 0.09588,-0.31556 6.19e-4,-0.0312 -0.08223,-0.0722 -0.185341,-0.0918 -0.239507,-0.0455 -0.277393,0.003 -0.355349,0.45476 -0.09733,0.56399 -0.108187,0.5966 -0.211281,0.63252 -0.158022,0.055 -0.292219,-0.0414 -0.343344,-0.2468 -0.03745,-0.15048 -0.02818,-0.26025 0.05043,-0.59567 0.08235,-0.35138 0.08712,-0.41494 0.0325,-0.4372 -0.186609,-0.0761 -0.195676,-0.0524 -0.192624,0.50331 0.0032,0.5787 -0.0312,0.67997 -0.229449,0.67602 -0.251512,-0.005 -0.368603,-0.30574 -0.356914,-0.91652 0.0062,-0.33438 -0.0033,-0.393 -0.066,-0.39424 -0.06572,-0.001 -0.07119,0.0503 -0.05101,0.48176 0.03169,0.6776 0.03093,0.68634 -0.07125,0.78478 -0.06722,0.0648 -0.123312,0.0796 -0.21013,0.0559 -0.193535,-0.0528 -0.257485,-0.28298 -0.248951,-0.89618 0.0046,-0.33021 -0.0095,-0.52234 -0.03772,-0.51366 -0.0705,0.0217 -0.09,0.4688 -0.03508,0.80409 0.06335,0.38666 0.01089,0.52792 -0.194496,0.52383 -0.120965,-0.002 -0.149158,-0.0291 -0.230513,-0.2179 -0.07619,-0.17685 -0.0959,-0.19723 -0.110399,-0.11438 -0.01993,0.11383 -0.153512,0.19992 -0.249585,0.16075 -0.03512,-0.0143 -0.08602,-0.0776 -0.113127,-0.14051 -0.07184,-0.16677 -0.122963,-0.65718 -0.09045,-0.86817 0.02023,-0.13126 0.01208,-0.18261 -0.02933,-0.18344 -0.04517,-9e-4 -0.05349,0.10905 -0.03854,0.51248 0.01607,0.43382 0.0079,0.52437 -0.05278,0.58278 -0.08031,0.0774 -0.18159,0.0886 -0.219491,0.0243 -0.01376,-0.0233 -0.09059,-0.0332 -0.170728,-0.0218 -0.02504,0.004 -0.0482,0.005 -0.06986,0.004 -0.0076,9.7e-4 -0.01514,4.5e-4 -0.02286,-0.002 -0.02335,-0.003 -0.04478,-0.01 -0.06459,-0.0201 -0.171639,-0.75 -0.260608,-1.53078 -0.257523,-2.33217 0.03291,-0.0423 0.07625,-0.0657 0.126956,-0.0646 0.05296,0.001 0.144726,-0.0419 0.203929,-0.0955 0.161353,-0.14601 0.250378,-0.062 0.294472,0.27799 0.01978,0.15246 0.05255,0.27757 0.07287,0.27797 0.04736,9.4e-4 0.04707,-0.0502 -0.0016,-0.39394 -0.04677,-0.33044 0.0039,-0.47311 0.158704,-0.44778 0.129835,0.0213 0.20346,0.19956 0.229489,0.5555 0.01375,0.188 0.0414,0.29473 0.07658,0.29543 0.04121,8.2e-4 0.05133,-0.10103 0.04013,-0.40424 -0.01284,-0.34745 -0.0033,-0.41769 0.06715,-0.49265 0.103994,-0.11068 0.179628,-0.10893 0.290365,0.007 0.0693,0.0723 0.08745,0.15534 0.08622,0.39465 -0.0023,0.44389 0.02755,0.52553 0.199299,0.5458 l 0.113626,0.0134 c 0.01353,-0.0208 0.02388,-0.0512 0.03201,-0.0941 l 0.0069,-0.3205 c 0.01029,-0.47988 0.06864,-0.63477 0.245701,-0.6519 0.173578,-0.0168 0.270453,0.1504 0.206872,0.357 -0.08353,0.27144 -0.03652,0.76061 0.07329,0.76279 0.01884,3.8e-4 0.05182,-0.17358 0.07333,-0.38651 0.04782,-0.47354 0.143978,-0.7225 0.292139,-0.75667 0.256866,-0.0592 0.367348,0.14843 0.2733,0.5134 -0.04938,0.19159 -0.05047,0.66205 -0.0016,0.71191 0.0068,0.007 0.08493,0.0277 0.173655,0.0461 l 0.161396,0.0336 0.04194,-0.49567 c 0.04613,-0.54486 0.127354,-0.72127 0.330264,-0.71724 0.218049,0.004 0.257481,0.11319 0.214175,0.59046 -0.02168,0.23862 -0.02714,0.50706 -0.01228,0.5965 0.02338,0.14031 0.04778,0.16692 0.177621,0.19403 0.212821,0.0444 0.215396,0.0427 0.229601,-0.1445 0.05039,-0.66422 0.142943,-0.93254 0.337062,-0.9773 0.227458,-0.0524 0.33186,0.10898 0.266858,0.41254 -0.047,0.21956 -0.05576,0.67814 -0.01591,0.8334 0.02073,0.0808 0.08713,0.13522 0.238043,0.19482 l 0.209325,0.0826 0.0056,-0.25733 c 0.0069,-0.32342 0.09539,-0.81784 0.15983,-0.89259 0.08626,-0.10008 0.297259,-0.0634 0.378059,0.0658 0.05875,0.0939 0.07002,0.2132 0.05654,0.59617 -0.02584,0.73405 -0.04859,0.68886 0.453165,0.90097 0.09124,0.0386 0.166524,-0.33096 0.140257,-0.68852 -0.01318,-0.17968 -0.0096,-0.38646 0.0079,-0.45955 0.07103,-0.29593 0.401358,-0.17055 0.50343,0.19109 0.05615,0.19894 0.03007,1.00436 -0.03791,1.17113 -0.02355,0.0578 0.02057,0.10265 0.189348,0.19264 0.12099,0.0645 0.232793,0.10496 0.248415,0.0899 0.05497,-0.053 0.03553,-0.57468 -0.02565,-0.6871 -0.14024,-0.25769 -0.01138,-0.51535 0.240767,-0.48132 0.104938,0.0142 0.148832,0.0636 0.254647,0.28703 0.136283,0.28769 0.162155,0.62704 0.08057,1.05903 l -0.03804,0.20136 0.268067,0.18023 c 0.166981,0.11228 0.284264,0.16472 0.310962,0.139 0.0267,-0.0257 0.02733,-0.23181 0.0017,-0.54643 -0.04854,-0.59543 -0.01348,-0.72708 0.192692,-0.72298 0.233855,0.005 0.286743,0.12768 0.322359,0.75052 0.02348,0.41069 0.01712,0.60605 -0.02356,0.72748 -0.05364,0.16007 -0.05016,0.17133 0.09796,0.31503 0.08448,0.082 0.171548,0.1493 0.19345,0.14974 0.02191,4.4e-4 0.08721,-0.13734 0.145081,-0.30613 0.0817,-0.23829 0.0996,-0.36089 0.07996,-0.54878 -0.02167,-0.20737 -0.01115,-0.2594 0.07376,-0.36327 0.117261,-0.14348 0.238598,-0.15227 0.359494,-0.0262 0.07539,0.0786 0.0864,0.15021 0.07798,0.50683 -0.0083,0.35222 -0.03098,0.46582 -0.149179,0.74919 -0.07664,0.18372 -0.139743,0.34808 -0.140083,0.36521 -6.8e-4,0.0342 0.46894,0.50905 0.525906,0.53157 0.08288,0.0328 0.232531,-0.3778 0.238006,-0.6531 0.0071,-0.3567 0.09427,-0.49886 0.303582,-0.4947 0.224647,0.004 0.28604,0.13021 0.277333,0.56807 -0.0066,0.33 -0.02368,0.39518 -0.189588,0.7223 l -0.182375,0.35958 0.14207,0.14353 c 0.138904,0.14042 0.143689,0.14176 0.22116,0.0593 0.09826,-0.10458 0.262017,-0.5042 0.264845,-0.6464 0.0055,-0.27511 0.349676,-0.43868 0.51707,-0.24569 0.157837,0.18198 -0.03869,0.91011 -0.364291,1.3497 l -0.09591,0.12945 0.145697,0.20209 c 0.08013,0.11117 0.168017,0.20324 0.195363,0.20453 0.06319,0.003 0.233208,-0.31792 0.298535,-0.5636 0.05107,-0.19206 0.185985,-0.3236 0.328964,-0.32075 0.11583,0.002 0.255495,0.1668 0.252888,0.29788 -0.0024,0.12319 -0.313305,0.72653 -0.474358,0.92062 -0.08973,0.10813 -0.09401,0.13251 -0.0411,0.23655 0.03246,0.0638 0.08751,0.11086 0.122454,0.10447 0.07863,-0.0144 0.24779,-0.30265 0.327763,-0.55863 0.07179,-0.22978 0.218123,-0.31773 0.390698,-0.23472 0.06034,0.029 0.121527,0.10442 0.135987,0.16745 0.03669,0.16001 -0.189743,0.64853 -0.414706,0.89467 -0.189053,0.20686 -0.201668,0.2999 -0.06553,0.48465 0.0508,0.0689 0.07702,0.0759 0.129213,0.0342 0.118329,-0.0945 0.222024,-0.35645 0.19501,-0.49263 -0.04308,-0.21716 0.23579,-0.39294 0.42466,-0.26767 0.04932,0.0327 0.05096,0.1111 0.0087,0.4208 -0.04218,0.30904 -0.07872,0.41796 -0.194551,0.57973 -0.07846,0.10956 -0.173837,0.21051 -0.211931,0.2243 -0.09274,0.0336 -0.09373,0.20707 -0.0012,0.20891 0.09927,0.002 0.38183,-0.27926 0.383874,-0.38205 0.0043,-0.21565 0.265467,-0.36123 0.398734,-0.22221 0.08649,0.0902 0.04784,0.26581 -0.131081,0.59479 -0.128062,0.23547 -0.210362,0.33196 -0.338774,0.39741 -0.118785,0.0606 -0.170312,0.11674 -0.171719,0.18749 -0.0051,0.23294 0.367098,0.0288 0.533195,-0.29257 0.05806,-0.11234 0.09168,-0.14506 0.180746,-0.15116 0.02116,-0.0156 0.03938,-0.0241 0.0536,-0.0238 0.01612,3.2e-4 0.036,0.01 0.05653,0.0246 0.08917,0.006 0.103127,0.0298 0.111303,0.13837 0.0062,0.0151 0.0107,0.0297 0.01046,0.0418 -1.78e-4,0.009 -0.0029,0.0197 -0.0071,0.0314 -0.0015,0.11102 -0.04685,0.16976 -0.256094,0.37387 -0.145814,0.14224 -0.30597,0.28222 -0.355822,0.31104 -0.07484,0.0432 -0.06575,0.0448 0.05213,0.009 0.07853,-0.0238 0.216718,-0.11236 0.307086,-0.1969 0.121382,-0.11355 0.196153,-0.14935 0.286074,-0.13712 0.09424,0.0128 0.141373,0.0669 0.135225,0.13632 z" style="" fill="#000000"/></g><text x="0" y="115" fill="#000000" font-size="5px" font-weight="bold" font-family="'Helvetica Neue', Helvetica, Arial-Unicode, Arial, Sans-serif">Created by anbileru adaleru</text><text x="0" y="120" fill="#000000" font-size="5px" font-weight="bold" font-family="'Helvetica Neue', Helvetica, Arial-Unicode, Arial, Sans-serif">from the Noun Project</text></svg>