<svg xmlns:dc="http://purl.org/dc/elements/1.1/" xmlns:cc="http://creativecommons.org/ns#" xmlns:rdf="http://www.w3.org/1999/02/22-rdf-syntax-ns#" xmlns:svg="http://www.w3.org/2000/svg" xmlns="http://www.w3.org/2000/svg" xmlns:sodipodi="http://sodipodi.sourceforge.net/DTD/sodipodi-0.dtd" xmlns:inkscape="http://www.inkscape.org/namespaces/inkscape" viewBox="0 0 100 125" version="1.1" x="0px" y="0px"><g transform="translate(0,-952.36216)"><path style="opacity:1;fill:#000000;fill-opacity:1;stroke:none;stroke-width:5;stroke-linecap:square;stroke-linejoin:bevel;stroke-miterlimit:4;stroke-dasharray:none;stroke-dashoffset:0;stroke-opacity:1" d="m 49.999948,957.36211 a 44.675266,45.002957 0 0 1 0.989,0.035 c -0.4775,0.2685 -0.9362,0.5441 -1.3303,0.832 l -0.027,0.021 -0.027,0.021 c -8.0373,6.5373 -14.8662,14.6943 -19.1299,23.9071 -0.3988,-0.085 -0.8007,-0.1728 -1.1939,-0.2536 l 0,-8e-4 -0.01,0 c -1.9508,-0.3845 -3.8886,-0.8105 -5.8515,-1.1529 1.5348,-5.1262 2.4494,-10.5474 2.4091,-16.1976 a 44.675266,45.002957 0 0 1 24.1715,-7.2093 z m 6.198,0.4839 a 44.675266,45.002957 0 0 1 25.676805,13.0462 c -0.2069,-0.056 -0.4077,-0.1067 -0.6007,-0.1511 l -0.05,-0.011 -0.051,-0.01 c -1.8531,-0.2759 -3.7695,-0.3822 -5.715,-0.3404 l 0,-9e-4 c -5.8366,0.1251 -11.9291,1.5832 -17.316505,3.8017 -6.7789,2.7915 -12.4794,6.7161 -15.0422,11.2175 -3.4374,-1.0198 -6.7901,-1.9 -9.9912,-2.6404 4.0804,-8.5614 10.5161,-16.2315 18.1195,-22.4238 0.8129,-0.59 2.4486,-1.4034 3.829,-2.0096 0.4452,-0.1955 0.7803,-0.3301 1.1452,-0.4805 z m -33.0123,8.5933 c -0.1535,4.8251 -1.0289,9.4851 -2.3912,13.9363 -1.6571,-0.1974 -3.3448,-0.2951 -5.0886,-0.2107 -1.5896,0.077 -3.2277,0.31 -4.9273,0.744 a 44.675266,45.002957 0 0 1 12.4071,-14.4696 z m 53.625305,6.5675 c 1.3384,0.019 2.6472,0.1164 3.9101,0.3012 1.181,0.2755 3.0009,0.9476 4.5885,1.5763 a 44.675266,45.002957 0 0 1 9.3657,27.48069 44.675266,45.002957 0 0 1 -1.2382,10.2891 c -12.7634,-12.643 -31.0502,-21.21679 -47.735505,-26.45849 2.2534,-3.4154 7.3101,-7.0645 13.4371,-9.5876 5.521604,-2.2738 11.872305,-3.6818 17.672305,-3.6012 z m -59.766205,9.7283 c 0.9813,0 1.9506,0.065 2.9177,0.1681 -1.0743,3.0452 -2.3609,5.9856 -3.7915,8.8025 -3.5965,6.7858 -7.9776005,11.41329 -10.1601005,18.23219 a 44.675266,45.002957 0 0 1 -0.6861,-7.5729 44.675266,45.002957 0 0 1 3.8939,-18.23709 c 2.7899995,-1.0251 5.3465995,-1.399 7.8260995,-1.3928 z m 5.5631,0.5428 c 1.9925,0.3417 4.0124,0.7936 6.1459,1.2143 0.217,0.045 0.4401,0.094 0.6588,0.14 -0.9121,2.2537 -1.672,4.5649 -2.2562,6.9267 -4.0381,16.32299 -5.1046,35.20089 2.8997,51.05759 A 44.675266,45.002957 0 0 1 7.4837475,1016.1154 c 0.078,-0.9197 0.1823,-1.9584 0.3012,-2.5712 1.5411,-7.8182 6.3955005,-12.4771 10.7089005,-20.61989 l 0.01,-0.01 0,-0.01 c 1.5536,-3.0581 2.951,-6.2757 4.1038,-9.626 z m 9.4066,1.9252 c 3.2095,0.7338 6.5781,1.6126 10.039,2.6386 -2.2649,6.7004 -1.3015,13.61259 0.5402,19.82879 3.1601,10.666 11.0797,19.6779 17.7892,27.4621 l 0,0 0,0 c 2.190905,2.5153 6.071105,6.0524 8.306605,8.0447 a 44.675266,45.002957 0 0 1 -18.698005,4.1849 44.675266,45.002957 0 0 1 -15.9827,-2.9893 c -9.3247,-15.6015 -8.5286,-35.1628 -4.3163,-52.19019 0.5885,-2.3787 1.3679,-4.7102 2.3135,-6.9855 z m 12.5504,3.4041 c 16.9832,5.3251 35.690805,14.16119 48.088805,26.98929 a 44.675266,45.002957 0 0 1 -21.4058,26.3451 c -1.8721,-1.6595 -6.6041,-5.9125 -8.8758,-8.5192 -6.716905,-7.7926 -14.328405,-16.5981 -17.261005,-26.496 -1.7698,-5.9737 -2.6004,-12.31079 -0.5462,-18.31919 z"/></g><text x="0" y="115" fill="#000000" font-size="5px" font-weight="bold" font-family="'Helvetica Neue', Helvetica, Arial-Unicode, Arial, Sans-serif">Created by anbileru adaleru</text><text x="0" y="120" fill="#000000" font-size="5px" font-weight="bold" font-family="'Helvetica Neue', Helvetica, Arial-Unicode, Arial, Sans-serif">from the Noun Project</text></svg>