<svg xmlns="http://www.w3.org/2000/svg" xmlns:xlink="http://www.w3.org/1999/xlink" version="1.1" x="0px" y="0px" viewBox="0 0 90 112.5" style="enable-background:new 0 0 90 90;" xml:space="preserve"><path d="M83.9,43.5c-3.7-6.7-11.7-9.6-18.7-7.3l-2.8-7.1c0,0,0,0,0,0L62,28.3c0,0,0,0,0,0l-1.5-4.5c-0.1-0.4-0.5-0.7-0.9-0.7h-6.4  c-0.6,0-1,0.4-1,1s0.4,1,1,1h5.7l1.3,3.8c0,0,0,0,0,0c0,0,0,0,0,0l0.3,0.9c0,0,0,0,0,0l1.6,4.1c-1.6,0.7-5,2.6-8.7,6.3l-3.2,3.2  c-2.2,2.2-4.4,3.3-6.6,3.3c-2.4,0-4.2-1.4-4.7-1.8l-4.5-16.6c0,0,0,0,0,0l-0.6-2h3.9c0.9,0,1.6-0.7,1.6-1.6s-0.7-1.6-1.6-1.6h-8.2  c-0.9,0-1.6,0.7-1.6,1.6s0.7,1.6,1.6,1.6h2.2l0.7,2.6c0,0,0,0,0,0l0.9,3.3l-4.4,6c-2.6-1.8-5.7-2.8-9-2.8c-8.7,0-15.8,7.1-15.8,15.8  s7.1,15.8,15.8,15.8c7.4,0,13.7-5.2,15.3-12.1l1.1,0.2c0.3,1.7,1.5,3.1,3.1,3.6v2.2h-0.8c-0.6,0-1,0.4-1,1s0.4,1,1,1h3.6  c0.6,0,1-0.4,1-1s-0.4-1-1-1h-0.8v-2.1c2.1-0.3,3.7-2.2,3.7-4.4c0-0.9-0.3-1.7-0.7-2.4l7.1-7.1c0,0,0,0,0,0c0,0,0,0,0,0l3.2-3.2  c3.4-3.4,6.5-5.1,8-5.9l0.4,1.1c-0.3,0.1-0.6,0.3-0.8,0.4c-7.6,4.2-10.3,13.9-6.1,21.4c2.9,5.2,8.3,8.1,13.8,8.1  c2.6,0,5.2-0.6,7.6-2C85.4,60.7,88.1,51.1,83.9,43.5z M19.9,64.9c-7.6,0-13.8-6.2-13.8-13.8c0-7.6,6.2-13.8,13.8-13.8  c2.9,0,5.6,0.9,7.8,2.5l-6.6,8.9c-0.2-0.1-0.5-0.1-0.7-0.1c-1.5,0-2.8,1.2-2.8,2.8s1.2,2.8,2.8,2.8c1,0,1.8-0.5,2.3-1.2l10.5,1.6  C31.7,60.5,26.3,64.9,19.9,64.9z M33.7,51.1c0,0.5,0,0.9-0.1,1.4L23.2,51c-0.1-0.4-0.2-0.7-0.4-1.1l6.5-8.8  C32,43.6,33.7,47.2,33.7,51.1z M30.5,39.5l3.5-4.8l4.3,15.9c-0.9,0.6-1.5,1.4-1.8,2.4l-0.9-0.1c0.1-0.6,0.1-1.1,0.1-1.7  C35.7,46.5,33.7,42.4,30.5,39.5z M43.1,50.5c-0.7-0.4-1.5-0.7-2.4-0.7c-0.2,0-0.3,0-0.5,0.1l-0.6-2.1c1,0.5,2.3,0.9,3.9,0.9  c0,0,0,0,0.1,0c0.5,0,1-0.1,1.5-0.1L43.1,50.5z M76.8,63.2c-6.6,3.7-15,1.3-18.7-5.3c-3.7-6.6-1.3-15,5.3-18.7  c0.2-0.1,0.4-0.2,0.6-0.3l4.3,10.8c-0.9,0.8-1.2,2.3-0.6,3.4c0.4,0.6,1,1.1,1.7,1.3c0.3,0.1,0.5,0.1,0.8,0.1c0.5,0,0.9-0.1,1.3-0.4  c0.6-0.4,1.1-1,1.3-1.7s0.1-1.5-0.2-2.1c-0.4-0.6-1-1.1-1.7-1.3C70.7,49,70.4,49,70.2,49l-4.3-10.9c1.4-0.4,2.8-0.7,4.2-0.7  c1.3,0,2.5,0.2,3.8,0.5c3.5,1,6.5,3.3,8.3,6.5C85.8,51.1,83.4,59.5,76.8,63.2z"/><text x="0" y="105" fill="#000000" font-size="5px" font-weight="bold" font-family="'Helvetica Neue', Helvetica, Arial-Unicode, Arial, Sans-serif"></text><text x="0" y="110" fill="#000000" font-size="5px" font-weight="bold" font-family="'Helvetica Neue', Helvetica, Arial-Unicode, Arial, Sans-serif"></text></svg>
