<svg xmlns:dc="http://purl.org/dc/elements/1.1/" xmlns:cc="http://creativecommons.org/ns#" xmlns:rdf="http://www.w3.org/1999/02/22-rdf-syntax-ns#" xmlns:svg="http://www.w3.org/2000/svg" xmlns="http://www.w3.org/2000/svg" xmlns:sodipodi="http://sodipodi.sourceforge.net/DTD/sodipodi-0.dtd" xmlns:inkscape="http://www.inkscape.org/namespaces/inkscape" viewBox="0 0 100 125" version="1.1" x="0px" y="0px"><g transform="translate(0,-952.36216)"><path d="m 49.303849,957.13449 a 45.40504,44.591236 62.064063 0 0 -44.0695952,45.25331 45.40504,44.591236 62.064063 0 0 45.4618742,45.202 45.40504,44.591236 62.064063 0 0 44.069617,-45.2534 45.40504,44.591236 62.064063 0 0 -45.461896,-45.20191 z m 22.8412,21.37034 a 5.1080668,5.0165138 62.064018 0 1 5.110804,5.08474 5.1080668,5.0165138 62.064018 0 1 -4.954292,5.0914 5.1080668,5.0165138 62.064018 0 1 -5.110677,-5.08525 5.1080668,5.0165138 62.064018 0 1 4.954165,-5.09089 z m -11.161954,4.34618 a 5.1080668,5.0165138 62.064018 0 1 5.116729,5.08554 5.1080668,5.0165138 62.064018 0 1 -4.960232,5.09062 5.1080668,5.0165138 62.064018 0 1 -5.110864,-5.08437 5.1080668,5.0165138 62.064018 0 1 4.954367,-5.09179 z m 14.676165,15.76262 a 5.1080668,5.0165138 62.064018 0 1 5.116742,5.08547 5.1080668,5.0165138 62.064018 0 1 -4.960325,5.0909 5.1080668,5.0165138 62.064018 0 1 -5.113702,-5.0853 5.1080668,5.0165138 62.064018 0 1 4.957285,-5.09107 z" style="opacity:1;fill:#000000;fill-opacity:1;stroke:none;stroke-width:2;stroke-linecap:butt;stroke-linejoin:miter;stroke-miterlimit:4;stroke-dasharray:none;stroke-dashoffset:0;stroke-opacity:1"/></g><text x="0" y="115" fill="#000000" font-size="5px" font-weight="bold" font-family="'Helvetica Neue', Helvetica, Arial-Unicode, Arial, Sans-serif">Created by anbileru adaleru</text><text x="0" y="120" fill="#000000" font-size="5px" font-weight="bold" font-family="'Helvetica Neue', Helvetica, Arial-Unicode, Arial, Sans-serif">from the Noun Project</text></svg>