<svg xmlns:dc="http://purl.org/dc/elements/1.1/" xmlns:cc="http://creativecommons.org/ns#" xmlns:rdf="http://www.w3.org/1999/02/22-rdf-syntax-ns#" xmlns:svg="http://www.w3.org/2000/svg" xmlns="http://www.w3.org/2000/svg" xmlns:sodipodi="http://sodipodi.sourceforge.net/DTD/sodipodi-0.dtd" xmlns:inkscape="http://www.inkscape.org/namespaces/inkscape" viewBox="0 0 100 125" version="1.1" x="0px" y="0px"><g transform="translate(0,-952.36216)"><path style="opacity:1;fill:#000000;fill-opacity:1;stroke:none;stroke-width:1.5;stroke-linecap:round;stroke-linejoin:round;stroke-miterlimit:4;stroke-dasharray:none;stroke-opacity:1" d="m 39.455018,977.00708 c -5.87253,2.47846 -12.2952,6.91104 -18.00351,12.1943 4.35719,5.06589 8.01509,10.87722 10.73633,17.36492 3.5078,8.3626 5.11984,17.045 5.08059,25.5869 8.39303,-0.5958 16.83618,-2.4998 23.13474,-5.2048 3.16159,-1.3578 6.54181,-3.2468 9.90744,-5.5035 1.29375,-9.5917 0.1349,-19.6476 -3.8881,-29.23863 -3.08719,-7.36002 -7.55412,-13.70887 -12.96387,-18.88798 -5.14108,0.75547 -9.99807,1.9983 -14.00362,3.68879 z m 26.08734,-4.49614 c 3.86505,4.74732 7.13468,10.10455 9.61987,16.02938 3.43116,8.18005 5.06727,16.66958 5.10328,25.03248 10.05306,-9.2905 17.38974,-20.85623 13.81735,-29.37288 -3.36545,-8.02341 -15.58228,-11.53815 -28.5405,-11.68898 z m -50.65418,23.55553 c -7.4259297,8.84683 -11.9506277,18.69433 -8.9506997,25.84623 2.78236,6.6334 11.6291497,9.6892 21.9103797,10.3007 0.0305,-7.3268 -1.38123,-14.7849 -4.39975,-21.9814 -2.20453,-5.2556 -5.10913,-9.9979 -8.55993,-14.16552 z m 25.74243,4.10223 a 0.6770277,0.6770277 0 0 1 0.0634,-0.027 0.6770277,0.6770277 0 0 1 0.69698,0.1236 c 0.90929,0.7804 1.61948,1.7136 2.13239,2.7388 l 1.96302,-0.8234 c -0.4298,-0.8301 -1.01906,-1.5879 -1.77134,-2.23363 a 0.6770277,0.6770277 0 0 1 0.1198,-1.1227 0.6770277,0.6770277 0 0 1 0.0634,-0.027 0.6770277,0.6770277 0 0 1 0.69699,0.1236 c 0.90929,0.7804 1.61948,1.71363 2.13238,2.73883 l 1.96302,-0.8234 c -0.4298,-0.8301 -1.01906,-1.58793 -1.77134,-2.23363 a 0.6770277,0.6770277 0 0 1 0.1198,-1.1227 0.6770277,0.6770277 0 0 1 0.0634,-0.027 0.6770277,0.6770277 0 0 1 0.69943,0.1225 c 0.90928,0.7804 1.61753,1.7144 2.12994,2.73983 l 1.96302,-0.82343 c -0.4298,-0.8301 -1.01905,-1.5879 -1.77134,-2.2335 a 0.6770277,0.6770277 0 0 1 0.12222,-1.1238 0.6770277,0.6770277 0 0 1 0.0634,-0.027 0.6770277,0.6770277 0 0 1 0.69699,0.1236 c 0.90928,0.7804 1.61753,1.7144 2.12994,2.7398 l 1.96303,-0.8234 c -0.43028,-0.8299 -1.01906,-1.5879 -1.77135,-2.2335 a 0.6770277,0.6770277 0 0 1 0.12224,-1.1238 0.6770277,0.6770277 0 0 1 0.0634,-0.027 0.6770277,0.6770277 0 0 1 0.69698,0.1236 c 0.90929,0.7804 1.61948,1.7136 2.13239,2.7388 l 1.96302,-0.8234 c -0.4298,-0.8301 -1.01906,-1.5879 -1.77134,-2.2335 a 0.6770277,0.6770277 0 0 1 0.1198,-1.1228 0.6770277,0.6770277 0 0 1 0.0634,-0.027 0.6770277,0.6770277 0 0 1 0.69698,0.1236 c 0.9093,0.7804 1.61948,1.7135 2.13239,2.7388 l 0.94127,-0.3948 c 0.35202,-0.1477 0.75325,0.011 0.89831,0.3573 0.14507,0.3458 -0.0226,0.7435 -0.3746,0.8912 l -0.95835,0.402 c 0.34935,1.1066 0.48967,2.2859 0.37404,3.49643 a 0.6770277,0.6770277 0 1 1 -1.34731,-0.1287 c 0.0947,-0.99163 -0.006,-1.94843 -0.27038,-2.84603 l -1.96059,0.8224 c 0.34935,1.1066 0.48967,2.28593 0.37404,3.49643 a 0.6770277,0.6770277 0 1 1 -1.34732,-0.1289 c 0.0947,-0.9915 -0.008,-1.9475 -0.27281,-2.84493 l -1.96059,0.82243 c 0.34883,1.1068 0.48967,2.286 0.37404,3.4964 a 0.6770277,0.6770277 0 1 1 -1.34731,-0.1287 c 0.0947,-0.9915 -0.006,-1.9484 -0.27039,-2.846 l -1.96058,0.8224 c 0.34883,1.1068 0.48967,2.286 0.37404,3.4964 a 0.6770277,0.6770277 0 1 1 -1.34732,-0.1289 c 0.0947,-0.9915 -0.006,-1.9483 -0.27038,-2.8459 l -1.96058,0.8224 c 0.34935,1.1066 0.48967,2.2859 0.37403,3.4963 a 0.6770277,0.6770277 0 1 1 -1.34731,-0.129 c 0.0947,-0.9915 -0.006,-1.9483 -0.27038,-2.8459 l -1.96059,0.8224 c 0.34936,1.1065 0.48967,2.2859 0.37404,3.4964 a 0.67789568,0.67789568 0 1 1 -1.34975,-0.1276 c 0.0947,-0.9915 -0.006,-1.9484 -0.27038,-2.846 l -1.85573,0.7784 c 0.37765,1.1395 0.53346,2.3587 0.41378,3.6117 a 0.67789411,0.67789411 0 1 1 -1.34976,-0.1276 c 0.0989,-1.0358 -0.0155,-2.031 -0.30767,-2.9622 l -1.16075,0.4868 c -0.35202,0.1478 -0.75324,-0.014 -0.89831,-0.3573 -0.14507,-0.3457 0.0226,-0.7435 0.37461,-0.8912 l 1.1656,-0.489 c -0.42481,-0.7869 -0.99893,-1.5035 -1.71839,-2.121 a 0.6770277,0.6770277 0 0 1 0.12223,-1.1237 0.6770277,0.6770277 0 0 1 0.0624,-0.029 0.6770277,0.6770277 0 0 1 0.69699,0.1236 c 0.87711,0.7527 1.57149,1.6463 2.08045,2.6286 l 1.87036,-0.7845 c -0.4298,-0.8301 -1.01906,-1.5879 -1.77134,-2.2335 a 0.6770277,0.6770277 0 0 1 0.12222,-1.1238 z"/></g><text x="0" y="115" fill="#000000" font-size="5px" font-weight="bold" font-family="'Helvetica Neue', Helvetica, Arial-Unicode, Arial, Sans-serif">Created by anbileru adaleru</text><text x="0" y="120" fill="#000000" font-size="5px" font-weight="bold" font-family="'Helvetica Neue', Helvetica, Arial-Unicode, Arial, Sans-serif">from the Noun Project</text></svg>