<svg xmlns="http://www.w3.org/2000/svg" xmlns:xlink="http://www.w3.org/1999/xlink" version="1.1" x="0px" y="0px" viewBox="0 0 100 125" style="enable-background:new 0 0 100 100;" xml:space="preserve"><g><path d="M70.418,3.378l-14.684,64.89l7.075,28.189c0.267,1.047-0.368,2.111-1.416,2.377l-4.003,1.015   c-1.048,0.267-2.113-0.368-2.378-1.416l-3.21-12.788l-2.284,10.094c-0.236,1.055-1.283,1.719-2.337,1.482l-4.03-0.902   c-1.055-0.235-1.719-1.282-1.482-2.337l5.796-25.618L31.959,6.586c-0.266-1.048,0.369-2.113,1.417-2.378l4.002-1.015   c1.048-0.266,2.112,0.368,2.378,1.417l11.641,46.377l11.17-49.366c0.236-1.055,1.283-1.718,2.339-1.482l4.029,0.902   C69.99,1.276,70.653,2.323,70.418,3.378z M29.818,69.906L13.107,4.978c-0.101-0.392-0.5-0.627-0.892-0.527   c-0.392,0.101-0.627,0.5-0.527,0.892l16.71,64.929c-2.336,0.735-3.963,1.953-3.73,2.858c0.233,0.905,2.246,1.187,4.647,0.703   l1.141,4.433c0.101,0.393,0.5,0.629,0.892,0.527c0.392-0.101,0.627-0.5,0.527-0.892l-1.141-4.434   c2.336-0.735,3.963-1.953,3.73-2.858C34.231,69.703,32.219,69.422,29.818,69.906z M87.719,18.061   c-0.399-0.064-0.775,0.207-0.84,0.606L76.177,84.852c-2.435-0.262-4.413,0.201-4.563,1.125c-0.149,0.922,1.582,1.986,3.976,2.506   l-0.73,4.519c-0.064,0.399,0.207,0.775,0.605,0.84c0.399,0.064,0.775-0.207,0.84-0.606l0.731-4.519   c2.435,0.261,4.413-0.202,4.563-1.126c0.149-0.923-1.582-1.986-3.976-2.506L88.324,18.9C88.39,18.501,88.118,18.125,87.719,18.061z   "/></g><text x="0" y="115" fill="#000000" font-size="5px" font-weight="bold" font-family="'Helvetica Neue', Helvetica, Arial-Unicode, Arial, Sans-serif"></text><text x="0" y="120" fill="#000000" font-size="5px" font-weight="bold" font-family="'Helvetica Neue', Helvetica, Arial-Unicode, Arial, Sans-serif"></text></svg>
