<svg xmlns="http://www.w3.org/2000/svg" xmlns:xlink="http://www.w3.org/1999/xlink" xml:space="preserve" version="1.1" style="shape-rendering:geometricPrecision;text-rendering:geometricPrecision;image-rendering:optimizeQuality;" viewBox="0 0 8400 10481.25" x="0px" y="0px" fill-rule="evenodd" clip-rule="evenodd"><defs><style type="text/css">

    .fil0 {fill:black;fill-rule:nonzero}

  </style></defs><g><path class="fil0" d="M6355 762c-905,-36 -1829,291 -2541,843 -706,548 -1240,1326 -1491,2227 573,273 1192,380 1823,342 560,-1492 1918,-2265 3510,-2082 -361,-551 -786,-1000 -1301,-1330zm-2293 -621c-1384,353 -2480,1433 -2915,2785 294,345 649,631 1050,843 262,-920 810,-1713 1533,-2274 673,-522 1504,-842 2391,-871 -575,-316 -1276,-518 -2059,-483zm128 -141c2247,-30 4176,1859 4210,4100 32,2160 -1681,4184 -4001,4282 -2418,101 -4399,-1825 -4399,-4192 0,-2340 1903,-4190 4190,-4190zm116 4141c812,1284 778,2794 113,4094 601,-34 978,-164 1523,-391 1139,-1641 743,-3730 -576,-5076 -491,347 -841,815 -1060,1373zm-3262 -1342c398,-1157 1266,-2109 2381,-2587 -1167,223 -2173,948 -2762,1985 107,211 235,415 381,602zm3481 4846c-1146,158 -2313,-90 -3294,-688 784,838 1882,1304 3030,1284 103,-194 191,-393 264,-596zm-4383 -3600c788,1474 2389,2297 4058,2015 216,-37 379,-80 565,-141 -47,-583 -227,-1123 -517,-1614 -1530,119 -2933,-599 -3667,-1960 -241,406 -445,1238 -439,1700zm7605 -1795c-234,-37 -544,-63 -764,-40 681,910 1179,2055 1084,3157 308,-1016 215,-2206 -320,-3117zm-926 -25c-480,55 -936,209 -1339,465 1302,1342 1707,3371 710,5023 2354,-1340 2067,-3615 629,-5488zm-5904 4353c1038,777 2374,1119 3658,920 149,-463 220,-949 199,-1435 -1780,566 -3666,-162 -4633,-1740 26,812 292,1593 776,2255z"/></g><text x="0" y="8400" fill="#000000" font-size="5px" font-weight="bold" font-family="'Helvetica Neue', Helvetica, Arial-Unicode, Arial, Sans-serif"></text><text x="0" y="8405" fill="#000000" font-size="5px" font-weight="bold" font-family="'Helvetica Neue', Helvetica, Arial-Unicode, Arial, Sans-serif"></text></svg>
