<svg xmlns="http://www.w3.org/2000/svg" xmlns:xlink="http://www.w3.org/1999/xlink" version="1.1" x="0px" y="0px" viewBox="0 0 100 125" enable-background="new 0 0 100 100" xml:space="preserve"><g><rect x="-192" width="185" height="99"/><rect y="-36" width="100" height="30"/><text transform="matrix(1 0 0 1 66 -19.5)" fill="#000000" font-family="'Helvetica'" font-size="2.4">http://thenounproject.com</text><text transform="matrix(1 0 0 1 7.166 -24.5)"><tspan x="0" y="0" fill="#000000" font-family="'Helvetica-Bold'" font-size="6.1578">The Noun Project</tspan><tspan x="1.12" y="4.8" fill="#000000" font-family="'Helvetica-Bold'" font-size="4">Icon Template</tspan></text><text transform="matrix(1 0 0 1 -178.5 10.5)" fill="#000000" font-family="'Helvetica-Bold'" font-size="6.1578">Reminders</text><line fill="#000000" stroke="#FFFFFF" stroke-miterlimit="10" x1="8" y1="-14.5" x2="18" y2="-14.5"/><line fill="#000000" stroke="#FFFFFF" stroke-miterlimit="10" x1="-179" y1="16.5" x2="-162" y2="16.5"/><g><g><g><rect x="-170.802" y="31.318" fill="#000000" width="8.721" height="8.642"/><path fill="#000000" d="M-164.455,42.312h4.747v-4.703h-4.747V42.312z M-159.266,42.749h-5.63V37.17h5.63V42.749      L-159.266,42.749z M-166.221,44.062h8.279v-8.203h-8.279V44.062L-166.221,44.062z M-157.5,44.5h-9.163v-9.079h9.163V44.5      L-157.5,44.5z"/><polygon fill="#000000" points="-166.149,44.133 -166.292,43.991 -158.013,35.787 -157.871,35.929     "/></g></g></g><rect x="-179" y="58" fill="none" width="35" height="32.5"/><text transform="matrix(1 0 0 1 -179 60.1572)"><tspan x="0" y="0" fill="#000000" font-family="'Helvetica-Bold'" font-size="3">Strokes</tspan><tspan x="0" y="5" fill="#000000" font-family="'Helvetica'" font-size="2.4">Try to keep strokes at 4px</tspan><tspan x="0" y="10" fill="#000000" font-family="'Helvetica'" font-size="2.4">Minimum stroke weight is 2px</tspan><tspan x="0" y="14.5" fill="#000000" font-family="'Helvetica'" font-size="2.4">For thicker strokes use even </tspan><tspan x="0" y="17.5" fill="#000000" font-family="'Helvetica'" font-size="2.4">numbers: 6px, 8px etc.</tspan><tspan x="0" y="22" fill="#000000" font-family="'Helvetica-Bold'" font-size="2.4">Remember to expand strokes </tspan><tspan x="0" y="25" fill="#000000" font-family="'Helvetica-Bold'" font-size="2.4">before saving as an SVG </tspan></text><rect x="-136.5" y="58" fill="none" width="35" height="32.5"/><text transform="matrix(1 0 0 1 -136.5 60.1572)"><tspan x="0" y="0" fill="#000000" font-family="'Helvetica-Bold'" font-size="3">Size</tspan><tspan x="0" y="5" fill="#000000" font-family="'Helvetica'" font-size="2.4">Cannot be wider or taller than </tspan><tspan x="0" y="8.5" fill="#000000" font-family="'Helvetica'" font-size="2.4">100px (artboard size)</tspan><tspan x="0" y="13.5" fill="#000000" font-family="'Helvetica'" font-size="2.4">Scale your icon to fill as much of </tspan><tspan x="0" y="16.5" fill="#000000" font-family="'Helvetica'" font-size="2.4">the artboard as possible</tspan></text><rect x="-94" y="58" fill="none" width="35" height="32.5"/><text transform="matrix(1 0 0 1 -94 60.1572)"><tspan x="0" y="0" fill="#000000" font-family="'Helvetica-Bold'" font-size="3">Ungroup</tspan><tspan x="0" y="5" fill="#000000" font-family="'Helvetica'" font-size="2.4">If your design has more than one </tspan><tspan x="0" y="8" fill="#000000" font-family="'Helvetica'" font-size="2.4">shape, make sure to ungroup</tspan></text><rect x="-50" y="58" fill="none" width="35" height="32.5"/><text transform="matrix(1 0 0 1 -50 60.1572)"><tspan x="0" y="0" fill="#000000" font-family="'Helvetica-Bold'" font-size="3">Save as</tspan><tspan x="0" y="5" fill="#000000" font-family="'Helvetica'" font-size="2.4">Save as .SVG and make sure </tspan><tspan x="0" y="8" fill="#000000" font-family="'Helvetica'" font-size="2.4">“Use Artboards” is checked</tspan></text><text transform="matrix(1.0074 0 0 1 -125.542 30.5933)" fill="#000000" font-family="'Helvetica'" font-size="2.5731">100px</text><text transform="matrix(1.0074 0 0 1 -41 39)" fill="#000000" font-family="'Helvetica-Bold'" font-size="5.1462">.SVG</text><rect x="-126.514" y="34.815" fill="#000000" width="10.261" height="10.185"/><rect x="-126.477" y="31.766" fill="#000000" width="0.522" height="2.337"/><rect x="-116.812" y="31.766" fill="#000000" width="0.523" height="2.337"/><rect x="-127" y="32.337" fill="#000000" width="11.233" height="0.572"/><g><rect x="-83.805" y="33.844" fill="#000000" width="10.305" height="10.156"/><rect x="-76.809" y="28.707" fill="#000000" width="3.308" height="3.261"/></g><rect x="-178.5" y="22.5" fill="#000000" stroke="#FFFFFF" stroke-miterlimit="10" width="30" height="30"/><rect x="-136.5" y="22.5" fill="#000000" stroke="#FFFFFF" stroke-miterlimit="10" width="30" height="30"/><rect x="-93.5" y="22.5" fill="#000000" stroke="#FFFFFF" stroke-miterlimit="10" width="30" height="30"/><rect x="-49.5" y="22.5" fill="#000000" stroke="#FFFFFF" stroke-miterlimit="10" width="30" height="30"/></g><g><path d="M53.871,17.257c0,0,4.312-3.101,5.232-3.538c0.921-0.436,3.295-1.452,5.183-1.355c1.891,0.097,3.732,0.533,5.621,1.695   c0,0,2.955,1.744,4.457,5.863c1.502,4.117,3.198,8.138,3.343,8.478c0.146,0.338,1.696,3.681,2.278,5.376   c0,0,1.307,4.021,1.694,5.136c0,0,0.727,2.035,1.695,3.633c0.969,1.6,1.843,2.956,2.52,3.828c0.679,0.872,2.955,3.44,3.585,4.409   c0.631,0.969,1.842,3.246,2.084,3.875c0.242,0.631,0.774,2.325,1.017,3.006c0.244,0.676,3.197,8.429,4.071,10.365   c0,0,0.532,1.164,0.919,1.746c0.389,0.58,1.115,1.938,1.019,2.809c-0.098,0.873,0.097,1.89-2.859,2.083c0,0-3.197,0.146-4.65,0.244   c-1.454,0.096-6.347,0.096-7.219-0.049c0,0-0.922-0.122-1.285-0.376c-0.362-0.254-0.725-0.618-0.616-0.981   c0,0-0.013-0.411,0.376-0.532c0.387-0.121,0.992,0.022,1.476-0.074c0.485-0.096,1.987-0.652,2.399-0.799   c0.412-0.146,2.18-0.944,2.616-1.234c0.436-0.291,2.156-1.163,2.06-2.374c0,0-0.388-3.271-2.242-5.669c0,0-3.777-4.469-4.251-4.979   c-0.473-0.508-3.052-4.433-3.306-4.905c-0.255-0.472-0.689-1.271-0.944-1.562c-0.256-0.291-2.616-2.543-3.271-3.379   c0,0-2.835-3.961-3.27-4.905c0,0-1.345-2.071-1.89-2.543c0,0-3.198-3.054-4.178-4.906c0,0-3.562-5.851-4.543-8.866   c0,0-2.551,5.471-4.323,8.212c-1.601,2.472-5.985,7.049-8.066,8.357c-2.545,1.6-5.088,2.181-8.976,3.525   c0,0,0.399,1.102,1.611,2.386c0,0,0.556,0.605,0.29,1.042c-0.267,0.436-0.436,0.508-0.75,0.605c0,0,0.29,1.188-0.049,2.494   c0,0,0.485,0.268,0.605,0.533c0.121,0.268,0.048,0.654-0.121,0.873c-0.169,0.217-1.986,1.186-1.986,1.186s-0.194,0.194-0.339,0.559   c0,0-0.751,2.446-2.956,4.117c0,0-1.308,1.26-4.457,1.162c0,0-2.326-0.289-3.488-1.357c0,0-4.457,4.701-5.426,5.355   c0,0-3.9,3.148-4.991,3.949c-1.09,0.799-3.609,2.834-3.852,3.197c-0.241,0.363-0.507,1.187-0.799,1.452   c-0.182,0.168-0.854,0.171-2.011,0.219c-1.986,0.084-2.955,0.145-2.955,0.145s-1.115,0.63-1.624,0.654l-1.041,0.049   c0,0-0.268-0.266-0.049-0.459c0.217-0.195,0.994-0.703,0.994-0.703l-4.579,0.822c0,0-0.728-0.145-0.558-0.386   c0.169-0.243,0.582-0.437,0.582-0.437l-1.744,0.145c0,0-0.558-0.241-0.217-0.484c0.338-0.242,2.374-0.799,2.374-0.799l3.682-0.388   c0,0,1.89-0.46,2.35-0.557c0.459-0.098,2.7-0.66,3.003-0.945s4.433-5.136,4.433-5.136s2.156-2.833,2.569-3.488   c0.412-0.654,2.326-3.44,2.809-3.925c0.485-0.484,2.786-2.445,3.27-2.906c0.485-0.461,0.825-0.944,0.825-0.944   s-0.897-2.81,1.115-4.918c2.01-2.107,3.488-2.81,3.488-2.81s0.824-2.148,1.235-2.835c0.436-0.726,1.284-1.768,1.284-1.768   s-0.605-3.003,2.35-7.291c0,0,4.577-5.402,5.909-6.758c0,0,2.592-2.593,3.052-3.102C45.926,24.913,49.389,21.132,53.871,17.257z"/></g><text x="0" y="115" fill="#000000" font-size="5px" font-weight="bold" font-family="'Helvetica Neue', Helvetica, Arial-Unicode, Arial, Sans-serif"></text><text x="0" y="120" fill="#000000" font-size="5px" font-weight="bold" font-family="'Helvetica Neue', Helvetica, Arial-Unicode, Arial, Sans-serif"></text></svg>
