<svg xmlns:dc="http://purl.org/dc/elements/1.1/" xmlns:cc="http://creativecommons.org/ns#" xmlns:rdf="http://www.w3.org/1999/02/22-rdf-syntax-ns#" xmlns:svg="http://www.w3.org/2000/svg" xmlns="http://www.w3.org/2000/svg" xmlns:sodipodi="http://sodipodi.sourceforge.net/DTD/sodipodi-0.dtd" xmlns:inkscape="http://www.inkscape.org/namespaces/inkscape" viewBox="0 0 100 125" version="1.1" x="0px" y="0px"><g transform="translate(0,-952.36216)"><path style="" d="m 49.429673,966.49243 c 5.06242,-0.7767 10.48867,-0.7391 15.39694,0.1634 5.52082,1.0153 11.82194,3.7817 16.62308,7.2983 6.14561,4.5015 9.99222,9.9673 12.26312,17.4283 0.41811,1.3741 1.19039,6.1235 1.24891,7.6794 0.15471,4.10267 -0.15403,7.62787 -1.0269,11.72557 -0.37237,1.748 -1.65658,5.9735 -2.32992,7.6651 l -0.50256,1.2624 0.54592,0.4952 c 0.30008,0.2722 0.55529,0.5527 0.56773,0.6236 0.0125,0.071 -0.42194,1.9014 -0.96603,4.0674 l -0.98976,3.9376 -1.69799,1.8643 c -0.93394,1.0253 -1.74811,1.8725 -1.80979,1.8826 -0.0617,0.01 -0.59839,-0.3088 -1.19251,-0.7094 -1.24784,-0.8413 -3.08141,-1.8967 -4.69973,-2.7056 -0.62857,-0.3142 -1.14262,-0.6481 -1.15941,-0.7532 -0.0166,-0.1038 -0.007,-0.3976 0.0212,-0.6528 0.0279,-0.2551 0.0193,-0.4863 -0.0187,-0.5135 -0.26558,-0.1911 -2.34865,-0.3905 -3.2112,-0.3073 -1.9428,0.1876 -3.37361,0.9319 -7.59033,3.9484 -3.91856,2.8032 -5.5752,3.5572 -9.10564,4.133 -2.46973,0.4028 -3.34553,0.4188 -5.37918,0.093 -3.76403,-0.6022 -7.65681,-2.8295 -9.9603,-5.6984 -0.21331,-0.2656 -0.47295,-0.5818 -0.57635,-0.7026 l -0.18827,-0.2195 -1.19419,0.4098 c -2.66642,0.9146 -4.83271,1.4247 -8.85023,2.0799 l -3.8711,0.6313 -0.20457,0.747 c -0.61511,2.2439 -2.38226,4.1892 -4.74027,5.2192 -3.57669,1.5622 -9.11003,1.5987 -13.77236,0.091 -2.5925102,-0.8385 -4.3956902,-2.0756 -4.5681502,-3.1331 -0.0235,-0.1441 0.16764,-1.2382 0.42492,-2.432 0.25729,-1.1937 0.4978,-2.3183 0.53468,-2.4995 0.065,-0.3193 0.0387,-0.3396 -0.87575,-0.6634 -1.15136,-0.4076 -1.50997,-0.7594 -1.56936,-1.5387 -0.0502,-0.6587 0.23919,-1.2948 0.72697,-1.5989 0.51757,-0.3226 0.78949,-0.3361 1.67883,-0.08 0.43728,0.1259 0.80841,0.2105 0.82473,0.1876 0.0405,-0.056 1.32458,-5.987 1.31242,-6.0616 -0.005,-0.033 -0.19666,-0.1038 -0.4259,-0.1584 -1.32767,-0.3167 -1.93134,-1.3809 -1.40072,-2.4692 0.3998,-0.82 1.14565,-1.0451 2.3309802,-0.704 0.4337,0.1248 0.96304,0.1985 1.1755,0.1638 0.54062,-0.088 0.98252,0.024 1.4164,0.3592 0.76249,0.5891 8.21034,2.2285 13.95136,3.0712 l 2.54349,0.3733 0.77903,-2.2147 c 1.35481,-3.8532 2.42655,-6.3929 5.57918,-13.2177 0.95142,-2.0596 1.72149,-3.795 1.71158,-3.8557 -0.0318,-0.195 -1.63947,-1.1689 -2.82323,-1.71027 -1.30045,-0.5948 -3.4821,-1.3012 -5.16883,-1.6739 l -1.13934,-0.252 -3.29581,0.6763 -3.29663,0.6764 -1.70431,-0.1495 c -1.86822,-0.1639 -3.01855,-0.3544 -4.3829,-0.7261 -0.69157,-0.1884 -0.98176,-0.3393 -1.28398,-0.6661 -0.5186,-0.5609 -0.6918,-1.4319 -0.41664,-2.0977 0.1849,-0.4474 0.95801,-1.1363 1.17513,-1.0466 0.15409,0.064 0.12445,-0.01 -0.22112,-0.5259 -0.34486,-0.5177 -0.55052,-1.47 -0.47207,-2.1854 0.0772,-0.7038 0.57196,-1.5069 1.22399,-1.9867 0.73825,-0.5432 1.86714,-0.7712 2.64146,-0.5335 l 0.4932,0.1508 0.3583,-0.7866 c 1.15363,-2.5302 2.46876,-4.071 4.11672,-4.8245 0.35407,-0.1619 0.60179,-0.4483 1.20581,-1.3943 2.28982,-3.5861 5.14892,-6.5901 8.66593,-9.1036 3.24244,-2.3173 6.37916,-3.8676 10.39294,-5.1379 1.63464,-0.5173 3.36226,-0.9346 5.14357,-1.2492 0.33401,-0.059 0.67029,-0.1142 1.00803,-0.1645 l 0,0 z m -9.80535,37.57307 -0.84191,1.7924 c -1.44892,3.0841 -3.11604,6.7954 -3.89382,8.6706 -1.1432,2.7555 -2.39622,6.2356 -2.27658,6.3217 0.0235,0.017 0.61087,0.079 1.30472,0.1367 0.69385,0.058 1.3521,0.1176 1.46321,0.1315 0.12565,0.016 0.21483,-0.06 0.23546,-0.2004 0.0182,-0.1241 0.24256,-0.761 0.4981,-1.4159 0.78,-1.9988 1.93437,-3.8291 3.37505,-5.3486 l 0.69881,-0.7368 0.17834,-1.3175 c 0.34624,-2.5506 0.35427,-3.5491 0.0435,-5.3852 -0.18957,-1.1202 -0.36584,-1.8339 -0.53401,-2.1608 z m 20.41618,4.0035 c -1.46067,0.2149 -2.87832,0.7792 -4.1166,1.6736 -0.001,2e-4 -0.002,4e-4 -0.003,0 -0.16355,0.1182 -0.32263,0.244 -0.4796,0.3737 -0.039,0.032 -0.0775,0.065 -0.11598,0.098 -0.15575,0.1329 -0.31012,0.2696 -0.45848,0.414 -0.001,2e-4 -0.002,0 -0.003,0 -0.1454,0.1417 -0.28515,0.2908 -0.42285,0.4433 -0.0406,0.045 -0.0809,0.09 -0.12085,0.1363 -0.13564,0.1561 -0.26875,0.3156 -0.39588,0.4826 -0.19848,0.2607 -0.38488,0.5294 -0.55935,0.804 -0.002,2e-4 -0.003,0 -0.004,0.01 -0.0271,0.043 -0.049,0.088 -0.0755,0.1306 -0.14343,0.2325 -0.28259,0.467 -0.4089,0.7074 -0.15215,0.2896 -0.29065,0.585 -0.41701,0.8836 0.25487,-0.075 0.46261,-0.1293 0.58514,-0.1468 0.0607,-0.01 0.10296,-0.01 0.1233,-4e-4 0.31881,0.133 0.84757,0.854 1.02125,1.3926 0.20135,0.6245 0.1115,1.3399 -0.19799,1.57 -0.10934,0.081 -1.1623,0.4764 -2.39425,0.9148 -0.0124,0.2613 -0.0174,0.5221 -0.009,0.7809 0.42523,-0.1331 0.61836,-0.1578 0.68386,-0.082 0.0565,0.065 0.24077,0.5705 0.41017,1.123 0.19375,0.632 0.35961,0.9959 0.44707,0.9816 0.28428,-0.046 1.91721,-1.4419 3.17571,-2.6733 -0.18698,-1.1927 0.0947,-2.4668 0.89323,-3.5158 1.53248,-2.013 4.83597,-2.5064 6.80364,-1.0085 4.21509,4.5585 -2.23305,10.0637 -6.01528,7.3658 -0.20691,-0.1575 -0.39164,-0.3334 -0.56253,-0.5182 -0.90968,0.8125 -2.02378,1.7267 -2.93549,2.4233 l -0.6624,0.5399 c 0.13705,0.4526 0.20536,0.7391 0.20879,0.9545 0.17306,0.1594 0.35302,0.3145 0.5455,0.461 0.0326,0.025 0.0669,0.047 0.0998,0.071 0.37645,0.2773 0.77554,0.5199 1.19299,0.728 0.83491,0.4165 1.7425,0.6963 2.68044,0.8453 0.15632,0.025 0.3134,0.046 0.47126,0.064 4.61885,0.428 8.80375,-1.8063 10.68156,-6.0368 0.0996,-0.2525 0.18809,-0.5081 0.26496,-0.7654 4.3e-4,0 0.001,-2e-4 8.7e-4,0 1.06706,-3.5756 -0.065,-7.5516 -3.14972,-9.9 -2.00234,-1.5243 -4.44755,-2.0739 -6.78171,-1.7304 z m -47.14664,12.6165 c -0.0489,0.01 -0.14248,0.2234 -0.20725,0.4785 -0.29145,1.1478 -1.20011,5.4843 -1.17785,5.6208 0.0281,0.1726 2.35922,0.6933 4.7323,1.0563 1.76369,0.2697 4.08145,0.4908 5.96442,0.5693 0.68928,0.028 2.06123,0.042 3.04844,0.029 l 1.79498,-0.025 0.53576,-2.1725 c 0.29484,-1.1949 0.5413,-2.2439 0.54758,-2.3312 0.008,-0.108 -0.69155,-0.2827 -2.18525,-0.5457 -3.15107,-0.555 -6.14765,-1.1611 -9.78644,-1.9796 -1.74808,-0.3933 -3.21777,-0.708 -3.26669,-0.7001 z m 27.22105,-1.5936 c -0.15266,0.02 -0.87263,1.6925 -1.29046,2.9921 -0.2436,0.7576 -0.56324,1.499 -0.71285,1.654 -0.55295,0.5728 -2.39741,0.7708 -5.16589,0.5555 -0.77645,-0.06 -1.41988,-0.098 -1.43044,-0.083 -0.075,0.1042 -0.9542,3.8268 -0.91109,3.8579 0.0771,0.055 4.05754,-0.5196 4.88522,-0.7059 2.57423,-0.5795 5.8926,-1.4859 6.37905,-1.742 0.10176,-0.053 0.0748,-0.1901 -0.11789,-0.5967 -0.49709,-1.0489 -1.01508,-2.8012 -1.28781,-4.3559 -0.15303,-0.8725 -0.30944,-1.5824 -0.34785,-1.5762 z m -29.24588,11.1399 c -0.0643,0 -0.10473,0 -0.11433,0.019 -0.0384,0.055 -0.16697,0.5431 -0.2858,1.0841 -0.11883,0.5409 -0.27355,1.248 -0.34435,1.5707 l -0.1288102,0.5865 1.1818802,0.5285 c 2.15019,0.9606 4.8077,1.5817 6.80876,1.5915 3.28246,0.016 6.3543,-1.2098 7.77878,-3.1028 0.50457,-0.6705 0.53638,-0.8516 0.13729,-0.7865 -0.34971,0.057 -2.75533,0.039 -4.22852,-0.032 -3.2776,-0.1571 -6.7953,-0.623 -9.74784,-1.2912 -0.45433,-0.1028 -0.86424,-0.1658 -1.05706,-0.1677 z" fill="#000000" stroke="none"/></g><text x="0" y="115" fill="#000000" font-size="5px" font-weight="bold" font-family="'Helvetica Neue', Helvetica, Arial-Unicode, Arial, Sans-serif">Created by anbileru adaleru</text><text x="0" y="120" fill="#000000" font-size="5px" font-weight="bold" font-family="'Helvetica Neue', Helvetica, Arial-Unicode, Arial, Sans-serif">from the Noun Project</text></svg>