<svg xmlns="http://www.w3.org/2000/svg" xmlns:xlink="http://www.w3.org/1999/xlink" version="1.1" x="0px" y="0px" viewBox="0 0 362.078 296.47749999999996" style="enable-background:new 0 0 362.078 237.182;" xml:space="preserve"><g><path d="M232.338,89.109c39.92,3.502,45.939,21.056,50.778,35.161c3.193,9.311,6.308,17.864,17.683,20.62h-5.236   c-25.544-9.103-2.19-47.415-63.486-52.794C163.842,86.108,182.91-9.57,139.41,25.93c-13.796,11.258-27.987,26.646-41.095,42.669   c5.135,12.388,7.672,29.232,7.704,51.128c0,1.136-0.015,2.305-0.028,3.474c11.693-19.376,28.386-40.063,42.19-30.094   c24,17.333,21.333,28.333,47.333,34.333s30.667-14.333,41.334-11.666c7.866,1.967,17.553,19.155,31.721,29.117h-4.994   c-5.641-4.567-10.526-10.018-14.895-14.909c-4.822-5.4-9.377-10.501-12.559-11.297c-0.413-0.104-0.805-0.152-1.199-0.152   c-2.299,0-4.683,1.826-7.701,4.137c-0.764,0.585-1.553,1.188-2.379,1.793c-4.793,3.507-10.945,7.09-20.23,7.09   c-3.063,0-6.35-0.4-9.771-1.19c-16.895-3.897-22.609-10.095-29.846-17.942c-4.488-4.868-9.576-10.384-18.57-16.879   c-1.885-1.363-3.816-2.023-5.906-2.023c-11.249,0-24.74,18.507-34.655,35.786c-0.101,3.225-0.251,6.544-0.448,9.938   c-0.337,5.757-4.138,10.528-9.297,12.365c-0.074,0.279-0.16,0.553-0.257,0.823h266.217v-7.539h-12.347   c-3.919-11.355-5.264-46.054-17.821-43.961c-15,2.5-8-33-23.5-31s7.5,47.5-11,42.5s-15.5-30-38-30.5s-20.5-26.5-35.5-44.5   c-9.724-11.668-22.596,12.168-30.45,30.383C201.833,78.74,213.624,87.467,232.338,89.109z"/><path d="M90.446,149.368c-2.787-0.246-5.349-1.52-7.228-3.63c-0.762-0.857-1.37-1.811-1.825-2.828h-1.337v10.834h5.453   C88.058,153.744,90.136,151.831,90.446,149.368z"/><path d="M19.963,142.91h-1.349c-1.581,3.521-4.967,6.089-9.041,6.458c0.311,2.462,2.391,4.376,4.936,4.376h5.453V142.91z"/><path d="M69.328,47.697c0.148,0,0.295,0.01,0.441,0.02c2.129,0.025,5.559,0.475,9.484,2.453c2.798,1.396,6.786,4.106,10.55,9.16   c2.381-0.383,4.204-2.431,4.204-4.92v-16.5c0-2.762-2.238-5-5-5H73.276c-3.476,7.739-10.695,13.445-19.343,14.787H69.328z"/><path d="M10.233,59.332c3.065-4.101,6.646-7.237,10.546-9.17c3.867-1.953,7.264-2.41,9.443-2.445   c0.197-0.012,0.332-0.02,0.471-0.02h15.391c-8.647-1.342-15.868-7.048-19.345-14.787H11.008c-2.76,0-5,2.238-5,5v16.5   C6.008,56.907,7.844,58.958,10.233,59.332z"/><path d="M8.574,146.426c0.158,0,0.316-0.004,0.477-0.014c4.408-0.26,7.775-4.045,7.518-8.455C16.176,131.307,16,125.25,16,119.734   c-0.035-24.215,3.496-37.818,6.965-44.918v19.046c0.058-0.141,0.118-0.274,0.176-0.417c1.735-4.252,3.306-9.483,4.607-14.894   c2.522-10.43,4.036-21.622,4.127-27.854h-1.182c-0.129,0-0.254,0.014-0.379,0.02c-1.807,0.025-4.799,0.418-8.203,2.133   c-5.379,2.666-11.176,8.502-15.234,18.84C2.771,82.07,0.012,97.078,0,119.734c0,5.857,0.189,12.225,0.594,19.158   C0.844,143.145,4.369,146.426,8.574,146.426z"/><path d="M28.698,95.71c-1.67,4.04-3.451,7.473-5.733,9.977v119.131c0,6.83,5.537,12.363,12.363,12.363   c6.828,0,12.365-5.533,12.365-12.363v-90.271h4.635v90.271c0,6.83,5.537,12.363,12.363,12.363c6.828,0,12.365-5.533,12.365-12.363   v-119.13c-2.283-2.503-4.064-5.938-5.735-9.979c-1.898-4.661-3.531-10.134-4.886-15.755c-2.618-10.915-4.186-22.265-4.292-29.258   H37.875C37.698,61.271,34.234,82.016,28.698,95.71z"/><path d="M69.328,50.697h-1.189c0.124,9.486,3.615,30.286,8.738,42.748c0.059,0.146,0.12,0.282,0.18,0.426V74.859   c0.592,1.217,1.189,2.611,1.779,4.238c2.818,7.813,5.189,20.631,5.18,40.639c0,5.514-0.176,11.572-0.564,18.223   c-0.258,4.412,3.109,8.195,7.521,8.453c0.158,0.008,0.316,0.014,0.473,0.014c4.205,0,7.732-3.281,7.98-7.533   c0.402-6.934,0.592-13.301,0.592-19.156c-0.041-30.182-4.861-46.887-11.435-56.93c-3.285-4.988-7.127-8.184-10.678-9.957   c-3.42-1.725-6.424-2.111-8.225-2.135C69.56,50.711,69.445,50.697,69.328,50.697z"/><path d="M65.827,6.503C61.764,2.483,56.178,0,50.01,0c-12.426,0-22.5,10.074-22.5,22.5c0,12.428,10.074,22.5,22.5,22.5   c11.399,0,20.809-8.476,22.289-19.469c-2.028-0.104-4.169-0.322-6.369-0.664c-11.521-1.793-20.403-6.307-20.146-10.171   c1.524,3.461,10.442,6.121,21.247,6.121c8.153,0,15.246-1.513,18.892-3.744c1.662-1.018,2.608-2.184,2.608-3.424   c0-3.634-8.125-6.629-18.646-7.096c-0.936-0.042-1.884-0.07-2.854-0.07C66.625,6.483,66.227,6.495,65.827,6.503z"/><path d="M282.41,46.93c8.008,0,14.5-6.492,14.5-14.5s-6.492-14.5-14.5-14.5c-8.008,0-14.5,6.492-14.5,14.5   S274.402,46.93,282.41,46.93z M282.41,20.692c6.471,0,11.737,5.267,11.737,11.739c0,6.471-5.267,11.734-11.737,11.734   c-6.473,0-11.736-5.264-11.736-11.734C270.674,25.959,275.938,20.692,282.41,20.692z"/></g><text x="0" y="252.182" fill="#000000" font-size="5px" font-weight="bold" font-family="'Helvetica Neue', Helvetica, Arial-Unicode, Arial, Sans-serif">Created by Gan Khoon Lay</text><text x="0" y="257.182" fill="#000000" font-size="5px" font-weight="bold" font-family="'Helvetica Neue', Helvetica, Arial-Unicode, Arial, Sans-serif">from the Noun Project</text></svg>