<svg xmlns:dc="http://purl.org/dc/elements/1.1/" xmlns:cc="http://creativecommons.org/ns#" xmlns:rdf="http://www.w3.org/1999/02/22-rdf-syntax-ns#" xmlns:svg="http://www.w3.org/2000/svg" xmlns="http://www.w3.org/2000/svg" xmlns:sodipodi="http://sodipodi.sourceforge.net/DTD/sodipodi-0.dtd" xmlns:inkscape="http://www.inkscape.org/namespaces/inkscape" viewBox="0 0 100 125" version="1.1" x="0px" y="0px"><g transform="translate(0,-952.36216)"><path d="m 64.105804,958.88625 c -0.01942,0.27839 -1.508212,4.18979 -2.68795,7.11737 -0.203479,0.50502 -0.945874,2.41509 -1.649768,4.24475 -7.525973,18.26647 -14.953333,37.95653 -21.459389,54.92043 -3.938713,10.2141 -4.268448,10.8735 -5.997743,12 -0.738776,0.4811 -2.177388,0.7925 -4.350936,0.9414 l -14.389187,0.1432 c -1.557078,-0.3408 -2.307482,-1.4286 -2.357392,-3.4174 -0.02742,-1.1177 0.472005,-2.5513 1.040429,-2.9826 0.716728,-0.5441 3.188859,-0.7131 6.384847,-0.4367 5.083788,0.44 7.888944,0.5173 10.339465,0.2851 3.146517,-0.2986 3.576619,-0.6705 5.113295,-4.4227 13.879996,-34.4425 24.836808,-62.00505 26.669872,-66.52381 1.165259,-2.86954 1.269905,-3.04977 1.667649,-3.2935 0.773098,-0.47333 1.71588,0.86316 1.676808,1.42446 z" style="" fill="#000000" stroke="none"/><path d="m 49.189141,1033.9747 c -2.373179,0 -4.522762,0.4681 -6.091932,1.2348 -1.44465,0.7059 -2.415122,1.6769 -2.560158,2.7881 -0.0023,0.021 -0.0053,0.042 -0.0079,0.064 -0.0076,0.075 -0.01163,0.1506 -0.01163,0.2268 0,0.084 -0.0058,0.1763 0.0035,0.2589 l 0.0386,4.5707 -1.99e-4,0.01 1.99e-4,0 1.99e-4,0.034 0.0035,0 c 0.04209,2.3254 3.909861,4.1999 8.667789,4.2009 4.699632,-0 8.541765,-1.8322 8.663719,-4.1284 l 0.0043,-0 -5.99e-4,-0.051 c 0.0017,-0.019 0.0031,-0.039 0.0043,-0.058 -0.0016,-0.017 -0.0034,-0.033 -0.0054,-0.05 l -0.04749,-4.5622 c -7.92e-4,-0.074 0.01124,-0.148 0.01124,-0.2229 0,-1.2322 -1.010758,-2.3117 -2.579927,-3.0784 -1.569169,-0.7667 -3.718753,-1.2348 -6.091932,-1.2348 z m 0,0.2977 c 2.333873,0 4.445795,0.4641 5.961298,1.2046 1.515503,0.7405 2.412855,1.7433 2.412855,2.811 0,1.0676 -0.897352,2.0704 -2.412855,2.8109 -1.515503,0.7405 -3.627425,1.2046 -5.961298,1.2046 -2.333872,0 -4.4456,-0.4641 -5.961104,-1.2046 -1.515502,-0.7405 -2.412855,-1.7433 -2.412855,-2.8109 0,-1.0677 0.897353,-2.0705 2.412855,-2.811 1.515504,-0.7405 3.627232,-1.2046 5.961104,-1.2046 z" style="opacity:1;fill:#000000;fill-opacity:1;stroke:none;stroke-width:1.5;stroke-linecap:round;stroke-linejoin:round;stroke-miterlimit:4;stroke-dasharray:none;stroke-dashoffset:0;stroke-opacity:1"/><path d="m 49.20174,1035.0308 c -1.615593,0 -3.080493,0.2812 -4.18572,0.766 -0.552614,0.2424 -1.018062,0.5352 -1.366037,0.896 -0.347976,0.3609 -0.58204,0.8127 -0.58204,1.307 0,0.4942 0.234064,0.946 0.58204,1.3069 0.347975,0.3608 0.813423,0.6536 1.366037,0.896 1.105227,0.4848 2.570127,0.766 4.18572,0.766 1.615592,0 3.080493,-0.2812 4.18572,-0.766 0.552612,-0.2424 1.018062,-0.5352 1.366037,-0.896 0.347975,-0.3609 0.582039,-0.8127 0.582039,-1.3069 0,-0.4943 -0.234064,-0.9461 -0.582039,-1.307 -0.347975,-0.3608 -0.813425,-0.6536 -1.366037,-0.896 -1.105227,-0.4848 -2.570128,-0.766 -4.18572,-0.766 z m 0,0.9924 c 1.497976,0 2.851845,0.2722 3.787034,0.6824 0.467594,0.2051 0.827723,0.4453 1.050306,0.6761 0.222582,0.2308 0.304102,0.4295 0.304102,0.6181 0,0.1885 -0.08152,0.3872 -0.304102,0.6181 -0.222583,0.2308 -0.582712,0.4709 -1.050306,0.676 -0.935189,0.4102 -2.289058,0.6824 -3.787034,0.6824 -1.497976,0 -2.851845,-0.2722 -3.787034,-0.6824 -0.467594,-0.2051 -0.827724,-0.4452 -1.050307,-0.676 -0.222582,-0.2309 -0.304102,-0.4296 -0.304102,-0.6181 0,-0.1886 0.08152,-0.3873 0.304102,-0.6181 0.222583,-0.2308 0.582713,-0.471 1.050307,-0.6761 0.935189,-0.4102 2.289058,-0.6824 3.787034,-0.6824 z" style="color:#000000;font-style:normal;font-variant:normal;font-weight:normal;font-stretch:normal;font-size:medium;line-height:normal;font-family:sans-serif;text-indent:0;text-align:start;text-decoration:none;text-decoration-line:none;text-decoration-style:solid;text-decoration-color:#000000;letter-spacing:normal;word-spacing:normal;text-transform:none;direction:ltr;block-progression:tb;writing-mode:lr-tb;baseline-shift:baseline;text-anchor:start;white-space:normal;clip-rule:nonzero;display:inline;overflow:visible;visibility:visible;opacity:1;isolation:auto;mix-blend-mode:normal;color-interpolation:sRGB;color-interpolation-filters:linearRGB;solid-color:#000000;solid-opacity:1;fill:#000000;fill-opacity:1;fill-rule:nonzero;stroke:none;stroke-width:10.00000095;stroke-linecap:round;stroke-linejoin:round;stroke-miterlimit:4;stroke-dasharray:none;stroke-dashoffset:0;stroke-opacity:1;color-rendering:auto;image-rendering:auto;shape-rendering:auto;text-rendering:auto;enable-background:accumulate"/><path style="" d="m 35.894265,958.88625 c 0.01974,0.27839 1.508156,4.18979 2.687894,7.11737 0.203479,0.50502 0.945875,2.41509 1.649769,4.24475 7.525973,18.26647 14.953333,37.95653 21.459389,54.92043 3.938713,10.2141 4.268447,10.8735 5.997743,12 0.738776,0.4811 2.177387,0.7925 4.350936,0.9414 l 14.389186,0.1432 c 1.557123,-0.3408 2.307526,-1.4286 2.357436,-3.4174 0.02742,-1.1177 -0.472005,-2.5513 -1.040473,-2.9826 -0.716728,-0.5441 -3.188858,-0.7131 -6.384846,-0.4367 -5.083789,0.44 -7.888944,0.5173 -10.339465,0.2851 -3.146517,-0.2986 -3.57662,-0.6705 -5.113296,-4.4227 -13.879996,-34.4425 -24.836808,-62.00505 -26.669872,-66.52381 -1.165259,-2.86954 -1.269905,-3.04977 -1.667648,-3.2935 -0.77311,-0.47333 -1.715804,0.86316 -1.676753,1.42446 z" fill="#000000" stroke="none"/></g><text x="0" y="115" fill="#000000" font-size="5px" font-weight="bold" font-family="'Helvetica Neue', Helvetica, Arial-Unicode, Arial, Sans-serif">Created by anbileru adaleru</text><text x="0" y="120" fill="#000000" font-size="5px" font-weight="bold" font-family="'Helvetica Neue', Helvetica, Arial-Unicode, Arial, Sans-serif">from the Noun Project</text></svg>