<svg xmlns="http://www.w3.org/2000/svg" xmlns:xlink="http://www.w3.org/1999/xlink" version="1.1" x="0px" y="0px" viewBox="0 0 100 125" style="enable-background:new 0 0 100 100;" xml:space="preserve"><style type="text/css">
	.st0{fill:none;}
	.st1{fill:#47BEAE;}
	.st2{fill:#FFFFFF;}
	.st3{fill:none;stroke:#000000;stroke-width:0;stroke-linecap:round;stroke-linejoin:round;}
</style><g><g><g><path d="M30.9,41.8c11.6-0.3,22.3,0.3,34.8,0.2c0.1-0.1,0.2-0.2,0.2-0.3c0,0,15.1-19.5,15.8-20.8c4.1-7.9,11.4-13.2,11.5-11     c0.1,2.1-4.2,5.3-3.8,14.2c-0.1,1.8-3.8-0.7-5,0.7c-2.1,2.4-5.7,9.4-9.7,17.7c1,0.4,1.8,1.1,2,2.2c0.2,1.3-0.6,2.5-1.7,3.1     c-0.6,0.3-1.4-0.3-2.3-1c-7.5,16.1-15.3,34.9-16.1,36C46.3,97.1,36.8,98.8,20.5,67.3c-6.7-13,0.2-26.9-2.5-33.3     c-0.1-0.2-0.2-0.3-0.2-0.5c-0.2-0.4-0.5-0.8-0.8-1.1c-0.1-0.1-0.1-0.1-0.1-0.2c-1.2-1.3-2.7-2.5-3.1-6.9     c-0.6-6.8,6.7-9.6,12.2-7.6c4.7,1.7,6,5,5.7,8.7c-0.2,2.3,2.4,2,1.2,3c-0.4,0.4-1,0.4-1.1,1.9c-0.1,1.1,0.7,3.2-0.1,3.9     c-1.1,0.9-3,1.4-5.1,1.6C26.6,38.9,27.7,41,30.9,41.8z M62.1,47.1c-10.6,1.6-20.5,2.7-24.7,2.7L37,50c5.9,10.1-0.1,28.2,9.7,18.7     c0,0,0,0,0,0C47.1,68.2,56.5,55.1,62.1,47.1z"/></g><g><path class="st1" d="M17,32.9c0.4,0.3,0.6,0.7,0.8,1.1C17.6,33.6,17.3,33.3,17,32.9z"/></g></g></g><text x="0" y="115" fill="#000000" font-size="5px" font-weight="bold" font-family="'Helvetica Neue', Helvetica, Arial-Unicode, Arial, Sans-serif">Created by MRFA</text><text x="0" y="120" fill="#000000" font-size="5px" font-weight="bold" font-family="'Helvetica Neue', Helvetica, Arial-Unicode, Arial, Sans-serif">from the Noun Project</text></svg>