<svg xmlns="http://www.w3.org/2000/svg" xmlns:xlink="http://www.w3.org/1999/xlink" version="1.1" x="0px" y="0px" viewBox="0 0 573.667 325.13125" style="enable-background:new 0 0 573.667 260.105;" xml:space="preserve"><g><path d="M217.05,69.731c-11.688,0.014-22.769,3.259-32.066,11.559c-9.88,8.763-20.262,28.385-20.215,50.645   c0.054,23.893,11.538,51.004,48.296,72.651c36.771,21.61,99.002,37.385,199.705,37.374c0.987,0,110.53,0.004,149.684,0.006v-9.86   c-1.115,0-201.657-0.005-202.756-0.014c-158.964-1.252-153.054-92.415-133.685-112.479c19.508-20.203,47.203,6.634,56.564,19.299   c5.337-16.015,1.312-37.594-20.584-56.02c-1.269-0.704-2.559-1.397-3.878-2.067C245.61,74.445,230.952,69.723,217.05,69.731z"/><path d="M210.533,208.898c-38.013-22.249-50.821-51.398-50.766-76.964c0.044-23.826,10.76-44.38,21.881-54.373   c10.317-9.236,22.803-12.842,35.401-12.829c15.028,0.01,30.319,5.013,43.335,11.635c9.841,5.023,18.365,10.947,24.507,16.523   c-1.967-16.178-5.057-29.33-13.776-41.605c-9.966-14.05-27.627-27.295-60.3-42.143C197.344,3.016,182.338-0.002,167.004,0   c-28.764-0.007-58.646,10.631-81.593,31.063C62.465,51.51,46.373,81.671,45.036,121.114c-0.528,15.655-0.475,37.028-2.501,57.684   c-2.057,20.667-6.065,40.636-15.296,53.83c-6.122,8.795-14.996,14.52-26.628,14.474c-0.203,0-0.406-0.002-0.611-0.005v13.009   h412.776h160.891v-13.139c-20.503-0.001-159.784-0.009-160.897-0.009C311.556,246.947,248.532,231.188,210.533,208.898z"/><path d="M327.171,160.229c-0.488,1.445,0.288,3.011,1.732,3.498l21.136,7.142l-5.072,16.675l-10.485,0.057   c-2.29,0.011-4.179,1.825-4.283,4.114l-0.779,16.919c-0.105,2.295,1.601,4.252,3.858,4.49c0.085,0.008,0.167,0.013,0.253,0.017   c2.379,0.111,4.396-1.73,4.508-4.11l0.592-12.827l13.817-0.075l13.277,4.654l-0.443,12.207c-0.084,2.28,1.62,4.214,3.859,4.447   c0.096,0.01,0.195,0.016,0.294,0.02c2.382,0.088,4.382-1.773,4.468-4.154l0.561-15.379c0.069-1.889-1.103-3.604-2.884-4.229   l-9.992-3.504l4.254-13.982l21.227,7.172c0.199,0.067,0.398,0.11,0.602,0.131c1.254,0.132,2.477-0.616,2.897-1.862   c0.49-1.444-0.288-3.01-1.731-3.498l-58.163-19.654C329.226,158.01,327.659,158.784,327.171,160.229z"/><ellipse transform="matrix(0.9996 -0.0278 0.0278 0.9996 -4.29 10.2074)" cx="365.011" cy="159.414" rx="7.764" ry="7.765"/><path d="M284.31,210.56c-0.172,0.938,0.448,1.837,1.385,2.01c0.025,0.006,30.191,5.564,63.856,9.07   c14.905,1.553,30.496,2.702,44.488,2.787c13.999,0.074,26.366-0.883,35.022-3.689c0.906-0.293,1.4-1.268,1.107-2.174   c-0.295-0.906-1.271-1.402-2.176-1.107c-7.961,2.605-20.124,3.609-33.935,3.52c-13.817-0.08-29.317-1.222-44.149-2.767   c-16.753-1.745-32.656-4.005-44.371-5.829c-5.854-0.91-10.663-1.712-14.002-2.285c-3.344-0.576-5.211-0.918-5.215-0.92   C285.382,209.002,284.482,209.622,284.31,210.56z"/></g><text x="0" y="275.105" fill="#000000" font-size="5px" font-weight="bold" font-family="'Helvetica Neue', Helvetica, Arial-Unicode, Arial, Sans-serif">Created by Gan Khoon Lay</text><text x="0" y="280.105" fill="#000000" font-size="5px" font-weight="bold" font-family="'Helvetica Neue', Helvetica, Arial-Unicode, Arial, Sans-serif">from the Noun Project</text></svg>