<svg xmlns:dc="http://purl.org/dc/elements/1.1/" xmlns:cc="http://creativecommons.org/ns#" xmlns:rdf="http://www.w3.org/1999/02/22-rdf-syntax-ns#" xmlns:svg="http://www.w3.org/2000/svg" xmlns="http://www.w3.org/2000/svg" xmlns:sodipodi="http://sodipodi.sourceforge.net/DTD/sodipodi-0.dtd" xmlns:inkscape="http://www.inkscape.org/namespaces/inkscape" viewBox="0 0 100 125" version="1.1" x="0px" y="0px"><g transform="translate(0,-952.36216)"><path style="" d="m 93.730281,979.36545 c -0.0212,-1.0649 -0.0861,-2.1805 -0.18114,-2.8845 -0.45854,-3.3942 -1.70152,-6.7168 -3.51543,-9.3968 -2.259,-3.3378 -5.26956,-5.9138 -8.91032,-7.6242 -3.19112,-1.4991 -6.36739,-2.1622 -10.02618,-2.0929 -3.29372,0.063 -6.16591,0.6565 -9.36955,1.9385 -3.41882,1.3681 -6.85528,3.5729 -9.83292,6.3088 -0.82061,0.7541 -2.68055,2.714 -3.46494,3.6512 -1.62727,1.9444 -3.5271,4.7691 -4.60239,6.8431 -2.50433,5.1335 -3.90194,9.5422 -4.24088,14.6668 -0.0424,0.6119 -0.0902,1.1349 -0.10604,1.1624 -0.0159,0.027 -0.11615,0.6496 -0.2227,1.3823 -0.67796,4.6625 -1.99642,9.91945 -3.53014,14.07565 -1.153,3.1246 -2.70292,6.4958 -4.18545,9.1037 -0.84403,1.4846 -1.79735,2.9052 -2.47018,3.72 0,0 -5.6e-4,6e-4 -5.6e-4,7e-4 l -19.55332,20.1187 c -0.30745,0.017 -0.45594,0.1575 -1.96181,1.7352 -0.98057,1.0273 -1.21173,1.3083 -1.26117,1.5327 -0.0611,0.2773 -0.0394,0.4318 0.0959,0.6835 0.0669,0.1246 0.76889,0.8274 1.49948,1.5283 l 0.001,0 10e-4,0 c 0.73143,0.7001 1.4635,1.3715 1.5908,1.433 0.25731,0.1244 0.41253,0.1394 0.68676,0.067 0.22214,-0.059 0.49284,-0.3023 1.4767,-1.3264 1.37173,-1.4279 1.60803,-1.6867 1.64269,-1.9527 l 19.78241,-20.3546 -0.0101,-0.01 c 1.04525,-0.8455 2.14349,-1.6448 3.31423,-2.3851 5.95418,-3.7298 12.9704,-6.562 20.48762,-8.2705 2.46069,-0.5592 3.36208,-0.7141 5.60252,-0.9625 6.34781,-0.7038 13.13276,-3.6812 18.56662,-8.1476 2.00284,-1.6463 3.12732,-2.729 4.66144,-4.48805 4.37534,-5.0745 7.46226,-11.56 7.99964,-17.8829 0.0425,-0.549 0.0523,-1.3466 0.0358,-2.1749 z m -3.1931,-0.5139 0.0122,0.5715 -0.35874,-0.3386 c -0.19728,-0.1862 -0.35911,-0.3569 -0.35959,-0.3793 -5.6e-4,-0.022 0.13418,-0.1792 0.29926,-0.3483 0.36121,-0.3702 0.38893,-0.3365 0.40679,0.4947 z m 0.0341,1.5861 c 0.007,0.3481 -0.006,0.3748 -0.42347,0.8092 -0.23716,0.2471 -0.51676,0.5287 -0.62126,0.6258 l -0.18994,0.1764 -0.67971,-0.6486 c -0.37382,-0.3566 -0.68031,-0.6813 -0.68117,-0.7214 -0.002,-0.094 1.38754,-1.5417 1.48235,-1.5437 0.0396,-8e-4 0.30463,0.2108 0.58878,0.4704 0.50967,0.4656 0.51679,0.4769 0.52442,0.8319 z m -0.0465,1.105 0.004,0.2438 c 0.005,0.3225 -0.0952,1.1286 -0.14713,1.1828 -0.0225,0.023 -0.18549,-0.096 -0.36209,-0.265 l -0.32105,-0.3077 0.41323,-0.4269 z m -0.17328,-4.3897 c -0.002,0.2587 -0.12458,0.3875 -0.45172,0.7265 l -0.46562,0.4825 -0.69823,-0.6716 c -0.38402,-0.3693 -0.69855,-0.687 -0.69896,-0.7061 -10e-4,-0.055 1.45183,-1.5761 1.5059,-1.5773 0.0266,-6e-4 0.16823,0.1167 0.31488,0.2607 0.22711,0.2229 0.2839,0.3424 0.38306,0.8065 0.0688,0.3219 0.11161,0.5237 0.11069,0.6788 z m -0.0395,6.5363 -0.0789,0.5105 c -0.0434,0.2808 -0.11025,0.5745 -0.14875,0.6527 -0.0943,0.1915 -0.73267,0.8243 -0.83373,0.8264 -0.0444,9e-4 -0.37877,-0.2851 -0.74314,-0.6356 -0.36437,-0.3507 -0.66279,-0.6533 -0.66321,-0.6725 -5.6e-4,-0.019 0.33587,-0.3856 0.74736,-0.814 0.54515,-0.5675 0.77515,-0.7629 0.84744,-0.7201 0.0546,0.032 0.27328,0.2374 0.48602,0.4557 z m -0.59802,-9.3027 c -5.5e-4,0.075 -0.0242,0.1286 -0.0726,0.1706 -0.0872,0.076 -0.15051,0.056 -0.37458,-0.1158 -0.14833,-0.1136 -0.41639,-0.3564 -0.59567,-0.5393 -0.64182,-0.655 -0.63037,-0.5533 -0.12212,-1.079 0.36512,-0.3776 0.46063,-0.4437 0.51791,-0.359 0.0807,0.1195 0.55396,1.4628 0.62915,1.7858 0.009,0.038 0.0145,0.072 0.0167,0.1032 8.4e-4,0.012 10e-4,0.023 10e-4,0.033 z m 0.13289,11.5874 c 0.001,0.063 -0.045,0.1149 -0.10295,0.1163 -0.0579,0 -0.10564,-0.01 -0.10595,-0.024 -5.6e-4,-0.014 0.046,-0.067 0.10294,-0.1163 0.0847,-0.074 0.10395,-0.069 0.10596,0.024 z m -0.26188,1.0051 c 0.005,0.093 -0.16975,0.6398 -0.45305,1.4203 l -0.20976,0.578 -0.22804,-0.1034 c -0.12546,-0.057 -0.38142,-0.2449 -0.56877,-0.4179 -0.18735,-0.173 -0.34135,-0.348 -0.34223,-0.3887 -9e-4,-0.041 0.32065,-0.4097 0.71461,-0.8197 l 0.71632,-0.7454 0.18355,0.2 c 0.10091,0.1099 0.18523,0.2346 0.18737,0.2768 z m -0.45616,-11.8816 c 5.7e-4,0.013 -0.002,0.025 -0.007,0.035 -0.0311,0.06 -0.37132,0.4286 -0.75602,0.8194 l -0.6995,0.7106 -0.71112,-0.6789 c -0.39117,-0.3734 -0.71159,-0.696 -0.71203,-0.7166 -5.7e-4,-0.021 0.33761,-0.39 0.75127,-0.8206 0.68245,-0.7104 0.76375,-0.774 0.87762,-0.6858 0.0691,0.054 0.39124,0.3597 0.71598,0.6803 0.3846,0.3797 0.53716,0.5624 0.54106,0.6564 z m -0.0706,3.617 c 10e-4,0.057 -0.73819,0.8623 -1.18854,1.2945 l -0.33079,0.3175 -0.67792,-0.6468 c -0.37283,-0.3558 -0.67854,-0.6807 -0.67942,-0.7219 -0.002,-0.074 0.7562,-0.9114 1.24467,-1.3756 l 0.24993,-0.2375 0.69053,0.6617 c 0.37979,0.3639 0.69099,0.6825 0.69154,0.7081 z m -0.0582,3.7287 -0.76408,0.8025 -0.76407,0.8025 -0.71045,-0.6782 c -0.39076,-0.373 -0.71081,-0.6952 -0.71126,-0.7159 -5.5e-4,-0.02 0.33658,-0.3889 0.74892,-0.8181 l 0.74962,-0.7804 0.36427,0.3004 c 0.20035,0.1652 0.52695,0.4775 0.72572,0.6939 z m -0.23016,-10.6098 c 0.003,0.1187 -0.89946,1.0783 -1.01597,1.0808 -0.0358,9e-4 -0.27766,-0.1852 -0.53749,-0.4132 -0.25982,-0.2281 -0.56969,-0.5323 -0.68853,-0.6759 l -0.21605,-0.2613 0.75436,-0.7844 c 0.61751,-0.6422 0.76798,-0.7657 0.8293,-0.6807 0.17068,0.2367 0.87209,1.6281 0.87438,1.7347 z m 0.0951,14.241 c 0.002,0.082 -0.87847,1.0574 -1.32367,1.4665 l -0.18233,0.1675 c -0.0146,-0.01 -0.0332,-0.02 -0.0544,-0.034 l -0.63453,-0.6056 c -0.37381,-0.3567 -0.6803,-0.6813 -0.68116,-0.7213 -8.5e-4,-0.041 0.33441,-0.4228 0.74514,-0.8504 l 0.74683,-0.7774 0.69102,0.6329 c 0.38007,0.3482 0.692,0.6732 0.69305,0.7223 z m -0.29556,3.7362 c 0.003,0.046 -0.0114,0.094 -0.0376,0.161 -0.0426,0.1093 -0.33636,0.468 -0.65295,0.7968 l -0.57561,0.5979 -0.72253,-0.6428 c -0.39738,-0.3536 -0.7228,-0.6603 -0.72325,-0.6814 -5.7e-4,-0.021 0.348,-0.4017 0.77434,-0.8457 l 0.77519,-0.8073 0.37508,0.3639 c 0.2063,0.2002 0.37589,0.4014 0.37687,0.4472 0.001,0.045 0.1027,0.1933 0.22604,0.3278 0.12651,0.1381 0.1795,0.2067 0.18442,0.2826 z m -1.04355,-20.2607 c 0.002,0.1024 -1.47601,1.6432 -1.57858,1.6453 -0.042,10e-4 -0.3524,-0.2522 -0.68984,-0.5626 -0.33744,-0.3104 -0.64184,-0.6147 -0.67645,-0.6762 -0.049,-0.087 0.13998,-0.3232 0.85361,-1.0669 0.54796,-0.5711 0.94903,-0.9359 0.99751,-0.9074 0.11324,0.067 1.09164,1.4691 1.09375,1.5678 z m -0.1212,3.7849 -0.76331,0.8072 -0.76332,0.8073 -0.71426,-0.6819 c -0.39285,-0.375 -0.71461,-0.6988 -0.71506,-0.7195 -5.6e-4,-0.021 0.33826,-0.3907 0.75278,-0.8222 l 0.7537,-0.7847 0.4833,0.4429 c 0.26585,0.2435 0.59204,0.557 0.7248,0.6968 z m -0.14069,3.6547 c 0.002,0.093 -1.39267,1.5902 -1.48351,1.5921 -0.0365,8e-4 -0.38074,-0.3008 -0.76487,-0.6702 l -0.69832,-0.6718 0.77883,-0.811 0.77894,-0.811 0.69366,0.6486 c 0.38151,0.3567 0.69439,0.6822 0.69527,0.7233 z m -0.0609,3.7088 c 5.6e-4,0.016 -0.34377,0.3894 -0.76462,0.8284 l -0.76516,0.7982 -0.70832,-0.6763 c -0.38956,-0.3718 -0.70846,-0.6925 -0.70833,-0.7125 -5.5e-4,-0.078 1.44328,-1.5792 1.51955,-1.5809 0.0729,0 1.42534,1.2714 1.42688,1.3431 z m 0.11462,11.6525 c -0.004,0.164 -0.20721,0.5502 -0.66189,1.2702 l -0.29984,0.4747 -0.27903,-0.1413 c -0.1535,-0.078 -0.27983,-0.1777 -0.28078,-0.222 -9.5e-4,-0.044 0.31352,-0.408 0.69882,-0.8081 0.54102,-0.5619 0.72191,-0.7105 0.79443,-0.6529 0.0196,0.015 0.0292,0.042 0.0283,0.08 z m -0.24697,-7.9981 c 0.002,0.072 -0.92258,1.0962 -1.32462,1.4685 l -0.19049,0.1764 -0.67972,-0.6486 c -0.37381,-0.3567 -0.6803,-0.6812 -0.68117,-0.7213 -8.4e-4,-0.041 0.33737,-0.4258 0.7517,-0.8571 l 0.75338,-0.7844 0.6846,0.6456 c 0.37654,0.3551 0.68542,0.6795 0.68632,0.7209 z m -0.0346,3.6886 -0.13292,0.1622 c -0.2757,0.3364 -1.35123,1.4221 -1.41004,1.4234 -0.0338,7e-4 -0.36929,-0.2923 -0.74566,-0.6511 -0.37638,-0.359 -0.68454,-0.6636 -0.68483,-0.6772 -0.002,-0.075 1.45188,-1.555 1.52886,-1.5566 0.0508,0 0.39645,0.2908 0.76835,0.6487 z m -0.15807,3.7045 c 9e-4,0.042 -0.32506,0.4272 -0.7243,0.8548 l -0.72583,0.7777 -0.71303,-0.6805 c -0.39213,-0.3744 -0.71327,-0.6977 -0.71371,-0.7184 -5.7e-4,-0.02 0.33946,-0.3918 0.75535,-0.8248 l 0.75617,-0.7873 0.68184,0.6507 c 0.37501,0.3579 0.68259,0.6854 0.68351,0.7278 z m -0.87224,-24.239 c 0.002,0.1139 -1.74005,1.9668 -1.8518,1.9693 -0.0441,9e-4 -0.36943,-0.2715 -0.72282,-0.6054 -0.3534,-0.3338 -0.64344,-0.6523 -0.64463,-0.7077 -0.001,-0.056 0.42902,-0.5502 0.95603,-1.0995 0.8684,-0.9051 0.96984,-0.9896 1.08212,-0.9013 0.2495,0.1963 1.17916,1.2547 1.1811,1.3446 z m -0.39336,4.1127 -0.76916,0.8007 -0.76916,0.8007 -0.70944,-0.6773 c -0.39021,-0.3725 -0.7098,-0.6942 -0.71025,-0.7149 -5.5e-4,-0.021 0.33851,-0.391 0.75332,-0.8228 l 0.75423,-0.7852 0.19362,0.1684 c 0.26062,0.2265 0.79038,0.7367 1.04748,1.0088 z m -0.14245,3.6644 c 0.002,0.1001 -1.39,1.5765 -1.48863,1.5786 -0.034,7e-4 -0.35989,-0.2855 -0.72426,-0.6361 -0.36438,-0.3506 -0.66313,-0.669 -0.66396,-0.7076 -8.4e-4,-0.039 0.33164,-0.417 0.73887,-0.841 l 0.74037,-0.7707 0.69783,0.643 c 0.3838,0.3537 0.69871,0.6839 0.69978,0.7338 z m 0.41968,19.533 c 0.002,0.093 -1.03031,1.5033 -1.10186,1.5048 -0.1046,0 -0.36765,-0.1563 -0.61343,-0.3698 -0.12803,-0.1111 -0.23355,-0.2377 -0.23448,-0.2812 -9.6e-4,-0.043 0.3272,-0.4244 0.7293,-0.8463 0.56058,-0.5883 0.75274,-0.75 0.82397,-0.6935 0.10147,0.081 0.39439,0.5874 0.3965,0.686 z m -0.48079,-15.8088 c 0,0.021 -0.34209,0.3912 -0.76047,0.8223 l -0.76064,0.7835 -0.71268,-0.6803 c -0.39195,-0.3741 -0.71295,-0.6973 -0.7134,-0.718 -5.5e-4,-0.02 0.33816,-0.3906 0.75257,-0.822 l 0.75349,-0.7844 0.16386,0.1331 c 0.24594,0.1997 1.27693,1.2215 1.27727,1.2658 z m -0.14419,3.6609 c -0.025,0.076 -1.31678,1.4706 -1.42942,1.5437 -0.0437,0.028 -0.36862,-0.2245 -0.75495,-0.5876 -0.37304,-0.3505 -0.67896,-0.6749 -0.67995,-0.7208 -0.002,-0.089 1.42366,-1.6086 1.51035,-1.6106 0.0876,0 1.37645,1.3072 1.35397,1.3753 z m -0.0494,3.6601 c 7.8e-4,0.037 -0.33257,0.4213 -0.74079,0.854 l -0.74223,0.7866 -0.7315,-0.6764 c -0.40232,-0.372 -0.73066,-0.6875 -0.72961,-0.7012 0.008,-0.1001 1.4393,-1.5675 1.53079,-1.5695 0.12149,0 1.41081,1.1892 1.41334,1.3065 z m -0.0584,3.7164 -0.76256,0.8014 c -0.41939,0.4408 -0.77405,0.7908 -0.78811,0.778 -0.014,-0.013 -0.33441,-0.314 -0.7119,-0.6694 -0.37749,-0.3553 -0.68673,-0.6684 -0.68733,-0.6957 -0.001,-0.058 1.4324,-1.5775 1.48876,-1.5787 0.0707,0 0.69847,0.557 1.07926,0.9602 z m -0.1126,3.6586 -0.62396,0.6943 c -0.34314,0.3819 -0.69168,0.7441 -0.77457,0.8048 -0.14489,0.1062 -0.17814,0.084 -0.86089,-0.57 l -0.71016,-0.6804 0.77496,-0.807 0.77507,-0.8071 0.70978,0.6827 z m -0.65801,-27.9674 -0.96241,1.008 c -0.52932,0.5544 -1.01428,1.0095 -1.07766,1.0115 -0.0634,0 -0.39365,-0.2808 -0.73396,-0.6282 -0.34031,-0.3473 -0.61823,-0.6656 -0.61761,-0.7073 6.2e-4,-0.042 0.40981,-0.5041 0.90927,-1.0272 l 0.90816,-0.9514 0.39295,0.2958 c 0.21613,0.1628 0.57032,0.4541 0.7871,0.6473 z m -0.55282,4.169 -0.78659,0.7868 -0.7865,0.7868 -0.69965,-0.6662 c -0.38479,-0.3663 -0.69999,-0.683 -0.70044,-0.7037 -5.6e-4,-0.02 0.33879,-0.3911 0.75386,-0.8232 l 0.75466,-0.7856 0.22161,0.2033 c 0.47226,0.4333 0.90079,0.8417 1.06821,1.0179 z m 0.48577,27.0609 c 6.8e-4,0.03 -0.28,0.3821 -0.62361,0.782 -0.57707,0.6717 -0.63409,0.719 -0.74778,0.6205 -0.0678,-0.059 -0.16084,-0.1058 -0.20698,-0.1049 -0.0461,10e-4 -0.22827,-0.1257 -0.40472,-0.2815 -0.17645,-0.1558 -0.32124,-0.3065 -0.32185,-0.3348 -0.002,-0.073 1.43281,-1.5786 1.5053,-1.5801 0.10962,0 0.57919,0.453 0.58157,0.5639 0.001,0.061 0.0507,0.1477 0.10962,0.1947 0.059,0.046 0.1078,0.11 0.10845,0.1402 z m -0.64343,-23.4038 c 0.002,0.091 -1.39658,1.5785 -1.48618,1.5804 -0.0353,8e-4 -0.3623,-0.2854 -0.72667,-0.6361 -0.36438,-0.3505 -0.66313,-0.669 -0.66397,-0.7075 -8.4e-4,-0.039 0.33167,-0.4171 0.73898,-0.8412 l 0.74059,-0.7708 0.69777,0.6504 c 0.3838,0.3577 0.6986,0.6838 0.69948,0.7248 z m -0.0607,3.7191 c 5.7e-4,0.02 -0.34428,0.3894 -0.76602,0.8198 l -0.76681,0.7822 -0.70697,-0.6749 c -0.38886,-0.3711 -0.70733,-0.6919 -0.70778,-0.7126 -5.6e-4,-0.021 0.33852,-0.391 0.75331,-0.8228 l 0.75424,-0.7852 0.19527,0.1683 c 0.32106,0.2766 1.2439,1.185 1.24476,1.2252 z m -0.13234,3.6546 c 0.002,0.094 -1.38735,1.5924 -1.47843,1.5937 -0.0394,9e-4 -0.36977,-0.2855 -0.73414,-0.6361 -0.36437,-0.3506 -0.66313,-0.669 -0.66396,-0.7076 -8.5e-4,-0.038 0.33876,-0.4244 0.75467,-0.8574 l 0.75617,-0.7871 0.68208,0.6621 c 0.37516,0.3642 0.68278,0.6938 0.68361,0.7324 z m -0.10041,3.7042 c 0.003,0.033 -0.008,0.06 -0.0288,0.089 -0.16241,0.2292 -1.40246,1.4581 -1.47285,1.4596 -0.0375,9e-4 -0.36928,-0.2995 -0.73735,-0.6674 -0.36805,-0.3679 -0.66924,-0.6729 -0.66935,-0.6777 -0.001,-0.054 1.48997,-1.5395 1.54579,-1.5407 0.0416,-9e-4 0.37929,0.2906 0.75043,0.6477 0.45523,0.4381 0.60197,0.5916 0.61217,0.6899 z m -0.009,3.7211 -0.77026,0.7856 -0.77038,0.7854 -0.70932,-0.677 c -0.39011,-0.3725 -0.70965,-0.6976 -0.71018,-0.7226 -10e-4,-0.068 1.44466,-1.5704 1.51228,-1.5718 0.0319,-7e-4 0.13389,0.084 0.22656,0.1885 0.0926,0.1044 0.26392,0.261 0.38056,0.348 0.11663,0.087 0.3535,0.3171 0.52641,0.5111 z m -0.11529,3.6304 -0.20304,0.2268 c -0.51075,0.5706 -1.27681,1.355 -1.32417,1.356 -0.0288,6e-4 -0.35044,-0.2857 -0.71481,-0.6364 -0.36437,-0.3505 -0.66316,-0.6704 -0.66402,-0.7107 -0.002,-0.089 1.3968,-1.5361 1.48697,-1.5381 0.0354,-7e-4 0.36911,0.292 0.74169,0.6506 z m -0.1566,3.6814 c -0.005,0.1001 -0.16226,0.2664 -0.66819,0.7928 -0.40467,0.4211 -0.76982,0.7663 -0.8114,0.7672 -0.0416,8e-4 -0.37371,-0.2852 -0.73809,-0.6359 -0.36436,-0.3505 -0.66278,-0.6532 -0.6632,-0.6724 -5.7e-4,-0.019 0.33745,-0.3871 0.75079,-0.8174 l 0.75144,-0.7823 0.26553,0.2232 c 0.27944,0.235 0.83996,0.7726 1.05412,1.0111 0.0309,0.034 0.0533,0.062 0.0581,0.094 9e-4,0.01 0.001,0.012 9.5e-4,0.019 z m -0.72452,-31.4971 c 6.8e-4,0 0,0.01 -0.002,0.01 -0.14305,0.2431 -1.71896,1.8486 -1.81656,1.8507 -0.0641,0 -0.396,-0.2752 -0.73741,-0.6145 -0.34141,-0.3394 -0.6216,-0.6582 -0.62269,-0.7086 -10e-4,-0.051 0.33432,-0.4415 0.7454,-0.8695 0.86158,-0.8969 0.65494,-0.877 1.78123,-0.1717 0.38899,0.2436 0.64395,0.4411 0.65178,0.5031 z m -0.34166,4.0083 -0.71042,0.7539 c -0.3908,0.4148 -0.76058,0.7551 -0.82163,0.7565 -0.0611,0 -0.40907,-0.2846 -0.77344,-0.6351 -0.36438,-0.3507 -0.66279,-0.6533 -0.6632,-0.6725 -5.7e-4,-0.019 0.33759,-0.3874 0.75121,-0.818 l 0.75209,-0.7829 0.27307,0.2418 c 0.36477,0.3229 0.88682,0.8204 1.05564,1.0059 z m 0.51335,30.88 -0.65483,0.6837 -0.64923,0.67785 -0.007,0 -0.26865,-0.1284 c -0.14867,-0.071 -0.39113,-0.2365 -0.53892,-0.36735 -0.14778,-0.131 -0.26957,-0.2787 -0.27063,-0.3283 -10e-4,-0.05 0.32279,-0.431 0.71972,-0.8475 0.86377,-0.9064 0.85001,-0.9067 1.48626,0.033 z m -0.66567,-27.1836 c 0.001,0.063 -0.60102,0.6874 -1.48365,1.5391 -0.0184,0.018 -0.33927,-0.2594 -0.71296,-0.6161 -0.3737,-0.3565 -0.68009,-0.6812 -0.68096,-0.7213 -0.002,-0.1088 1.39492,-1.5417 1.50563,-1.5442 0.11358,0 1.36945,1.2265 1.37194,1.3425 z m -0.0445,3.694 -0.77276,0.7967 -0.77276,0.7968 -0.70911,-0.6768 c -0.39002,-0.3724 -0.70946,-0.6941 -0.70991,-0.7147 -5.6e-4,-0.021 0.33817,-0.3907 0.75256,-0.822 l 0.75348,-0.7844 0.15862,0.1331 c 0.33935,0.285 0.84375,0.7633 1.06652,1.0113 z m -0.14911,3.6513 0,0 c 0.002,0.076 -0.94631,1.1012 -1.36099,1.4719 l -0.15626,0.1397 c 0,0 -5.6e-4,0 -5.6e-4,-6e-4 l -0.67848,-0.6473 c -0.37339,-0.3563 -0.67952,-0.6806 -0.68038,-0.7207 -8.4e-4,-0.041 0.33964,-0.4277 0.75665,-0.8614 l 0.75824,-0.7885 0.67996,0.6603 c 0.37399,0.3633 0.68081,0.6992 0.68182,0.7464 z m -0.0612,3.6963 c 0.002,0.074 -1.43548,1.5446 -1.51074,1.5462 -0.0265,6e-4 -0.36054,-0.2914 -0.74221,-0.6489 -0.38169,-0.3574 -0.69413,-0.6597 -0.69439,-0.6718 -10e-4,-0.059 1.48948,-1.5632 1.55044,-1.5645 0.0889,0 1.39499,1.2502 1.3969,1.339 z m -0.11597,3.6396 c 0.0105,0.1037 -0.13936,0.271 -0.708,0.8515 l -0.77476,0.791 -0.70474,-0.6728 c -0.38759,-0.3701 -0.70521,-0.6956 -0.7058,-0.7235 -0.002,-0.07 1.43819,-1.5297 1.51019,-1.5312 0.0656,0 1.20535,1.0253 1.35335,1.2192 0.0164,0.021 0.0273,0.042 0.0297,0.066 z m -0.0492,3.7096 -0.16814,0.195 c -0.31035,0.36 -1.32159,1.388 -1.3663,1.3889 -0.0244,6e-4 -0.34232,-0.2859 -0.70669,-0.6365 -0.36437,-0.3506 -0.66312,-0.6691 -0.66396,-0.7077 -0.002,-0.092 1.3887,-1.539 1.48065,-1.541 0.0387,-8e-4 0.37507,0.2916 0.74739,0.6499 z m -0.0896,3.6927 c 0.002,0.089 -1.43393,1.5472 -1.5254,1.5492 -0.0528,0 -0.39402,-0.2848 -0.7584,-0.6353 -0.36437,-0.3507 -0.66279,-0.6533 -0.6632,-0.6725 -10e-4,-0.058 1.47522,-1.5762 1.53401,-1.5774 0.0638,0 1.41164,1.273 1.41299,1.336 z m -0.13209,3.6666 c 10e-4,0.056 -1.12575,1.2792 -1.48077,1.6075 -0.0192,0.017 -0.34069,-0.2595 -0.71439,-0.6161 -0.37369,-0.3566 -0.68007,-0.6812 -0.68093,-0.7213 -0.002,-0.1133 1.39716,-1.5419 1.51298,-1.5444 0.11794,0 1.36063,1.1592 1.36311,1.2743 z m -1.02864,-34.7887 c 9e-4,0.042 -0.32303,0.4139 -0.71973,0.8267 l -0.72126,0.7508 -0.68261,-0.6606 c -0.37542,-0.3633 -0.68325,-0.6953 -0.68416,-0.738 -9e-4,-0.043 0.20355,-0.3045 0.45437,-0.5822 0.36886,-0.4084 0.48453,-0.4967 0.60512,-0.4617 0.33953,0.098 1.74677,0.7949 1.74827,0.865 z m -0.0423,3.6164 c 0.002,0.025 -0.005,0.046 -0.0174,0.069 -0.0351,0.065 -0.37427,0.4407 -0.7536,0.8351 l -0.68969,0.7173 -0.71829,-0.6856 c -0.39505,-0.3772 -0.71855,-0.7028 -0.71899,-0.7234 -5.7e-4,-0.021 0.33912,-0.3916 0.7546,-0.824 l 0.75541,-0.7865 0.33027,0.3073 c 0.84652,0.7874 1.04711,0.9817 1.05771,1.0912 z m -0.082,3.6884 c 0.002,0.099 -1.3892,1.5553 -1.48766,1.5573 -0.0348,9e-4 -0.36132,-0.2854 -0.72569,-0.636 -0.36437,-0.3506 -0.66313,-0.6691 -0.66397,-0.7077 -0.002,-0.1074 1.39689,-1.5391 1.50635,-1.5416 0.11933,0 1.36837,1.2074 1.37097,1.328 z m 0.48132,30.81005 c -0.002,0.059 -0.0701,0.1294 -0.23884,0.2888 -0.16022,0.1514 -0.49527,0.4453 -0.74464,0.6532 l -0.4535,0.3781 -0.1862,-0.171 c -0.10241,-0.094 -0.23425,-0.1699 -0.29302,-0.1686 -0.0588,0 -0.17718,-0.07 -0.26311,-0.157 -0.086,-0.088 -0.15665,-0.1801 -0.15719,-0.2052 -0.002,-0.088 1.45495,-1.5585 1.5457,-1.5604 0.10907,0 0.61083,0.5145 0.61335,0.6319 9.5e-4,0.045 0.0531,0.1365 0.11583,0.2029 0.0396,0.043 0.0626,0.073 0.0616,0.1073 z m -0.59794,-27.16465 c 0.008,0.1023 -0.14404,0.2794 -0.69613,0.8621 l -0.76432,0.8066 -0.71549,-0.6829 c -0.39348,-0.3756 -0.71575,-0.7 -0.71619,-0.7207 -0.001,-0.063 1.47527,-1.5786 1.53945,-1.5801 0.0574,0 1.12354,1.0068 1.32419,1.252 0.0162,0.02 0.0266,0.039 0.0285,0.063 z m -0.077,3.7019 c 0.002,0.1043 -1.38697,1.5949 -1.48846,1.5971 -0.0339,7e-4 -0.35966,-0.2855 -0.72404,-0.6362 -0.36436,-0.3506 -0.66313,-0.669 -0.66395,-0.7076 -8.4e-4,-0.039 0.33719,-0.4229 0.75121,-0.8538 l 0.75274,-0.7836 0.68521,0.6437 c 0.37685,0.3541 0.68615,0.6873 0.68729,0.7404 z m -0.0611,3.7021 c 0.002,0.086 -1.3947,1.5484 -1.48197,1.5514 -0.0408,0 -0.38717,-0.2909 -0.76958,-0.6496 -0.3824,-0.3588 -0.69546,-0.6611 -0.69569,-0.6718 -0.001,-0.058 1.49104,-1.561 1.55049,-1.5623 0.0845,0 1.39494,1.248 1.39675,1.3323 z m -0.0629,3.6665 -0.75394,0.8243 -0.75405,0.8245 -0.71863,-0.686 c -0.39522,-0.3773 -0.71889,-0.703 -0.71933,-0.7236 -5.6e-4,-0.021 0.33962,-0.3922 0.75579,-0.8255 l 0.7567,-0.7875 0.71678,0.6868 z m -0.13837,3.7475 c -0.0135,0.038 -0.35944,0.4024 -0.76875,0.8095 l -0.74423,0.7401 -0.67713,-0.6461 c -0.37244,-0.3554 -0.6775,-0.6784 -0.67835,-0.7178 -0.002,-0.1001 1.3715,-1.5427 1.47025,-1.5448 0.11371,0 1.42797,1.275 1.39821,1.3591 z m -0.10852,3.6498 c 7.9e-4,0.01 8.5e-4,0.013 5.7e-4,0.018 -0.002,0.022 -0.0111,0.04 -0.026,0.06 -0.0498,0.064 -0.39418,0.4386 -0.76519,0.8327 l -0.67455,0.7165 -0.7129,-0.6806 c -0.39209,-0.3742 -0.71317,-0.6975 -0.71362,-0.7182 -10e-4,-0.063 1.47503,-1.5787 1.5388,-1.5801 0.0326,-7e-4 0.36506,0.2947 0.73873,0.6562 0.45221,0.4375 0.60305,0.5984 0.61428,0.6951 z m -0.0764,3.6746 c 0.002,0.1038 -1.3957,1.5861 -1.49798,1.5883 -0.0287,6e-4 -0.35033,-0.2857 -0.71471,-0.6364 -0.36437,-0.3505 -0.66312,-0.669 -0.66396,-0.7075 -8.4e-4,-0.038 0.33395,-0.4195 0.74392,-0.8462 l 0.74532,-0.7761 0.69262,0.6361 c 0.38089,0.3498 0.69354,0.6835 0.69479,0.7418 z m -0.0649,3.6888 c 10e-4,0 10e-4,0.01 0,0.01 -0.39317,0.44915 -1.48773,1.54885 -1.54273,1.55005 -0.0412,9e-4 -0.37306,-0.2853 -0.73743,-0.6358 -0.36437,-0.3507 -0.66278,-0.65325 -0.6632,-0.67245 -10e-4,-0.068 1.48056,-1.5762 1.55016,-1.5778 0.0863,0 1.35183,1.2091 1.39303,1.328 z m -1.02667,-34.8663 c 0.001,0.055 -0.32274,0.4375 -0.71977,0.8506 l -0.72191,0.7512 -0.71762,-0.685 c -0.3947,-0.3769 -0.71798,-0.702 -0.71842,-0.7228 -5.7e-4,-0.021 0.33795,-0.3903 0.75202,-0.8213 l 0.75284,-0.7838 0.36048,0.323 c 0.58333,0.5228 1.01009,0.9814 1.01238,1.0881 z m -0.0619,3.6629 c 0.002,0.095 -1.38492,1.562 -1.47905,1.5645 -0.0394,9e-4 -0.36976,-0.285 -0.73413,-0.6356 -0.36437,-0.3507 -0.66307,-0.6658 -0.6638,-0.7003 -7.3e-4,-0.034 0.33441,-0.4174 0.7449,-0.8509 l 0.74639,-0.788 0.692,0.6684 c 0.38062,0.3677 0.69282,0.7015 0.69369,0.7419 z m -0.061,3.7041 c 6.1e-4,0.028 -0.34025,0.4018 -0.75745,0.8305 l -0.75853,0.7794 -0.18508,-0.1644 c -0.10173,-0.091 -0.41566,-0.3911 -0.69759,-0.6682 -0.28194,-0.2769 -0.52105,-0.5255 -0.53146,-0.5521 -0.0224,-0.058 1.43757,-1.5894 1.51648,-1.5911 0.0686,0 1.41214,1.2968 1.41363,1.3659 z m -0.13256,3.6448 c 0.002,0.1026 -1.38069,1.6007 -1.47955,1.6028 -0.0386,10e-4 -0.36844,-0.2853 -0.73282,-0.6358 -0.36437,-0.3507 -0.66314,-0.6692 -0.66395,-0.7078 -0.002,-0.1114 1.39893,-1.5391 1.51303,-1.5417 0.12299,0 1.36069,1.1617 1.36329,1.2825 z m -0.32591,-13.9878 c -0.005,0.07 -0.11154,0.2067 -0.32839,0.4244 -0.21427,0.2152 -0.42165,0.392 -0.46086,0.3928 -0.0392,9e-4 -0.35108,-0.2535 -0.69296,-0.5651 -0.80529,-0.7342 -0.88603,-0.8775 -0.49965,-0.8858 0.203,0 1.8697,0.5 1.96941,0.596 0.009,0.01 0.0136,0.021 0.0124,0.037 z m 0.77935,40.99085 -0.5081,0.3918 c -0.27947,0.2155 -0.63974,0.4825 -0.80053,0.5933 l -0.29232,0.2016 -0.22218,-0.1789 c -0.1222,-0.098 -0.25128,-0.1785 -0.28695,-0.1777 -0.1763,0 8.4e-4,-0.2373 0.65613,-0.893 0.39498,-0.3952 0.75833,-0.7091 0.80754,-0.6974 0.1465,0.034 0.34002,0.2297 0.34249,0.3451 10e-4,0.059 0.0702,0.1767 0.15312,0.2613 z m -0.51457,-23.30525 c 10e-4,0.06 -1.15458,1.2909 -1.39346,1.4844 -0.1105,0.09 -0.18211,0.044 -0.71121,-0.443 -0.9622,-0.8873 -0.95111,-0.708 -0.0983,-1.5957 0.40477,-0.4215 0.76335,-0.7668 0.7969,-0.7675 0.08,0 1.4044,1.2433 1.40609,1.3218 z m -0.036,3.7021 -0.54503,0.5696 c -0.29977,0.3134 -0.65701,0.6705 -0.79381,0.7936 l -0.24868,0.2239 -0.67433,-0.6539 c -0.37086,-0.3596 -0.6828,-0.6769 -0.69324,-0.7051 -0.0104,-0.028 0.3216,-0.4059 0.73792,-0.8394 l 0.75703,-0.7879 0.73002,0.6996 z m -0.12884,3.664 -0.1652,0.199 c -0.29589,0.3563 -1.30462,1.3836 -1.35968,1.3848 -0.0295,6e-4 -0.36791,-0.3011 -0.75202,-0.6705 l -0.69833,-0.6718 0.77453,-0.8066 0.77464,-0.8065 0.71303,0.6858 z m -0.0876,3.7149 -0.76699,0.8047 -0.7671,0.8047 -0.70697,-0.6749 c -0.38889,-0.3713 -0.70744,-0.6923 -0.70791,-0.7134 -10e-4,-0.065 1.44972,-1.5773 1.51499,-1.5788 0.0668,0 0.64654,0.5316 1.13028,1.0391 z m -0.13435,3.6323 c 0.002,0.077 -0.9111,1.094 -1.32413,1.4759 l -0.19082,0.1764 -0.67971,-0.6486 c -0.37382,-0.3567 -0.68031,-0.6812 -0.68117,-0.7213 -8.4e-4,-0.04 0.33175,-0.4199 0.73923,-0.8442 l 0.74092,-0.7712 0.69691,0.6259 c 0.38333,0.3442 0.69781,0.6624 0.69877,0.7071 z m -0.0999,3.734 c 0.003,0.032 -0.009,0.06 -0.0299,0.089 -0.2287,0.3187 -1.34505,1.4569 -1.43069,1.4587 -0.0524,0 -0.3992,-0.2838 -0.77067,-0.6331 -0.37146,-0.3494 -0.6757,-0.6519 -0.67615,-0.6722 -10e-4,-0.069 1.47924,-1.5782 1.55012,-1.5797 0.0387,-8e-4 0.37412,0.2907 0.74526,0.6478 0.45662,0.4394 0.60282,0.592 0.61207,0.69 z m -0.89443,-34.8813 -0.54554,0.5767 c -0.30006,0.3172 -0.65666,0.6699 -0.79238,0.7838 l -0.24672,0.2072 -0.70999,-0.6829 -0.70988,-0.6828 0.76921,-0.8035 0.76934,-0.8033 0.37804,0.3381 c 0.20794,0.1861 0.53784,0.5021 0.73304,0.7024 z m 0.80222,38.56325 c 0.001,0.055 -0.33005,0.4345 -0.73605,0.8444 l -0.73819,0.7451 -0.21575,-0.1864 c -0.11865,-0.1025 -0.43328,-0.3874 -0.69915,-0.633 -0.26587,-0.2457 -0.48462,-0.4789 -0.48615,-0.5181 -10e-4,-0.04 0.33597,-0.4242 0.75,-0.8552 l 0.75273,-0.7837 0.68521,0.6438 c 0.37684,0.3542 0.68617,0.6886 0.68735,0.7431 z m -0.96074,-34.90025 c 0.002,0.1099 -1.36976,1.5675 -1.47773,1.5699 -0.0401,8e-4 -0.37097,-0.2854 -0.73535,-0.6359 -0.36437,-0.3507 -0.66313,-0.6692 -0.66396,-0.7078 -0.002,-0.092 1.38953,-1.5395 1.47937,-1.5389 0.10975,7e-4 1.39542,1.2083 1.39767,1.3127 z m -0.0457,3.7156 -0.76353,0.8075 -0.76352,0.8075 -0.71752,-0.6849 c -0.39459,-0.3768 -0.71776,-0.7019 -0.7182,-0.7226 -10e-4,-0.059 1.47307,-1.5786 1.53264,-1.5798 0.0589,0 0.64201,0.5434 1.12034,1.0466 z m -0.14735,3.6565 c 0.003,0.1201 -1.36052,1.5821 -1.4774,1.5846 -0.0402,10e-4 -0.37098,-0.2852 -0.73536,-0.6358 -0.36436,-0.3506 -0.66312,-0.6692 -0.66395,-0.7077 -0.002,-0.1071 1.3967,-1.5391 1.5059,-1.5416 0.13419,0 1.36796,1.1676 1.37081,1.3005 z m -0.0615,3.6821 c 0.002,0.096 -1.43805,1.5724 -1.51144,1.5496 -0.0403,-0.012 -0.37982,-0.3133 -0.75452,-0.6687 -0.37467,-0.3553 -0.68126,-0.6498 -0.68137,-0.6543 -10e-4,-0.05 1.49873,-1.5498 1.55074,-1.551 0.0797,0 1.39489,1.2455 1.39659,1.3244 z m -0.13158,3.6905 c 10e-4,0.049 -0.32584,0.4321 -0.72631,0.8528 l -0.72809,0.7649 -0.65419,-0.6107 c -0.35982,-0.3359 -0.6793,-0.6419 -0.70995,-0.6799 -0.0306,-0.038 -0.0566,-0.085 -0.0576,-0.1054 -0.001,-0.02 0.3385,-0.3906 0.7544,-0.8236 l 0.75617,-0.7872 0.68185,0.6506 c 0.375,0.3579 0.68269,0.6901 0.68373,0.7385 z m -0.0614,3.6872 c 0.002,0.087 -1.41172,1.568 -1.49882,1.5698 -0.0423,9e-4 -0.36139,-0.2792 -0.70902,-0.6227 -0.34764,-0.3434 -0.64145,-0.6614 -0.65296,-0.7067 -0.0274,-0.1075 1.3873,-1.5787 1.48744,-1.5469 0.10727,0.034 1.37187,1.2371 1.37336,1.3065 z m -0.11666,3.7404 c -5.7e-4,0.014 -0.004,0.027 -0.0101,0.038 -0.0346,0.065 -0.37592,0.4386 -0.75852,0.8305 l -0.69562,0.7127 -0.71335,-0.681 c -0.39236,-0.3746 -0.71372,-0.698 -0.71417,-0.7187 -0.001,-0.062 1.47442,-1.5787 1.5367,-1.58 0.0315,-7e-4 0.36097,0.2958 0.73243,0.6587 0.47103,0.4602 0.6251,0.6386 0.62269,0.739 z m 0.32627,15.51245 c 0.004,0.066 -0.098,0.1423 -0.40496,0.3363 -0.25679,0.1623 -0.62854,0.4012 -0.82604,0.5308 -0.1975,0.1296 -0.39352,0.225 -0.43564,0.212 -0.0422,-0.013 0.26084,-0.375 0.67322,-0.8042 0.70205,-0.7309 0.75325,-0.77 0.80435,-0.6147 0.03,0.091 0.0987,0.2143 0.15272,0.2735 0.0215,0.023 0.0349,0.044 0.0363,0.067 z m -0.40336,-11.91325 c 0.002,0.08 -1.03156,1.2274 -1.35868,1.5086 l -0.15797,0.1358 -0.67893,-0.6478 c -0.37339,-0.3562 -0.67955,-0.6816 -0.68043,-0.7228 -0.002,-0.074 0.75686,-0.9121 1.248,-1.3787 l 0.25327,-0.2407 0.68647,0.631 c 0.37756,0.3471 0.68729,0.6685 0.68827,0.7146 z m -0.0608,3.7156 c 6.2e-4,0.028 -0.34301,0.4109 -0.76362,0.8489 l -0.76476,0.7965 -0.70876,-0.6767 c -0.38982,-0.3722 -0.70913,-0.6935 -0.70958,-0.7142 -0.002,-0.07 1.47881,-1.5788 1.5501,-1.5803 0.0806,0 1.39491,1.2459 1.39662,1.3258 z m -0.93015,-34.8724 -0.68488,0.7214 c -0.37665,0.3967 -0.73403,0.75 -0.79421,0.7852 -0.0843,0.049 -0.27144,-0.092 -0.8145,-0.6143 l -0.70496,-0.6781 0.39842,-0.4362 c 0.45859,-0.5021 0.50232,-0.5124 1.51286,-0.3492 0.5292,0.085 0.64035,0.1294 0.84814,0.3348 z m 0.79858,38.5635 c 0.001,0.049 -0.32465,0.42935 -0.72373,0.84455 l -0.72557,0.755 -0.30014,-0.24 c -0.16507,-0.1319 -0.48583,-0.4218 -0.7129,-0.644 -0.22707,-0.2221 -0.41347,-0.4327 -0.41423,-0.468 -7.8e-4,-0.035 0.33888,-0.41845 0.75479,-0.85145 l 0.75616,-0.7872 0.68185,0.6506 c 0.37501,0.3579 0.68271,0.691 0.68377,0.7405 z m -0.0378,3.66695 -0.26146,0.3088 c -0.28884,0.341 -1.21866,1.2715 -1.27611,1.2769 -0.02,0 -0.35072,-0.2988 -0.73484,-0.6683 l -0.69843,-0.6717 0.74015,-0.7706 c 0.4071,-0.4238 0.77198,-0.7712 0.81075,-0.7721 0.0388,-8e-4 0.37404,0.2907 0.74515,0.6478 z m -0.92237,-38.54335 c 0.002,0.095 -1.38307,1.5467 -1.47819,1.5488 -0.0401,9e-4 -0.37097,-0.2853 -0.73534,-0.6359 -0.36437,-0.3506 -0.66314,-0.6692 -0.66397,-0.7078 -0.002,-0.096 1.39089,-1.5389 1.48757,-1.541 0.098,0 1.38781,1.2376 1.38993,1.3359 z m -0.0614,3.6847 c 6.1e-4,0.028 -0.33927,0.4051 -0.75518,0.838 l -0.75618,0.7873 -0.71773,-0.6851 c -0.39473,-0.3769 -0.71801,-0.7034 -0.71849,-0.7256 -5.7e-4,-0.022 0.33909,-0.3905 0.75462,-0.8181 0.68098,-0.7007 0.76786,-0.768 0.8811,-0.6828 0.2249,0.1694 1.31073,1.2341 1.31186,1.2863 z m -0.0319,3.6727 -0.68483,0.7186 c -0.37665,0.3952 -0.74349,0.7539 -0.81515,0.797 -0.11231,0.068 -0.22306,-0.01 -0.80287,-0.5634 -0.36993,-0.353 -0.67324,-0.6745 -0.6741,-0.7147 -8.5e-4,-0.04 0.33817,-0.4266 0.75341,-0.8588 l 0.75487,-0.786 0.7344,0.7037 z m -0.13393,3.6526 -0.16596,0.1989 c -0.42559,0.5102 -1.2746,1.383 -1.34683,1.3845 -0.0443,0 -0.36729,-0.2785 -0.71779,-0.6211 -0.35051,-0.3425 -0.6467,-0.6604 -0.65823,-0.7065 -0.0231,-0.092 1.35194,-1.5546 1.46439,-1.5571 0.0387,-8e-4 0.37506,0.2916 0.74738,0.6499 z m -0.0865,3.7013 -0.75848,0.8176 -0.75859,0.8177 -0.70594,-0.6475 c -0.38827,-0.3561 -0.71084,-0.6796 -0.71692,-0.7188 -0.006,-0.039 0.32946,-0.4258 0.74563,-0.8591 l 0.7567,-0.7875 0.7188,0.6888 z m -0.13403,3.7139 c 0.002,0.079 -1.40845,1.5536 -1.48683,1.5552 -0.0353,8e-4 -0.36219,-0.2854 -0.72657,-0.6361 -0.36436,-0.3505 -0.66313,-0.669 -0.66395,-0.7076 -0.002,-0.092 1.3887,-1.539 1.48065,-1.541 0.0828,0 1.39493,1.2472 1.3967,1.3295 z m -0.0434,3.6969 -0.77255,0.8021 -0.77264,0.8021 -0.70977,-0.6775 c -0.39035,-0.3726 -0.71002,-0.6945 -0.71047,-0.7152 -5.7e-4,-0.021 0.33761,-0.39 0.75127,-0.8206 0.68636,-0.7145 0.76333,-0.7745 0.88081,-0.6858 0.15302,0.1156 0.91944,0.8476 1.16233,1.11 z m -0.15045,3.6402 c 0.002,0.099 -1.11817,1.3387 -1.35889,1.5039 -0.16873,0.1159 -0.17663,0.111 -0.84311,-0.525 -0.37,-0.353 -0.67336,-0.6747 -0.67422,-0.7148 -8.4e-4,-0.04 0.3387,-0.4271 0.7546,-0.8601 l 0.75617,-0.7872 0.68185,0.6506 c 0.375,0.3579 0.68263,0.6876 0.6836,0.7326 z m -0.0289,3.6833 -0.7202,0.7686 c -0.39612,0.4227 -0.75132,0.7932 -0.78933,0.8235 -0.0391,0.031 -0.37291,-0.2349 -0.76878,-0.6124 -0.38481,-0.3669 -0.70002,-0.6838 -0.70046,-0.7041 -0.002,-0.079 1.45561,-1.579 1.53571,-1.5807 0.0467,-10e-4 0.39041,0.2923 0.76391,0.6517 z m -0.16689,3.7179 c 0.003,0.052 -0.3234,0.4293 -0.72517,0.8397 -0.57319,0.5856 -0.75545,0.7334 -0.84631,0.6861 -0.0637,-0.033 -0.38242,-0.3268 -0.70835,-0.6523 -0.32593,-0.3254 -0.59312,-0.6153 -0.59374,-0.6441 -6.1e-4,-0.028 0.34006,-0.4072 0.75711,-0.841 l 0.75822,-0.7885 0.67641,0.6534 c 0.37201,0.3594 0.67887,0.6954 0.68183,0.7467 z m -0.0317,3.66335 -0.13299,0.159 c -0.19158,0.2291 -1.148,1.2271 -1.29205,1.3484 -0.1106,0.093 -0.18471,0.042 -0.79938,-0.544 -0.37262,-0.3556 -0.67817,-0.6793 -0.67903,-0.7193 -8.4e-4,-0.04 0.33154,-0.4197 0.7387,-0.8436 l 0.74026,-0.7707 0.71225,0.6852 z m -0.92563,-38.56215 c 0.002,0.084 -1.23168,1.4123 -1.39892,1.5064 -0.11212,0.063 -0.23054,-0.02 -0.80407,-0.5677 -0.36991,-0.353 -0.67324,-0.6746 -0.67411,-0.7148 -0.002,-0.1154 1.41789,-1.5622 1.50671,-1.5347 0.11422,0.035 1.36876,1.2353 1.37039,1.3108 z m 0.85494,42.23435 -0.17454,0.1927 c -0.096,0.106 -0.1835,0.2677 -0.19448,0.3595 -0.0157,0.1313 -0.16056,0.243 -0.67999,0.5243 -0.36305,0.1966 -0.6788,0.358 -0.70157,0.3585 -0.0227,5e-4 -0.0795,-0.078 -0.1261,-0.175 -0.0466,-0.097 -0.1408,-0.194 -0.20926,-0.2162 -0.0685,-0.022 -0.29385,-0.1973 -0.50095,-0.3892 -0.20708,-0.1919 -0.37689,-0.3662 -0.37735,-0.3875 -5.5e-4,-0.021 0.33877,-0.3923 0.75384,-0.8244 l 0.75466,-0.7856 0.22589,0.2032 c 0.12429,0.1119 0.45192,0.414 0.72799,0.6715 z m -0.91589,-38.52815 c 6.1e-4,0.028 -0.34287,0.401 -0.76331,0.8279 l -0.76442,0.7763 -0.67367,-0.6428 c -0.37051,-0.3536 -0.67469,-0.6915 -0.67598,-0.7509 -10e-4,-0.06 0.32127,-0.4449 0.71679,-0.8564 l 0.71911,-0.7484 0.16167,0.1329 c 0.30927,0.2545 1.2787,1.2099 1.27981,1.2614 z m -0.13226,3.6588 c 0.002,0.1011 -0.89176,1.0723 -1.35934,1.4776 l -0.15796,0.1369 -0.67893,-0.6478 c -0.37339,-0.3563 -0.67952,-0.6806 -0.68038,-0.7208 -0.002,-0.1013 1.39098,-1.5417 1.49322,-1.544 0.13176,0 1.38061,1.1691 1.38339,1.2981 z m -0.10546,3.7205 c 0.003,0.024 -0.002,0.045 -0.0126,0.066 -0.0787,0.155 -1.36382,1.4572 -1.43895,1.4582 -0.0288,0 -0.36701,-0.2903 -0.75158,-0.6458 -0.38457,-0.3556 -0.69946,-0.6576 -0.69975,-0.6712 -0.001,-0.063 1.48845,-1.5661 1.55355,-1.5676 0.0405,-8e-4 0.37271,0.2906 0.73813,0.6477 0.45016,0.4398 0.60024,0.6076 0.61124,0.7131 z m 0.0174,3.6724 -0.77126,0.8053 -0.77127,0.8056 -0.70919,-0.6507 c -0.39004,-0.3578 -0.7141,-0.6826 -0.72017,-0.7218 -0.006,-0.039 0.32946,-0.4258 0.74562,-0.859 l 0.7567,-0.7876 0.73473,0.7041 z m -0.16591,3.6876 c 0.001,0.054 -0.8272,0.9276 -1.33018,1.4036 l -0.18632,0.1764 -0.67972,-0.6487 c -0.37382,-0.3566 -0.6803,-0.6812 -0.68116,-0.7213 -8.4e-4,-0.04 0.33154,-0.4197 0.7387,-0.8436 l 0.74027,-0.7706 0.69856,0.6719 c 0.38419,0.3696 0.69914,0.699 0.69985,0.7323 z m -0.45754,-21.0644 c -0.003,0.059 -0.0747,0.1455 -0.20177,0.2751 l -0.27578,0.2812 -0.33876,-0.3245 -0.33877,-0.3246 0.52608,-0.01 c 0.44585,-0.01 0.6336,0.01 0.629,0.1031 z m 0.39615,24.7196 -0.15266,0.1838 c -0.0839,0.1012 -0.43089,0.4675 -0.77097,0.8139 l -0.61832,0.63 -0.70236,-0.6705 c -0.38632,-0.3688 -0.70274,-0.6876 -0.70318,-0.7082 -5.7e-4,-0.021 0.33815,-0.3907 0.75256,-0.822 l 0.75348,-0.7844 0.16386,0.1326 c 0.0901,0.073 0.41453,0.3783 0.72078,0.6786 z m -0.13223,3.691 c 0.002,0.1135 -1.36587,1.585 -1.4785,1.59 -0.0393,0 -0.36973,-0.2837 -0.73409,-0.6344 -0.36438,-0.3505 -0.66314,-0.669 -0.66397,-0.7075 -8.4e-4,-0.038 0.33719,-0.4229 0.75121,-0.8539 l 0.75275,-0.7836 0.68521,0.6438 c 0.37684,0.3541 0.68619,0.6896 0.68739,0.7456 z m -0.0609,3.7082 c 0.002,0.104 -1.42145,1.5397 -1.52917,1.542 -0.0508,0 -0.39041,-0.2848 -0.75478,-0.6354 -0.36437,-0.3506 -0.66279,-0.6532 -0.66321,-0.6725 -0.001,-0.068 1.48057,-1.5762 1.55016,-1.5777 0.0916,0 1.39502,1.2516 1.397,1.3436 z m -0.13231,3.6564 c 8.5e-4,0.04 -0.33504,0.4231 -0.74633,0.8512 l -0.74779,0.7786 -0.69035,-0.6476 c -0.37968,-0.3562 -0.69092,-0.6796 -0.69176,-0.7186 -0.001,-0.072 0.66979,-0.8091 1.22251,-1.3437 l 0.29632,-0.2864 0.67791,0.6468 c 0.37284,0.3557 0.67863,0.6795 0.67949,0.7197 z m -0.10101,3.72475 c 0.002,0.032 -0.0114,0.059 -0.0336,0.088 -0.16601,0.2197 -1.37895,1.4583 -1.42925,1.4593 -0.0262,6e-4 -0.36196,-0.3012 -0.74608,-0.6706 l -0.69844,-0.6718 0.74015,-0.77055 c 0.40711,-0.4238 0.77199,-0.7712 0.81076,-0.7721 0.0387,-8e-4 0.37412,0.2907 0.74525,0.6478 0.46104,0.4436 0.60527,0.59345 0.6112,0.69005 z m -0.85876,-38.57845 c 0.002,0.092 -1.38678,1.541 -1.47831,1.543 -0.0401,9e-4 -0.37097,-0.2853 -0.73534,-0.6359 -0.36437,-0.3506 -0.66318,-0.6709 -0.66406,-0.7118 -9e-4,-0.041 0.24244,-0.3224 0.54076,-0.6255 l 0.54246,-0.5513 0.41386,-0.01 0.41398,-0.01 0.48259,0.466 c 0.26543,0.2563 0.48326,0.4963 0.48406,0.5333 z m 0.83957,42.21905 -0.25491,0.2968 c -0.14016,0.1632 -0.4842,0.5349 -0.76456,0.826 l -0.50976,0.5293 -0.70966,-0.6776 c -0.39033,-0.3725 -0.71002,-0.6943 -0.71047,-0.715 -0.001,-0.056 1.47161,-1.5787 1.52825,-1.5799 0.0268,-6e-4 0.35746,0.2963 0.73487,0.6597 z m -0.96052,-38.49865 c 5.7e-4,0.014 -0.002,0.026 -0.008,0.037 -0.0328,0.063 -0.371,0.4355 -0.75174,0.8296 l -0.69223,0.7167 -0.71761,-0.685 c -0.39469,-0.3769 -0.71799,-0.702 -0.71843,-0.7228 -0.001,-0.068 1.47785,-1.5787 1.54735,-1.5802 0.0373,-8e-4 0.36582,0.2978 0.73001,0.6637 0.44572,0.4477 0.60783,0.6411 0.61074,0.7406 z m -0.0724,3.6398 c 0.002,0.1064 -1.37434,1.5675 -1.47894,1.5698 -0.0394,9e-4 -0.36976,-0.2854 -0.73414,-0.6359 -0.36437,-0.3507 -0.66314,-0.6691 -0.66395,-0.7077 -8.5e-4,-0.038 0.34003,-0.425 0.75748,-0.8586 l 0.75899,-0.7886 0.67931,0.6654 c 0.37363,0.366 0.68018,0.7061 0.68125,0.7556 z m -0.0614,3.6863 c 0.002,0.1087 -1.41761,1.5601 -1.49919,1.5324 -0.0397,-0.013 -0.36555,-0.2961 -0.72419,-0.628 -0.35864,-0.332 -0.65289,-0.6427 -0.65392,-0.6904 -0.002,-0.103 1.37813,-1.5553 1.4803,-1.5575 0.0916,0 1.39503,1.2516 1.397,1.3435 z m -0.026,3.6967 -0.7816,0.7951 -0.78147,0.7951 -0.70967,-0.6774 c -0.39029,-0.3726 -0.70991,-0.6945 -0.71035,-0.7151 -5.7e-4,-0.021 0.33962,-0.3922 0.75578,-0.8255 l 0.75671,-0.7875 0.73524,0.7076 z m -0.16679,3.6879 c 0.002,0.092 -1.3865,1.5414 -1.47829,1.5433 -0.04,10e-4 -0.37097,-0.2852 -0.73535,-0.6358 -0.36437,-0.3506 -0.66314,-0.6691 -0.66396,-0.7077 -0.002,-0.092 1.3887,-1.539 1.48066,-1.541 0.0901,0 1.395,1.2509 1.39694,1.3412 z m 0.57704,27.17835 c 0.004,0.055 -0.007,0.099 -0.036,0.1278 -0.0322,0.032 -0.46054,0.2292 -0.95194,0.4371 l -0.89347,0.3779 -0.21011,-0.2155 c -0.11558,-0.1186 -0.21023,-0.2207 -0.21036,-0.227 0,-0.01 0.34178,-0.3662 0.75984,-0.7999 l 0.76009,-0.7886 0.35235,0.3792 c 0.25945,0.2792 0.41626,0.5445 0.42962,0.709 z m -0.61059,-23.47995 -0.78357,0.7898 -0.78367,0.7899 -0.70373,-0.6719 c -0.38707,-0.3695 -0.7041,-0.6904 -0.70459,-0.713 -10e-4,-0.051 1.42361,-1.5316 1.50024,-1.5595 0.0527,-0.019 1.04528,0.8773 1.33551,1.2063 z m -0.16012,3.6451 c 0.002,0.106 -1.39126,1.585 -1.49547,1.5872 -0.0301,6e-4 -0.35286,-0.2856 -0.71724,-0.6363 -0.36436,-0.3505 -0.66312,-0.669 -0.66395,-0.7076 -8.5e-4,-0.038 0.33718,-0.4229 0.75121,-0.8538 l 0.75274,-0.7836 0.68521,0.6437 c 0.37685,0.3541 0.68625,0.6919 0.6875,0.7504 z m -0.10197,3.7141 c 0.001,0.024 -0.005,0.045 -0.0161,0.067 -0.11367,0.2155 -1.3638,1.4621 -1.46857,1.4643 -0.0527,0 -0.39392,-0.2848 -0.7583,-0.6353 -0.36436,-0.3507 -0.66278,-0.6533 -0.6632,-0.6725 -0.001,-0.068 1.48057,-1.5763 1.55016,-1.5778 0.0388,-8e-4 0.37187,0.2886 0.74033,0.6431 0.46593,0.4483 0.61028,0.6065 0.6157,0.7112 z m -0.006,3.6593 -0.67683,0.733 c -0.37224,0.4031 -0.73197,0.7648 -0.79942,0.8037 -0.10091,0.058 -0.24295,-0.042 -0.80291,-0.5658 -0.37417,-0.35 -0.68094,-0.6697 -0.68182,-0.7103 -9e-4,-0.04 0.33885,-0.4284 0.75501,-0.8617 l 0.75671,-0.7875 0.72463,0.6943 z m -0.11195,3.6786 -0.77299,0.8072 -0.77297,0.80715 -0.71958,-0.68935 -0.71948,-0.6895 0.77186,-0.8082 0.77198,-0.8083 0.72058,0.6905 z m -0.15,3.67145 c 0.007,0.1001 -0.149,0.2779 -0.70462,0.8505 l -0.77385,0.7975 -0.70663,-0.6746 c -0.38866,-0.371 -0.707,-0.6915 -0.70744,-0.7122 -5.6e-4,-0.02 0.33754,-0.39 0.75116,-0.8205 l 0.7521,-0.7829 0.30867,0.2634 c 0.31522,0.2688 0.87737,0.8124 1.0525,1.0178 0.0162,0.019 0.0265,0.038 0.0281,0.061 z m -0.84426,-38.53675 c 6.8e-4,0.03 -0.34052,0.4066 -0.75818,0.8364 l -0.75948,0.7813 -0.71448,-0.6821 c -0.39302,-0.3752 -0.71488,-0.6951 -0.71522,-0.7109 -0.001,-0.056 1.34096,-1.457 1.46155,-1.5259 0.1005,-0.058 0.24324,0.048 0.8034,0.5882 0.37463,0.3619 0.68176,0.6827 0.68241,0.713 z m 0.76716,42.24755 c 0.001,0.069 -1.42039,1.5828 -1.48797,1.5842 -0.0343,8e-4 -0.36044,-0.2854 -0.72481,-0.6361 -0.36436,-0.3505 -0.66313,-0.669 -0.66396,-0.7075 -8.4e-4,-0.039 0.33651,-0.4222 0.74972,-0.8524 l 0.75133,-0.7821 0.68735,0.676 c 0.37805,0.3719 0.68785,0.6949 0.68834,0.7179 z m -0.89921,-38.57935 c 0.003,0.1177 -1.36266,1.5787 -1.47748,1.5813 -0.0401,8e-4 -0.37098,-0.2854 -0.73535,-0.6359 -0.36438,-0.3507 -0.66313,-0.6691 -0.66396,-0.7077 -8.4e-4,-0.038 0.33875,-0.4244 0.75465,-0.8573 l 0.75617,-0.7873 0.68185,0.6507 c 0.37501,0.3578 0.68287,0.698 0.68412,0.7562 z m -0.10187,3.7084 c 10e-4,0.024 -0.005,0.046 -0.0159,0.067 -0.13433,0.2565 -1.36828,1.476 -1.4711,1.4539 -0.0569,-0.012 -0.38368,-0.3053 -0.72612,-0.651 -0.34242,-0.3458 -0.62321,-0.6566 -0.62394,-0.6909 -0.002,-0.086 1.39379,-1.5313 1.48081,-1.5331 0.0387,-9e-4 0.37189,0.2884 0.74034,0.643 0.46522,0.4476 0.61005,0.6063 0.61593,0.7111 z m 0.0137,3.6789 -0.77255,0.8067 -0.77256,0.8068 -0.71807,-0.6855 c -0.39495,-0.3771 -0.7182,-0.7019 -0.71862,-0.722 -5.7e-4,-0.02 0.34008,-0.3912 0.75644,-0.8247 l 0.75703,-0.7883 0.73417,0.7035 z m -0.54296,-13.861 c 7.3e-4,0.034 -0.14692,0.214 -0.32813,0.4003 l -0.32957,0.339 -0.26623,-0.2614 c -0.14648,-0.1438 -0.26679,-0.2818 -0.26732,-0.3068 -5.7e-4,-0.025 0.14878,-0.068 0.33182,-0.096 0.18303,-0.027 0.45099,-0.07 0.59546,-0.093 0.14446,-0.024 0.26324,-0.015 0.26397,0.018 z m 0.37721,17.556 c 0.002,0.092 -1.38647,1.5415 -1.47829,1.5434 -0.0401,9e-4 -0.37098,-0.2852 -0.73535,-0.6358 -0.36437,-0.3507 -0.66313,-0.6691 -0.66396,-0.7077 -8.4e-4,-0.038 0.33159,-0.417 0.73876,-0.8409 l 0.74027,-0.7706 0.69855,0.672 c 0.3842,0.3695 0.69922,0.7023 0.70002,0.7396 z m -0.0599,3.6338 -0.19952,0.2622 c -0.3124,0.4105 -1.22012,1.3037 -1.32733,1.3061 -0.0532,0 -0.3948,-0.2849 -0.75917,-0.6354 -0.36437,-0.3507 -0.66279,-0.6533 -0.66321,-0.6725 -5.6e-4,-0.019 0.33745,-0.3872 0.7508,-0.8174 l 0.75144,-0.7824 0.27345,0.2288 c 0.15033,0.1259 0.47586,0.4273 0.72344,0.6698 z m -0.13381,3.7088 c 0.002,0.1087 -0.84446,1.0431 -1.25879,1.3889 l -0.26454,0.2208 -0.67591,-0.6449 c -0.37173,-0.3547 -0.6765,-0.6778 -0.67736,-0.7179 -0.002,-0.1112 1.39609,-1.5418 1.50958,-1.5443 0.12942,0 1.36426,1.1691 1.36702,1.2974 z m -0.0611,3.7001 c 5.5e-4,0.022 -0.34343,0.3984 -0.76424,0.8358 l -0.76522,0.7952 -0.64141,-0.6086 c -0.35282,-0.3347 -0.67021,-0.6578 -0.70526,-0.718 -0.0491,-0.084 0.10471,-0.2847 0.67245,-0.8757 0.4049,-0.4216 0.77034,-0.7672 0.81203,-0.7681 0.076,0 1.39,1.2629 1.39165,1.3394 z m -0.13182,3.6793 c 0.002,0.1124 -1.36964,1.5922 -1.47895,1.5951 -0.0397,8e-4 -0.37025,-0.2935 -0.73454,-0.6545 -0.36429,-0.361 -0.66279,-0.6794 -0.66341,-0.7076 -6.2e-4,-0.028 0.33761,-0.404 0.75163,-0.835 l 0.75273,-0.7836 0.68521,0.6437 c 0.37685,0.3542 0.68618,0.6881 0.68733,0.7419 z m -0.0607,3.7175 c 0.002,0.078 -1.42631,1.5343 -1.50624,1.536 -0.0247,6e-4 -0.35922,-0.3013 -0.74334,-0.6707 l -0.69845,-0.6717 0.74017,-0.7706 c 0.40709,-0.4238 0.77197,-0.7713 0.81075,-0.7721 0.0949,0 1.39505,1.2533 1.39711,1.3491 z m 0.15405,11.60175 c 0.006,0.059 -0.0561,0.1104 -0.18963,0.1602 -0.12363,0.046 -0.23529,0.074 -0.24822,0.062 -0.0129,-0.012 0.069,-0.1151 0.18214,-0.2283 0.11315,-0.1131 0.2062,-0.1867 0.20671,-0.1633 5.6e-4,0.023 0.0196,0.088 0.0426,0.1445 0.004,0.01 0.006,0.017 0.006,0.025 z m -0.22346,-7.9521 -0.76859,0.8074 -0.76858,0.8075 -0.70091,-0.6691 c -0.38551,-0.368 -0.70134,-0.6887 -0.70184,-0.7127 -0.001,-0.069 1.46335,-1.57245 1.53353,-1.57395 0.0347,-7e-4 0.36536,0.3006 0.73476,0.6698 z m -0.87388,-38.53015 -0.76418,0.7979 -0.76406,0.7978 -0.71807,-0.6855 c -0.39496,-0.377 -0.71846,-0.7035 -0.71893,-0.7256 -10e-4,-0.064 0.57,-0.6128 0.72311,-0.6949 0.0764,-0.042 0.411,-0.1366 0.74348,-0.2126 l 0.6045,-0.1379 0.2822,0.2171 c 0.15524,0.1194 0.35648,0.313 0.44712,0.4303 z m 0.74961,42.22335 c 0.001,0.057 -0.81024,0.9344 -1.22348,1.3243 l -0.29689,0.2801 -0.67747,-0.6464 c -0.37259,-0.3555 -0.67807,-0.6793 -0.67893,-0.7194 -0.002,-0.1057 1.39324,-1.5418 1.50047,-1.5441 0.0898,0 1.37439,1.2166 1.3763,1.3055 z m -0.89944,-38.59015 c 0.002,0.116 -1.36195,1.585 -1.47439,1.5875 -0.0418,8e-4 -0.37393,-0.2853 -0.7383,-0.6359 -0.36438,-0.3506 -0.66313,-0.6691 -0.66397,-0.7076 -8.4e-4,-0.038 0.33876,-0.4245 0.75466,-0.8574 l 0.75618,-0.7873 0.68184,0.6507 c 0.375,0.3578 0.6828,0.6954 0.68398,0.75 z m 0.85638,42.23455 -0.14703,0.2163 c -0.27818,0.4092 -0.99741,1.0063 -1.32398,1.0992 l -0.31044,0.089 -0.59133,-0.5323 c -0.32523,-0.2927 -0.59175,-0.5522 -0.59229,-0.5765 -0.001,-0.065 1.46923,-1.5854 1.53437,-1.5868 0.0302,-6e-4 0.36459,0.2897 0.7429,0.6452 z m -0.91737,-38.53045 c 0.002,0.091 -1.38878,1.539 -1.48055,1.5411 -0.0386,8e-4 -0.38438,-0.2924 -0.76841,-0.6515 -0.38402,-0.3591 -0.69833,-0.6615 -0.69855,-0.6718 -0.001,-0.057 1.49153,-1.5601 1.5505,-1.5614 0.0916,0 1.39503,1.2516 1.39701,1.3436 z m -0.026,3.6975 -0.78351,0.7928 -0.7835,0.7928 -0.70765,-0.6756 c -0.38921,-0.3716 -0.708,-0.6924 -0.70845,-0.7132 -5.6e-4,-0.021 0.33963,-0.3922 0.75578,-0.8254 l 0.75672,-0.7876 0.73525,0.7081 z m -0.16692,3.6813 c 0.002,0.095 -1.38866,1.5472 -1.48345,1.5493 -0.0457,9e-4 -0.37765,-0.2847 -0.73762,-0.6346 -0.35996,-0.35 -0.65532,-0.6684 -0.65616,-0.7076 -0.002,-0.088 1.39795,-1.5407 1.48677,-1.5427 0.0822,0 1.38869,1.2531 1.39046,1.3356 z m -0.0635,3.6786 c -5.7e-4,0.03 -0.34003,0.4099 -0.75474,0.8436 l -0.75405,0.7887 -0.71784,-0.6854 c -0.39487,-0.377 -0.71833,-0.7024 -0.71877,-0.7231 -10e-4,-0.056 1.47117,-1.5785 1.52694,-1.5797 0.0683,0 1.41935,1.2899 1.41846,1.3559 z m -0.12998,3.673 c 0.003,0.1199 -1.36065,1.5819 -1.47741,1.5844 -0.0401,10e-4 -0.37098,-0.2852 -0.73534,-0.6358 -0.36438,-0.3506 -0.66314,-0.6691 -0.66397,-0.7076 -8.5e-4,-0.038 0.3372,-0.4229 0.75122,-0.8539 l 0.75274,-0.7836 0.68521,0.6438 c 0.37685,0.3541 0.68627,0.6929 0.68755,0.7527 z m -0.0609,3.6999 c 0.003,0.094 -1.44501,1.5414 -1.54332,1.5436 -0.0431,9e-4 -0.37646,-0.2852 -0.74083,-0.6358 -0.36437,-0.3507 -0.66279,-0.6533 -0.6632,-0.6725 -0.001,-0.068 1.48056,-1.5762 1.55015,-1.5777 0.0907,0 1.39467,1.251 1.3972,1.3424 z m -0.132,3.6812 c 0.002,0.099 -1.39705,1.5886 -1.49419,1.5907 -0.0297,6e-4 -0.3527,-0.2919 -0.71775,-0.65 -0.36506,-0.3581 -0.66416,-0.676 -0.66482,-0.7065 -9e-4,-0.041 1.12055,-1.2508 1.46189,-1.5761 0.0676,-0.065 1.41205,1.2106 1.41487,1.3419 z m -0.0612,3.6955 c 0.002,0.085 -1.39387,1.5484 -1.47934,1.5514 -0.0394,0 -0.36975,-0.2843 -0.73411,-0.6349 -0.36438,-0.3506 -0.66314,-0.6691 -0.66397,-0.7077 -0.002,-0.092 1.38871,-1.5389 1.48066,-1.541 0.0845,0 1.39495,1.248 1.39676,1.3322 z m -0.0599,3.6565 -0.18971,0.2185 c -0.61922,0.7132 -1.16027,1.26635 -1.27778,1.30645 -0.10448,0.035 -0.28775,-0.099 -0.80796,-0.59585 -0.37006,-0.3531 -0.67313,-0.659 -0.67357,-0.6797 -10e-4,-0.055 1.47088,-1.5788 1.52627,-1.58 0.0257,-6e-4 0.35637,0.2986 0.73476,0.6647 z m -0.93236,-34.8775 -0.75252,0.7883 c -0.41389,0.4336 -0.78534,0.789 -0.8254,0.7899 -0.04,8e-4 -0.37098,-0.2854 -0.73534,-0.6359 -0.36438,-0.3507 -0.66314,-0.6691 -0.66397,-0.7077 -8.4e-4,-0.038 0.33825,-0.4239 0.75348,-0.8561 l 0.75488,-0.7859 0.73449,0.7037 z m 0.79862,38.56925 c 9.5e-4,0.044 -0.85903,0.9648 -1.48372,1.5876 -0.0178,0.017 -0.33816,-0.2595 -0.71186,-0.6161 -0.3737,-0.3566 -0.68009,-0.6816 -0.68096,-0.7221 -0.002,-0.073 0.85875,-1.0233 1.27836,-1.4125 l 0.21494,-0.1994 0.69098,0.6514 c 0.38002,0.3583 0.69155,0.6783 0.69226,0.7111 z m -0.061,3.7035 c 0.002,0.085 -1.44823,1.5445 -1.53677,1.5464 -0.0465,0 -0.38273,-0.285 -0.74709,-0.6356 -0.36438,-0.3506 -0.6628,-0.6533 -0.66321,-0.6725 -10e-4,-0.064 1.4783,-1.5762 1.54324,-1.5776 0.0737,0 1.40225,1.2659 1.40383,1.3393 z m -0.8993,-38.58385 c 0.002,0.099 -1.38677,1.5448 -1.48635,1.547 -0.042,9e-4 -0.38765,-0.2901 -0.76831,-0.6466 -0.38066,-0.3566 -0.69189,-0.6584 -0.69215,-0.6707 0,-0.051 1.3493,-1.438 1.4646,-1.5059 0.10481,-0.062 0.23523,0.029 0.80287,0.5632 0.37272,0.3503 0.67844,0.671 0.67934,0.713 z m -0.0323,3.6901 -0.77198,0.8075 -0.7719,0.8073 -0.71604,-0.6835 c -0.39382,-0.376 -0.7163,-0.7005 -0.71676,-0.7213 -5.5e-4,-0.02 0.33964,-0.3921 0.75579,-0.8253 l 0.75671,-0.7877 0.73203,0.7015 z m -0.16031,3.7027 c 0.002,0.1122 -1.41873,1.5594 -1.50478,1.5325 -0.0428,-0.013 -0.36888,-0.3007 -0.72453,-0.6386 -0.35565,-0.3377 -0.64731,-0.6483 -0.64822,-0.6903 -0.002,-0.096 1.38473,-1.5451 1.48052,-1.5471 0.0916,0 1.39504,1.2515 1.39701,1.3435 z m -0.0623,3.6853 c 0,0.022 -0.33972,0.395 -0.75504,0.8287 l -0.75515,0.7886 -0.71796,-0.6852 c -0.39485,-0.377 -0.71777,-0.7018 -0.71765,-0.7219 0,-0.02 0.33892,-0.3891 0.75283,-0.8201 l 0.75251,-0.7835 0.34305,0.299 c 0.42673,0.372 1.09739,1.0407 1.09741,1.0944 z m -0.13155,3.6502 c 0.002,0.1065 -1.38603,1.5904 -1.48998,1.5928 -0.0331,7e-4 -0.35825,-0.2857 -0.72261,-0.6362 -0.36437,-0.3507 -0.66314,-0.6692 -0.66397,-0.7078 -0.002,-0.1071 1.39671,-1.5391 1.5059,-1.5415 0.12953,0 1.36792,1.1652 1.37066,1.2927 z m 0.46836,27.00185 c 0.003,0.056 -0.0136,0.1011 -0.0508,0.1314 -0.083,0.068 -0.85852,0.2742 -1.33819,0.3557 -0.15408,0.026 -0.36671,0.067 -0.47252,0.09 -0.10582,0.023 -0.19023,0.016 -0.1875,-0.016 0.003,-0.032 0.29721,-0.358 0.6544,-0.7242 0.71582,-0.7336 0.70647,-0.7311 1.11776,-0.3098 0.1729,0.1772 0.27098,0.3503 0.27683,0.4727 z m -0.58055,-23.24245 c -5.7e-4,0.014 -0.004,0.027 -0.0103,0.039 -0.10661,0.2072 -1.35706,1.4496 -1.46116,1.4519 -0.0543,0 -0.39676,-0.2848 -0.76113,-0.6353 -0.36438,-0.3507 -0.6628,-0.6533 -0.66321,-0.6725 -0.002,-0.073 1.48309,-1.5763 1.55795,-1.578 0.0431,-9e-4 0.37348,0.2942 0.73412,0.6556 0.45941,0.4605 0.60739,0.6367 0.60379,0.7386 z m -0.081,3.6052 c 0.002,0.097 -1.38701,1.6155 -1.47806,1.6161 -0.0394,0 -0.36993,-0.2899 -0.73432,-0.6445 -0.36441,-0.3547 -0.66236,-0.6726 -0.66208,-0.7065 5.7e-4,-0.059 1.14869,-1.3129 1.39858,-1.5277 0.10777,-0.092 0.18489,-0.039 0.79674,0.5441 0.37263,0.3556 0.67829,0.679 0.67914,0.7185 z m -0.0608,3.7146 c 0.002,0.079 -1.4059,1.5562 -1.48414,1.5579 -0.0367,7e-4 -0.36482,-0.2854 -0.7292,-0.6361 -0.36437,-0.3505 -0.66314,-0.669 -0.66397,-0.7076 -0.002,-0.092 1.38871,-1.539 1.48066,-1.541 0.0812,0 1.39492,1.2463 1.39665,1.3268 z m -0.0611,3.6998 c 5.6e-4,0.027 -0.34343,0.3983 -0.76448,0.8252 l -0.76562,0.7763 -0.70832,-0.6762 c -0.38963,-0.372 -0.70879,-0.6933 -0.70923,-0.714 -10e-4,-0.068 1.47764,-1.5787 1.54669,-1.5803 0.0752,0 1.39931,1.2921 1.40096,1.369 z m -0.13223,3.66005 c 0.002,0.096 -0.95995,1.1493 -1.29473,1.4181 l -0.23158,0.1859 -0.67445,-0.6435 c -0.37093,-0.354 -0.67504,-0.6764 -0.67589,-0.7165 -8.4e-4,-0.04 0.33189,-0.42 0.73955,-0.8445 l 0.74124,-0.77165 0.697,0.6456 c 0.38337,0.35485 0.6979,0.68185 0.69886,0.72655 z m -0.0275,3.6614 -0.75467,0.7904 c -0.41506,0.4348 -0.7874,0.7912 -0.82745,0.7921 -0.04,9e-4 -0.37098,-0.2853 -0.73535,-0.6358 -0.36437,-0.3507 -0.66289,-0.6579 -0.66342,-0.6826 -0.002,-0.08 1.4629,-1.5659 1.54198,-1.5648 0.0419,6e-4 0.38277,0.2934 0.75752,0.6508 z m -0.94023,-42.16015 c -0.005,0.093 -0.15825,0.2591 -0.63292,0.7577 -0.38804,0.4075 -0.73833,0.7416 -0.77842,0.7431 -0.04,0 -0.22129,-0.1448 -0.40258,-0.3247 -0.18128,-0.1798 -0.35109,-0.4111 -0.37743,-0.5142 -0.0524,-0.2046 -0.002,-0.2326 1.23656,-0.6898 0.57204,-0.2113 0.71914,-0.2228 0.89535,-0.07 0.0315,0.027 0.0537,0.051 0.0586,0.08 9e-4,0.01 10e-4,0.011 9.6e-4,0.018 z m 0.008,3.6434 c 9.6e-4,0.045 -0.32984,0.4213 -0.73505,0.8348 l -0.73672,0.752 -0.36152,-0.3408 c -0.19881,-0.1874 -0.51453,-0.4747 -0.70169,-0.6386 -0.18714,-0.1639 -0.341,-0.3321 -0.3419,-0.3738 -9e-4,-0.042 0.31825,-0.4266 0.70923,-0.8552 l 0.71087,-0.7793 0.40901,0.3018 c 0.43482,0.321 1.04479,0.9608 1.04777,1.0991 z m 0.84818,42.25175 -0.68358,0.7154 c -0.51652,0.5405 -0.72835,0.7162 -0.86679,0.7192 -0.13446,0 -0.34595,-0.1476 -0.79468,-0.5651 -0.33628,-0.313 -0.61175,-0.5883 -0.61226,-0.6121 -5.6e-4,-0.024 0.17984,-0.2481 0.40081,-0.4986 0.22097,-0.2507 0.53355,-0.6088 0.69469,-0.796 0.16116,-0.1872 0.31841,-0.3408 0.34939,-0.3416 0.0938,0 1.0286,0.8025 1.27855,1.1002 z m -0.91519,-38.63805 -0.12953,0.1866 c -0.0712,0.1026 -0.41022,0.4767 -0.75336,0.8314 l -0.62391,0.6449 -0.71752,-0.685 c -0.39466,-0.3768 -0.71787,-0.7019 -0.71831,-0.7227 -0.001,-0.053 1.46983,-1.5785 1.52286,-1.5797 0.0239,-5e-4 0.35298,0.2973 0.73152,0.6618 z m -0.16639,3.7618 c 0.001,0.024 -0.006,0.047 -0.0171,0.069 -0.0806,0.1588 -1.3645,1.4567 -1.44256,1.4584 -0.0282,6e-4 -0.36559,-0.3011 -0.74971,-0.6706 l -0.69845,-0.6718 0.74017,-0.7706 c 0.4071,-0.4237 0.77197,-0.7711 0.81074,-0.772 0.0388,-9e-4 0.37188,0.2885 0.74033,0.643 0.47192,0.4541 0.61304,0.6081 0.61656,0.7145 z m -0.0316,3.6329 -0.13202,0.194 c -0.0726,0.1068 -0.41619,0.4736 -0.76369,0.8152 l -0.6319,0.6211 -0.7045,-0.6726 c -0.38751,-0.3698 -0.70487,-0.6895 -0.70531,-0.7102 -10e-4,-0.066 1.47654,-1.5787 1.54329,-1.5801 0.0351,-8e-4 0.36312,0.2987 0.72896,0.6656 z m -0.12263,3.6978 c 0.002,0.1169 -1.36927,1.581 -1.48282,1.5835 -0.0368,8e-4 -0.36493,-0.2855 -0.72931,-0.6361 -0.36437,-0.3506 -0.66313,-0.6691 -0.66396,-0.7076 -8.3e-4,-0.038 0.3372,-0.4229 0.75122,-0.8539 l 0.75273,-0.7836 0.68522,0.6439 c 0.37685,0.3541 0.68619,0.6933 0.68692,0.7538 z m -0.0614,3.7056 c 5.6e-4,0.1011 -1.41862,1.534 -1.52117,1.5363 -0.0516,0 -0.37699,-0.2682 -0.72312,-0.5983 -0.34613,-0.3301 -0.63029,-0.6488 -0.63157,-0.7084 -0.003,-0.1196 1.36578,-1.5764 1.48312,-1.579 0.0889,0 1.3923,1.2609 1.39274,1.3494 z m -0.0606,3.6727 c 5.5e-4,0.014 -0.3387,0.3823 -0.75322,0.8177 l -0.75366,0.7916 -0.43252,-0.3588 c -0.23793,-0.1975 -0.56188,-0.4996 -0.71986,-0.6715 -0.15799,-0.172 -0.28766,-0.3338 -0.28822,-0.3595 -5.7e-4,-0.025 0.34069,-0.3986 0.75835,-0.8283 l 0.75937,-0.7815 0.71459,0.6822 c 0.39302,0.3752 0.71485,0.6939 0.71517,0.7081 z m -0.10939,3.6609 -0.20246,0.2377 c -0.42578,0.4995 -1.24939,1.3499 -1.30857,1.3511 -0.0341,8e-4 -0.37612,-0.3009 -0.76025,-0.6703 l -0.69844,-0.6718 0.74016,-0.7706 c 0.4071,-0.4237 0.77198,-0.7712 0.81075,-0.7721 0.0388,-8e-4 0.3739,0.2905 0.7447,0.6474 z m -0.17135,3.679 c 0.0169,0.1786 -0.22188,0.3842 -0.79536,0.9826 l -0.64463,0.6725 -0.70943,-0.6772 c -0.39017,-0.3725 -0.70968,-0.6943 -0.71013,-0.7149 -5.7e-4,-0.021 0.33815,-0.3907 0.75256,-0.822 l 0.75348,-0.7844 0.1638,0.1297 c 0.0901,0.072 0.41569,0.3748 0.72342,0.6745 0.28535,0.2778 0.45315,0.4003 0.46629,0.5392 z m -0.0439,3.7229 c 0.002,0.092 -1.3972,1.57185 -1.48863,1.57385 -0.0341,7e-4 -0.36,-0.2855 -0.72437,-0.63615 -0.36437,-0.3505 -0.66314,-0.6696 -0.66399,-0.7091 -8.4e-4,-0.039 0.33372,-0.4179 0.74359,-0.8412 l 0.74523,-0.7695 0.69318,0.6515 c 0.38126,0.3582 0.69405,0.6871 0.69499,0.7306 z m -0.1061,3.70625 c 0.002,0.024 -0.003,0.045 -0.0139,0.066 -0.0374,0.071 -0.38272,0.449 -0.76735,0.8394 l -0.69929,0.71 -0.71055,-0.6783 c -0.39079,-0.373 -0.71081,-0.6953 -0.71126,-0.716 -10e-4,-0.062 1.47448,-1.5787 1.53704,-1.58 0.0316,-7e-4 0.36393,0.2905 0.73843,0.647 0.46595,0.4436 0.61723,0.6078 0.62683,0.7123 z m -0.90952,-38.55805 0,0 c 6e-5,0.028 -0.008,0.055 -0.0226,0.084 -0.0819,0.1615 -1.2095,1.3282 -1.37286,1.4206 -0.0874,0.05 -0.25605,-0.086 -0.76888,-0.6173 -0.36134,-0.3742 -0.65733,-0.7002 -0.65784,-0.7243 -5.7e-4,-0.024 0.14337,-0.2051 0.31985,-0.4022 0.204,-0.2278 0.4985,-0.4489 0.80847,-0.6072 l 0.48723,-0.2489 5.6e-4,0 0.20665,0.1664 c 0.1137,0.092 0.24928,0.1657 0.30128,0.1646 0.052,0 0.24099,0.1583 0.42002,0.3544 0.20321,0.2225 0.2782,0.3247 0.27844,0.4103 z m -0.006,3.6616 c 0.001,0.066 -1.18279,1.3037 -1.39705,1.4608 -0.141,0.1034 -0.17993,0.078 -0.84895,-0.5612 -0.38568,-0.3681 -0.70161,-0.6861 -0.70204,-0.7067 -5.6e-4,-0.02 0.33912,-0.3885 0.75463,-0.8178 0.67672,-0.6994 0.76819,-0.7709 0.87773,-0.6862 0.23962,0.1857 1.31452,1.2567 1.31568,1.3111 z m 0.82859,38.56375 c 0.002,0.099 -1.41309,1.5857 -1.51118,1.5877 -0.028,7e-4 -0.16065,-0.1067 -0.29475,-0.2387 -0.1341,-0.1319 -0.42946,-0.4158 -0.65638,-0.6308 -0.22691,-0.215 -0.41333,-0.4266 -0.41426,-0.4701 -0.002,-0.078 0.74738,-0.9072 1.25707,-1.3914 l 0.2624,-0.2493 0.67748,0.6464 c 0.37259,0.3555 0.67843,0.6913 0.67962,0.7462 z m -0.96022,-34.87555 c 0.002,0.093 -1.39867,1.5362 -1.49301,1.5384 -0.0386,8e-4 -0.35768,-0.2783 -0.70887,-0.6201 -0.35119,-0.342 -0.64814,-0.6603 -0.65989,-0.7074 -0.0117,-0.048 0.3137,-0.4317 0.72321,-0.8545 l 0.74459,-0.7689 0.6962,0.6697 c 0.3829,0.3682 0.69691,0.7025 0.69777,0.7428 z m 0.81634,38.50025 c 0,0 -7.7e-4,0.01 -0.003,0.01 -0.049,0.052 -1.03139,0.1789 -1.931,0.2509 -0.64882,0.052 -0.78978,0.045 -0.7915,-0.034 -0.003,-0.124 1.25708,-1.4881 1.37652,-1.4907 0.147,0 1.34162,1.1234 1.34904,1.2639 z m -0.87774,-34.81535 c 5.6e-4,0.022 -0.3395,0.3941 -0.75543,0.8271 l -0.75617,0.7872 -0.71773,-0.6851 c -0.39472,-0.3769 -0.71798,-0.702 -0.71842,-0.7228 -5.7e-4,-0.021 0.33761,-0.3899 0.75128,-0.8205 0.68561,-0.7137 0.76346,-0.7745 0.88025,-0.6858 0.19507,0.1481 1.31524,1.2544 1.31622,1.2999 z m -0.13233,3.6556 c 0.003,0.12 -1.36066,1.5819 -1.47742,1.5845 -0.0401,8e-4 -0.37096,-0.2853 -0.73534,-0.6359 -0.36437,-0.3507 -0.66313,-0.6691 -0.66396,-0.7077 -8.5e-4,-0.038 0.33719,-0.4229 0.75122,-0.8538 l 0.75273,-0.7836 0.68522,0.6438 c 0.37684,0.3541 0.68627,0.6929 0.68755,0.7527 z m -0.0611,3.7019 c 8.4e-4,0.04 -0.34047,0.4235 -0.75847,0.8539 l -0.76,0.7827 -0.71392,-0.6815 c -0.39266,-0.3749 -0.71429,-0.6985 -0.71473,-0.7192 -10e-4,-0.07 1.4788,-1.5788 1.55011,-1.5803 0.0922,0 1.39502,1.2518 1.39701,1.3444 z m -0.13292,3.6895 c 5.7e-4,0.059 -0.32427,0.4428 -0.72179,0.8535 l -0.72279,0.7464 -0.19472,-0.1633 c -0.10708,-0.09 -0.42863,-0.3802 -0.71445,-0.6453 -0.28583,-0.2651 -0.52044,-0.5137 -0.5207,-0.5523 -8.5e-4,-0.038 0.33955,-0.4245 0.75586,-0.8573 l 0.75695,-0.7869 0.68028,0.6493 c 0.37416,0.357 0.68082,0.6971 0.68136,0.7559 z m -0.0399,3.647 -0.2085,0.2739 c -0.26581,0.3493 -1.21987,1.3152 -1.30095,1.3169 -0.0339,8e-4 -0.37581,-0.301 -0.75992,-0.6704 l -0.69834,-0.6717 0.77454,-0.8066 0.77464,-0.8065 0.70921,0.6821 z m -0.0666,3.7376 -0.77476,0.796 -0.77487,0.7958 -0.70596,-0.6738 c -0.3883,-0.3706 -0.70633,-0.691 -0.70677,-0.7117 -5.7e-4,-0.02 0.33622,-0.3886 0.74826,-0.8175 l 0.7492,-0.7798 0.24,0.175 c 0.13198,0.096 0.33684,0.2784 0.45526,0.4047 0.11842,0.1264 0.34001,0.3607 0.49245,0.5205 z m -0.14749,3.6909 c 5.5e-4,0.091 -1.3979,1.5473 -1.4874,1.5492 -0.0343,8e-4 -0.36043,-0.2854 -0.7248,-0.6361 -0.36437,-0.3506 -0.66314,-0.6691 -0.66396,-0.7077 -0.002,-0.097 1.39159,-1.5389 1.48976,-1.5411 0.10202,0 1.38603,1.2348 1.3864,1.3357 z m -0.0405,3.62865 -0.1268,0.1604 c -0.0698,0.088 -0.41832,0.4626 -0.77453,0.8321 l -0.64761,0.6717 -0.67278,-0.642 c -0.37001,-0.3531 -0.67379,-0.6906 -0.67508,-0.75 -0.003,-0.1169 1.36453,-1.57625 1.47886,-1.57875 0.0381,-9e-4 0.37273,0.2929 0.74361,0.65245 z m -0.15217,3.6976 c 0.002,0.076 -1.05491,1.2452 -1.35524,1.4997 -0.15396,0.1306 -0.15682,0.1287 -0.83687,-0.5103 -0.37532,-0.3527 -0.68305,-0.6759 -0.68396,-0.7184 -9e-4,-0.043 0.33953,-0.43 0.75665,-0.8613 l 0.75844,-0.7839 0.67961,0.6486 c 0.37379,0.3567 0.68046,0.6832 0.68137,0.7256 z m -0.85991,-38.61075 c 0.0148,0.1191 -0.19019,0.36 -0.91869,1.0951 l -0.56662,0.5718 -0.72956,-0.6991 -0.72968,-0.6991 0.76227,-0.8049 0.76227,-0.805 0.6876,0.6116 c 0.37816,0.3364 0.70509,0.6547 0.72655,0.7072 0.003,0.01 0.005,0.014 0.006,0.022 z m 0.79687,42.29095 c 0.003,0.096 -0.15472,0.2654 -1.33684,1.4316 l -0.59452,0.5865 c -0.0193,0 -0.0426,0.01 -0.0657,0.01 l -0.9392,-0.054 c -0.54583,-0.031 -1.07973,-0.073 -1.18645,-0.091 -0.10672,-0.019 -0.19488,-0.074 -0.1959,-0.121 -0.002,-0.099 2.80506,-3.0564 2.90338,-3.0586 0.10754,0 1.4114,1.1927 1.41523,1.2971 z m -0.89679,-38.53845 c 0.002,0.092 -1.3865,1.5414 -1.47831,1.5434 -0.04,8e-4 -0.37097,-0.2854 -0.73534,-0.6359 -0.36437,-0.3507 -0.66313,-0.6692 -0.66396,-0.7078 -0.002,-0.092 1.38871,-1.5389 1.48066,-1.5409 0.0901,0 1.39501,1.2509 1.39695,1.3412 z m -0.0613,3.691 c 5.6e-4,0.021 -0.33943,0.3934 -0.75533,0.8264 l -0.75628,0.7871 -0.68174,-0.6505 c -0.375,-0.3579 -0.68288,-0.6993 -0.68416,-0.7588 -10e-4,-0.06 0.32061,-0.4443 0.71539,-0.8551 0.65197,-0.6784 0.72963,-0.7382 0.84704,-0.6518 0.18173,0.1335 1.31406,1.2552 1.31508,1.3027 z m -0.15613,3.6365 c 0.009,0.1078 -0.16113,0.3234 -0.66989,0.8565 -0.39092,0.4096 -0.74365,0.7454 -0.78374,0.7464 -0.04,8e-4 -0.37097,-0.2854 -0.73535,-0.6359 -0.36436,-0.3507 -0.66313,-0.6691 -0.66396,-0.7077 -8.4e-4,-0.038 0.33867,-0.4244 0.75456,-0.8573 l 0.75617,-0.7872 0.64651,0.6167 c 0.3556,0.3391 0.6668,0.6759 0.69153,0.7484 0.002,0.01 0.004,0.013 0.004,0.02 z m -0.0376,3.7043 c 0.002,0.1052 -1.40677,1.5545 -1.51359,1.5569 -0.0592,0 -0.40567,-0.2846 -0.77003,-0.6352 -0.36438,-0.3506 -0.6628,-0.6532 -0.66321,-0.6725 -10e-4,-0.068 1.48057,-1.5761 1.55016,-1.5776 0.0822,0 1.39492,1.2468 1.39667,1.3284 z m -0.13116,3.7097 c 10e-4,0.061 -0.32285,0.4451 -0.72026,0.8535 l -0.72253,0.7425 -0.16045,-0.1269 c -0.0883,-0.07 -0.41065,-0.3684 -0.7166,-0.6636 -0.30595,-0.2952 -0.5568,-0.5607 -0.55743,-0.5901 -6.2e-4,-0.029 0.33912,-0.4076 0.75502,-0.8405 l 0.75617,-0.7873 0.68185,0.6507 c 0.375,0.3579 0.68292,0.7007 0.68423,0.7617 z m -0.0415,3.6428 -0.20982,0.274 c -0.19339,0.2525 -0.52923,0.599 -1.10025,1.135 l -0.22555,0.2116 -0.68005,-0.649 c -0.37408,-0.3569 -0.68087,-0.6818 -0.68173,-0.7219 -0.002,-0.094 1.38696,-1.5417 1.4806,-1.5437 0.0387,-9e-4 0.37345,0.29 0.74369,0.6462 z m -0.0845,3.6863 -0.12809,0.1877 c -0.0704,0.1033 -0.41457,0.4733 -0.76485,0.8224 l -0.63688,0.6348 -0.70685,-0.6749 c -0.38879,-0.3711 -0.70723,-0.6917 -0.70767,-0.7124 -5.7e-4,-0.02 0.33851,-0.391 0.75332,-0.8228 l 0.75423,-0.7852 0.1945,0.1683 c 0.10696,0.093 0.43025,0.3964 0.71839,0.6752 z m -0.12802,3.7486 c 0.002,0.08 -1.42659,1.5415 -1.50774,1.5432 -0.0239,7e-4 -0.35758,-0.3013 -0.74169,-0.6707 l -0.69834,-0.6718 0.78292,-0.8153 0.78302,-0.8153 0.69006,0.6753 c 0.37952,0.3714 0.69084,0.711 0.69177,0.7546 z m -0.14927,3.6593 c -0.006,0.1806 -0.25259,0.3926 -0.79788,0.95175 l -0.65154,0.668 -0.66884,-0.6383 c -0.36791,-0.35105 -0.66999,-0.68695 -0.67127,-0.74635 -10e-4,-0.06 0.31847,-0.442 0.71066,-0.8501 0.60888,-0.6336 0.73258,-0.732 0.84659,-0.6734 0.0734,0.037 0.40219,0.3381 0.73052,0.6671 0.32662,0.3273 0.5075,0.4621 0.50176,0.6213 z m 0.0478,3.67735 -0.75356,0.7959 c -0.41447,0.4376 -0.77996,0.7962 -0.81219,0.7969 -0.0323,6e-4 -0.36091,-0.2884 -0.73033,-0.6424 -0.36943,-0.354 -0.67221,-0.6723 -0.67296,-0.7074 -7.3e-4,-0.035 0.33906,-0.4183 0.75523,-0.8516 l 0.75669,-0.7876 0.72857,0.6982 z m -1.02188,-38.48245 c 0.0167,0.016 -0.29684,0.3662 -0.69673,0.7782 l -0.72701,0.749 -0.1377,-0.1626 c -0.0757,-0.09 -0.13817,-0.1898 -0.13889,-0.2227 -0.002,-0.1029 1.63624,-1.2033 1.70033,-1.1419 z m 0.86841,42.18145 c 10e-4,0.071 -2.76764,2.9356 -3.11417,3.2214 -0.1324,0.1092 -0.29277,0.1997 -0.35634,0.201 -0.0636,0 -0.52736,-0.086 -1.03064,-0.1944 -0.50329,-0.1084 -0.93555,-0.2287 -0.96059,-0.2673 -0.0488,-0.075 3.93961,-4.2911 4.06222,-4.2938 0.087,0 1.39767,1.2465 1.39952,1.3331 z m -0.89909,-38.57415 c 0.002,0.092 -1.3865,1.5415 -1.4783,1.5435 -0.0401,8e-4 -0.37098,-0.2854 -0.73535,-0.6359 -0.36437,-0.3507 -0.66313,-0.6694 -0.66397,-0.7084 -0.002,-0.089 1.39454,-1.5385 1.48451,-1.5404 0.0875,0 1.39122,1.2533 1.39311,1.3412 z m -0.0614,3.6885 c 5.5e-4,0.023 -0.33967,0.3961 -0.75583,0.8294 l -0.75659,0.7876 -0.73461,-0.7039 -0.73462,-0.7039 0.77603,-0.7984 0.77603,-0.7985 0.15782,0.1273 c 0.24636,0.1988 1.27076,1.214 1.27177,1.2604 z m -0.13191,3.6754 c 0.002,0.1076 -1.37186,1.5642 -1.4778,1.5665 -0.0401,9e-4 -0.37097,-0.2853 -0.73535,-0.6359 -0.36437,-0.3506 -0.66313,-0.6692 -0.66396,-0.7077 -0.002,-0.1135 1.39994,-1.5392 1.51633,-1.5417 0.12774,0 1.35801,1.1895 1.36078,1.3188 z m -0.0619,3.6628 c 0.002,0.1159 -1.39381,1.5594 -1.51085,1.562 -0.0642,0 -0.41333,-0.2875 -0.77601,-0.6419 -0.36267,-0.3544 -0.65968,-0.657 -0.66001,-0.6726 -10e-4,-0.058 1.48193,-1.5693 1.54075,-1.5705 0.0809,0 1.40441,1.2435 1.40612,1.323 z m -0.13114,3.7115 c 0.003,0.1174 -1.3709,1.5768 -1.4863,1.5794 -0.039,8e-4 -0.36768,-0.2953 -0.73044,-0.658 -0.36276,-0.3626 -0.65998,-0.6811 -0.66055,-0.7077 -5.7e-4,-0.026 0.33922,-0.4025 0.75513,-0.8354 l 0.75617,-0.7873 0.68183,0.6507 c 0.37502,0.3578 0.6829,0.699 0.68416,0.7583 z m -0.0613,3.6933 c 0.002,0.092 -1.3865,1.5414 -1.47829,1.5435 -0.0401,8e-4 -0.37097,-0.2854 -0.73535,-0.6359 -0.36437,-0.3507 -0.66313,-0.6692 -0.66396,-0.7078 -0.002,-0.092 1.38871,-1.5389 1.48066,-1.541 0.0901,0 1.39501,1.2509 1.39694,1.3412 z m -0.0632,3.6637 c 0,0.035 -0.34057,0.4179 -0.75712,0.8502 l -0.7574,0.7861 -0.71527,-0.6828 c -0.39341,-0.3755 -0.71563,-0.6998 -0.71606,-0.7205 -0.001,-0.057 1.47173,-1.5785 1.52858,-1.5797 0.075,0 1.4171,1.2737 1.41727,1.3467 z m -0.12966,3.7181 c 0.002,0.095 -1.38321,1.5465 -1.47819,1.5485 -0.0401,0 -0.37097,-0.2852 -0.73534,-0.6358 -0.36437,-0.3506 -0.66314,-0.6691 -0.66397,-0.7076 -8.3e-4,-0.038 0.33699,-0.4227 0.7508,-0.8535 l 0.75241,-0.7832 0.6863,0.6794 c 0.37749,0.3737 0.68712,0.7122 0.68799,0.7522 z m -0.0618,3.6696 c 0.002,0.1012 -1.43748,1.5356 -1.54343,1.538 -0.043,9e-4 -0.37625,-0.2852 -0.74061,-0.6358 -0.36438,-0.3507 -0.6628,-0.6533 -0.66321,-0.6725 -10e-4,-0.057 1.47478,-1.576 1.53259,-1.5774 0.0874,0 1.41279,1.2608 1.41466,1.3477 z m -0.0414,3.67125 -0.75695,0.7968 c -0.41631,0.4381 -0.78545,0.7973 -0.82041,0.798 -0.035,7e-4 -0.36179,-0.2921 -0.72622,-0.6509 -0.36442,-0.3588 -0.66308,-0.6772 -0.66374,-0.7076 -6.7e-4,-0.03 0.33924,-0.4099 0.75541,-0.8431 l 0.7567,-0.78755 0.72756,0.69715 z m -0.15151,3.7032 c 0.003,0.1318 -3.90616,4.1324 -4.04048,4.1354 -0.0751,0 -0.19238,0.068 -0.26066,0.1462 -0.0683,0.079 -0.17078,0.1443 -0.22774,0.1455 -0.13978,0 -1.00739,-0.2921 -1.36006,-0.4627 -0.15657,-0.076 -0.28226,-0.1449 -0.2793,-0.1539 0.0968,-0.2936 0.55368,-0.8154 2.43511,-2.7808 1.24449,-1.3 2.29514,-2.3644 2.33476,-2.3652 0.0878,0 1.39649,1.248 1.39837,1.3355 z m -0.92267,-38.62885 c 0,0.093 -0.21489,0.3632 -0.66821,0.843 -0.39025,0.413 -0.74437,0.7518 -0.78689,0.7527 -0.0426,9e-4 -0.18063,-0.1001 -0.30688,-0.2253 -0.12623,-0.1249 -0.2308,-0.2887 -0.23187,-0.3642 -10e-4,-0.09 0.22511,-0.3192 0.66433,-0.6707 0.36667,-0.2934 0.71777,-0.5481 0.78014,-0.5659 0.15987,-0.045 0.49389,0.085 0.54651,0.2143 0.002,0 0.003,0.01 0.003,0.016 z m -0.0412,3.6915 -0.1303,0.1877 c -0.0717,0.1032 -0.41106,0.4779 -0.75419,0.8326 l -0.62392,0.6449 -0.71752,-0.685 c -0.39465,-0.3768 -0.71787,-0.7022 -0.71831,-0.7233 -5.7e-4,-0.021 0.3402,-0.3896 0.757,-0.8194 l 0.75772,-0.7814 0.19548,0.1634 c 0.10747,0.09 0.42908,0.3921 0.71472,0.6719 z m -0.12876,3.7093 c 0.003,0.1182 -1.36229,1.5793 -1.47747,1.5819 -0.0401,8e-4 -0.37097,-0.2854 -0.73534,-0.6359 -0.36437,-0.3507 -0.66313,-0.6687 -0.66394,-0.7066 -0.002,-0.1001 1.40479,-1.5405 1.50643,-1.5426 0.12542,0 1.36764,1.1787 1.37032,1.3032 z m -0.0612,3.6956 c 0.002,0.115 -1.39804,1.5421 -1.51584,1.5447 -0.058,0 -0.40369,-0.2847 -0.76805,-0.6353 -0.36438,-0.3506 -0.6628,-0.6532 -0.66321,-0.6725 -5.6e-4,-0.019 0.33767,-0.3873 0.75134,-0.8179 0.68,-0.7079 0.76451,-0.7741 0.88136,-0.6901 0.27367,0.1967 1.3129,1.2016 1.3144,1.2711 z m -0.0424,3.6776 -0.74234,0.7969 c -0.40825,0.4383 -0.77391,0.7976 -0.81261,0.7985 -0.0387,8e-4 -0.37177,-0.2907 -0.7402,-0.6479 -0.36842,-0.357 -0.6704,-0.6754 -0.6711,-0.7074 -6.8e-4,-0.032 0.33919,-0.4127 0.75534,-0.8459 l 0.75672,-0.7877 0.72709,0.6968 z m -0.15026,3.7152 c 0.002,0.089 -1.39682,1.5362 -1.48698,1.5382 -0.0354,8e-4 -0.3624,-0.2855 -0.72678,-0.6361 -0.36437,-0.3506 -0.66314,-0.6692 -0.66397,-0.7077 -0.002,-0.092 1.38871,-1.539 1.48066,-1.5409 0.0934,0 1.39505,1.2524 1.39707,1.3465 z m -0.0618,3.6695 c 6.8e-4,0.03 -0.33917,0.4095 -0.7551,0.8424 l -0.75617,0.7873 -0.71773,-0.6851 c -0.39471,-0.3769 -0.71798,-0.702 -0.71842,-0.7228 -5.7e-4,-0.021 0.33753,-0.39 0.75116,-0.8206 l 0.75209,-0.7829 0.30862,0.2611 c 0.44582,0.3769 1.13417,1.0562 1.13555,1.1206 z m -0.13146,3.6958 c 0.002,0.091 -1.38923,1.5577 -1.47894,1.5596 -0.0395,9e-4 -0.36998,-0.2853 -0.73436,-0.6358 -0.36436,-0.3507 -0.66313,-0.6691 -0.66396,-0.7077 -8.5e-4,-0.038 0.33651,-0.4222 0.74971,-0.8523 l 0.75134,-0.7821 0.68734,0.676 c 0.37805,0.3718 0.68808,0.7058 0.68887,0.7423 z m -0.0619,3.6647 c 0.002,0.1136 -1.39493,1.5507 -1.51027,1.5533 -0.0611,0 -0.40907,-0.2846 -0.77344,-0.6351 -0.36437,-0.3507 -0.66279,-0.6533 -0.6632,-0.6726 -5.7e-4,-0.019 0.33821,-0.388 0.75261,-0.8193 l 0.75348,-0.7844 0.16381,0.1302 c 0.35653,0.2833 1.27569,1.1671 1.27701,1.2279 z m -0.0408,3.6876 -0.74884,0.79575 c -0.41186,0.4377 -0.78102,0.7964 -0.82041,0.7978 -0.0394,0 -0.36975,-0.2846 -0.73413,-0.6353 -0.36436,-0.3505 -0.66313,-0.66895 -0.66396,-0.70745 -8.3e-4,-0.038 0.33893,-0.4247 0.75509,-0.858 l 0.75671,-0.7875 0.72777,0.6974 z m -0.12986,3.66315 -0.22959,0.2735 c -0.12627,0.1502 -1.16239,1.2425 -2.30257,2.4272 -1.87237,1.9454 -2.44388,2.4783 -2.66293,2.4831 -0.0398,8e-4 -0.37141,-0.166 -0.7369,-0.3707 -0.36547,-0.2048 -0.67828,-0.3958 -0.69521,-0.4245 -0.0169,-0.028 0.005,-0.1426 0.0487,-0.2528 0.085,-0.2143 5.03714,-5.429 5.15814,-5.4317 0.0396,-8e-4 0.37544,0.2904 0.74624,0.6472 z m -1.03537,-34.85195 c 0.002,0.026 -0.002,0.051 -0.0132,0.073 -0.0322,0.063 -0.3717,0.4341 -0.75446,0.8259 l -0.69593,0.7125 -0.26833,-0.251 c -0.14759,-0.1382 -0.30598,-0.3447 -0.35198,-0.4591 -0.0824,-0.2049 -0.0739,-0.2171 0.58141,-0.8241 0.62215,-0.5765 0.6811,-0.614 0.91192,-0.5817 0.26664,0.037 0.57698,0.3191 0.59063,0.5048 z m -0.0793,3.6641 c 0.002,0.1178 -1.36261,1.5788 -1.47748,1.5813 -0.0401,9e-4 -0.37098,-0.2853 -0.73535,-0.6359 -0.36438,-0.3506 -0.66292,-0.6685 -0.66317,-0.7064 -10e-4,-0.1093 1.40459,-1.5406 1.51532,-1.543 0.13385,0 1.35781,1.1701 1.36068,1.304 z m -0.0612,3.6979 c 8.4e-4,0.038 -0.33886,0.4244 -0.75478,0.8574 l -0.75617,0.7872 -0.71773,-0.6851 c -0.39473,-0.3769 -0.71739,-0.7015 -0.71709,-0.7216 10e-4,-0.07 1.4813,-1.58 1.55008,-1.5815 0.0907,0 1.39373,1.2524 1.39569,1.3436 z m -0.034,3.6828 -0.74835,0.7929 c -0.41154,0.4361 -0.7742,0.7935 -0.80599,0.7943 -0.0318,6e-4 -0.36401,-0.2861 -0.73823,-0.6371 -0.37423,-0.3511 -0.68104,-0.6694 -0.68185,-0.7073 -8.4e-4,-0.037 0.33895,-0.4235 0.75511,-0.8566 l 0.75671,-0.7877 0.73125,0.7007 z m -0.1984,3.6985 c 0.003,0.032 -0.009,0.06 -0.0299,0.088 -0.19636,0.2736 -1.33917,1.4568 -1.40853,1.4584 -0.0401,8e-4 -0.37119,-0.2854 -0.73556,-0.6359 -0.36437,-0.3507 -0.66313,-0.6692 -0.66396,-0.7078 -0.002,-0.092 1.38871,-1.5389 1.48066,-1.5409 0.0387,-9e-4 0.37412,0.2906 0.74526,0.6478 0.45662,0.4393 0.60281,0.592 0.61207,0.6901 z m -0.0819,3.7247 c 5.7e-4,0.014 -0.002,0.026 -0.008,0.037 -0.0326,0.062 -0.37069,0.4349 -0.75142,0.8291 l -0.69223,0.7167 -0.71762,-0.6851 c -0.3947,-0.3768 -0.71799,-0.702 -0.71843,-0.7227 -10e-4,-0.064 1.47586,-1.5787 1.5412,-1.5801 0.0339,-7e-4 0.36229,0.2981 0.7297,0.6643 0.44849,0.4468 0.61298,0.6411 0.61667,0.7405 z m -0.0715,3.6578 c 0.002,0.097 -1.38158,1.549 -1.47813,1.5511 -0.04,9e-4 -0.37098,-0.2853 -0.73534,-0.6359 -0.36437,-0.3506 -0.66314,-0.6691 -0.66397,-0.7077 -0.002,-0.1014 1.39376,-1.5391 1.49658,-1.5413 0.10515,0 1.37858,1.2278 1.38086,1.3338 z m -0.0622,3.6492 c 7.2e-4,0.033 -0.33953,0.4211 -0.75602,0.861 l -0.75723,0.7996 -0.71638,-0.6839 c -0.39398,-0.376 -0.71664,-0.7008 -0.71708,-0.7215 -0.001,-0.065 1.47607,-1.5787 1.54175,-1.58 0.0812,0 1.40324,1.2449 1.40496,1.3248 z m -0.13122,3.7076 c 0.002,0.1178 -1.36264,1.5788 -1.47749,1.5812 -0.04,9e-4 -0.37096,-0.2852 -0.73534,-0.6358 -0.36437,-0.3506 -0.66313,-0.6691 -0.66396,-0.7077 -8.5e-4,-0.038 0.33876,-0.4244 0.75466,-0.8573 l 0.75617,-0.7873 0.68184,0.6507 c 0.37501,0.3578 0.68287,0.6981 0.68412,0.7562 z m -0.0615,3.68265 c 0.002,0.094 -4.89883,5.1459 -5.19891,5.359 -0.33974,0.2414 -0.34977,0.2379 -1.08003,-0.3876 -0.28169,-0.2413 -0.51061,-0.4579 -0.50864,-0.4812 0.0195,-0.234 0.48509,-0.7648 2.7253,-3.1071 1.42564,-1.4904 2.62446,-2.7107 2.66406,-2.7115 0.0832,0 1.39645,1.2459 1.39822,1.3284 z m -1.09255,-31.22085 c 0.003,0.1247 -1.3655,1.5793 -1.4879,1.582 -0.0903,0 -0.59795,-0.5179 -0.60002,-0.6144 -7.9e-4,-0.035 -0.0186,-0.1062 -0.0395,-0.1575 -0.0222,-0.055 0.2405,-0.3791 0.63338,-0.7821 l 0.67152,-0.6888 0.213,0.099 c 0.29017,0.135 0.60663,0.4266 0.60954,0.5618 z m -0.0611,3.6983 c 8.5e-4,0.038 -0.33886,0.4244 -0.75477,0.8575 l -0.75617,0.7872 -0.71774,-0.6852 c -0.39472,-0.3768 -0.71717,-0.7014 -0.71653,-0.7215 0.002,-0.072 1.47843,-1.58 1.54788,-1.5815 0.0918,0 1.39535,1.2514 1.39733,1.3435 z m -0.13156,3.6915 c 0.002,0.1119 -1.36797,1.5765 -1.47732,1.579 -0.0433,9e-4 -0.33541,-0.2558 -0.64915,-0.5705 -0.31372,-0.3147 -0.61565,-0.6254 -0.67095,-0.6906 -0.0903,-0.1064 -0.0224,-0.2003 0.66756,-0.9241 l 0.76819,-0.8056 0.67986,0.6604 c 0.37392,0.3631 0.68074,0.7014 0.68181,0.7514 z m -0.0613,3.6931 c 0.002,0.092 -1.3865,1.5414 -1.4783,1.5434 -0.04,9e-4 -0.37097,-0.2853 -0.73534,-0.6359 -0.36438,-0.3506 -0.66314,-0.6691 -0.66396,-0.7077 -0.002,-0.092 1.3887,-1.539 1.48065,-1.5409 0.0901,0 1.39502,1.2508 1.39695,1.3411 z m -0.0615,3.681 c 5.6e-4,0.027 -0.34073,0.4022 -0.75847,0.8333 l -0.75954,0.784 -0.71437,-0.682 c -0.3929,-0.375 -0.71473,-0.6988 -0.71517,-0.7196 -10e-4,-0.053 1.46996,-1.5785 1.52321,-1.5797 0.0607,0 1.42304,1.3033 1.42434,1.364 z m -0.13168,3.6855 c 0.002,0.1058 -1.37345,1.5616 -1.47787,1.5639 -0.0401,8e-4 -0.37097,-0.2853 -0.73533,-0.6359 -0.36437,-0.3507 -0.66314,-0.6691 -0.66397,-0.7077 -8.5e-4,-0.038 0.33355,-0.419 0.74317,-0.8454 l 0.74478,-0.7753 0.6936,0.656 c 0.3815,0.3609 0.69457,0.6958 0.69562,0.7444 z m -0.0635,3.6793 c 0,0.038 -0.33974,0.424 -0.75444,0.8576 l -0.75405,0.7887 -0.71785,-0.6853 c -0.39487,-0.377 -0.71778,-0.7018 -0.71743,-0.722 0.001,-0.072 1.47736,-1.5802 1.54755,-1.5818 0.093,0 1.39674,1.2523 1.39622,1.3428 z m -0.0351,3.6828 -0.75075,0.7936 c -0.41293,0.4364 -0.77094,0.7939 -0.79555,0.7944 -0.0246,6e-4 -0.35485,-0.2801 -0.73388,-0.6238 -0.37903,-0.3437 -0.68988,-0.6618 -0.69085,-0.7071 -0.003,-0.1212 1.39199,-1.551 1.51552,-1.5537 0.058,0 0.40928,0.29 0.78051,0.6472 z m -0.15578,3.6984 c 0.003,0.1333 -5.12428,5.43535 -5.35702,5.53975 -0.28557,0.1281 -0.30913,0.1121 -0.94213,-0.6405 -0.23354,-0.2776 -0.42514,-0.5307 -0.42581,-0.5623 -6.8e-4,-0.031 0.0453,-0.098 0.10227,-0.1472 0.0569,-0.05 0.10274,-0.1257 0.1018,-0.1695 -0.002,-0.099 5.02463,-5.35475 5.12316,-5.35695 0.0879,0 1.39585,1.249 1.39773,1.3367 z m -1.13365,-27.4851 -0.74328,0.7786 c -0.83053,0.87 -0.88004,0.8854 -1.1488,0.3582 -0.0811,-0.159 -0.14742,-0.2929 -0.14752,-0.2977 -6.8e-4,-0.032 1.17553,-1.4668 1.20327,-1.4674 0.15841,0 0.53614,0.2253 0.67088,0.4062 z m -0.0498,3.6414 -0.75455,0.7908 c -0.415,0.4349 -0.78219,0.7915 -0.81603,0.7922 -0.0339,8e-4 -0.36425,-0.2877 -0.73425,-0.6411 -0.36999,-0.3534 -0.67286,-0.6712 -0.67305,-0.7062 0,-0.035 0.3394,-0.4189 0.75476,-0.8531 l 0.75514,-0.7893 0.73404,0.7033 z m -0.16316,3.6975 c 0.002,0.092 -1.3865,1.5413 -1.4783,1.5434 -0.0401,8e-4 -0.37098,-0.2854 -0.73534,-0.6359 -0.36438,-0.3507 -0.66314,-0.6692 -0.66397,-0.7078 -0.002,-0.092 1.3887,-1.5389 1.48065,-1.5409 0.0901,0 1.39502,1.2509 1.39696,1.3412 z m -0.0648,3.6392 -0.13029,0.1877 c -0.0717,0.1032 -0.41107,0.4779 -0.75421,0.8326 l -0.6239,0.6449 -0.71752,-0.6851 c -0.39466,-0.3768 -0.71787,-0.7018 -0.71831,-0.7226 -5.7e-4,-0.02 0.33851,-0.391 0.75331,-0.8228 l 0.75424,-0.7851 0.19896,0.1666 c 0.10946,0.092 0.43276,0.3954 0.7184,0.6752 z m 0.41949,28.22375 c 7.9e-4,0.1482 -0.04,0.279 -0.12243,0.3743 -0.26935,0.3116 -0.98529,0.5973 -3.25617,1.2996 -3.14364,0.9722 -4.31235,1.4018 -6.18784,2.2748 -1.86989,0.8704 -3.54736,1.7818 -5.41937,2.9445 -1.205489,0.6701 -2.165396,1.2348 -1.86137,-0.291 0.0947,-0.1948 0.44954,-0.851 0.78842,-1.4585 0.73522,-1.3177 2.03125,-3.9789 2.41186,-4.9521 0.14981,-0.3832 0.38432,-0.9839 0.52101,-1.3349 0.39536,-1.0151 0.9602,-2.8568 1.346,-4.3883 0.73398,-2.9135 1.04222,-3.8016 1.40608,-4.0514 0.31548,-0.1422 0.67725,-0.088 0.96619,0.155 0.25751,0.2165 0.78802,1.3335 0.86538,1.8065 0.1171,0.7159 0.51219,1.2296 1.20342,1.5647 0.27295,0.1319 0.41318,0.4234 0.57538,0.6082 0.18822,0.2136 0.40168,0.5462 0.47441,0.7392 0.21912,0.5814 0.6232,0.9558 1.27085,1.1769 0.43762,0.1494 1.08529,0.6776 1.3969,1.1394 0.36955,0.5477 0.99367,0.9199 1.52062,0.9067 0.10138,0 0.55857,0.1669 1.01597,0.3766 0.71835,0.3293 0.84885,0.4152 0.95786,0.6304 0.0837,0.1655 0.12608,0.3312 0.12683,0.4794 z m -0.54779,-24.49355 c 0.002,0.1051 -1.38207,1.5588 -1.48649,1.5611 -0.0354,8e-4 -0.36242,-0.2855 -0.72678,-0.636 -0.36438,-0.3507 -0.66313,-0.6691 -0.66396,-0.7077 -8.5e-4,-0.038 0.33222,-0.4177 0.74016,-0.8423 l 0.74166,-0.7722 0.69667,0.6505 c 0.38315,0.3577 0.6976,0.6936 0.69874,0.7466 z m -0.0616,3.6764 c 0.002,0.1012 -1.42691,1.541 -1.53179,1.5433 -0.0529,0 -0.3928,-0.288 -0.75547,-0.6423 -0.36268,-0.3544 -0.65969,-0.657 -0.66002,-0.6726 -10e-4,-0.063 1.48507,-1.5694 1.55008,-1.5708 0.0864,0 1.39534,1.2559 1.3972,1.3424 z m -0.031,3.6889 -0.75381,0.7894 c -0.41461,0.4343 -0.78154,0.7907 -0.81537,0.792 -0.0339,0 -0.36423,-0.2868 -0.73423,-0.6402 -0.37,-0.3534 -0.67329,-0.6718 -0.67407,-0.7076 -7.9e-4,-0.035 0.3195,-0.3989 0.71182,-0.8071 0.54461,-0.5668 0.74493,-0.7331 0.84693,-0.7032 0.0734,0.021 0.42269,0.3178 0.77613,0.6581 z m -0.16239,3.698 c 0.002,0.1234 -4.90677,5.17505 -5.15051,5.30085 -0.13013,0.068 -0.24465,0.1224 -0.25446,0.1226 -0.0101,0 -0.2176,-0.3251 -0.46167,-0.7229 -0.24405,-0.3978 -0.44395,-0.7377 -0.44433,-0.7553 -5.7e-4,-0.017 0.0447,-0.072 0.1001,-0.1193 0.0554,-0.049 0.11947,-0.1564 0.14223,-0.2403 0.0455,-0.1679 4.55472,-4.92545 4.67077,-4.92805 0.0923,0 1.39667,1.2507 1.39785,1.3424 z m -1.26361,-23.878 c -0.007,0.097 -0.14871,0.2621 -0.57749,0.7197 -0.76255,0.8136 -0.85943,0.8822 -0.99887,0.706 -0.0551,-0.07 -0.10165,-0.1465 -0.10341,-0.171 -0.004,-0.051 0.52868,-0.8827 0.83786,-1.3093 0.11389,-0.1572 0.21319,-0.2957 0.22063,-0.3077 0.0299,-0.049 0.49625,0.1728 0.58888,0.2797 0.022,0.025 0.0347,0.051 0.0325,0.083 z m -0.0824,3.7284 c 0.002,0.092 -1.38881,1.5392 -1.48076,1.5411 -0.0387,8e-4 -0.36856,-0.2854 -0.73293,-0.6359 -0.36438,-0.3507 -0.66294,-0.6602 -0.66353,-0.688 -0.002,-0.086 1.38547,-1.5587 1.47035,-1.5605 0.0984,0 1.40477,1.2453 1.40687,1.3433 z m -0.11518,3.6919 c 7.3e-4,0.01 8.4e-4,0.013 5.6e-4,0.019 -9.5e-4,0.014 -0.005,0.026 -0.011,0.038 -0.0345,0.066 -0.37428,0.442 -0.755,0.8361 l -0.69223,0.7167 -0.71762,-0.685 c -0.39469,-0.3768 -0.71799,-0.702 -0.71843,-0.7228 -5.6e-4,-0.021 0.33762,-0.3898 0.75128,-0.8205 0.86917,-0.9048 0.69951,-0.9026 1.6027,-0.021 0.38756,0.378 0.52921,0.5408 0.53994,0.6396 z m -0.078,3.6761 c 0.002,0.1032 -1.37595,1.5578 -1.47795,1.56 -0.0401,9e-4 -0.37098,-0.2853 -0.73535,-0.6359 -0.36436,-0.3506 -0.66313,-0.6691 -0.66396,-0.7076 -8.4e-4,-0.038 0.33366,-0.4192 0.74338,-0.8457 l 0.745,-0.7755 0.69347,0.6602 c 0.38144,0.3631 0.69441,0.6981 0.69541,0.7445 z m -0.0613,3.6931 c 7.4e-4,0.032 -0.34042,0.411 -0.75809,0.8407 l -0.75948,0.7815 -0.71448,-0.6822 c -0.39301,-0.3752 -0.71495,-0.699 -0.71539,-0.7198 -10e-4,-0.072 1.47969,-1.5788 1.55283,-1.5803 0.0859,0 1.39274,1.2726 1.39461,1.3601 z m -0.19579,3.6666 c 0.009,0.1936 -0.20354,0.3885 -0.62537,0.8327 -0.39332,0.4141 -0.75115,0.7537 -0.79519,0.7547 -0.0441,10e-4 -0.37518,-0.2951 -0.73592,-0.6578 -0.36076,-0.3627 -0.65638,-0.6812 -0.65694,-0.7078 -5.6e-4,-0.026 0.33918,-0.4024 0.75503,-0.8353 l 0.75605,-0.7872 0.60301,0.5747 c 0.46128,0.4398 0.6907,0.6323 0.69933,0.826 z m 0.002,3.7026 c 8.4e-4,0.038 -1.02735,1.1425 -2.2844,2.4545 -1.58528,1.65455 -2.33804,2.39245 -2.45675,2.40815 -0.1558,0.021 -0.19559,-0.036 -0.44415,-0.6392 -0.36018,-0.87335 -0.40495,-1.06985 -0.27009,-1.18685 0.0586,-0.051 0.10555,-0.1426 0.10424,-0.2041 -0.003,-0.1205 3.83393,-4.1722 3.95308,-4.1749 0.0921,0 1.39666,1.2506 1.39807,1.3424 z m -1.35989,-20.1447 c 0.008,0.054 -0.093,0.171 -0.32948,0.4092 -0.39399,0.397 -0.42745,0.3716 -0.14101,-0.1073 0.13151,-0.2198 0.25156,-0.3393 0.34278,-0.3413 0.0784,0 0.12274,0.01 0.12771,0.039 z m -0.0336,3.6848 -0.76104,0.8061 -0.76103,0.8061 -0.29637,-0.2734 c -0.16303,-0.1504 -0.37469,-0.3898 -0.4703,-0.532 -0.0956,-0.1422 -0.17375,-0.2828 -0.17355,-0.3127 7.9e-4,-0.1236 0.75595,-1.5596 0.89954,-1.7106 l 0.15596,-0.1637 0.47055,0.4316 c 0.25883,0.2373 0.57539,0.5479 0.70345,0.6901 z m -0.0608,3.6756 -0.74522,0.7807 c -0.40986,0.4293 -0.77794,0.7812 -0.818,0.7821 -0.04,8e-4 -0.37097,-0.2854 -0.73534,-0.6359 -0.36437,-0.3507 -0.66313,-0.6692 -0.66396,-0.7078 -0.002,-0.095 1.39028,-1.539 1.48559,-1.541 0.0415,-9e-4 0.39074,0.2962 0.77617,0.6601 z m -0.14689,3.6777 c 8.3e-4,0.039 -0.33967,0.4267 -0.75669,0.8604 l -0.75824,0.7885 -0.67996,-0.6604 c -0.37399,-0.3632 -0.68093,-0.7053 -0.68211,-0.7601 -0.002,-0.1061 1.3673,-1.5679 1.47113,-1.5701 0.0872,0 1.40399,1.2549 1.40587,1.3417 z m -0.13172,3.6838 c 0.002,0.1078 -1.18855,1.4093 -1.39953,1.5295 -0.11096,0.064 -0.23046,-0.021 -0.80296,-0.5674 -0.36992,-0.353 -0.67324,-0.6746 -0.6741,-0.7147 -8.4e-4,-0.04 0.3387,-0.4271 0.75459,-0.86 l 0.75618,-0.7874 0.68185,0.6508 c 0.375,0.3578 0.68279,0.6949 0.68397,0.7492 z m -0.061,3.704 c 0.002,0.098 -3.86645,4.1243 -3.96521,4.1265 -0.0781,0 -0.29777,-0.755 -0.47549,-1.6375 -0.10675,-0.53 -0.11331,-0.4784 0.0865,-0.6744 0.0946,-0.093 0.17135,-0.2033 0.17045,-0.2451 -0.002,-0.096 2.69003,-2.9102 2.78617,-2.9122 0.0915,0 1.39556,1.251 1.39753,1.3427 z m -1.47813,-12.761 -0.75074,0.784 c -0.71691,0.7486 -0.75566,0.7779 -0.858,0.6484 -0.11125,-0.1408 -0.131,-0.2712 -0.0685,-0.4529 0.2482,-0.7227 0.57469,-1.5425 0.64305,-1.6146 0.13176,-0.1392 0.45686,0.01 0.76901,0.3467 z m -0.12298,3.6714 c 6.3e-4,0.03 -0.34036,0.4092 -0.75771,0.843 l -0.75878,0.7884 -0.42831,-0.4231 c -0.50119,-0.4954 -0.52056,-0.5967 -0.27313,-1.4256 0.12473,-0.4179 0.22396,-0.5984 0.46476,-0.8452 l 0.30616,-0.3137 0.20211,0.1392 c 0.24482,0.1687 1.24327,1.1608 1.2449,1.237 z m -0.0281,3.673 -0.75424,0.79 c -0.41482,0.4344 -0.78436,0.7907 -0.82121,0.7915 -0.0709,0 -1.18442,-1.0756 -1.19618,-1.1571 -0.0558,-0.3871 -0.0461,-0.4045 0.62314,-1.1158 l 0.67529,-0.7176 0.73659,0.7044 z m -0.16492,3.6976 c 0.003,0.1198 -2.64052,2.8321 -2.76245,2.8348 -0.0967,0 -0.12516,-0.1105 -0.17324,-0.6818 -0.0317,-0.3765 -0.0786,-0.8907 -0.10418,-1.1429 -0.0433,-0.4261 -0.0343,-0.4698 0.1284,-0.6176 0.0963,-0.087 0.17397,-0.215 0.17248,-0.2837 -0.003,-0.1292 1.21743,-1.4491 1.3421,-1.4518 0.0912,0 1.39493,1.2515 1.39689,1.343 z m -1.68148,-5.4136 c -6.8e-4,0.013 -0.003,0.025 -0.007,0.038 -0.0228,0.076 -0.25823,0.3417 -0.52336,0.5916 -0.55051,0.519 -0.55979,0.5085 -0.35546,-0.4013 0.0654,-0.2914 0.11872,-0.6011 0.11843,-0.688 -7.4e-4,-0.2337 0.17458,-0.1996 0.50865,0.099 0.18925,0.1691 0.26345,0.2702 0.2586,0.3606 z m -0.12256,3.6657 c 0.0279,0.078 -1.07344,1.2805 -1.17419,1.2826 -0.10755,0 -0.0281,-2.1387 0.0836,-2.2555 0.0439,-0.045 0.24049,0.098 0.56516,0.413 0.27378,0.2657 0.51017,0.5176 0.52537,0.5599 z" fill="#000000" stroke="none"/></g><text x="0" y="115" fill="#000000" font-size="5px" font-weight="bold" font-family="'Helvetica Neue', Helvetica, Arial-Unicode, Arial, Sans-serif">Created by anbileru adaleru</text><text x="0" y="120" fill="#000000" font-size="5px" font-weight="bold" font-family="'Helvetica Neue', Helvetica, Arial-Unicode, Arial, Sans-serif">from the Noun Project</text></svg>