<svg xmlns="http://www.w3.org/2000/svg" xmlns:xlink="http://www.w3.org/1999/xlink" version="1.1" x="0px" y="0px" viewBox="0 0 100 125" style="enable-background:new 0 0 100 100;" xml:space="preserve"><style type="text/css">
	.st0{fill:none;stroke:#000000;stroke-width:1.9899;stroke-linecap:round;stroke-linejoin:round;stroke-miterlimit:10;}
	.st1{fill:none;stroke:#000000;stroke-width:1.6582;stroke-linecap:round;stroke-linejoin:round;stroke-miterlimit:10;}
	.st2{fill:none;stroke:#000000;stroke-width:1.3266;stroke-linecap:round;stroke-linejoin:round;stroke-miterlimit:10;}
	.st3{fill:none;stroke:#000000;stroke-width:1.7169;stroke-linecap:round;stroke-linejoin:round;stroke-miterlimit:10;}
	.st4{fill:none;stroke:#000000;stroke-width:1.1894;stroke-linecap:round;stroke-linejoin:round;stroke-miterlimit:10;}
	.st5{fill:none;stroke:#000000;stroke-width:2.2308;stroke-miterlimit:10;}
	.st6{fill:none;stroke:#000000;stroke-width:1.4903;stroke-miterlimit:10;}
	.st7{fill:none;stroke:#000000;stroke-width:1.6793;stroke-miterlimit:10;}
	.st8{fill:none;stroke:#000000;stroke-width:1.0379;stroke-miterlimit:10;}
	.st9{stroke:#000000;stroke-width:1.0379;stroke-miterlimit:10;}
	.st10{fill:none;stroke:#000000;stroke-width:0.5189;stroke-miterlimit:10;}
	.st11{fill:none;stroke:#000000;stroke-width:2.3614;stroke-miterlimit:10;}
	.st12{stroke:#000000;stroke-width:0.9446;stroke-linecap:round;stroke-linejoin:round;stroke-miterlimit:10;}
	.st13{fill:none;stroke:#000000;stroke-width:1.771;stroke-linecap:round;stroke-linejoin:round;stroke-miterlimit:10;}
	.st14{fill:none;stroke:#000000;stroke-width:0.414;stroke-linecap:round;stroke-linejoin:round;stroke-miterlimit:10;}
	.st15{fill:none;stroke:#000000;stroke-width:0.1252;stroke-miterlimit:10;}
	.st16{fill:none;stroke:#000000;stroke-width:0.7512;stroke-linecap:round;stroke-linejoin:round;stroke-miterlimit:10;}
	.st17{fill:none;stroke:#000000;stroke-width:0.3477;stroke-linecap:round;stroke-linejoin:round;stroke-miterlimit:10;}
	.st18{fill:none;stroke:#000000;stroke-width:2.4573;stroke-linecap:round;stroke-linejoin:round;stroke-miterlimit:10;}
	.st19{fill:none;stroke:#000000;stroke-width:2.5376;stroke-linecap:round;stroke-linejoin:round;stroke-miterlimit:10;}
	.st20{fill:none;stroke:#000000;stroke-width:2.5931;stroke-linecap:round;stroke-linejoin:round;stroke-miterlimit:10;}
	.st21{fill:none;stroke:#000000;stroke-width:2.7406;stroke-linecap:round;stroke-linejoin:round;stroke-miterlimit:10;}
	.st22{fill:none;stroke:#000000;stroke-width:2.8609;stroke-linecap:round;stroke-linejoin:round;stroke-miterlimit:10;}
</style><g><circle class="st6" cx="50" cy="50" r="36.2"/><polygon class="st9" points="51.3,21 62.2,31.2 53.5,44.2 36.4,41 36.1,26.5  "/><polygon class="st9" points="28.6,21.2 26.5,26 16,38.7 20.7,28.9  "/><polygon class="st9" points="86.2,51.3 81.4,50.4 76.4,35.2 78.3,27.5 84.4,38.7  "/><polygon class="st9" points="73.7,62.7 71.4,75.7 56.7,81.9 48.5,73.2 59.4,61.2  "/><polygon class="st9" points="16.2,63 17.4,50.8 25.8,53.6 32.3,69.6 26.3,74.6 21.1,72.1  "/><path class="st10" d="M81.4,50.4c0,0-4,10.5-7.7,12.3"/><path class="st10" d="M62.2,31.2c0,0,11.8,1.2,14.2,4"/><path class="st10" d="M53.5,44.2c0,0,5.9,15.2,5.9,17"/><path class="st10" d="M51.3,21c0,0,3.3-6.7,4.4-6.6"/><path class="st10" d="M36.1,26.5c0,0-5-1.7-9.6-0.5"/><line class="st10" x1="71.4" y1="75.7" x2="74.5" y2="76.6"/><line class="st10" x1="56.7" y1="81.9" x2="51.2" y2="86.2"/><path class="st10" d="M48.5,73.2c0,0-9.1-0.3-16.2-3.6"/><path class="st10" d="M25.8,53.6c0,0,9.6-12.8,10.6-12.6"/><path class="st10" d="M17.2,50.8c0,0-1.3-11.5,0.3-13.9"/></g><text x="0" y="115" fill="#000000" font-size="5px" font-weight="bold" font-family="'Helvetica Neue', Helvetica, Arial-Unicode, Arial, Sans-serif">Created by Dylan Bissonette</text><text x="0" y="120" fill="#000000" font-size="5px" font-weight="bold" font-family="'Helvetica Neue', Helvetica, Arial-Unicode, Arial, Sans-serif">from the Noun Project</text></svg>