<svg xmlns:dc="http://purl.org/dc/elements/1.1/" xmlns:cc="http://creativecommons.org/ns#" xmlns:rdf="http://www.w3.org/1999/02/22-rdf-syntax-ns#" xmlns:svg="http://www.w3.org/2000/svg" xmlns="http://www.w3.org/2000/svg" xmlns:sodipodi="http://sodipodi.sourceforge.net/DTD/sodipodi-0.dtd" xmlns:inkscape="http://www.inkscape.org/namespaces/inkscape" version="1.1" x="0px" y="0px" viewBox="0 0 100 125"><g transform="translate(0,-952.36218)"><path style="text-indent:0;text-transform:none;direction:ltr;block-progression:tb;baseline-shift:baseline;color:#000000;enable-background:accumulate;" d="m 44.342588,960.1276 -0.5889,2.199 -41.0059989,11.1212 c -0.51663,0.1303 -0.86166,0.7384 -0.71288,1.2567 l 18.4728489,69.8998 c 0.12854,0.5237 0.7286,0.8734 1.23979,0.7226 9.42549,-2.5111 18.8037,-5.22 28.23617,-7.6969 l 28.29817,7.6969 c 0.5031,0.1318 1.07916,-0.2125 1.20879,-0.7226 l 18.47285,-69.8998 c 0.15891,-0.6608 -0.22422,-1.117 -0.68189,-1.2567 l -41.00599,-11.1212 c -0.20439,-0.7886 -0.43616,-1.62 -0.65089,-2.3876 -0.1813,-0.3911 -0.63275,-0.6335 -1.05382,-0.5654 -1.4964,0.426 -3.01861,0.8399 -4.52518,1.2564 l -4.49423,-1.2252 c -0.62893,-0.1224 -1.03153,0.2364 -1.20884,0.7228 z m 1.64272,1.4765 49.80849,13.5401 -17.94594,67.9835 -49.83948,-13.5401 z m -2.82052,2.953 -8.15161,30.8502 c -1.57292,-0.5057 -2.91455,-0.6219 -4.37025,-0.3769 -2.94782,0.8006 -3.83318,3.3826 -3.06848,6.3146 0.44691,1.6074 2.30887,3.2196 4.58722,4.7437 l -6.32292,23.9387 c -0.14879,0.5182 0.19624,1.1264 0.71288,1.2567 l 0.92984,0.2513 c -0.32622,0.2779 -0.59703,0.596 -0.92984,0.8483 -0.7892,-0.06 -1.4092,-0.4602 -2.29361,-0.22 -1.17889,0.3202 -1.54091,1.3113 -1.23979,2.4504 0.38175,1.3716 3.45866,2.704 5.11412,3.7699 0.8993,-1.7598 2.71431,-4.73 2.46486,-5.9766 0.0294,-0.01 10.57999,2.8404 15.54307,4.1859 l -23.95891,6.5344 -17.9769289,-67.9835 z m 8.27558,1.6337 c -1.42575,0.8617 -3.98076,1.4194 -4.49423,3.3615 -0.30796,1.1651 1.35221,2.4719 2.57256,2.3876 -0.20531,0.7769 -0.32091,1.1464 -0.89884,1.822 l 1.51874,0.4084 c -0.16723,-0.8779 -0.0813,-1.265 0.12397,-2.042 1.01504,0.6921 3.07036,0.4112 3.37843,-0.754 0.51347,-1.9421 -1.3909,-3.7147 -2.20063,-5.1835 z m -37.689559,9.487 c -0.88441,0.2403 -1.214,0.9091 -1.79769,1.3508 -0.7892,-0.06 -1.44019,-0.4601 -2.3245999,-0.2198 -1.17889,0.3201 -1.54091,1.3113 -1.23979,2.4504 0.38175,1.3716 3.4586599,2.7039 5.1141199,3.7699 0.8993,-1.7598 2.791019,-4.5968 2.541569,-5.8434 -0.17003,-1.3979 -1.075039,-1.7242 -2.293609,-1.5079 z m 74.356299,0.4717 c 0.16722,0.878 0.0503,1.2653 -0.15497,2.0421 -1.01504,-0.692 -3.07036,-0.4113 -3.37843,0.7539 -0.51337,1.9421 1.391,3.7148 2.20063,5.1837 1.42585,-0.8618 3.98076,-1.4194 4.49423,-3.3616 0.30806,-1.1652 -1.35211,-2.441 -2.57256,-2.3562 0.20541,-0.7767 0.32091,-1.1778 0.89885,-1.8535 z m -23.61797,16.4933 c -3.64428,2.1326 -10.15351,3.5012 -11.43704,8.3565 -0.77006,2.9131 3.50205,6.1595 6.63286,5.969 -0.51347,1.9422 -0.79113,2.9048 -2.26261,4.5867 l 3.84334,1.0367 c -0.44453,-2.2023 -0.20342,-3.1787 0.30995,-5.1207 2.61744,1.7515 7.93936,1.1225 8.70951,-1.7908 1.28353,-4.8552 -3.69204,-9.3437 -5.79601,-13.0374 z m -28.17418,27.74 c 0.16722,0.878 0.0504,1.2651 -0.15498,2.042 -1.01504,-0.692 -3.07036,-0.4112 -3.37842,0.754 -0.51337,1.9422 1.42189,3.7148 2.23162,5.1836 1.42576,-0.8617 3.94987,-1.4194 4.46324,-3.3615 0.30806,-1.1652 -1.35212,-2.472 -2.57256,-2.3876 0.2054,-0.7769 0.3209,-1.1464 0.89884,-1.8221 z m 38.15448,10.3672 c -1.42576,0.8617 -3.98086,1.4193 -4.49423,3.3615 -0.30807,1.1652 1.35211,2.441 2.57256,2.3561 -0.20541,0.7768 -0.32091,1.1779 -0.89885,1.8536 l 1.51874,0.377 c -0.16722,-0.8781 -0.0813,-1.2653 0.12398,-2.042 1.01504,0.6918 3.10136,0.4426 3.40942,-0.7226 0.51337,-1.9422 -1.42189,-3.7148 -2.23162,-5.1836 z" fill="#000000" fill-opacity="1" stroke="none" marker="none" visibility="visible" display="inline" overflow="visible"/></g><text x="0" y="115" fill="#000000" font-size="5px" font-weight="bold" font-family="'Helvetica Neue', Helvetica, Arial-Unicode, Arial, Sans-serif"></text><text x="0" y="120" fill="#000000" font-size="5px" font-weight="bold" font-family="'Helvetica Neue', Helvetica, Arial-Unicode, Arial, Sans-serif"></text></svg>
