<svg xmlns="http://www.w3.org/2000/svg" xmlns:xlink="http://www.w3.org/1999/xlink" xml:space="preserve" version="1.1" style="shape-rendering:geometricPrecision;text-rendering:geometricPrecision;image-rendering:optimizeQuality;" viewBox="0 0 4482 9881.25" x="0px" y="0px" fill-rule="evenodd" clip-rule="evenodd"><defs><style type="text/css">

    .fil0 {fill:black;fill-rule:nonzero}

  </style></defs><g><path class="fil0" d="M586 6568c-231,-132 -174,-560 155,-560l85 0 358 -4362c-192,-70 -230,-320 -121,-467l-255 0 0 -1179c221,0 442,0 662,0l0 534 440 0 0 -534 662 0 0 534 440 0 0 -534 662 0 0 1179 -253 0c108,146 65,395 -123,467l359 4362 84 0c336,0 382,426 154,559 256,220 382,507 405,839l182 0 0 499 -4482 0 0 -499 182 0c23,-332 149,-619 404,-838z"/></g><text x="0" y="7920" fill="#000000" font-size="5px" font-weight="bold" font-family="'Helvetica Neue', Helvetica, Arial-Unicode, Arial, Sans-serif"></text><text x="0" y="7925" fill="#000000" font-size="5px" font-weight="bold" font-family="'Helvetica Neue', Helvetica, Arial-Unicode, Arial, Sans-serif"></text></svg>
