<svg xmlns="http://www.w3.org/2000/svg" xmlns:xlink="http://www.w3.org/1999/xlink" version="1.1" x="0px" y="0px" viewBox="0 0 100 100" enable-background="new 0 0 100 100" xml:space="preserve"><g><path d="M10.264,78.058c0.875-8.288,3.61-17.697,7.315-25.168c3.003-6.058,7.813-13.275,13.694-13.32   c0.221-0.02,0.442-0.03,0.661-0.03c2.152,0,5.18,0.976,7.756,5.44c1.243,0.281,2.776,0.439,4.582,0.475V2.743   c0-1.515-1.19-2.742-2.66-2.742H2.66C1.191,0,0,1.228,0,2.743v85.181c0,1.514,1.191,2.742,2.66,2.742h7.961   C9.888,87.122,9.754,82.889,10.264,78.058z M8.388,57.972c-1.056,0-1.911-1.219-1.911-2.723V9.089c0-1.504,0.855-2.723,1.911-2.723   h1.279c1.055,0,1.911,1.219,1.911,2.723v46.16c0,1.504-0.856,2.723-1.911,2.723H8.388z"></path><g><path d="M38.365,47.297c-0.748-0.209-1.53-2.164-2.095-2.838c-0.742-0.881-1.651-1.655-2.729-2.05    c-2.841-1.041-5.674,0.624-7.666,2.611c-4.907,4.901-7.825,12.13-9.95,18.697c-2.587,8.002-4.504,17.132-3.032,25.565    c0.078,0.466,0.172,0.925,0.277,1.384c1.232,5.404,6.798,12.676,12.49,7.981c4.835-3.906,7.592-10.887,10.066-16.474    c0.525-1.16,1.032-2.329,1.553-3.493c0.262-0.575,0.523-1.157,0.829-1.711c0.473-0.873,0.772-0.755,1.787-0.755    c5.66,0,11.319,0,16.979,0c2.8,0,5.601,0,8.402,0c1.4,0,2.799,0,4.199,0c0.701,0,1.401,0,2.102,0c0.904,0,2.099-0.464,2.099,0.644    c0.21,2.835,1.264,5.648,2.436,8.194c2.303,4.998,5.665,10.4,10.377,13.304c5.321,3.31,9.705-0.195,11.616-5.575    c2.398-6.745,1.731-14.619,0.551-21.547c-1.247-7.321-3.385-14.81-7.055-21.254c-1.897-3.334-4.485-6.574-8.122-7.924    c-3.101-1.168-6.519-0.504-8.707,2.136c-0.58,0.693-1.054,1.486-1.43,2.313c-0.543,1.19-2.143,1.094-3.356,1.231    C66.455,48.136,43.604,48.767,38.365,47.297z M40.931,64.388h-6.056v6.242h-6.682v-6.242h-6.056v-6.889h6.056v-6.244h6.682v6.244    h6.056V64.388z M81.007,52.953c1.73,0,3.134,1.446,3.134,3.231c0,1.784-1.403,3.23-3.134,3.23c-1.731,0-3.134-1.446-3.134-3.23    C77.873,54.399,79.275,52.953,81.007,52.953z M75.071,65.534c-1.73,0-3.134-1.446-3.134-3.23c0-1.785,1.403-3.231,3.134-3.231    c1.731,0,3.134,1.446,3.134,3.231C78.205,64.088,76.803,65.534,75.071,65.534z M81.007,71.652c-1.731,0-3.134-1.447-3.134-3.23    c0-1.784,1.402-3.231,3.134-3.231c1.73,0,3.134,1.447,3.134,3.231C84.141,70.205,82.737,71.652,81.007,71.652z M86.942,65.534    c-1.731,0-3.135-1.446-3.135-3.23c0-1.785,1.403-3.231,3.135-3.231c1.73,0,3.134,1.446,3.134,3.231    C90.076,64.088,88.673,65.534,86.942,65.534z"></path></g></g></svg>