<svg xmlns:dc="http://purl.org/dc/elements/1.1/" xmlns:cc="http://creativecommons.org/ns#" xmlns:rdf="http://www.w3.org/1999/02/22-rdf-syntax-ns#" xmlns:svg="http://www.w3.org/2000/svg" xmlns="http://www.w3.org/2000/svg" xmlns:sodipodi="http://sodipodi.sourceforge.net/DTD/sodipodi-0.dtd" xmlns:inkscape="http://www.inkscape.org/namespaces/inkscape" viewBox="0 0 100 125" version="1.1" x="0px" y="0px"><g transform="translate(0,-952.36216)"><path d="m 20.7826,969.7946 c -3.21826,3.2733 -5.72646,7.20118 -6.98776,11.18391 -1.82532,5.76431 -1.60559,12.37016 0.62354,18.73554 1.39693,3.98865 2.75466,6.59525 5.55962,10.67215 1.66643,2.4223 6.37868,7.1349 9.02221,9.0223 6.64888,4.7486 11.30204,6.5657 16.71705,6.5283 3.47597,-0.024 5.08478,-0.5247 7.52759,-1.2297 2.09757,-0.6053 4.23208,-2.1864 6.03249,-2.5502 2.61769,-0.529 4.33677,-0.1818 7.04019,1.4218 3.8854,2.305 8.903,7.1464 14.95207,14.4278 2.26623,2.7279 4.37385,5.1221 4.68396,5.3204 0.31012,0.1986 0.85452,0.3002 1.20982,0.2262 0.80932,-0.1686 2.79341,-1.6565 4.56742,-3.2447 l 3.2e-4,3e-4 c 1.58822,-1.7742 3.07617,-3.7582 3.24466,-4.5676 0.0741,-0.3553 -0.0277,-0.8997 -0.22601,-1.2098 -0.19845,-0.31 -2.59262,-2.4177 -5.32048,-4.6839 -7.28137,-6.0493 -12.12283,-11.0668 -14.42772,-14.9523 -1.60363,-2.7033 -1.95075,-4.4225 -1.42177,-7.0401 0.36387,-1.8005 1.94487,-3.9351 2.55016,-6.0327 0.70496,-2.44274 1.20573,-4.05165 1.22978,-7.52755 0.0374,-5.41498 -1.77982,-10.06832 -6.52839,-16.71724 -1.88742,-2.64347 -6.59992,-7.35569 -9.02222,-9.02228 -4.07694,-2.8049 -6.68338,-4.1627 -10.67206,-5.55949 -6.3654,-2.22923 -12.97105,-2.44897 -18.7354,-0.62355 -3.98263,1.26123 -7.91071,3.76937 -11.18383,6.98765 l -3.3e-4,3.1e-4 c -0.0729,0.0717 -0.1446,0.14508 -0.21691,0.21755 l -3.1e-4,-3.1e-4 -0.21721,0.21721 -4.8e-4,0 z" style="" fill="#000000"/><circle style="opacity:1;fill:#000000;fill-opacity:1;stroke:none;stroke-width:2;stroke-linecap:butt;stroke-linejoin:miter;stroke-miterlimit:4;stroke-dasharray:3, 3;stroke-dashoffset:0;stroke-opacity:1" cx="11.869196" cy="1022.0592" r="6.8691883"/></g><text x="0" y="115" fill="#000000" font-size="5px" font-weight="bold" font-family="'Helvetica Neue', Helvetica, Arial-Unicode, Arial, Sans-serif"></text><text x="0" y="120" fill="#000000" font-size="5px" font-weight="bold" font-family="'Helvetica Neue', Helvetica, Arial-Unicode, Arial, Sans-serif"></text></svg>
