<svg xmlns="http://www.w3.org/2000/svg" xmlns:xlink="http://www.w3.org/1999/xlink" version="1.1" x="0px" y="0px" viewBox="0 0 100 125" enable-background="new 0 0 100 100" xml:space="preserve"><path fill-rule="evenodd" clip-rule="evenodd" d="M19.632,22.014c1.8,0,3.268-1.468,3.268-3.268c0-1.801-1.468-3.269-3.268-3.269  s-3.269,1.468-3.269,3.269C16.363,20.546,17.832,22.014,19.632,22.014z"/><path fill-rule="evenodd" clip-rule="evenodd" d="M27.563,22.059c1.8,0,3.268-1.468,3.268-3.268c0-1.801-1.468-3.269-3.268-3.269  s-3.268,1.468-3.268,3.269C24.295,20.59,25.763,22.059,27.563,22.059z"/><path fill-rule="evenodd" clip-rule="evenodd" d="M35.495,22.029c1.8,0,3.269-1.469,3.269-3.269s-1.468-3.269-3.269-3.269  c-1.8,0-3.269,1.468-3.269,3.269S33.695,22.029,35.495,22.029z"/><path fill-rule="evenodd" clip-rule="evenodd" d="M42.889,22.022c1.8,0,3.268-1.468,3.268-3.268s-1.468-3.268-3.268-3.268  c-1.8,0-3.269,1.468-3.269,3.268S41.089,22.022,42.889,22.022z"/><path fill-rule="evenodd" clip-rule="evenodd" d="M23.755,29.117c1.8,0,3.268-1.468,3.268-3.269s-1.468-3.269-3.268-3.269  s-3.268,1.468-3.268,3.269S21.955,29.117,23.755,29.117z"/><path fill-rule="evenodd" clip-rule="evenodd" d="M31.776,29.107c1.801,0,3.269-1.467,3.269-3.268c0-1.8-1.468-3.269-3.269-3.269  c-1.8,0-3.268,1.468-3.268,3.269C28.508,27.64,29.976,29.107,31.776,29.107z"/><path fill-rule="evenodd" clip-rule="evenodd" d="M39.439,29.078c1.801,0,3.269-1.468,3.269-3.269c0-1.799-1.468-3.268-3.269-3.268  c-1.8,0-3.268,1.469-3.268,3.268C36.171,27.609,37.639,29.078,39.439,29.078z"/><path fill-rule="evenodd" clip-rule="evenodd" d="M35.496,36.188c1.8,0,3.269-1.468,3.269-3.269c0-1.8-1.468-3.268-3.269-3.268  s-3.268,1.468-3.268,3.268C32.228,34.72,33.695,36.188,35.496,36.188z"/><path fill-rule="evenodd" clip-rule="evenodd" d="M27.654,36.166c1.8,0,3.269-1.468,3.269-3.268c0-1.8-1.468-3.269-3.269-3.269  c-1.8,0-3.268,1.468-3.268,3.269C24.386,34.697,25.854,36.166,27.654,36.166z"/><path fill-rule="evenodd" clip-rule="evenodd" d="M31.508,42.865c1.8,0,3.268-1.468,3.268-3.268s-1.468-3.268-3.268-3.268  s-3.268,1.468-3.268,3.268S29.708,42.865,31.508,42.865z"/><path fill-rule="evenodd" clip-rule="evenodd" d="M16.181,15.483c1.8,0,3.269-1.467,3.269-3.268c0-1.8-1.468-3.269-3.269-3.269  c-1.8,0-3.269,1.469-3.269,3.269C12.913,14.016,14.381,15.483,16.181,15.483z"/><path fill-rule="evenodd" clip-rule="evenodd" d="M23.799,15.483c1.801,0,3.268-1.467,3.268-3.268c0-1.8-1.467-3.269-3.268-3.269  c-1.8,0-3.268,1.469-3.268,3.269C20.531,14.016,21.999,15.483,23.799,15.483z"/><path fill-rule="evenodd" clip-rule="evenodd" d="M31.686,15.478c1.801,0,3.269-1.468,3.269-3.269c0-1.8-1.468-3.269-3.269-3.269  c-1.8,0-3.268,1.469-3.268,3.269C28.417,14.009,29.886,15.478,31.686,15.478z"/><path fill-rule="evenodd" clip-rule="evenodd" d="M39.169,15.472c1.8,0,3.268-1.469,3.268-3.269c0-1.8-1.468-3.269-3.268-3.269  c-1.8,0-3.269,1.468-3.269,3.269C35.901,14.003,37.369,15.472,39.169,15.472z"/><path fill-rule="evenodd" clip-rule="evenodd" d="M46.877,15.478c1.8,0,3.268-1.468,3.268-3.269c0-1.8-1.468-3.269-3.268-3.269  s-3.269,1.469-3.269,3.269C43.608,14.009,45.077,15.478,46.877,15.478z"/><path fill-rule="evenodd" clip-rule="evenodd" d="M31.508,61.505c1.8,0,3.268-1.469,3.268-3.27c0-1.8-1.468-3.269-3.268-3.269  s-3.268,1.469-3.268,3.269C28.24,60.036,29.708,61.505,31.508,61.505z"/><path fill-rule="evenodd" clip-rule="evenodd" d="M87.578,4.947l-1.035-0.631c-0.484-0.294-1.158-0.131-1.455,0.346L31.077,91.101  c-0.413,0.662-0.532,1.382-0.352,2.142c0.18,0.758,0.609,1.35,1.277,1.756l0.077,0.046c0.449,0.274,0.931,0.414,1.432,0.416  c0.234,0.001,0.474-0.029,0.713-0.088c0.757-0.189,1.343-0.626,1.74-1.295L87.941,6.398C88.236,5.899,88.074,5.248,87.578,4.947z   M55.709,58.456l-2.143-1.123l32.461-51.95l0.842,0.512L55.709,58.456z"/><text x="0" y="115" fill="#000000" font-size="5px" font-weight="bold" font-family="'Helvetica Neue', Helvetica, Arial-Unicode, Arial, Sans-serif"></text><text x="0" y="120" fill="#000000" font-size="5px" font-weight="bold" font-family="'Helvetica Neue', Helvetica, Arial-Unicode, Arial, Sans-serif"></text></svg>
