<svg xmlns:dc="http://purl.org/dc/elements/1.1/" xmlns:cc="http://creativecommons.org/ns#" xmlns:rdf="http://www.w3.org/1999/02/22-rdf-syntax-ns#" xmlns:svg="http://www.w3.org/2000/svg" xmlns="http://www.w3.org/2000/svg" xmlns:sodipodi="http://sodipodi.sourceforge.net/DTD/sodipodi-0.dtd" xmlns:inkscape="http://www.inkscape.org/namespaces/inkscape" viewBox="0 0 826.56218 226.8225" version="1.1" x="0px" y="0px"><g transform="translate(51.644997,-489.275)"><path style="" d="m 114.178,489.275 c -24.763997,0 -44.849997,20.023 -44.849997,44.85 l 0,91.758 c 0,24.762 20.023,44.85 44.849997,44.85 l 487.403,0 c 24.762,0 44.848,-20.026 44.848,-44.85 l 0,-91.758 c -0.07,-24.827 -20.086,-44.85 -44.848,-44.85 l -487.403,0 z m -122.0639972,47.03 c -24.3279998,0 -43.7589998,19.679 -43.7589998,43.758 0,24.018 19.493,43.637 43.7589998,43.637 7.01200002,0 13.743,-1.687 19.5150002,-4.605 14.09,-7.508 29.626,-11.179 45.578,-12.606 l 0,-52.971 c -16.013,-1.427 -31.552,-5.102 -45.578,-12.364 -5.7720002,-3.164 -12.44100018,-4.849 -19.5150002,-4.849 z m 739.1659972,0 c -7.261,0 -13.739,1.685 -19.759,4.849 -16.322,8.255 -34.537,11.856 -52.97,12.848 l 0,52.001 c 18.433,0.994 36.648,4.59 52.97,13.092 6.083,2.918 12.498,4.605 19.759,4.605 24.017,0 43.637,-19.619 43.637,-43.637 0.07,-24.079 -19.62,-43.758 -43.637,-43.758 z" fill="#000000"/></g><text x="0" y="196.458" fill="#000000" font-size="5px" font-weight="bold" font-family="'Helvetica Neue', Helvetica, Arial-Unicode, Arial, Sans-serif"></text><text x="0" y="201.458" fill="#000000" font-size="5px" font-weight="bold" font-family="'Helvetica Neue', Helvetica, Arial-Unicode, Arial, Sans-serif"></text></svg>
