<svg xmlns="http://www.w3.org/2000/svg" xmlns:xlink="http://www.w3.org/1999/xlink" version="1.1" x="0px" y="0px" viewBox="0 0 100 125" enable-background="new 0 0 100 100" xml:space="preserve"><g><path fill="#000000" d="M76.837,42.96"/><path fill="#000000" d="M45.891,7.788c0,0-6.342,6.703-6.342,11.388c0,6.558,7.135,4.323,7.135,10.883   c0,4.036-1.656,6.56-1.656,6.56s8.216-2.595,8.216-8.218c0-7.206-8.587-4.575-6.704-11.603   C48.126,10.888,45.891,7.788,45.891,7.788z"/><path fill="#000000" d="M36.992,10.635c0,0-6.344,6.704-6.344,11.387c0,6.559,7.135,4.326,7.135,10.884   c0,4.037-1.659,6.56-1.659,6.56s8.219-2.595,8.219-8.216c0-7.209-8.59-4.576-6.702-11.604   C39.225,13.733,36.992,10.635,36.992,10.635z"/><path fill="#000000" d="M55.02,5c0,0-6.342,6.702-6.342,11.388c0,6.558,7.135,4.324,7.135,10.882c0,4.036-1.656,6.56-1.656,6.56   s8.213-2.595,8.213-8.217c0-7.207-8.584-4.574-6.701-11.604C57.254,8.099,55.02,5,55.02,5z"/><path fill="#000000" d="M76.837,42.96"/><path fill="#000000" d="M78.761,45.449c0-2.109,0-2.452,0-2.489H11.966c0,0.073,0,1.173,0,13.84   c0,14.559,18.688,23.063,18.688,31.713h9.842h2.228h5.281h2.227h9.842c0-1.155,0.351-2.307,0.929-3.471   c0.813,0.038,1.405,0.009,1.405,0.009c14.851,0,31.487-16.76,31.487-30.458C93.894,46.578,84.545,45.408,78.761,45.449z    M64.812,79.812c5.535-6.194,13.949-13.235,13.949-23.012c0-2.532,0-4.578,0-6.269c4.244,0.206,9.693,1.493,9.693,6.777   C88.454,66.797,75.527,78.246,64.812,79.812z"/><polygon fill="#000000" points="6.106,90.241 6.106,93.701 20.376,93.701 20.376,95 71.983,95 71.983,93.701 86.253,93.701    86.253,90.241  "/><path fill="#000000" d="M45.891,7.788c0,0-6.342,6.703-6.342,11.388c0,6.558,7.135,4.323,7.135,10.883   c0,4.036-1.656,6.56-1.656,6.56s8.216-2.595,8.216-8.218c0-7.206-8.587-4.575-6.704-11.603   C48.126,10.888,45.891,7.788,45.891,7.788z"/><path fill="#000000" d="M36.992,10.635c0,0-6.344,6.704-6.344,11.387c0,6.559,7.135,4.326,7.135,10.884   c0,4.037-1.659,6.56-1.659,6.56s8.219-2.595,8.219-8.216c0-7.209-8.59-4.576-6.702-11.604   C39.225,13.733,36.992,10.635,36.992,10.635z"/><path fill="#000000" d="M55.02,5c0,0-6.342,6.702-6.342,11.388c0,6.558,7.135,4.324,7.135,10.882c0,4.036-1.656,6.56-1.656,6.56   s8.213-2.595,8.213-8.217c0-7.207-8.584-4.574-6.701-11.604C57.254,8.099,55.02,5,55.02,5z"/></g><text x="0" y="115" fill="#000000" font-size="5px" font-weight="bold" font-family="'Helvetica Neue', Helvetica, Arial-Unicode, Arial, Sans-serif"></text><text x="0" y="120" fill="#000000" font-size="5px" font-weight="bold" font-family="'Helvetica Neue', Helvetica, Arial-Unicode, Arial, Sans-serif"></text></svg>
