<svg xmlns="http://www.w3.org/2000/svg" xmlns:xlink="http://www.w3.org/1999/xlink" version="1.1" x="0px" y="0px" viewBox="0 0 240 300" enable-background="new 0 0 240 240" xml:space="preserve"><g><path d="M204.406,52.632c-19.438-10.48-35.11-1.731-39.852,10.711c-4.947-2.841-17.044-3.544-29.247-2.958l-1.357-8.053   l-24.095,4.071c0,0,2.311-4.963,3.018-7.787c0.708-2.823-1.95-4.135-1.95-4.135l-18.93,3.19c0,0-2.081,2.111-0.487,4.546   c1.594,2.436,5.403,6.368,5.403,6.368l-24.098,4.051l1.357,8.053c-14.815,4.356-28.805,10.602-27.947,15.696   c0.35,2.075,0.739,2.201,0.739,2.201l116.234-19.59c-0.834,7.952,2.687,16.42,12.139,22.003c-6.595-9.368-7-20,0.073-27.368   c10.155-10.579,25.833-3,31.667,2.333c0.825-8.867,6.527-16.232,17.499-14.955C221.046,43.651,208.739,45.632,204.406,52.632z"/><path d="M37.847,130.25c0.257-6.422-0.871-5.655,4.25-8.5c1.895-1.053,4.495-1.036,6.875-0.596v63.096c0,8.837,7.163,16,16,16   h109.749c8.837,0,16-7.163,16-16v-64.596c2.38-0.44,4.98-0.457,6.875,0.596c5.121,2.845,3.993,2.078,4.25,8.5   c0.25,6.25,12.75,7,12.75-0.5c0-12.25,0-22.25,0-22.25h-23.875v-9.25c-7.75,0-107.249,0-141.749,0v10.75H25.097c0,0,0,10,0,22.25   C25.097,137.25,37.597,136.5,37.847,130.25z M119.761,167.44c8.831,8.65,11.384,19.972,6.745,29.907   c-6.398,0.014-1.185-11.554-6.745-11.554c-4.717,0-1.071,11.677-6.188,11.554C108.151,187.383,111.413,177.407,119.761,167.44z"/><path d="M189.806,197.708c3.532,3.705,9.21-7.13,12.546-3.794c3.932,3.932-7.936,8.424-3.4,12.939   c10.305-3.747,16.506-13.557,16.378-25.918C202.379,182.08,193.019,186.828,189.806,197.708z"/><path d="M37.342,193.913c3.336-3.335,9.014,7.5,12.546,3.794c-3.213-10.88-12.573-15.628-25.524-16.771   c-0.128,12.361,6.073,22.171,16.378,25.918C45.276,202.338,33.41,197.846,37.342,193.913z"/><path d="M187,205.5H49c-5.247,0-9.5,4.253-9.5,9.5c52.5,0,121,0,157,0C196.5,209.753,192.247,205.5,187,205.5z"/><path d="M213.989,68.019c3.503,4.976,3.719,10.623-0.038,14.537c-5.395,5.619-13.722,1.594-16.82-1.239   c-0.438,4.71-3.467,8.622-9.295,7.943c1.873,3.909,8.41,2.857,10.711-0.861C216.606,98.136,228.558,76.625,213.989,68.019z"/></g><text x="0" y="255" fill="#000000" font-size="5px" font-weight="bold" font-family="'Helvetica Neue', Helvetica, Arial-Unicode, Arial, Sans-serif"></text><text x="0" y="260" fill="#000000" font-size="5px" font-weight="bold" font-family="'Helvetica Neue', Helvetica, Arial-Unicode, Arial, Sans-serif"></text></svg>
