<svg xmlns="http://www.w3.org/2000/svg" xmlns:xlink="http://www.w3.org/1999/xlink" version="1.1" x="0px" y="0px" viewBox="0 0 100 125" style="enable-background:new 0 0 100 100;" xml:space="preserve"><g><circle cx="42.9" cy="46.6" r="2.1"/><circle cx="66.4" cy="46.6" r="2.1"/><path d="M58.5,56.9c0.1,2.2-1.6,4.4-3.9,4.4c-2.3,0-4-2.1-4-4.3c0-1.3-2-1.3-2,0c0,3.3,2.6,6.3,6,6.3c3.4,0,6-3.1,5.9-6.4   C60.5,55.6,58.5,55.6,58.5,56.9z"/><path d="M93,60.6c-1.5-5.2-4.1-10.1-7.5-14.3c-0.7-2.2-2.3-4.1-4.6-5.1c-1-2.7-3.3-4.7-6.2-5.3c-1.4-2.8-4.2-4.5-7.3-4.5   c-0.3,0-0.7,0-1,0.1c-1.5-1.7-3.7-2.7-6-2.7c-1.1,0-2.1,0.2-3.1,0.6c-1.5-1.3-3.4-2-5.3-2c-1.5,0-2.9,0.4-4.1,1.1   c-1.2-0.7-2.7-1.1-4.1-1.1c-1.7,0-3.3,0.5-4.7,1.5c-1.1-0.2-2.3-0.1-3.3,0.3c-0.3,0-0.6-0.1-1-0.1c-2.9,0-5.5,1.7-6.7,4.2   c-3,0.6-5.5,2.9-6.2,6.1c-0.2,0.2-0.5,0.3-0.7,0.5C14.3,45,9.3,52.4,7,60.6c-0.8,2.9-0.2,5.9,1.6,8.3c1.6,2.2,4.1,3.5,6.7,3.7   c0.1,0,0.3,0,0.4,0h0.3h9.3h49.4h9.3h0.2c0.1,0,0.2,0,0.4,0c2.8-0.2,5.3-1.5,6.9-3.7C93.2,66.5,93.8,63.5,93,60.6z M67.4,33.7   c1.6,0,3.1,0.6,4.1,1.7C70.2,34.7,68.8,34.2,67.4,33.7C67.4,33.7,67.4,33.7,67.4,33.7z M60.4,31.1c1.6,0,3.2,0.7,4.3,1.8   c-2.3-0.6-4.6-1-7-1.2C58.6,31.3,59.5,31.1,60.4,31.1z M40.1,31c1.1-0.8,2.3-1.3,3.7-1.3c1.3,0,2.4,0.4,3.5,1.1l0.7,0.5l0.7-0.5   c1-0.7,2.2-1.1,3.5-1.1c1.6,0,3.2,0.7,4.3,1.9l0.1,0.1c-0.6,0-1.2,0-1.8,0c-4.5,0-8.8,0.7-12.9,2.1c-0.4-1-1-1.9-1.8-2.6L40.1,31z    M34.8,31.3c2.2,0,4,1.3,4.9,3.2c-3.2,1.3-6.3,3-9.1,5.2c-0.6-0.9-1-1.9-1-3.1C29.5,33.7,31.9,31.3,34.8,31.3z M24,39.9   c0.4-1.8,1.7-3.3,3.2-4c0,0.3,0,0.5,0,0.8c0,1.7,0.6,3.3,1.6,4.6c-0.6,0.6-1.3,1.1-1.9,1.7c-0.9-0.5-1.9-0.7-3-0.8l0-0.5   C23.8,41.1,23.9,40.5,24,39.9z M18.3,48.7c0.3-1.1,0.9-2.1,1.7-2.9c0-0.1,0.1-0.1,0.1-0.2c0.9-0.8,2.1-1.2,3.4-1.2   c0.6,0,1.2,0.1,1.7,0.3C22.9,47.2,21,50,19.4,53c-0.7-0.9-1.2-2-1.2-3.3C18.2,49.3,18.2,49,18.3,48.7z M15,53.9   c0.2-0.9,0.6-1.7,1.2-2.4c0.4,1.4,1.1,2.7,2.2,3.7c-0.6,1.4-1.2,2.8-1.6,4.3c-0.3-0.3-0.7-0.7-0.9-1.1C14.9,57,14.6,55.4,15,53.9z    M12.8,53.4c-0.3,1.1-0.3,2.3,0,3.4c-0.8,0.8-1.3,1.9-1.3,3.1v8.4c0,0.2,0,0.3,0,0.4c-0.4-0.3-0.8-0.7-1.1-1.2   c-1.4-1.8-1.8-4.1-1.2-6.3c0.9-3.2,2.3-6.3,4-9.1C13,52.5,12.9,53,12.8,53.4z M16.1,70.3c-0.3,0-0.5,0-0.7,0c-0.9-0.2-1.6-1-1.6-2   v-8.4c0-0.2,0-0.3,0.1-0.5c0,0.1,0.1,0.1,0.1,0.2c0.6,0.9,1.3,1.7,2.2,2.3c-0.4,2.5,0.3,5,1.8,7c0.4,0.5,0.9,1,1.4,1.5H16.1z    M89.6,67.5c-1.4,1.8-3.4,2.8-5.7,2.8H25.3c-2.3,0-4.3-1-5.7-2.8c-1.4-1.8-1.8-4.1-1.2-6.3c2.2-7.7,6.9-14.7,13.3-19.6   c6.6-5.1,14.5-7.8,22.9-7.8s16.3,2.7,22.9,7.8c6.4,4.9,11.1,11.9,13.3,19.6C91.4,63.4,91,65.7,89.6,67.5z"/></g><text x="0" y="115" fill="#000000" font-size="5px" font-weight="bold" font-family="'Helvetica Neue', Helvetica, Arial-Unicode, Arial, Sans-serif"></text><text x="0" y="120" fill="#000000" font-size="5px" font-weight="bold" font-family="'Helvetica Neue', Helvetica, Arial-Unicode, Arial, Sans-serif"></text></svg>
