<svg xmlns="http://www.w3.org/2000/svg" data-name="Layer 1" viewBox="0 0 94.35 56.925" x="0px" y="0px"><defs><style>.cls-1{fill:#010101;}</style></defs><title>taco</title><path class="cls-1" d="M87.72,32.94a47,47,0,0,0-7.92-8,48.41,48.41,0,0,0-17.93-8.62A52.45,52.45,0,0,0,45.19,15a47.88,47.88,0,0,0-14.45,3.22A48.25,48.25,0,0,0,9.24,35.65C7.63,37.93,6,42,2.79,50.14c-0.5,1.25-1.22,3.14-.36,4.5,1.3,2.05,5.36,1.61,6.77,1.47,14.95-1.49,61.95-2,66.51-2,4.21,0,8.4-.52,12.61-0.78a37.69,37.69,0,0,0,5.4-.84A5.29,5.29,0,0,0,95.18,52C97.42,50.2,93.43,40.28,87.72,32.94ZM94,50.84c-0.46.66-53.44,2.48-58.71,2.64-12.5.39-22.21,0.73-24.85,1-4.12.36-5.56,0.76-6.24-.12-0.92-1.2.33-3.74,2.4-7.93,1.16-2.35,2.16-4,2.16-4,2.46-4,4.73-7.84,7.37-10.73a47.7,47.7,0,0,1,15.85-11.2,46,46,0,0,1,29.73-2.08A47.41,47.41,0,0,1,81.24,29.71,56.24,56.24,0,0,1,91,41.59a27.39,27.39,0,0,1,2.29,4.8C94.53,49.79,94.17,50.54,94,50.84Z" transform="translate(-2.03 -10.72)"/><circle class="cls-1" cx="38.87" cy="16.3" r="1.42"/><circle class="cls-1" cx="54.82" cy="16.3" r="1.42"/><path class="cls-1" d="M54.06,32.53a5.23,5.23,0,0,1-9.4.15h0.71A4.87,4.87,0,0,0,49.23,35a4.61,4.61,0,0,0,4.14-2.45Z" transform="translate(-2.03 -10.72)"/><path class="cls-1" d="M78.19,54.76" transform="translate(-2.03 -10.72)"/><path class="cls-1" d="M2.48,48c-0.32-.11,1.19-4,2.16-9.92l0.05-.32a26,26,0,0,1,1.15-4.24A11,11,0,0,1,7,30.83a7.05,7.05,0,0,1,1.46-1.43c1.33-1,1.92-.8,2.58-1.5,1.66-1.77.69-3.35,2.28-4.68,1.14-1,1.75-.24,3.92-1.2s2.06-2,4.32-3,3-.13,4.4-1.21c1.6-1.23,1-2.67,2.43-3.37s2.33,0.64,4.79.17c0.56-.11.59-0.19,3.18-1.43a33.06,33.06,0,0,1,4.52-2c2.32-.47,2.37.63,5.31,0.34,2.4-.24,3-1,5-0.68a25.4,25.4,0,0,0,2.57.68c1.68,0.19,2.31-.29,3.59-0.34,2.24-.09,2.67,1.29,5.3,2.07,3.41,1,4.15-.86,6.68.15,3,1.19,2.68,4,5.65,4.89,2.11,0.6,2.67-.73,4.45-0.1,2.85,1,1.85,4.58,5.48,7.53,1.75,1.42,2.71,1.18,4.62,3.08A14,14,0,0,1,92,32.37c3.11,5.93,4.85,15.55,4.21,15.7-0.44.1-.67-4.57-4.2-10.56-4.05-6.89-9.41-10.93-13-13.57a53.52,53.52,0,0,0-10.2-6,46.74,46.74,0,0,0-12.13-3.48,46.61,46.61,0,0,0-11.41,0c-5.23.59-18.69,2.1-29.41,12.13A47,47,0,0,0,8.8,35.15C4.36,42,2.88,48.17,2.48,48Z" transform="translate(-2.03 -10.72)"/><circle class="cls-1" cx="77.12" cy="35.47" r="0.37"/><circle class="cls-1" cx="68.46" cy="39.18" r="0.37"/><circle class="cls-1" cx="71.38" cy="31.44" r="0.37"/><circle class="cls-1" cx="79.76" cy="28.76" r="0.37"/><circle class="cls-1" cx="86.47" cy="35.84" r="0.37"/><circle class="cls-1" cx="86.1" cy="31.44" r="0.37"/><circle class="cls-1" cx="7.72" cy="50.77" r="0.37" transform="translate(-42.88 23.36) rotate(-62.38)"/><circle class="cls-1" cx="15.45" cy="50.77" r="0.37" transform="translate(-38.73 30.21) rotate(-62.38)"/><circle class="cls-1" cx="11.37" cy="45.87" r="0.37" transform="translate(-36.57 23.96) rotate(-62.38)"/><text x="0" y="60.54" fill="#000000" font-size="5px" font-weight="bold" font-family="'Helvetica Neue', Helvetica, Arial-Unicode, Arial, Sans-serif">Created by Christine Carino</text><text x="0" y="65.53999999999999" fill="#000000" font-size="5px" font-weight="bold" font-family="'Helvetica Neue', Helvetica, Arial-Unicode, Arial, Sans-serif">from the Noun Project</text></svg>