<svg xmlns="http://www.w3.org/2000/svg" xmlns:xlink="http://www.w3.org/1999/xlink" version="1.1" x="0px" y="0px" viewBox="0 0 100 125" enable-background="new 0 0 100 100" xml:space="preserve"><g><rect x="-192" width="185" height="99"/><rect y="-36" width="100" height="30"/><text transform="matrix(1 0 0 1 66 -19.5)" fill="#000000" font-family="'Helvetica'" font-size="2.4">http://thenounproject.com</text><text transform="matrix(1 0 0 1 7.166 -24.5)"><tspan x="0" y="0" fill="#000000" font-family="'Helvetica-Bold'" font-size="6.1578">The Noun Project</tspan><tspan x="1.12" y="4.8" fill="#000000" font-family="'Helvetica-Bold'" font-size="4">Icon Template</tspan></text><text transform="matrix(1 0 0 1 -178.5 10.5)" fill="#000000" font-family="'Helvetica-Bold'" font-size="6.1578">Reminders</text><line fill="#000000" stroke="#FFFFFF" stroke-miterlimit="10" x1="8" y1="-14.5" x2="18" y2="-14.5"/><line fill="#000000" stroke="#FFFFFF" stroke-miterlimit="10" x1="-179" y1="16.5" x2="-162" y2="16.5"/><g><g><g><rect x="-170.802" y="31.318" fill="#000000" width="8.721" height="8.642"/><path fill="#000000" d="M-164.455,42.312h4.747v-4.703h-4.747V42.312z M-159.266,42.749h-5.63V37.17h5.63V42.749      L-159.266,42.749z M-166.221,44.062h8.279v-8.203h-8.279V44.062L-166.221,44.062z M-157.5,44.5h-9.163v-9.079h9.163V44.5      L-157.5,44.5z"/><polygon fill="#000000" points="-166.149,44.133 -166.292,43.991 -158.013,35.787 -157.871,35.929     "/></g></g></g><rect x="-179" y="58" fill="none" width="35" height="32.5"/><text transform="matrix(1 0 0 1 -179 60.1572)"><tspan x="0" y="0" fill="#000000" font-family="'Helvetica-Bold'" font-size="3">Strokes</tspan><tspan x="0" y="5" fill="#000000" font-family="'Helvetica'" font-size="2.4">Try to keep strokes at 4px</tspan><tspan x="0" y="10" fill="#000000" font-family="'Helvetica'" font-size="2.4">Minimum stroke weight is 2px</tspan><tspan x="0" y="14.5" fill="#000000" font-family="'Helvetica'" font-size="2.4">For thicker strokes use even </tspan><tspan x="0" y="17.5" fill="#000000" font-family="'Helvetica'" font-size="2.4">numbers: 6px, 8px etc.</tspan><tspan x="0" y="22" fill="#000000" font-family="'Helvetica-Bold'" font-size="2.4">Remember to expand strokes </tspan><tspan x="0" y="25" fill="#000000" font-family="'Helvetica-Bold'" font-size="2.4">before saving as an SVG </tspan></text><rect x="-136.5" y="58" fill="none" width="35" height="32.5"/><text transform="matrix(1 0 0 1 -136.5 60.1572)"><tspan x="0" y="0" fill="#000000" font-family="'Helvetica-Bold'" font-size="3">Size</tspan><tspan x="0" y="5" fill="#000000" font-family="'Helvetica'" font-size="2.4">Cannot be wider or taller than </tspan><tspan x="0" y="8.5" fill="#000000" font-family="'Helvetica'" font-size="2.4">100px (artboard size)</tspan><tspan x="0" y="13.5" fill="#000000" font-family="'Helvetica'" font-size="2.4">Scale your icon to fill as much of </tspan><tspan x="0" y="16.5" fill="#000000" font-family="'Helvetica'" font-size="2.4">the artboard as possible</tspan></text><rect x="-94" y="58" fill="none" width="35" height="32.5"/><text transform="matrix(1 0 0 1 -94 60.1572)"><tspan x="0" y="0" fill="#000000" font-family="'Helvetica-Bold'" font-size="3">Ungroup</tspan><tspan x="0" y="5" fill="#000000" font-family="'Helvetica'" font-size="2.4">If your design has more than one </tspan><tspan x="0" y="8" fill="#000000" font-family="'Helvetica'" font-size="2.4">shape, make sure to ungroup</tspan></text><rect x="-50" y="58" fill="none" width="35" height="32.5"/><text transform="matrix(1 0 0 1 -50 60.1572)"><tspan x="0" y="0" fill="#000000" font-family="'Helvetica-Bold'" font-size="3">Save as</tspan><tspan x="0" y="5" fill="#000000" font-family="'Helvetica'" font-size="2.4">Save as .SVG and make sure </tspan><tspan x="0" y="8" fill="#000000" font-family="'Helvetica'" font-size="2.4">“Use Artboards” is checked</tspan></text><text transform="matrix(1.0074 0 0 1 -125.542 30.5933)" fill="#000000" font-family="'Helvetica'" font-size="2.5731">100px</text><text transform="matrix(1.0074 0 0 1 -41 39)" fill="#000000" font-family="'Helvetica-Bold'" font-size="5.1462">.SVG</text><rect x="-126.514" y="34.815" fill="#000000" width="10.261" height="10.185"/><rect x="-126.477" y="31.766" fill="#000000" width="0.522" height="2.337"/><rect x="-116.812" y="31.766" fill="#000000" width="0.523" height="2.337"/><rect x="-127" y="32.337" fill="#000000" width="11.233" height="0.572"/><g><rect x="-83.805" y="33.844" fill="#000000" width="10.305" height="10.156"/><rect x="-76.809" y="28.707" fill="#000000" width="3.308" height="3.261"/></g><rect x="-178.5" y="22.5" fill="#000000" stroke="#FFFFFF" stroke-miterlimit="10" width="30" height="30"/><rect x="-136.5" y="22.5" fill="#000000" stroke="#FFFFFF" stroke-miterlimit="10" width="30" height="30"/><rect x="-93.5" y="22.5" fill="#000000" stroke="#FFFFFF" stroke-miterlimit="10" width="30" height="30"/><rect x="-49.5" y="22.5" fill="#000000" stroke="#FFFFFF" stroke-miterlimit="10" width="30" height="30"/></g><g><polygon points="14,124.151 88,127.815 88,122 14,122  "/><polygon points="15.956,107.248 88.354,121.191 89.145,115.609 16.232,105.295  "/><g><path d="M27.291,172.274c-19.2,0-34.908-6.023-36.195-13.645C-8.961,159.219-9,159.81-9,160.41    c0,14.261,9.77,31.406,36.291,31.406c26.521,0,36.291-17.146,36.291-31.406c0-0.601-0.039-1.191-0.095-1.78    C62.201,166.251,46.491,172.274,27.291,172.274z"/><path d="M-7.857,159.537c4.029-6.32,18.238-10.991,35.148-10.991s31.119,4.671,35.148,10.991c0.136,0.377,0.223,0.767,0.333,1.149    c0.354-0.67,0.597-1.356,0.715-2.057c-0.153-1.604-0.503-3.166-1.048-4.675c-4.029-6.322-18.238-10.992-35.148-10.992    s-31.119,4.67-35.148,10.992c-0.545,1.509-0.895,3.071-1.047,4.675c0.119,0.7,0.361,1.387,0.714,2.056    C-8.079,160.303-7.993,159.914-7.857,159.537z"/></g><circle cx="19.421" cy="146.838" r="7.751"/><circle cx="15.546" cy="113.957" r="7.751"/><circle cx="28.465" cy="159.757" r="7.751"/><g><path d="M-5.372,165.874l-1.505-1.316c0.375-0.429,9.063-10.514,14.346-13.155C12.54,148.867,23,146.13,31,146.13v2    c-7,0-17.769,2.628-22.636,5.062C3.429,155.659-5.283,165.772-5.372,165.874z"/></g><g><path d="M1.419,170.702l-1.584-1.221c0.399-0.519,10.017-12.745,15.652-15.945C20.91,150.455,32,147.13,41,147.13v2    c-9,0-19.323,3.189-24.525,6.145C11.187,158.278,1.515,170.578,1.419,170.702z"/></g><g><path d="M11.462,172.286l-1.584-1.221c0.399-0.519,9.995-12.746,15.63-15.946C30.933,152.038,42,148.713,51,148.713v2    c-9,0-19.3,3.189-24.504,6.145C21.208,159.861,11.558,172.162,11.462,172.286z"/></g><g><path d="M19.213,174.578l-1.584-1.221c0.399-0.519,9.619-12.746,15.254-15.946C38.305,154.33,50,151.006,58,151.006v2    c-8,0-18.928,3.189-24.128,6.144C28.583,162.153,19.309,174.454,19.213,174.578z"/></g><g><path d="M59.931,171.94c-0.041-0.062-4.251-6.155-7.924-8.658C48.394,160.825,41,158.173,35,158.173v-2    c6,0,14.273,2.832,18.132,5.456c3.995,2.722,8.233,8.936,8.41,9.198L59.931,171.94z"/></g><g><path d="M61.976,162.231C57.96,159.532,48.627,155.77,42,155.77v-2.181c7.731,0,16.99,4.044,21.15,6.838L61.976,162.231z"/></g><g><path d="M55.983,176.982c-0.03-0.064-3.299-6.481-6.907-8.939C45.464,165.585,38,162.932,32,162.932v-2    c7,0,14.344,2.833,18.201,5.458c4.057,2.764,7.366,9.447,7.502,9.73L55.983,176.982z"/></g><g><path d="M46.94,180.858c-0.03-0.064-3.278-6.481-6.887-8.94c-3.612-2.457-11.054-5.11-17.054-5.11v-2    c6,0,14.322,2.833,18.18,5.457c4.057,2.765,7.355,9.448,7.491,9.731L46.94,180.858z"/></g><g><g><path d="M147.62,139.186l-1.839-2.37c0.087-0.067,8.649-6.816,8.649-14.635c0-3.093-1.326-3.938-3.334-5.276     c-2.589-1.725-5.781-3.904-6.075-10.904H145l0.021-1.121c0.294-7.09,3.485-9.235,6.074-10.96     c2.008-1.339,3.335-2.232,3.335-5.327c0-7.565-6.321-10.167-6.386-10.192l1.107-2.792c0.338,0.135,8.278,3.396,8.278,12.976     c0,4.7-2.481,6.354-4.672,7.813c-2.376,1.583-4.624,3.081-4.753,8.985c0.129,5.905,2.377,7.404,4.754,8.987     c2.189,1.459,4.671,3.112,4.671,7.812C157.431,131.48,148.021,138.876,147.62,139.186z"/></g><g><path d="M157.728,134.426l-1.06-2.807c0.198-0.078,4.862-1.999,4.862-9.438c0-3.089-1.341-3.935-3.37-5.272     c-2.616-1.725-5.842-3.908-6.138-10.908H152l0.022-1.121c0.296-7.094,3.521-9.24,6.137-10.964     c2.03-1.339,3.371-2.233,3.371-5.323c0-7.569-6.252-10.169-6.315-10.194l1.117-2.788c0.335,0.135,8.198,3.397,8.198,12.974     c0,4.705-2.508,6.358-4.72,7.817c-2.402,1.584-4.675,3.081-4.805,8.981c0.13,5.901,2.403,7.399,4.805,8.983     c2.213,1.459,4.72,3.111,4.72,7.815C164.53,131.783,158.005,134.323,157.728,134.426z"/></g><g><path d="M162.112,139.178l-1.858-2.354c0.085-0.067,8.5-6.816,8.5-14.643c0-3.078-1.373-3.925-3.452-5.263     c-2.676-1.725-5.977-3.918-6.279-10.918H159l0.022-1.121c0.303-7.104,3.603-9.249,6.278-10.973     c2.079-1.34,3.453-2.234,3.453-5.314c0-7.583-6.025-10.176-6.087-10.201l1.15-2.774c0.324,0.135,7.937,3.403,7.937,12.967     c0,4.716-2.565,6.368-4.828,7.826c-2.459,1.585-4.786,3.083-4.92,8.973c0.134,5.891,2.461,7.391,4.921,8.975     c2.263,1.458,4.827,3.11,4.827,7.824C171.754,131.473,162.506,138.868,162.112,139.178z"/></g><g><path d="M172.359,134.432l-1.031-2.817c0.205-0.078,5.022-2,5.022-9.434c0-3.097-1.314-3.942-3.306-5.28     c-2.566-1.725-5.732-3.9-6.023-10.9H167l0.021-1.121c0.292-7.086,3.456-9.232,6.023-10.957c1.99-1.338,3.306-2.231,3.306-5.33     c0-7.487-5.735-9.395-5.794-9.413l0.906-2.862c2.728,0.863,7.888,4.538,7.888,12.267c0,4.697-2.461,6.351-4.633,7.811     c-2.355,1.583-4.585,3.08-4.712,8.988c0.127,5.91,2.356,7.407,4.713,8.991c2.171,1.459,4.632,3.112,4.632,7.808     C179.351,131.794,172.645,134.328,172.359,134.432z"/></g></g><g><polygon points="147,77.668 224,81.478 224,76 147,76   "/></g><g><polygon points="147,72.668 224,76.478 224,71 147,71   "/></g><g><path d="M124.118,132c1.297,14,9.621,27.221,21.511,34.361c0.104,0.59,0.238,0.799,0.4,1.364c0.475,0.936,1.189,1.274,2.097,2.274    h38.463c0.906-1,1.621-1.646,2.098-2.58c0.178-0.629,0.314-0.632,0.424-1.283C200.83,158.956,209.021,146,210.305,132H124.118z"/></g><g><g><g><path d="M26.623,53.661l-1.385-2.191c0.082-0.053,8.3-5.329,8.3-11.345c0-2.204-1.011-2.532-3.112-3.698      C28.094,35.133,24.939,33,24.654,28h-0.02l0.02-1.182c0.285-5.711,3.439-7.628,5.771-8.922c2.102-1.167,3.112-1.909,3.112-4.113      c0-5.805-6.188-7.894-6.25-7.914l0.79-2.491c2.785,0.891,8.053,4.19,8.053,10.333c0,3.829-2.362,5.134-4.447,6.292      c-2.32,1.288-4.332,2.404-4.451,6.914c0.119,4.511,2.133,5.626,4.451,6.914c2.085,1.157,4.447,2.467,4.447,6.295      C36.131,47.573,27.011,53.417,26.623,53.661z"/></g><g><path d="M36.303,49.891l-0.764-2.479c0.191-0.061,4.686-1.559,4.686-7.287c0-2.196-1.035-2.524-3.188-3.691      C34.653,35.14,31.429,33,31.139,28h-0.021l0.021-1.182c0.29-5.721,3.514-7.635,5.897-8.929c2.153-1.168,3.188-1.91,3.188-4.106      c0-5.812-6.006-7.897-6.066-7.917l0.811-2.484c2.715,0.893,7.849,4.193,7.849,10.329c0,3.837-2.415,5.142-4.544,6.297      c-2.375,1.289-4.437,2.406-4.559,6.908c0.122,4.502,2.184,5.619,4.559,6.908c2.129,1.156,4.544,2.465,4.544,6.302      C42.817,46.278,38.556,49.203,36.303,49.891z"/></g><g><path d="M40.703,53.663l-1.379-2.195c0.084-0.053,8.355-5.329,8.355-11.343c0-2.307-1.154-2.625-3.068-3.702      C42.311,35.128,39.197,33,38.916,28h-0.02l0.02-1.182c0.281-5.707,3.394-7.624,5.695-8.918c1.914-1.077,3.068-1.81,3.068-4.117      c0-5.763-6.105-7.83-6.365-7.913l0.783-2.493c2.826,0.89,8.175,4.188,8.175,10.334c0,3.824-2.332,5.13-4.39,6.288      c-2.287,1.287-4.271,2.402-4.389,6.917c0.117,4.516,2.102,5.631,4.389,6.918c2.058,1.157,4.39,2.468,4.39,6.292      C50.272,47.576,41.094,53.419,40.703,53.663z"/></g></g><g><polygon points="26,10.935 100,14.611 100,8 26,8    "/></g><g><polygon points="26,4.452 100,8.129 100,2 26,2    "/></g><g><g><path d="M36.422,74.204c-19.27,0-35.034-6.045-36.326-13.694C0.039,61.102,0,61.694,0,62.297c0,14.312,9.805,31.52,36.422,31.52      s36.423-17.207,36.423-31.52c0-0.603-0.04-1.195-0.096-1.787C71.458,68.159,55.691,74.204,36.422,74.204z"/></g><g><path d="M1.146,61.421C5.191,55.077,19.451,50.39,36.422,50.39c16.972,0,31.231,4.688,35.275,11.031      c0.137,0.378,0.224,0.77,0.334,1.153c0.356-0.673,0.6-1.361,0.718-2.064c-0.154-1.608-0.505-3.178-1.052-4.692      c-4.044-6.344-18.304-11.031-35.275-11.031c-16.971,0-31.23,4.688-35.275,11.031C0.6,57.332,0.25,58.901,0.096,60.51      c0.119,0.703,0.363,1.392,0.717,2.063C0.924,62.189,1.01,61.799,1.146,61.421z"/></g></g><g><path d="M4.865,68.977l-1.951-1.706c0.377-0.432,9.061-10.596,14.413-13.272C22.447,51.438,33,48.676,41,48.676v2.593     c-7,0-17.656,2.621-22.514,5.05C13.588,58.767,4.955,68.876,4.865,68.977z"/></g><g><path d="M12.695,72.805l-2.053-1.583c0.402-0.522,9.996-12.839,15.701-16.079C31.818,52.032,43,48.676,52,48.676v2.593     c-8,0-19.187,3.181-24.375,6.128C22.371,60.381,12.792,72.681,12.695,72.805z"/></g><g><path d="M21.771,75.397l-2.054-1.582c0.403-0.523,9.958-12.839,15.663-16.079C40.855,54.625,52,51.269,61,51.269v2.593     c-8,0-19.148,3.181-24.338,6.129C31.409,62.975,21.867,75.273,21.771,75.397z"/></g><g><path d="M29.551,76.694l-2.054-1.583c0.403-0.522,10.068-12.839,15.773-16.079C48.746,55.922,60,52.565,69,52.565v2.593     c-9,0-19.26,3.181-24.448,6.128C39.299,64.271,29.646,76.57,29.551,76.694z"/></g><g><path d="M68.936,74.031c-0.04-0.061-4.314-6.131-7.953-8.609C57.395,62.98,51,60.345,44,60.345v-2.594     c7,0,14.536,2.869,18.441,5.528c4.057,2.762,8.381,9.043,8.56,9.309L68.936,74.031z"/></g><g><path d="M71.084,63.646C67.465,61.186,60,57.751,53,57.751v-2.593c7,0,15.621,3.75,19.432,6.344L71.084,63.646z"/></g><g><path d="M64.984,79.115c-0.033-0.062-3.381-6.251-7.326-8.614C53.664,68.111,45,65.53,39,65.53v-2.593     c7,0,15.701,2.771,19.99,5.341c4.557,2.728,8.146,9.318,8.299,9.599L64.984,79.115z"/></g><g><path d="M55.861,82.907c-0.027-0.061-2.779-6.245-5.943-8.586C46.717,71.955,40,69.42,35,69.42v-2.593     c6,0,12.941,2.809,16.461,5.409c3.719,2.752,6.648,9.348,6.771,9.628L55.861,82.907z"/></g></g></g><text x="0" y="115" fill="#000000" font-size="5px" font-weight="bold" font-family="'Helvetica Neue', Helvetica, Arial-Unicode, Arial, Sans-serif"></text><text x="0" y="120" fill="#000000" font-size="5px" font-weight="bold" font-family="'Helvetica Neue', Helvetica, Arial-Unicode, Arial, Sans-serif"></text></svg>
