<svg xmlns="http://www.w3.org/2000/svg" xmlns:xlink="http://www.w3.org/1999/xlink" version="1.1" x="0px" y="0px" viewBox="0 0 100 125" enable-background="new 0 0 100 100" xml:space="preserve"><g><rect x="29.286" y="42.19" width="17.143" height="52.55"/><rect x="53.571" y="56.429" width="17.143" height="38.312"/><rect x="77.857" y="32.402" width="17.143" height="62.338"/><rect x="5" y="62.018" width="17.143" height="32.723"/><path d="M13.572,49.16c3.944,0,7.142-3.198,7.142-7.14c0-0.935-0.192-1.823-0.519-2.642L33.94,28.156   c1.126,0.739,2.469,1.177,3.917,1.177c1.838,0,3.497-0.714,4.763-1.854l12.575,7.397c-0.12,0.516-0.195,1.047-0.195,1.6   c0,3.945,3.197,7.143,7.143,7.143s7.144-3.197,7.144-7.143c0-1.178-0.313-2.272-0.818-3.252l14.654-14.526   c0.993,0.523,2.106,0.847,3.307,0.847c3.945,0,7.143-3.198,7.143-7.14c0-3.945-3.197-7.146-7.143-7.146s-7.143,3.201-7.143,7.146   c0,1.177,0.313,2.272,0.817,3.252L65.449,30.18c-0.993-0.523-2.106-0.847-3.307-0.847c-1.839,0-3.496,0.714-4.763,1.854   l-12.575-7.396C44.923,23.274,45,22.743,45,22.19c0-3.945-3.198-7.143-7.142-7.143c-3.945,0-7.144,3.198-7.144,7.143   c0,0.936,0.192,1.823,0.518,2.642L17.49,36.053c-1.126-0.741-2.47-1.179-3.917-1.179c-3.945,0-7.144,3.2-7.144,7.146   C6.429,45.962,9.627,49.16,13.572,49.16z"/></g><text x="0" y="115" fill="#000000" font-size="5px" font-weight="bold" font-family="'Helvetica Neue', Helvetica, Arial-Unicode, Arial, Sans-serif">Created by DesignNex</text><text x="0" y="120" fill="#000000" font-size="5px" font-weight="bold" font-family="'Helvetica Neue', Helvetica, Arial-Unicode, Arial, Sans-serif">from the Noun Project</text></svg>