<svg xmlns:dc="http://purl.org/dc/elements/1.1/" xmlns:cc="http://creativecommons.org/ns#" xmlns:rdf="http://www.w3.org/1999/02/22-rdf-syntax-ns#" xmlns:svg="http://www.w3.org/2000/svg" xmlns="http://www.w3.org/2000/svg" xmlns:sodipodi="http://sodipodi.sourceforge.net/DTD/sodipodi-0.dtd" xmlns:inkscape="http://www.inkscape.org/namespaces/inkscape" version="1.1" x="0px" y="0px" viewBox="0 0 100 125"><g transform="translate(0,-952.36218)"><path style="opacity:1;color:#000000;fill:#000000;stroke:none;stroke-width:4;stroke-linecap:round;stroke-linejoin:round;stroke-miterlimit:4;stroke-opacity:1;stroke-dasharray:none;stroke-dashoffset:0;marker:none;visibility:visible;display:inline;overflow:visible;enable-background:accumulate" d="M 14 8 C 11.230001 8 9 10.23 9 13 L 9 55 C 9 57.77 11.230001 60 14 60 L 86 60 C 88.769999 60 91 57.77 91 55 L 91 13 C 91 10.23 88.769999 8 86 8 L 14 8 z M 54.96875 19.9375 C 56.304963 19.89385 57.397763 21.488267 56.875 22.71875 L 46.875 48.71875 C 46.496457 49.697515 45.261139 50.250624 44.28125 49.875 C 43.301361 49.499376 42.752299 48.262254 43.125 47.28125 L 53.125 21.28125 C 53.637036 20.45569 54.147184 19.956544 54.96875 19.9375 z M 61.5 24.9375 C 61.931671 24.877352 62.402611 24.978629 62.90625 25.1875 L 78.90625 33.1875 C 79.574684 33.514359 80.03125 34.25593 80.03125 35 C 80.03125 35.74407 79.574684 36.454391 78.90625 36.78125 L 62.90625 44.78125 C 61.965408 45.255761 60.693261 44.815845 60.21875 43.875 C 59.744238 42.934158 60.152906 41.662011 61.09375 41.1875 L 73.5 35 L 61.09375 28.78125 C 60.29704 28.417886 59.788956 27.487969 59.9375 26.625 C 60.182265 25.566751 60.780548 25.037747 61.5 24.9375 z M 38 25 C 38.928661 25.045729 39.827092 25.704562 40 26.5 C 40.21099 27.387615 39.733328 28.396127 38.90625 28.78125 L 26.5 35 L 38.90625 41.1875 C 39.847092 41.662011 40.255762 42.934158 39.78125 43.875 C 39.306739 44.815841 38.034592 45.255761 37.09375 44.78125 L 21.09375 36.78125 C 20.425316 36.454391 19.96875 35.74407 19.96875 35 C 19.96875 34.25593 20.425316 33.514359 21.09375 33.1875 L 37.09375 25.1875 C 37.383689 25.051744 37.690446 24.984757 38 25 z M 40.84375 64 L 35 74 L 65 74 L 59.15625 64 L 40.84375 64 z M 20 82 L 15 92 L 85 92 L 80 82 L 20 82 z " transform="translate(0,952.36218)"/></g><text x="0" y="115" fill="#000000" font-size="5px" font-weight="bold" font-family="'Helvetica Neue', Helvetica, Arial-Unicode, Arial, Sans-serif"></text><text x="0" y="120" fill="#000000" font-size="5px" font-weight="bold" font-family="'Helvetica Neue', Helvetica, Arial-Unicode, Arial, Sans-serif"></text></svg>
