<svg xmlns="http://www.w3.org/2000/svg" xmlns:xlink="http://www.w3.org/1999/xlink" version="1.1" x="0px" y="0px" viewBox="0 0 100 125" enable-background="new 0 0 100 100" xml:space="preserve"><path d="M83,21.33v0.006L68.664,7h0.006l-2-2h-1.639H15v70v20h70V75V24.969V23.33L83,21.33z M67.031,8.195l14.773,14.773H67.031  V8.195z M44.508,91l-1.462-2.533c-0.595-0.969-0.969-1.598-1.326-2.261h-0.034c-0.323,0.663-0.646,1.275-1.241,2.278L39.069,91h-1.7  l3.502-5.797l-3.366-5.66h1.717l1.513,2.686c0.425,0.748,0.748,1.326,1.054,1.938h0.051c0.323-0.681,0.612-1.207,1.037-1.938  l1.563-2.686h1.7l-3.485,5.575L46.225,91H44.508z M54.316,91h-6.374V79.543h1.479v10.216h4.895V91z M58.312,91.17  c-1.105,0-2.312-0.323-2.924-0.73l0.374-1.241c0.663,0.408,1.632,0.748,2.651,0.748c1.514,0,2.396-0.799,2.396-1.955  c0-1.071-0.611-1.683-2.158-2.277c-1.869-0.663-3.025-1.632-3.025-3.247c0-1.785,1.479-3.11,3.705-3.11  c1.174,0,2.023,0.271,2.533,0.561l-0.408,1.207c-0.374-0.204-1.139-0.544-2.176-0.544c-1.564,0-2.158,0.935-2.158,1.717  c0,1.071,0.696,1.598,2.277,2.21c1.938,0.748,2.924,1.683,2.924,3.365C62.324,89.641,61.016,91.17,58.312,91.17z M83,75H17V7h48.031  v17.969H83V75z"/><rect x="27.5" y="57.438" width="9.426" height="6.312"/><rect x="39.357" y="57.438" width="9.427" height="6.312"/><rect x="51.216" y="57.438" width="9.427" height="6.312"/><rect x="63.074" y="57.438" width="9.426" height="6.312"/><rect x="27.5" y="47.438" width="9.426" height="6.312"/><rect x="39.357" y="47.438" width="9.427" height="6.312"/><rect x="51.216" y="47.438" width="9.427" height="6.312"/><rect x="63.074" y="47.438" width="9.426" height="6.312"/><rect x="27.5" y="37.438" width="9.426" height="6.312"/><rect x="39.357" y="37.438" width="9.427" height="6.312"/><rect x="51.216" y="37.438" width="9.427" height="6.312"/><rect x="63.074" y="37.438" width="9.426" height="6.312"/><rect x="27.5" y="27.438" width="9.426" height="6.312"/><rect x="39.357" y="27.438" width="9.427" height="6.312"/><rect x="51.216" y="27.438" width="9.427" height="6.312"/><rect x="63.074" y="27.438" width="9.426" height="6.312"/><text x="0" y="115" fill="#000000" font-size="5px" font-weight="bold" font-family="'Helvetica Neue', Helvetica, Arial-Unicode, Arial, Sans-serif">Created by Ben Avery</text><text x="0" y="120" fill="#000000" font-size="5px" font-weight="bold" font-family="'Helvetica Neue', Helvetica, Arial-Unicode, Arial, Sans-serif">from the Noun Project</text></svg>