<svg xmlns="http://www.w3.org/2000/svg" xmlns:xlink="http://www.w3.org/1999/xlink" version="1.1" x="0px" y="0px" viewBox="0 0 100 125" enable-background="new 0 0 100 100" xml:space="preserve"><path d="M83,21.33v0.006L68.664,7h0.006l-2-2h-1.639H15v70v20h70V75V24.969V23.33L83,21.33z M67.031,8.195l14.773,14.773H67.031  V8.195z M39.196,91H37.7v-5.371h-5.542V91H30.68V79.543h1.479v4.794H37.7v-4.794h1.496V91z M48.937,80.801h-3.502V91h-1.496V80.801  h-3.485v-1.258h8.482V80.801z M60.156,91l-0.289-5.031c-0.085-1.598-0.188-3.519-0.17-4.946h-0.051  c-0.391,1.343-0.867,2.771-1.445,4.352l-2.022,5.558h-1.122l-1.853-5.456c-0.544-1.615-1.003-3.094-1.326-4.453h-0.034  c-0.033,1.428-0.119,3.349-0.221,5.065L51.317,91h-1.411l0.799-11.457h1.887l1.955,5.542c0.477,1.41,0.867,2.668,1.156,3.858h0.051  c0.289-1.156,0.697-2.414,1.207-3.858L59,79.543h1.887L61.602,91H60.156z M70.254,91h-6.373V79.543h1.479v10.216h4.895V91z M83,75  H17V7h48.031v17.969H83V75z"/><path d="M25.378,49.457L42.18,41.65v3.71l-12.707,5.565v0.07l12.707,5.566v3.71l-16.802-7.806V49.457z"/><path d="M44.768,61.673l7.49-25.378h3.536l-7.491,25.378H44.768z"/><path d="M74.624,52.572l-16.802,7.7v-3.71l12.986-5.566v-0.07l-12.986-5.565v-3.71l16.802,7.701V52.572z"/><text x="0" y="115" fill="#000000" font-size="5px" font-weight="bold" font-family="'Helvetica Neue', Helvetica, Arial-Unicode, Arial, Sans-serif"></text><text x="0" y="120" fill="#000000" font-size="5px" font-weight="bold" font-family="'Helvetica Neue', Helvetica, Arial-Unicode, Arial, Sans-serif"></text></svg>
