<svg xmlns="http://www.w3.org/2000/svg" xmlns:xlink="http://www.w3.org/1999/xlink" version="1.1" x="0px" y="0px" viewBox="0 0 100 107.625" enable-background="new 0 0 100 86.1" xml:space="preserve"><g><circle cx="84.6" cy="29.5" r="5.8"/><circle cx="26.3" cy="26.4" r="5.8"/><g><path d="M49.6,34.1c-0.5,1.1-0.1,2.3,1,3c1,0.6,2.3,0.3,3-0.6L49.6,34.1z"/><polygon points="57.1,31.3 58.8,26.8 55.6,25 52.5,28.7 46.4,30.9 57.9,37.6   "/></g><path d="M96.4,40.2c-2.2-0.3-4.2,1.3-4.5,3.5l-2.6,18.7h-0.4v0V42.4c0-2.3-1.9-4.2-4.2-4.2c-2.3,0-4.2,1.9-4.2,4.2v16l-10.3,0.7   c-2.2,0.1-3.9,1.9-3.9,4.1l-0.2,17.4c0,0,0,0,0,0h-3.7V56.8h3.9v-5.9h-6.5l9.2-9.2c0.3-0.3,0.3-0.8,0-1.1l-9.8-9.8   c-0.3-0.3-0.8-0.3-1.1,0c-0.3,0.3-0.3,0.8,0,1.1l9.3,9.3l-9.8,9.8H29.9v5.9h3.9v23.8h-2.9c0-0.1,0-0.3-0.1-0.4l-3.2-17.6   c-0.3-1.8-1.8-3.2-3.6-3.4l-3.9-0.4L24.3,43l3.1,4.5c0.6,0.8,1.5,1.3,2.5,1.3c0,0,0,0,0,0l9.5,0c1.6,0,3-1.3,3-3c0-1.6-1.3-3-3-3   c0,0,0,0,0,0l-7.9,0l-5.8-8.7c-0.2-0.3-0.3-0.6-0.6-0.8l0,0c-0.6-0.8-1.4-1.3-2.4-1.3c-2.1-0.4-4.2,0.9-4.7,3l-7.1,26.1   c0,0.1-0.1,0.3-0.1,0.4l-2.5-18c-0.3-2.2-2.3-3.8-4.5-3.5s-3.8,2.3-3.5,4.5l3.1,22.1c0.1,0.9,0.5,1.6,1.1,2.2   c0.7,0.8,1.8,1.4,3,1.4h5.7v10.2H5.4l0,5.3h88.9l0-5.3h-7.7V70.4h5.2c0.3,0,0.6,0,0.9-0.1c2,0,3.7-1.5,4-3.5l3.1-22.1   C100.1,42.5,98.6,40.4,96.4,40.2z M17.2,70.4h3.4l1.8,10.2h-5.3V70.4z M74.4,80.6l0.1-10.2c0.1,0,0.2,0,0.4,0h7.6v10.2H74.4z"/></g><text x="0" y="101.1" fill="#000000" font-size="5px" font-weight="bold" font-family="'Helvetica Neue', Helvetica, Arial-Unicode, Arial, Sans-serif"></text><text x="0" y="106.1" fill="#000000" font-size="5px" font-weight="bold" font-family="'Helvetica Neue', Helvetica, Arial-Unicode, Arial, Sans-serif"></text></svg>
