<svg xmlns="http://www.w3.org/2000/svg" xmlns:xlink="http://www.w3.org/1999/xlink" version="1.1" x="0px" y="0px" viewBox="0 0 100 125" enable-background="new 0 0 100 100" xml:space="preserve"><path d="M49.974,80.631c-0.646,0-1.139,0.051-1.394,0.119v4.453c0.323,0.086,0.731,0.119,1.224,0.119  c1.785,0,2.873-0.866,2.873-2.447C52.677,81.362,51.605,80.631,49.974,80.631z"/><path d="M83,21.33v0.006L68.664,7h0.006l-2-2h-1.639H15v70v20h70V75V24.969V23.33L83,21.33z M67.031,8.195l14.773,14.773H67.031  V8.195z M44.228,85.255c-0.782,0.833-2.057,1.258-3.502,1.258c-0.442,0-0.85-0.018-1.19-0.103V91h-1.479V79.679  c0.714-0.118,1.649-0.221,2.838-0.221c1.462,0,2.533,0.34,3.213,0.952c0.629,0.544,1.003,1.377,1.003,2.396  C45.112,83.844,44.806,84.659,44.228,85.255z M53.271,85.255c-0.781,0.833-2.057,1.258-3.501,1.258c-0.442,0-0.85-0.018-1.19-0.103  V91h-1.479V79.679c0.714-0.118,1.649-0.221,2.838-0.221c1.462,0,2.533,0.34,3.212,0.952c0.629,0.544,1.004,1.377,1.004,2.396  C54.156,83.844,53.85,84.659,53.271,85.255z M58.491,91.17c-1.104,0-2.312-0.323-2.924-0.73l0.374-1.241  c0.663,0.408,1.632,0.748,2.652,0.748c1.512,0,2.396-0.799,2.396-1.955c0-1.071-0.612-1.683-2.159-2.277  c-1.87-0.663-3.025-1.632-3.025-3.247c0-1.785,1.479-3.11,3.706-3.11c1.172,0,2.021,0.271,2.532,0.561l-0.408,1.207  c-0.374-0.204-1.139-0.544-2.176-0.544c-1.563,0-2.159,0.935-2.159,1.717c0,1.071,0.697,1.598,2.278,2.21  c1.938,0.748,2.924,1.683,2.924,3.365C62.503,89.641,61.193,91.17,58.491,91.17z M83,75H17V7h48.031v17.969H83V75z"/><path d="M40.93,80.631c-0.646,0-1.139,0.051-1.394,0.119v4.453c0.323,0.086,0.731,0.119,1.224,0.119  c1.785,0,2.873-0.866,2.873-2.447C43.633,81.362,42.562,80.631,40.93,80.631z"/><path d="M54.5,43.5v22h22v-22H54.5z M75.5,64.5h-20v-20h20V64.5z"/><rect x="65.366" y="47.982" width="8.17" height="0.714"/><rect x="65.366" y="51.554" width="8.17" height="0.714"/><rect x="57.465" y="55.125" width="16.071" height="0.714"/><rect x="57.465" y="58.696" width="16.071" height="0.715"/><path d="M60.701,46.643c-1.788,0-3.236,1.449-3.236,3.236c0,1.787,1.449,3.236,3.236,3.236c1.771,0,3.209-1.425,3.234-3.191h-3.234  V46.643z"/><path d="M61.415,45.929v3.281h3.234c0-0.015,0.002-0.03,0.002-0.044C64.652,47.378,63.203,45.929,61.415,45.929z"/><path d="M70.188,28.186c0-0.162-0.051-0.293-0.111-0.293H50.165V27.28c0.101-0.025,0.174-0.094,0.174-0.175v-0.168  c0-0.103-0.118-0.187-0.263-0.187h-0.257c-0.146,0-0.263,0.084-0.263,0.187v0.167c0,0.081,0.073,0.149,0.174,0.175v0.613H29.816  c-0.061,0-0.11,0.131-0.11,0.293c0,0.162,0.049,0.293,0.11,0.293h0.435v25.086h-0.512c-0.211,0-0.382,0.599-0.382,1.338  s0.171,1.338,0.381,1.338h0.676c0.075,0,0.144-0.076,0.204-0.206h18.764v8.17c-0.322,0.067-0.576,0.167-0.576,0.305v0.38  l-14.734,7.629c-0.091,0.048-0.114,0.191-0.049,0.32l0.123,0.247c0.064,0.129,0.19,0.196,0.282,0.148l10.081-5.218l4.813,2.871  c0.037,0.021,0.079,0.026,0.119,0.018c0.048,0.043,0.121,0.07,0.205,0.07h0.606c0.083,0,0.157-0.028,0.205-0.07  c0.041,0.009,0.083,0.003,0.12-0.019l4.706-2.859l10.057,5.207c0.093,0.048,0.218-0.019,0.282-0.148l0.122-0.247  c0.064-0.129,0.043-0.272-0.049-0.32L54.068,66.5H53.5v-0.295l-2.411-1.248V64.51c0-0.138-0.25-0.237-0.571-0.306  c0,0.005-0.003,0.007-0.006,0.012v-8.181H53.5v-2.239H30.792V28.512h38.292V42.5h0.348h0.13h0.064V28.479h0.451  C70.138,28.479,70.188,28.348,70.188,28.186z M49.381,70.422l-4.423-2.64l3.847-1.992v0.187c0,0.143,0.232,0.269,0.576,0.334V70.422  z M50.512,66.311c0.345-0.065,0.577-0.191,0.577-0.334v-0.119l3.745,1.939l-4.322,2.625V66.311z"/><text x="0" y="115" fill="#000000" font-size="5px" font-weight="bold" font-family="'Helvetica Neue', Helvetica, Arial-Unicode, Arial, Sans-serif">Created by Ben Avery</text><text x="0" y="120" fill="#000000" font-size="5px" font-weight="bold" font-family="'Helvetica Neue', Helvetica, Arial-Unicode, Arial, Sans-serif">from the Noun Project</text></svg>