<svg xmlns="http://www.w3.org/2000/svg" xmlns:xlink="http://www.w3.org/1999/xlink" version="1.1" x="0px" y="0px" viewBox="0 0 100 125" style="enable-background:new 0 0 100 100;" xml:space="preserve"><g><path d="M54.4,27.2c0-2.2-1.8-4-4-4h-2.6c-2.2,0-4,1.8-4,4v3.5h10.6L54.4,27.2L54.4,27.2z"/></g><g><path d="M49.1,22.6c1.9,0,3.4-1.5,3.4-3.4c0-1.9-1.5-3.4-3.4-3.4c-1.9,0-3.4,1.5-3.4,3.4C45.6,21.1,47.2,22.6,49.1,22.6z"/></g><g><path d="M22.4,84.3h55.2c0.9-1.5,1.8-3.1,2.4-4.8c-0.5-0.1-1-0.2-1.5-0.2c-4.9-0.7-10.8-1.3-17.2-1.6c-1.2-0.1-2.4-0.1-3.7-0.1   c-5.6-0.2-11.3-0.2-16.8,0c-1,0-2,0.1-3,0.1c-6.4,0.3-12.4,0.9-17.2,1.7l-0.8,0.1C20.6,81.1,21.4,82.7,22.4,84.3z"/></g><g><path d="M29.5,43.8c3.1,0,5.7,2.5,5.7,5.7c0,1.2-0.4,2.3-1,3.2c-1.2-1.2-2.8-2-4.7-2c-1.8,0-3.5,0.8-4.7,2c-0.6-0.9-1-2-1-3.2   C23.8,46.3,26.4,43.8,29.5,43.8"/></g><g><path d="M49.3,42.7c1.9,0,3.7,0.8,4.9,2.2l2.5-13.3h-2.4H43.8h-2.4l2.8,13.7C45.4,43.6,47.3,42.7,49.3,42.7z"/></g><g><path d="M49.3,43.8c-2.1,0-3.9,1.1-4.9,2.8c-0.5,0.9-0.8,1.9-0.8,2.9c0,1.2,0.4,2.3,1,3.2c1.2-1.2,2.8-2,4.7-2c1.8,0,3.5,0.8,4.7,2   c0.6-0.9,1-2,1-3.2c0-1.1-0.3-2.1-0.9-3C53.2,44.9,51.4,43.8,49.3,43.8z"/></g><g><path d="M65.2,52.7c1.2-1.2,2.8-2,4.7-2c1.8,0,3.5,0.8,4.7,2c0.6-0.9,1-2,1-3.2c0-3.1-2.6-5.7-5.7-5.7c-3.1,0-5.7,2.5-5.7,5.7   C64.1,50.7,64.5,51.8,65.2,52.7z"/></g><g><path d="M24.2,60.8c-0.6-0.9-1-2-1.1-3.1c-1.3,1.1-2.2,2.7-2.4,4.6c0.9-0.1,1.9-0.3,2.9-0.4C23.8,61.5,24,61.2,24.2,60.8z"/></g><g><path d="M34.8,60.8c1-0.1,2.1-0.1,3.1-0.2c-0.4-1.2-1.1-2.2-2-2.9C35.8,58.9,35.5,59.9,34.8,60.8C34.8,60.8,34.8,60.8,34.8,60.8z"/></g><g><path d="M55.8,57.8c-0.1,1-0.4,1.9-0.9,2.7c0.9,0,1.9,0,2.8,0.1C57.3,59.4,56.6,58.5,55.8,57.8z"/></g><g><path d="M42.9,57.8c-0.9,0.7-1.6,1.7-2,2.8c0.9,0,1.9-0.1,2.8-0.1C43.3,59.6,43,58.7,42.9,57.8z"/></g><g><path d="M63.4,57.7c-0.9,0.8-1.6,1.7-2,2.9c1.1,0,2.1,0.1,3.1,0.2C63.9,59.9,63.5,58.9,63.4,57.7z"/></g><g><path d="M29.5,58c1.9,0,3.6,0.8,4.8,2.2c0.5-0.9,0.9-1.9,0.9-3c0,0,0,0,0,0c0-0.2,0-0.3,0-0.4c0-0.2,0-0.3-0.1-0.5   c-0.1-0.9-0.5-1.6-0.9-2.3c-0.1-0.1-0.2-0.2-0.2-0.3c-0.1-0.1-0.2-0.2-0.3-0.3c-1-1.1-2.5-1.8-4.2-1.8c-1.7,0-3.1,0.7-4.2,1.8   c-0.1,0.1-0.2,0.2-0.3,0.3c-0.1,0.1-0.2,0.2-0.2,0.3c-0.5,0.7-0.8,1.5-0.9,2.3c0,0.2,0,0.3-0.1,0.5c0,0.1,0,0.3,0,0.4c0,0,0,0,0,0   c0,1.1,0.3,2.1,0.9,3C25.9,58.9,27.6,58,29.5,58z"/></g><g><path d="M49.3,58c1.9,0,3.6,0.8,4.8,2.2c0.5-0.9,0.9-1.9,0.9-3c0,0,0,0,0,0c0-0.1,0-0.3,0-0.4c0-0.2,0-0.3-0.1-0.5   c-0.1-0.9-0.5-1.7-0.9-2.3c-0.1-0.1-0.2-0.2-0.2-0.3c-0.1-0.1-0.2-0.2-0.3-0.3c-1-1.1-2.5-1.8-4.2-1.8c-1.7,0-3.1,0.7-4.2,1.8   c-0.1,0.1-0.2,0.2-0.3,0.3c-0.1,0.1-0.2,0.2-0.2,0.3c-0.5,0.7-0.8,1.5-0.9,2.3c0,0.2,0,0.3-0.1,0.5c0,0.1,0,0.3,0,0.4c0,0,0,0,0,0   c0,1.1,0.3,2.1,0.9,3C45.7,58.9,47.4,58,49.3,58z"/></g><g><path d="M35.9,65.4c-0.2,1.2-0.7,2.3-1.4,3.2c1.1-0.1,2.3-0.1,3.4-0.2C37.6,67.2,36.8,66.2,35.9,65.4z"/></g><g><path d="M23.1,65.4c-1.4,1.1-2.3,2.8-2.4,4.6c1.4-0.2,3-0.4,4.6-0.6C24.1,68.4,23.3,67,23.1,65.4z"/></g><g><path d="M43,65.4c-0.9,0.7-1.6,1.7-2,2.8c1,0,2-0.1,3.1-0.1C43.5,67.4,43.1,66.4,43,65.4z"/></g><g><path d="M55.7,65.4c-0.1,1-0.5,1.9-1,2.7c1,0,2,0,3,0.1C57.3,67.1,56.6,66.1,55.7,65.4z"/></g><g><path d="M63.5,65.4c-0.9,0.8-1.6,1.8-2.1,2.9c1.2,0.1,2.3,0.1,3.4,0.2C64.1,67.6,63.6,66.6,63.5,65.4z"/></g><g><path d="M76.2,65.4c-0.2,1.6-1,2.9-2.1,3.9c1.6,0.2,3.1,0.4,4.5,0.6C78.5,68.1,77.6,66.5,76.2,65.4z"/></g><g><path d="M33.4,68.6c1-1,1.7-2.3,1.8-3.8c0-0.1,0-0.3,0-0.4c0,0,0,0,0,0c0-0.2,0-0.3,0-0.5c-0.1-0.9-0.3-1.7-0.8-2.4   c0-0.1-0.1-0.1-0.1-0.2c0-0.1-0.1-0.1-0.1-0.2c0,0-0.1-0.1-0.1-0.1C34,61.1,34,61,33.9,60.9c0,0,0,0-0.1-0.1c-1-1.2-2.6-2-4.4-2   s-3.3,0.8-4.4,2c-0.1,0.1-0.2,0.2-0.2,0.3c-0.1,0.1-0.2,0.2-0.2,0.3c-0.1,0.1-0.1,0.2-0.2,0.3c-0.1,0.1-0.1,0.3-0.2,0.4   c-0.1,0.1-0.1,0.3-0.2,0.4c-0.2,0.4-0.3,0.9-0.3,1.4c0,0.2,0,0.3,0,0.5c0,0,0,0,0,0c0,0.1,0,0.3,0,0.4c0.1,1.8,1.1,3.4,2.6,4.4   c0.2,0.1,0.4,0.2,0.6,0.3c0.2,0.1,0.5,0.2,0.7,0.3c0.6,0.2,1.2,0.3,1.8,0.3c1,0,1.9-0.2,2.7-0.7c0.2-0.1,0.5-0.3,0.7-0.4   C33.1,68.9,33.2,68.8,33.4,68.6z"/></g><g><polygon points="34.8,60.8 34.8,60.8 34.8,60.8  "/></g><g><path d="M55,64.5C55,64.5,55,64.5,55,64.5c0-0.2,0-0.3,0-0.5c-0.1-0.9-0.4-1.8-0.8-2.5c-0.1-0.1-0.1-0.2-0.2-0.3c0,0,0,0,0,0   c-0.1-0.1-0.2-0.2-0.2-0.3c0,0,0,0,0-0.1c-0.1-0.1-0.2-0.3-0.4-0.4c-1-1-2.4-1.6-3.9-1.6c-1.5,0-2.9,0.6-4,1.6   c-0.1,0.1-0.3,0.3-0.4,0.4c0,0,0,0,0,0c-0.1,0.1-0.2,0.2-0.2,0.3c0,0,0,0,0,0.1c-0.1,0.1-0.1,0.2-0.2,0.3c-0.5,0.7-0.8,1.6-0.8,2.5   c0,0.2,0,0.3,0,0.5c0,0,0,0,0,0c0,0.1,0,0.3,0,0.4c0.1,1.2,0.6,2.3,1.3,3.2c0.1,0.1,0.2,0.3,0.3,0.4c0.1,0.1,0.3,0.3,0.4,0.4   c1,0.8,2.2,1.3,3.6,1.3c1.4,0,2.7-0.5,3.6-1.3c0.1-0.1,0.3-0.2,0.4-0.4c0.1-0.1,0.2-0.2,0.3-0.4c0.7-0.9,1.2-2,1.3-3.2   C55,64.8,55,64.6,55,64.5z"/></g><g><path d="M75.7,61.8c1,0.1,2,0.3,2.9,0.4c-0.2-1.8-1-3.4-2.4-4.5c-0.1,1.1-0.5,2.2-1.1,3.1C75.4,61.1,75.5,61.5,75.7,61.8z"/></g><g><path d="M69.8,58c1.9,0,3.6,0.8,4.8,2.2c0.6-0.9,0.9-1.9,0.9-3c0,0,0,0,0,0c0-0.2,0-0.3,0-0.5c0-0.2,0-0.3-0.1-0.5   c-0.1-0.9-0.5-1.6-0.9-2.3c-0.1-0.1-0.2-0.2-0.2-0.3c-0.1-0.1-0.2-0.2-0.3-0.3c-1-1.1-2.5-1.8-4.2-1.8s-3.1,0.7-4.2,1.8   c-0.1,0.1-0.2,0.2-0.3,0.3c-0.1,0.1-0.2,0.2-0.2,0.3c-0.5,0.7-0.8,1.5-0.9,2.3c0,0.2,0,0.3-0.1,0.5c0,0.1,0,0.3,0,0.4c0,0,0,0,0,0   c0,1.1,0.3,2.1,0.9,3C66.2,58.9,67.9,58,69.8,58z"/></g><g><path d="M73,69.2c1.4-1,2.4-2.5,2.5-4.3c0-0.1,0-0.3,0-0.4c0,0,0,0,0-0.1c0-0.2,0-0.3,0-0.5c-0.1-0.5-0.2-1-0.3-1.4   c-0.1-0.1-0.1-0.3-0.2-0.4c-0.1-0.1-0.2-0.3-0.2-0.4c0-0.1-0.1-0.2-0.1-0.2c-0.1-0.1-0.1-0.2-0.2-0.3c-0.1-0.1-0.1-0.2-0.2-0.3   c-1-1.2-2.6-2-4.4-2c-1.8,0-3.3,0.8-4.4,2c0,0,0,0,0,0c-0.1,0.1-0.1,0.2-0.2,0.3c0,0,0,0.1-0.1,0.1c-0.1,0.1-0.1,0.2-0.2,0.2   c0,0,0,0.1-0.1,0.1c-0.4,0.7-0.7,1.5-0.8,2.4c0,0.2,0,0.3,0,0.5c0,0,0,0,0,0c0,0.1,0,0.3,0,0.4c0.1,1.4,0.7,2.7,1.7,3.7   c0.2,0.1,0.3,0.3,0.5,0.4c0.2,0.2,0.4,0.3,0.6,0.4c0.8,0.5,1.8,0.7,2.8,0.7c0.7,0,1.3-0.1,1.9-0.3c0.3-0.1,0.5-0.2,0.7-0.3   C72.7,69.4,72.9,69.3,73,69.2z"/></g><g><path d="M38,76.1l0.5,0l-0.2-0.5c-1-2.8-3.6-4.7-6.6-4.7h-4.4c-3.6,0-6.7,2.8-7,6.5l0,0.5l0.5-0.1C25.6,77,31.6,76.4,38,76.1z"/></g><g><path d="M50,75.8c2.6,0,5.1,0,7.7,0.1l0.6,0l-0.2-0.5c-1-2.7-3.7-4.5-6.5-4.5h-4.4c-2.9,0-5.6,1.8-6.6,4.6L40.4,76l0.6,0   C43.9,75.8,47,75.8,50,75.8z"/></g><g><path d="M78.6,77.6l0.5,0.1l0-0.5c-0.3-3.6-3.3-6.4-7-6.4h-4.4c-3,0-5.6,1.9-6.6,4.7L60.9,76l0.5,0C67.7,76.3,73.7,76.9,78.6,77.6z   "/></g><text x="0" y="115" fill="#000000" font-size="5px" font-weight="bold" font-family="'Helvetica Neue', Helvetica, Arial-Unicode, Arial, Sans-serif"></text><text x="0" y="120" fill="#000000" font-size="5px" font-weight="bold" font-family="'Helvetica Neue', Helvetica, Arial-Unicode, Arial, Sans-serif"></text></svg>
