<svg xmlns="http://www.w3.org/2000/svg" xmlns:xlink="http://www.w3.org/1999/xlink" version="1.1" x="0px" y="0px" viewBox="0 0 100 125" style="enable-background:new 0 0 100 100;" xml:space="preserve"><path d="M24,62.3c-0.3,0.9-1.1,1.4-1.9,1.4c-0.2,0-0.4,0-0.6-0.1c-3.9-1.2-6.7-5.3-6.7-9.9v-24l-8.7-4.3c-0.7-0.3-1.1-1-1.1-1.8  s0.4-1.5,1.1-1.8l8.7-4.3v-2.2C14.8,9.6,19,5,24,5h52.8C81.9,5,86,9.6,86,15.3v28.4c0,1.1-0.9,2-2,2s-2-0.9-2-2V15.3  c0-3.5-2.3-6.3-5.2-6.3H24c-2.8,0-5.2,2.8-5.2,6.3v3.4c0,0.8-0.4,1.5-1.1,1.8l-6.2,3.1l6.2,3.1c0.7,0.3,1.1,1,1.1,1.8v25.2  c0,2.9,1.6,5.4,3.9,6.1C23.8,60.2,24.4,61.3,24,62.3z M95,67.9c0-2.5-1.1-4.5-2-5.7c1.1-2.6,1.1-6.6-2.9-9.6  C86,49.4,79.5,50.1,74.3,51c-0.3,0-0.6,0.1-1.3,0.3c-0.6,0.2-2.1,0.6-3.2,0.8c0.1-0.9,0.3-2.1,0.5-2.9c0.1-0.3,0.1-0.7,0.2-1  c0.3-1.3,0.6-2.5,1-3.8c0.1-0.5,0.3-0.9,0.4-1.4l0-0.1c1.1-3.8,2.6-8.9,0.1-13c-1.1-1.9-3-3.4-5.1-4.2c-3.7-1.4-5,0-5.5,1  c-0.9,1.7-1.2,3.7-1.6,5.5c-0.2,1.2-0.5,2.4-0.8,3.4c-1,3-2.5,5.9-3.8,8.6l-0.1,0.1c-1.7,3.2-3.4,6.6-5.5,9.5  c-1.3,1.9-2.9,3.5-4.5,5.3c-0.4,0.4-0.8,0.8-1.2,1.3c-1-0.7-2.1-1-3.4-1H33c-3.3,0-6,2.7-6,6V88c0,3.3,2.7,6,6,6h7.5  c1,0,1.9-0.2,2.7-0.7c2.9,0.1,6.4,0.4,10,0.7c5.6,0.5,11.9,1,17.1,1c1.5,0,3,0,4.3-0.1c4.5-0.3,10.8-1.2,13.7-5  c1.1-1.5,1.8-3.4,1.8-5.7c0-0.2,0-0.3-0.1-1.2c3.4-2.7,3.1-7.5,2.7-9.7C94.2,71.6,95,69.9,95,67.9z"/><text x="0" y="115" fill="#000000" font-size="5px" font-weight="bold" font-family="'Helvetica Neue', Helvetica, Arial-Unicode, Arial, Sans-serif"></text><text x="0" y="120" fill="#000000" font-size="5px" font-weight="bold" font-family="'Helvetica Neue', Helvetica, Arial-Unicode, Arial, Sans-serif"></text></svg>
