<svg xmlns="http://www.w3.org/2000/svg" xmlns:xlink="http://www.w3.org/1999/xlink" version="1.1" x="0px" y="0px" viewBox="0 0 52 65" style="enable-background:new 0 0 52 52;" xml:space="preserve"><g><path d="M39.5899963,22.5800171h-1.5800171c-0.5211182,0-0.9395752,0.4082642-0.9833984,0.9185181h-1.8565674v-2.6585083   c0-0.5500488-0.4400024-1-1-1h-7.1696167v-3.1200562h5.3596191c0.5499878,0,1-0.4499512,1-1v-4.0699463   c1.3900146-0.4300537,2.4100342-1.7300415,2.4100342-3.2700195V7.3599854c0-1.5299683-1.0200195-2.8399658-2.4100342-3.2600098V3   c0-0.5499878-0.4500122-1-1-1h-12.710022c-0.5499878,0-1,0.4500122-1,1v1.0900269   c-1.3999634,0.4299927-2.4299927,1.7299805-2.4299927,3.2699585v1.0200195c0,1.539978,1.0200195,2.8399658,2.4299927,3.2700195   v4.0699463c0,0.5500488,0.4500122,1,1,1h5.3504028v3.1200562h-7.1004028c-0.5499878,0-1,0.4499512-1,1v2.6585083h-1.9265137   c-0.0438232-0.5102539-0.4623413-0.9185181-0.9834595-0.9185181h-1.5800171c-2.4400024,0-4.4199829,1.9899902-4.4199829,4.4299927   v6.6099854c0,1.9299927,1.5700073,3.5,3.5,3.5s3.5-1.5700073,3.5-3.5v-8.12146h1.9099731v11.6114502c0,0.5599976,0.4500122,1,1,1   h16.2700195c0.5599976,0,1-0.4400024,1-1V25.4985352h1.8400269v8.12146c0,1.9299927,1.5699463,3.5,3.499939,3.5   c1.9300537,0,3.5-1.5700073,3.5-3.5v-6.6099854C44.0099792,24.5700073,42.0299988,22.5800171,39.5899963,22.5800171z    M28.2899475,8.2900391c0.3701172-0.3701172,1.0498047-0.3701172,1.4199219,0   C29.8900452,8.4799805,29.9999084,8.7299805,29.9999084,9c0,0.2597656-0.1098633,0.5200195-0.2900391,0.7099609   C29.519928,9.8896484,29.2596741,10,28.9999084,10c-0.2602539,0-0.5200195-0.1103516-0.7099609-0.2900391   C28.1097717,9.5200195,27.9999084,9.2597656,27.9999084,9C27.9999084,8.7299805,28.1097717,8.4799805,28.2899475,8.2900391z    M23.7098694,9.7099609C23.519928,9.8896484,23.2596741,10,22.9999084,10c-0.2602539,0-0.5200195-0.1103516-0.7099609-0.300293   C22.1097717,9.5200195,21.9999084,9.2597656,21.9999084,9c0-0.2700195,0.1098633-0.5302734,0.2900391-0.7099609   c0.3701172-0.3701172,1.0400391-0.3701172,1.4199219,0C23.8900452,8.4799805,23.9999084,8.7299805,23.9999084,9   C23.9999084,9.2597656,23.8900452,9.5200195,23.7098694,9.7099609z"/><path d="M27.9300232,40.1098633v7.0901489c0,1.539978,1.25,2.7999878,2.789978,2.7999878h1.6600342   c1.539978,0,2.789978-1.2600098,2.789978-2.7999878v-7.2744751c-0.3143921,0.1121216-0.6477661,0.1843262-1.0001831,0.1843262   H27.9300232z"/><path d="M16.8999939,39.9255981v7.3043823C16.8999939,48.7600098,18.1400452,50,19.6700134,50h1.6400146   c1.5200195,0,2.7700195-1.2399902,2.7700195-2.7700195v-7.1201172h-6.1802368   C17.5475159,40.1098633,17.2142639,40.0375977,16.8999939,39.9255981z"/></g><text x="0" y="67" fill="#000000" font-size="5px" font-weight="bold" font-family="'Helvetica Neue', Helvetica, Arial-Unicode, Arial, Sans-serif">Created by Dinosoft Labs</text><text x="0" y="72" fill="#000000" font-size="5px" font-weight="bold" font-family="'Helvetica Neue', Helvetica, Arial-Unicode, Arial, Sans-serif">from the Noun Project</text></svg>