<svg xmlns="http://www.w3.org/2000/svg" xmlns:xlink="http://www.w3.org/1999/xlink" version="1.1" x="0px" y="0px" viewBox="0 0 100 125" enable-background="new 0 0 100 100" xml:space="preserve"><g><g><path d="M82.594,65.955c-1.316-3.564-3.911-7.684-7.036-11.229c0.351-0.047,0.697-0.119,1.037-0.227    c3.251-1.035,5.054-4.521,4.02-7.773c-0.822-2.578-3.19-4.311-5.894-4.311c-0.636,0-1.269,0.098-1.878,0.293    c-1.575,0.5-2.861,1.586-3.62,3.053c-0.444,0.859-0.671,1.789-0.688,2.729c-1.505-0.996-3.147-1.873-4.902-2.508    c0.095-0.09,0.196-0.168,0.288-0.262c2.926-2.926,4.536-6.816,4.535-10.955c-0.002-8.539-6.951-15.486-15.495-15.486    c-4.138,0.002-8.027,1.613-10.952,4.541c-2.925,2.926-4.535,6.816-4.534,10.953c0.001,4.545,1.981,8.625,5.109,11.461    c-1.089,0.438-2.134,0.965-3.126,1.553c-0.538-0.307-1.13-0.537-1.767-0.672c-0.423-0.09-0.855-0.135-1.284-0.135    c-2.902,0-5.447,2.064-6.05,4.908c-0.263,1.244-0.129,2.482,0.313,3.582c-2.834,3.369-5.163,7.168-6.389,10.484    c-2.424,5.244-0.234,10.754,5.341,13.416c1.838,0.877,3.88,1.35,5.961,1.35c5.021,0,10.265-2.748,13.389-9.178    c0.089-0.184,0.223-0.389,0.374-0.604c0.409,0.156,0.848,0.248,1.303,0.248h4.632c0.729,0,1.416-0.217,1.993-0.598    c0.267,0.346,0.493,0.674,0.629,0.953c3.124,6.43,8.367,9.178,13.389,9.178c2.08,0,4.124-0.473,5.961-1.35    C82.828,76.709,85.018,71.199,82.594,65.955z M70.55,49.93c-0.354-1.113-0.254-2.297,0.282-3.336    c0.537-1.037,1.446-1.803,2.561-2.158c0.433-0.137,0.879-0.207,1.328-0.207c1.911,0,3.585,1.225,4.167,3.049    c0.73,2.299-0.544,4.764-2.842,5.494c-0.432,0.139-0.877,0.207-1.325,0.207c-0.358,0-0.717-0.045-1.066-0.133    c-0.179-0.045-0.356-0.033-0.517,0.023c-0.291,0.072-0.568,0.135-0.834,0.189c0.129-0.359,0.02-0.773-0.295-1.02    C71.322,51.5,70.817,50.771,70.55,49.93z M40.475,34.773c-0.001-3.336,1.298-6.473,3.656-8.832    c2.358-2.361,5.494-3.66,8.834-3.662c6.886,0,12.489,5.602,12.491,12.486c0.001,3.338-1.298,6.475-3.657,8.836    c-2.358,2.359-5.495,3.658-8.831,3.66l-0.004,1.5v-1.5C46.079,47.262,40.477,41.66,40.475,34.773z M32.131,52.264    c0.426-2.01,2.225-3.471,4.276-3.471c0.304,0,0.609,0.033,0.908,0.096c2.36,0.502,3.874,2.828,3.375,5.188    c-0.181,0.857-0.611,1.635-1.244,2.244c-0.286,0.277-0.354,0.697-0.19,1.041c-0.266-0.025-0.544-0.061-0.84-0.104    c-0.173-0.043-0.354-0.037-0.527,0.027c-0.761,0.275-1.587,0.334-2.384,0.164C33.146,56.951,31.633,54.625,32.131,52.264z     M50.649,69.375c-0.015,0-0.028-0.006-0.043-0.006c1.663-1.953,3.732-4.381,2.193-6.76c-1.057-1.635-2.428-2.686-3.959-3.086    v-5.428c0-0.996,0.812-1.807,1.809-1.807h4.632c0.997,0,1.809,0.811,1.809,1.807v5.773c-1.147,0.535-2.182,1.453-3.014,2.74    c-1.485,2.297,0.39,4.637,2.018,6.553c-0.248,0.127-0.52,0.213-0.812,0.213H50.649z M75.96,76.664    c-4.783,2.281-11.629,1.244-15.357-6.432c-0.457-0.939-1.229-1.848-2.048-2.807c-0.799-0.938-2.286-2.684-1.959-3.188    c0.591-0.914,1.598-1.977,3.019-1.902c1.476,0.088,3.008,1.396,4,3.42c1.051,2.137,3.186,2.846,4.901,3.416    c1.077,0.357,2.096,0.695,2.675,1.281c0.584,0.59,1.532,0.594,2.122,0.014c0.589-0.584,0.595-1.533,0.013-2.123    c-1.086-1.098-2.562-1.588-3.865-2.02c-1.653-0.549-2.69-0.951-3.153-1.891c-1.488-3.035-3.924-4.938-6.516-5.092    c-0.3-0.018-0.596-0.008-0.889,0.02v-5.266c0-1.996-1.624-3.619-3.621-3.619h-4.632c-1.997,0-3.621,1.623-3.621,3.619v5.254    c-2.57,0.178-4.981,2.07-6.458,5.082c-0.464,0.941-1.501,1.344-3.154,1.893c-1.303,0.432-2.779,0.922-3.865,2.02    c-0.582,0.59-0.576,1.539,0.013,2.123c0.59,0.58,1.539,0.576,2.122-0.014c0.579-0.586,1.598-0.924,2.675-1.281    c1.716-0.57,3.851-1.279,4.902-3.418c0.991-2.021,2.523-3.33,3.999-3.418c1.414-0.074,2.429,0.988,3.019,1.902    c0.327,0.504-1.16,2.25-1.959,3.188c-0.212,0.248-0.419,0.492-0.62,0.734c-0.107,0.088-0.189,0.189-0.247,0.309    c-0.472,0.59-0.893,1.17-1.181,1.764c-3.73,7.676-10.578,8.713-15.357,6.432c-3.394-1.621-5.912-5.186-3.89-9.494    c0.02-0.041,0.036-0.082,0.052-0.123c0.989-2.705,2.911-6.004,5.413-9.096c0.743,0.609,1.636,1.061,2.64,1.271    c0.423,0.09,0.854,0.135,1.283,0.135c0.634,0,1.259-0.098,1.861-0.289c1.449,0.203,2.584,0.225,3.741,0.072    c0.395-0.051,0.71-0.354,0.776-0.746c0.066-0.395-0.132-0.783-0.488-0.963c-0.247-0.123-0.613-0.332-0.939-0.553    c0.537-0.717,0.912-1.541,1.099-2.428c0.338-1.6,0.018-3.184-0.77-4.482c1.275-0.688,2.586-1.221,3.915-1.568    c2.189,1.186,4.694,1.861,7.354,1.861h0.004c2.737-0.002,5.358-0.721,7.672-2.045c0.037,0.012,0.072,0.027,0.111,0.037    c3.162,0.707,6.229,2.527,8.973,4.869c-0.165,0.121-0.321,0.229-0.445,0.307c-0.337,0.213-0.495,0.621-0.391,1.006    s0.448,0.654,0.846,0.668c0.117,0.002,0.233,0.004,0.349,0.004c0.54,0,1.08-0.037,1.649-0.115    c3.799,3.814,6.751,8.457,8.066,12.055c0.016,0.041,0.032,0.082,0.052,0.123C81.872,71.479,79.354,75.043,75.96,76.664z"/><path d="M50.757,42.779l0.54,0.045c0.687,0.059,1.229,0.104,1.755,0.104c0.72,0,1.407-0.086,2.386-0.348    c0.801-0.213,1.277-1.035,1.063-1.834c-0.214-0.803-1.038-1.283-1.835-1.064c-1.188,0.316-1.635,0.279-3.115,0.152l-0.55-0.045    c-0.829-0.053-1.55,0.547-1.617,1.373S49.932,42.711,50.757,42.779z"/><circle cx="52.965" cy="58.424" r="1.884"/><path d="M72.563,37.268c-0.319,0.846-0.609,1.855-0.625,1.908c-0.096,0.334,0.009,0.691,0.268,0.922    c0.168,0.148,0.381,0.227,0.598,0.227c0.117,0,0.235-0.023,0.348-0.07c1.354-0.566,1.741-0.797,2.655-1.342    c0.998,0.176,2.028,0.098,3.003-0.223c3.232-1.076,4.989-4.58,3.917-7.814c-0.842-2.533-3.199-4.234-5.866-4.234    c-0.66,0-1.316,0.105-1.948,0.316c-3.234,1.072-4.991,4.578-3.919,7.812C71.311,35.725,71.848,36.576,72.563,37.268z     M75.479,28.666c0.448-0.15,0.913-0.227,1.381-0.227c1.89,0,3.561,1.207,4.157,3.004c0.761,2.291-0.485,4.775-2.773,5.537    c-0.781,0.256-1.608,0.291-2.396,0.104c-0.258-0.061-0.521-0.004-0.725,0.141l-0.221,0.131c-0.22,0.133-0.403,0.242-0.574,0.34    c0.035-0.088,0.07-0.172,0.104-0.246c0.215-0.389,0.116-0.879-0.239-1.15c-0.698-0.535-1.214-1.26-1.491-2.096    C71.941,31.91,73.188,29.426,75.479,28.666z"/><path d="M27.299,49.539c0.97,0.219,2.24,0.297,2.539,0.312c0.017,0,0.032,0,0.048,0c0.009,0.002,0.015,0.002,0.02,0    c0.501,0,0.907-0.404,0.907-0.906c0-0.254-0.105-0.484-0.273-0.648c-0.58-0.834-0.697-0.977-1.771-2.143    c0.105-0.977-0.024-1.971-0.384-2.902c-0.915-2.361-3.232-3.949-5.766-3.949c-0.767,0-1.521,0.143-2.238,0.422    c-1.541,0.596-2.757,1.758-3.424,3.27c-0.667,1.514-0.705,3.195-0.107,4.738c0.917,2.361,3.237,3.947,5.772,3.947    c0.764,0,1.515-0.141,2.234-0.418C25.809,50.891,26.643,50.301,27.299,49.539z M22.622,49.867c-1.794,0-3.435-1.121-4.083-2.791    c-0.422-1.09-0.396-2.281,0.076-3.35c0.472-1.07,1.331-1.891,2.422-2.312c0.509-0.197,1.041-0.299,1.582-0.299    c1.791,0,3.429,1.121,4.075,2.789c0.295,0.766,0.372,1.59,0.224,2.385c-0.06,0.316,0.054,0.625,0.273,0.828    c0.252,0.273,0.455,0.494,0.624,0.68c-0.211-0.043-0.388-0.088-0.506-0.139c-0.396-0.164-0.853-0.031-1.095,0.324    c-0.496,0.719-1.193,1.27-2.015,1.588C23.692,49.768,23.161,49.867,22.622,49.867z"/><path d="M26.936,37.371c0.986,0.268,2.022,0.289,3.007,0.066c0.945,0.498,1.338,0.705,2.72,1.201    c0.1,0.035,0.203,0.053,0.306,0.053c0.234,0,0.464-0.092,0.637-0.262c0.248-0.244,0.334-0.609,0.221-0.939    c-0.019-0.053-0.359-1.043-0.722-1.871c0.678-0.727,1.17-1.605,1.436-2.576c0.902-3.289-1.038-6.701-4.325-7.604    c-0.538-0.148-1.091-0.223-1.644-0.223c-2.774,0-5.227,1.869-5.963,4.547c-0.438,1.594-0.229,3.262,0.587,4.699    C24.012,35.9,25.339,36.932,26.936,37.371z M24.355,30.244c0.521-1.893,2.254-3.215,4.215-3.215c0.391,0,0.782,0.053,1.163,0.158    c2.324,0.639,3.696,3.051,3.058,5.377c-0.232,0.846-0.708,1.596-1.376,2.168c-0.323,0.277-0.41,0.742-0.208,1.119    c0.044,0.08,0.09,0.172,0.137,0.273c-0.166-0.086-0.346-0.18-0.558-0.291l-0.234-0.125c-0.216-0.137-0.487-0.186-0.748-0.107    c-0.774,0.229-1.606,0.234-2.391,0.021c-1.127-0.311-2.065-1.041-2.643-2.057C24.192,32.551,24.046,31.371,24.355,30.244z"/><circle cx="50.429" cy="53.822" r="0.652"/></g></g><text x="0" y="115" fill="#rgb(250, 250, 250)" font-size="5px" font-weight="bold" font-family="'Helvetica Neue', Helvetica, Arial-Unicode, Arial, Sans-serif"></text><text x="0" y="120" fill="#rgb(250, 250, 250)" font-size="5px" font-weight="bold" font-family="'Helvetica Neue', Helvetica, Arial-Unicode, Arial, Sans-serif"></text></svg>
