<svg xmlns="http://www.w3.org/2000/svg" xmlns:xlink="http://www.w3.org/1999/xlink" version="1.1" x="0px" y="0px" viewBox="0 0 100 125" enable-background="new 0 0 100 100" xml:space="preserve"><g><circle display="none" cx="66.003" cy="42.724" r="1.5"/><circle display="none" cx="75.076" cy="42.833" r="1.5"/><g><path d="M82.538,61.148c4.238-2.768,7.049-7.544,7.049-12.972c0-8.542-6.949-15.49-15.49-15.49s-15.491,6.949-15.491,15.49    c0,0.772,0.024,1.254,0.098,1.71c-1.109,0.154-1.701,0.739-2.007,1.244c-1.171,1.931,0.274,5.017,2.613,9.504    c0.353,0.678,0.692,1.332,0.993,1.938c-0.145,0.025-0.29,0.065-0.428,0.136c-5.521,2.821-12.103,9.301-12.104,24.144    c0,4.728,1.534,8.22,4.322,9.835c1.146,0.664,2.438,0.995,3.87,0.995c2.173,0,4.673-0.773,7.47-2.297    c7.131,1.84,14.168,3.433,20.068,3.432c4.054,0,7.574-0.75,10.219-2.682c2.939-2.147,4.548-5.595,4.78-10.245    C99.1,73.929,92.695,64.318,82.538,61.148z M74.097,35.687c6.887,0,12.49,5.603,12.49,12.49s-5.603,12.491-12.49,12.491    c-2.47,0-4.121-0.411-5.875-1.463c-0.002-0.004-0.003-0.01-0.006-0.014c-2.274-4.647-4.226-7.362-6.254-8.575l0.024-0.008    c-0.358-1.186-0.38-1.257-0.38-2.43C61.606,41.29,67.209,35.687,74.097,35.687z M59.119,52.702    c0.041-0.004,0.094-0.008,0.163-0.008c1.763,0,3.789,2.462,6.376,7.748c1.863,3.807,0.185,10.685-1.592,17.966    c-0.484,1.983-0.966,4.018-1.402,6.043c-2.05-0.297-4.408-0.465-6.374-0.146c1.556-4.573,3.407-8.615,4.852-11.76    c2.133-4.643,3.308-7.201,2.71-8.959c-0.39-1.15-1.18-2.665-2.016-4.268C60.894,57.511,58.972,53.825,59.119,52.702z     M53.597,94.091c-1.823-1.056-2.826-3.626-2.826-7.239c0.001-10.422,3.542-17.789,10.233-21.339c-0.4,1.38-1.474,3.718-2.45,5.844    c-1.758,3.827-4.102,8.955-5.845,14.821c-0.421,0.603-0.638,1.313-0.611,2.104c0.14,4.234,4.481,5.329,6.334,5.796l0.346,0.089    C56.648,94.85,54.887,94.839,53.597,94.091z M95.505,85.741c-0.188,3.754-1.35,6.362-3.554,7.972    c-5.463,3.99-16.991,1.556-28.08-1.311c-0.157-0.069-0.322-0.115-0.493-0.128c-1.267-0.329-2.529-0.662-3.772-0.991l-0.44-0.112    c-2.536-0.64-4.015-1.334-4.07-2.988c0-0.007,0.002-0.009,0.002-0.016c0.027-0.098,0.057-0.193,0.084-0.291    c0.025-0.033,0.044-0.067,0.082-0.098c0.858-0.723,4.127-1.015,9.279,0.049c4.824,0.998,14.985,0.94,18.164,0.647    c0.825-0.076,1.432-0.806,1.356-1.631s-0.804-1.435-1.631-1.356c-2.891,0.267-12.357,0.323-16.961-0.54    c0.423-1.957,0.891-3.933,1.362-5.863c1.412-5.787,2.762-11.332,2.419-15.743c0.246-0.064,0.467-0.116,0.674-0.162    c1.243,0.335,2.585,0.49,4.17,0.49c1.295,0,2.546-0.177,3.75-0.478c0.013,0.002,0.024,0.007,0.037,0.008    C89.03,64.563,96.111,73.623,95.505,85.741z"/><path d="M49.885,56.086c0-2.128-1.731-3.859-3.859-3.859c-2.128,0-3.86,1.731-3.86,3.859s1.731,3.859,3.86,3.859    C48.154,59.946,49.885,58.214,49.885,56.086z M46.026,58.146c-1.136,0-2.06-0.924-2.06-2.06s0.924-2.06,2.06-2.06    c1.135,0,2.059,0.924,2.059,2.06S47.161,58.146,46.026,58.146z"/><path d="M50.621,56.086c0,1.426,1.16,2.586,2.586,2.586c1.426,0,2.585-1.16,2.585-2.586s-1.16-2.586-2.585-2.586    C51.781,53.5,50.621,54.661,50.621,56.086z M53.993,56.086c0,0.434-0.353,0.786-0.786,0.786c-0.434,0-0.787-0.353-0.787-0.786    s0.353-0.786,0.787-0.786C53.641,55.3,53.993,55.653,53.993,56.086z"/><path d="M43.303,50.984c0.134,0.004,0.268,0.006,0.4,0.006h0c7.084,0,12.808-5.662,13.031-12.891    c0.142-4.605-2.003-8.838-5.678-11.379c0.821-1.698,1.28-3.554,1.338-5.444c0.226-7.333-5.437-13.478-12.623-13.699    c-1.366-0.041-2.699,0.13-3.993,0.511C32.904,3.9,28.31,1.347,23.263,1.191C14.38,0.939,7.138,7.937,6.861,16.933    c-0.066,2.131,0.289,4.271,1.03,6.268c-3.857,2.315-6.282,6.436-6.425,11.067c-0.109,3.555,1.142,6.94,3.524,9.533    c2.195,2.389,5.108,3.842,8.278,4.148c-0.238,0.974-0.374,1.966-0.405,2.966c-0.118,3.814,1.226,7.446,3.781,10.228    c2.565,2.791,6.042,4.392,9.792,4.507c0.144,0.004,0.288,0.006,0.431,0.006c7.624,0,13.785-6.096,14.025-13.878    c0.011-0.365,0.007-0.733-0.011-1.104C41.676,50.855,42.485,50.958,43.303,50.984z M38.13,47.332    c-0.439,0.358-0.64,0.933-0.518,1.486c0.215,0.978,0.31,1.943,0.282,2.868c-0.193,6.267-5.229,11.166-11.364,10.965    c-2.936-0.09-5.662-1.347-7.676-3.538c-2.022-2.201-3.085-5.08-2.991-8.106c0.042-1.35,0.325-2.684,0.843-3.964    c0.194-0.479,0.127-1.023-0.176-1.442c-0.283-0.392-0.736-0.621-1.215-0.621c-0.033,0-0.067,0.001-0.1,0.003    c-0.236,0.016-0.474,0.024-0.714,0.024l-0.288-0.004c-2.683-0.083-5.174-1.23-7.014-3.233c-1.849-2.012-2.82-4.644-2.734-7.41    c0.123-3.983,2.41-7.477,5.969-9.116c0.364-0.167,0.646-0.474,0.783-0.852c0.137-0.377,0.117-0.793-0.056-1.155    c-0.931-1.955-1.369-4.045-1.301-6.212C10.085,9.69,15.975,3.941,23.17,4.19c4.415,0.136,8.408,2.55,10.681,6.458    c0.375,0.646,1.167,0.917,1.857,0.637c1.174-0.473,2.407-0.713,3.666-0.713l0.304,0.005c5.533,0.17,9.892,4.929,9.717,10.608    c-0.057,1.862-0.615,3.683-1.614,5.265c-0.223,0.352-0.289,0.781-0.182,1.184s0.376,0.743,0.743,0.94    c3.45,1.843,5.517,5.458,5.394,9.433c-0.172,5.599-4.579,9.984-10.032,9.983l-0.308-0.005c-1.275-0.039-2.522-0.328-3.706-0.858    C39.175,46.894,38.57,46.975,38.13,47.332z"/><path d="M68.911,58.028c0.116,0.391,0.474,0.645,0.862,0.645c0.085,0,0.171-0.012,0.256-0.038    c0.477-0.141,0.748-0.642,0.607-1.119c-1.167-3.938-1.867-5.816-6.225-9.055c-0.399-0.297-0.962-0.213-1.259,0.185    c-0.297,0.399-0.214,0.963,0.185,1.259C67.201,52.778,67.787,54.235,68.911,58.028z"/><path d="M70.912,50.503l0.524,0.103c1.045,0.207,1.752,0.346,2.597,0.346c0.454,0,0.948-0.04,1.555-0.132    c0.819-0.124,1.382-0.889,1.258-1.708c-0.124-0.82-0.888-1.384-1.708-1.258c-1.219,0.184-1.661,0.098-3.121-0.191l-0.534-0.105    c-0.812-0.159-1.601,0.374-1.758,1.187C69.567,49.558,70.098,50.345,70.912,50.503z"/></g></g><text x="0" y="115" fill="rgb(246, 250, 249)" font-size="5px" font-weight="bold" font-family="'Helvetica Neue', Helvetica, Arial-Unicode, Arial, Sans-serif"></text><text x="0" y="120" fill="rgb(246, 250, 249)" font-size="5px" font-weight="bold" font-family="'Helvetica Neue', Helvetica, Arial-Unicode, Arial, Sans-serif"></text></svg>
