<svg xmlns="http://www.w3.org/2000/svg" xmlns:xlink="http://www.w3.org/1999/xlink" version="1.1" x="0px" y="0px" viewBox="0 0 100 125" enable-background="new 0 0 100 100" xml:space="preserve"><g><g><circle fill="none" stroke="#000000" stroke-width="3" stroke-linecap="round" stroke-linejoin="round" stroke-miterlimit="10" cx="49.484" cy="43.419" r="13.991"/><path fill="none" stroke="#000000" stroke-width="3" stroke-linecap="round" stroke-linejoin="round" stroke-miterlimit="10" d="    M47.384,89.886c17.879,0,27.422,0.206,25.755-13.245c-1.563-12.62-6.78-19.284-16.604-20.874"/><path fill="none" stroke="#000000" stroke-width="3" stroke-linecap="round" stroke-linejoin="round" stroke-miterlimit="10" d="    M42.311,55.432C31.43,58.222,26.675,68.65,26.674,80.474c-0.001,7.667,6.79,9.447,20.71,9.412"/></g><path fill="none" stroke="#000000" stroke-width="2.848" stroke-linecap="round" stroke-linejoin="round" stroke-miterlimit="10" d="   M40.291,88.687c7.093-4.904,9.253-6.5,9.272-12.798c0.021-6.54,0.144-9.951-2.083-11.05c-4.045-1.994-3.248,8.964-3.764,12.882   c-0.351,2.661-3.967,2.313-7.688,3.235"/><path fill="none" stroke="#000000" stroke-width="2.848" stroke-linecap="round" stroke-linejoin="round" stroke-miterlimit="10" d="   M59.281,88.687c-7.093-4.904-9.253-6.5-9.272-12.798c-0.021-6.54-0.144-9.951,2.083-11.05c4.045-1.994,3.248,8.964,3.764,12.882   c0.351,2.661,3.967,2.313,7.688,3.235"/><line fill="none" stroke="#000000" stroke-width="1.8" stroke-linecap="round" stroke-miterlimit="10" x1="40.36" y1="67.155" x2="35.937" y2="65.093"/><line fill="none" stroke="#000000" stroke-width="1.8" stroke-linecap="round" stroke-miterlimit="10" x1="40.36" y1="69.991" x2="35.479" y2="69.991"/><line fill="none" stroke="#000000" stroke-width="1.8" stroke-linecap="round" stroke-miterlimit="10" x1="40.36" y1="72.827" x2="35.937" y2="74.889"/><line fill="none" stroke="#000000" stroke-width="1.8" stroke-linecap="round" stroke-miterlimit="10" x1="59.211" y1="67.155" x2="63.635" y2="65.093"/><line fill="none" stroke="#000000" stroke-width="1.8" stroke-linecap="round" stroke-miterlimit="10" x1="59.211" y1="69.991" x2="64.092" y2="69.991"/><line fill="none" stroke="#000000" stroke-width="1.8" stroke-linecap="round" stroke-miterlimit="10" x1="59.211" y1="72.827" x2="63.635" y2="74.889"/><path fill="none" stroke="#000000" stroke-width="2" stroke-linecap="round" stroke-linejoin="round" stroke-miterlimit="10" d="   M49.477,51.338c2.547,0,5.357-3.278,4.715-4.612c-0.372-0.771-2.558-1.218-4.718-1.235h0.108c-2.159,0.017-4.345,0.464-4.717,1.235   C44.223,48.06,46.93,51.338,49.477,51.338z"/><line fill="none" stroke="#000000" stroke-width="3" stroke-linecap="round" stroke-linejoin="round" stroke-miterlimit="10" x1="50" y1="10.113" x2="50" y2="17.384"/><g><circle cx="50.125" cy="22.391" r="1.5"/></g></g><text x="0" y="115" fill="rgb(250, 250, 250)" font-size="5px" font-weight="lighe" font-family="'Helvetica Neue', Helvetica, Arial-Unicode, Arial, Sans-serif"></text><text x="0" y="120" fill="rgb(250, 250, 250)" font-size="5px" font-weight="light" font-family="'Helvetica Neue', Helvetica, Arial-Unicode, Arial, Sans-serif"></text></svg>


