<svg xmlns="http://www.w3.org/2000/svg" xmlns:xlink="http://www.w3.org/1999/xlink" version="1.1" x="0px" y="0px" viewBox="0 0 100 125" enable-background="new 0 0 100 100" xml:space="preserve"><g><path fill="#000000" d="M41.5,42.2c5.7,0.7,7.6,2.3,7.6,2.3L50.4,34c0,0-1.9-3-7.7-3.7c-0.7-0.1-1.4-0.1-2-0.1   c-4.3,0-5.9,1.9-5.9,1.9l-1.3,10.4c0,0,1.3-0.6,4.4-0.6C39,41.9,40.1,42,41.5,42.2z"/><path fill="#000000" d="M40.6,49.6c0.8,0.1,1.7,0.2,2.4,0.2c3.2,0,5.6-0.8,5.7-2.1c0.2-1.6-3.1-3.4-7.4-3.9   c-0.8-0.1-1.7-0.2-2.4-0.2c-3.2,0-5.6,0.8-5.7,2.1C33,47.3,36.3,49,40.6,49.6z"/><path fill="#000000" d="M60.5,30.2c-5.7,0.7-7.7,3.7-7.7,3.7l1.3,10.4c0,0,2-1.6,7.6-2.3c1.4-0.2,2.5-0.2,3.5-0.2   c3.1,0,4.4,0.6,4.4,0.6L68.4,32c0,0-1.7-1.9-5.9-1.9C61.8,30.1,61.2,30.2,60.5,30.2z"/><path fill="#000000" d="M64.3,43.5c-0.8,0-1.6,0-2.4,0.2c-4.3,0.5-7.6,2.3-7.4,3.9c0.2,1.3,2.6,2.1,5.7,2.1c0.8,0,1.6,0,2.4-0.2   c4.3-0.5,7.6-2.3,7.4-3.9C69.9,44.3,67.5,43.5,64.3,43.5z"/><ellipse transform="matrix(0.3088 0.9511 -0.9511 0.3088 77.4331 -62.7327)" fill="#000000" cx="81.9" cy="21.9" rx="3" ry="11.6"/><rect x="78" y="37.2" fill="#000000" width="1.8" height="4.5"/><path fill="#000000" d="M72.1,85.7L69,79.2c0.8-2.1,1.3-4.3,1.3-6.7c0-0.6,0-1.2-0.1-1.8c0,0,0,0.1,0,0.1   c-1-13.6-6.8-17.9-12.3-19.3c-2.4-0.6-4.4-0.8-6.1-0.8c-4.3,0-6.5,1.3-6.5,1.3c-4.5,1.6-10.3,5.9-10.7,17.6   c-0.2,0.9-0.2,1.9-0.2,2.9c0,2.3,0.4,4.4,1.2,6.4l-3.3,6.8l-1.9,2.1c-0.4,0.6-0.1,1.4,0.5,1.7l1.1,0.5c0.6,0.3,1.4,0,1.6-0.7   l0.5-2.8l2.6-5.3c3.1,5.5,8.9,9.2,15.6,9.2c6.6,0,12.4-3.6,15.5-8.9l2.5,5.1l0.5,2.8c0.2,0.7,1,1,1.6,0.7l1.1-0.5   c0.6-0.3,0.9-1.1,0.5-1.7L72.1,85.7z M52.4,87.7c-8.4,0-15.2-6.8-15.2-15.2c0-8.4,6.8-15.2,15.2-15.2s15.2,6.8,15.2,15.2   C67.6,80.9,60.8,87.7,52.4,87.7z"/><ellipse transform="matrix(-0.3015 0.9535 -0.9535 -0.3015 50.2466 18.7811)" fill="#000000" cx="18.2" cy="27.8" rx="3.2" ry="12.2"/><path fill="#000000" d="M24.6,79.7l-4.1-9c-0.3-0.6-0.7-1-1.3-1.3l-2.3-0.9V32.2L15,31.7v36.7l-2.6,1c-0.5,0.2-1,0.6-1.2,1.1   L7,79.7l-1.9,2.1c-0.4,0.6-0.1,1.4,0.5,1.7L6.7,84c0.6,0.3,1.4,0,1.6-0.7l0.5-2.8l2.1-4.3l4.2,2.2c0.5,0.2,1,0.2,1.5,0l4-2.3   l2.2,4.5l0.5,2.8c0.2,0.7,1,1,1.6,0.7l1.1-0.5c0.6-0.3,0.9-1.1,0.5-1.7L24.6,79.7z M15,76.4l-3.3-1.9l0.8-1.7   c0.2-0.4,0.5-0.7,0.9-0.9l1.6-0.8V76.4z M16.8,76.4v-5.2l1.3,0.7c0.4,0.2,0.8,0.6,1,1.1l0.7,1.5L16.8,76.4z"/><path fill="#000000" d="M94.8,81.4L93,79.3l-4.5-9.9l-3.3-1.3V26l-1.8,0.5v41.6l-3.3,1.3l-4.5,9.9l-1.9,2.1   c-0.4,0.6-0.1,1.4,0.5,1.7l1.1,0.5c0.2,0.1,0.3,0.1,0.5,0.1c0.5,0,0.9-0.3,1.1-0.8l0.5-2.8l2.1-4.3l5,2.6l4.8-2.8l2.2,4.5l0.5,2.8   c0.2,0.5,0.6,0.8,1.1,0.8c0.2,0,0.3,0,0.5-0.1l1.1-0.5C95,82.8,95.2,82,94.8,81.4z M83.2,76l-3.2-1.8l1.1-2.2l2.1-1.1V76z    M85.1,76.1v-5.3l2.1,1.1l1.1,2.2L85.1,76.1z"/><path fill="#000000" d="M38,23c0.1,0,0.3,0,0.4-0.1l17.7-9.6c0.9-0.5,1.7-1,2.5-1.7l0.3-0.2c0.1,0.1,0.3,0.1,0.4,0.1   c0.2,0,0.3,0,0.5-0.1c0.5-0.3,0.7-0.8,0.4-1.3c-0.2-0.3-0.5-0.5-0.9-0.5c-0.2,0-0.3,0-0.5,0.1c-0.3,0.2-0.5,0.4-0.5,0.8l-0.4,0.1   c-1,0.3-1.9,0.7-2.8,1.2l-17.7,9.6c-0.4,0.2-0.6,0.8-0.4,1.2C37.4,22.9,37.7,23,38,23z"/><path fill="#000000" d="M40.5,11.4c0.3,0.2,0.6,0.2,0.9,0l0.3,0.2c0.8,0.6,1.6,1.2,2.5,1.7l2.4,1.3l1.9-1L45,11.8   c-0.9-0.5-1.8-0.9-2.8-1.2l-0.4-0.1c0-0.3-0.2-0.6-0.5-0.8c-0.5-0.3-1.1-0.1-1.3,0.4C39.8,10.6,40,11.2,40.5,11.4z"/><path fill="#000000" d="M51.9,17.5l10,5.4c0.4,0.2,1,0.1,1.2-0.4c0.2-0.4,0.1-1-0.4-1.2l-8.9-4.8L51.9,17.5z"/><path fill="#000000" d="M20.6,44.4c-0.1,1.9,4.7,3.7,10.7,4.2c0.6,0,1.2,0.1,1.8,0.1c-1.6-1.2-1.7-2.5-1.6-3.2l0.4-3.6   c0,0-0.1,0-0.1,0C25.8,41.4,20.8,42.5,20.6,44.4z"/><path fill="#000000" d="M33.1,68.4c0.6-9.7,4.8-14.4,9-16.8l0-0.3c-0.6,0-1.2-0.1-1.8-0.1c-1.5-0.2-3-0.5-4.2-1   c-1.6,0.2-3.3,0.3-5,0.2c-5.3-0.4-10.8-3-10.8-3l-0.3,16.3c0,0,2.4,4.1,9.8,4.7C31,68.4,32.1,68.4,33.1,68.4z"/><path fill="#000000" d="M78.9,36.1c1.1,0,2.1-0.1,3-0.2v-4c-1-0.1-2-0.1-3.1-0.1c-4.6,0.1-8.3,1.1-8.3,2.3   C70.5,35.3,74.3,36.2,78.9,36.1z"/><path fill="#000000" d="M86.4,34.7c0.5-0.3,0.7-0.6,0.7-0.9c0-0.3-0.3-0.6-0.7-0.9V34.7z"/><path fill="#000000" d="M81.9,43.2c-0.2,0-0.5,0-0.7,0c-1.7,0-3.9,0.2-6.3,0.7c-1.2,0.2-2.3,0.5-3.4,0.8c0.1,0.2,0.2,0.5,0.2,0.7   c0.1,0.8-0.1,2.4-2.4,3.8c0.1,0,0.2,0,0.2,0c1.7,0,3.9-0.2,6.3-0.7c2.4-0.5,4.5-1.1,6.1-1.7V43.2z"/><path fill="#000000" d="M81.9,48.4c-1.6,0.7-3.6,1.4-5.7,1.8c-1.8,0.4-3.6,0.5-5.2,0.5c-2.8,0-4.9-0.4-4.9-0.4l0.8,4.3   c0.1,0.7,0.7,1.2,1.4,1.3c0.9,0.1,2.2,0.3,3.8,0.3c1.5,0,3.2-0.1,5.1-0.5c1.8-0.4,3.3-0.9,4.6-1.4V48.4z"/><path fill="#000000" d="M78.7,68.9c0.1-0.3,0.4-0.6,0.7-0.7l0.4-0.2V56.6L78,57.1v13.2L78.7,68.9z"/></g><text x="0" y="115" fill="#000000" font-size="5px" font-weight="bold" font-family="'Helvetica Neue', Helvetica, Arial-Unicode, Arial, Sans-serif">Created by parkjisun</text><text x="0" y="120" fill="#000000" font-size="5px" font-weight="bold" font-family="'Helvetica Neue', Helvetica, Arial-Unicode, Arial, Sans-serif">from the Noun Project</text></svg>