<svg xmlns="http://www.w3.org/2000/svg" xmlns:xlink="http://www.w3.org/1999/xlink" version="1.1" x="0px" y="0px" viewBox="0 0 100 125" enable-background="new 0 0 100 100" xml:space="preserve"><g><path d="M76.7,18.8c0.6,0.6,1.4,0.9,2.2,0.9c0.8,0,1.6-0.3,2.2-0.9l3.5-3.5c1.2-1.2,1.2-3.2,0-4.5c-0.3-0.3-0.7-0.5-1.1-0.5   c-0.4,0-0.8,0.2-1.1,0.5l-5.7,5.7C76.1,17.1,76.1,18.2,76.7,18.8L76.7,18.8z M80.4,14.4c0.5-0.5,1.3-0.5,1.8,0   c0.5,0.5,0.5,1.3,0,1.8c-0.5,0.5-1.3,0.5-1.8,0C79.9,15.7,79.9,14.9,80.4,14.4z"/><path d="M94.3,8.3l-2.6-2.6c-0.9-0.9-2.4-0.9-3.4,0l-3.4,3.4c0.3,0.2,0.6,0.4,0.9,0.6c0.9,0.9,1.4,2.1,1.4,3.3   c0,1.3-0.5,2.4-1.4,3.3l-3.5,3.5c-0.9,0.9-2.1,1.4-3.3,1.4c-1.3,0-2.4-0.5-3.3-1.4c-0.3-0.3-0.5-0.6-0.6-0.9l-7.6,7.6L66.7,26   c-0.4-0.4-1.1-0.4-1.5,0l-0.9,0.9c-0.4,0.4-0.4,1-0.1,1.5l-6.4,6.4c-0.4-0.3-1-0.3-1.5,0.1l-0.9,0.9c-0.4,0.4-0.4,1.1,0,1.5   l0.7,0.7l-8.2,8.2l-1.4-1.4l1.2-1.2c0.4-0.4,0.4-1.1,0-1.5s-1.1-0.4-1.5,0L15,73.2c-0.4,0.4-0.4,1.1,0,1.5c0.4,0.4,1.1,0.4,1.5,0   l1.3-1.3l1.4,1.4l0,0l1.4,1.4c0.8-0.3,1.7-0.2,2.3,0.4c0.8,0.8,0.8,2.1,0,3c-0.8,0.8-2.1,0.8-3,0c-0.6-0.6-0.8-1.6-0.4-2.3   l-1.4-1.4L5.4,88.6c-0.5,0.5-0.5,1.4,0,1.9l4.1,4.1c0.5,0.5,1.4,0.5,1.9,0l50.7-50.7l0.7,0.7c0.4,0.4,1.1,0.4,1.5,0l0.9-0.9   c0.4-0.4,0.4-1,0.1-1.5l6.4-6.4c0.4,0.3,1,0.3,1.5-0.1l0.9-0.9c0.4-0.4,0.4-1.1,0-1.5l-0.7-0.7l20.9-20.9   C95.2,10.8,95.2,9.3,94.3,8.3z M29.8,72.7c-0.8,0.8-2.1,0.8-3,0c-0.6-0.6-0.8-1.6-0.4-2.3L25,69l-4.7,4.7l-1.4-1.4l5.8-5.8l1.4,1.4   l0,0l1.4,1.4c0.8-0.3,1.7-0.2,2.3,0.4C30.6,70.5,30.6,71.9,29.8,72.7z M36.7,65.8c-0.8,0.8-2.1,0.8-3,0c-0.6-0.6-0.8-1.6-0.4-2.3   l-1.4-1.4l-4.7,4.7l-1.4-1.4l5.8-5.8L33,61l0,0l1.4,1.4c0.8-0.3,1.7-0.2,2.3,0.4C37.5,63.7,37.5,65,36.7,65.8z M43.6,58.9   c-0.8,0.8-2.1,0.8-3,0c-0.6-0.6-0.8-1.6-0.4-2.3l-1.4-1.4l-4.7,4.7l-1.4-1.4l5.8-5.8l1.4,1.4l0,0l1.4,1.4c0.8-0.3,1.7-0.2,2.3,0.4   C44.4,56.8,44.4,58.1,43.6,58.9z M50.5,52c-0.8,0.8-2.1,0.8-3,0c-0.6-0.6-0.8-1.6-0.4-2.3l-1.4-1.4L41,53l-1.4-1.4l5.8-5.8l1.4,1.4   l0,0l1.4,1.4c0.8-0.3,1.7-0.2,2.3,0.4C51.3,49.9,51.3,51.2,50.5,52z"/></g><text x="0" y="115" fill="#000000" font-size="5px" font-weight="bold" font-family="'Helvetica Neue', Helvetica, Arial-Unicode, Arial, Sans-serif"></text><text x="0" y="120" fill="#000000" font-size="5px" font-weight="bold" font-family="'Helvetica Neue', Helvetica, Arial-Unicode, Arial, Sans-serif"></text></svg>
