<svg xmlns="http://www.w3.org/2000/svg" xmlns:xlink="http://www.w3.org/1999/xlink" version="1.1" x="0px" y="0px" viewBox="0 0 100 125" enable-background="new 0 0 100 100" xml:space="preserve"><g><g><path fill="#000000" d="M51.004,51.866c1.105,1.127,2.697,1.354,3.561,0.51c0.859-0.846,0.665-2.444-0.44-3.571    c-1.105-1.126-2.7-1.355-3.563-0.51C49.699,49.141,49.898,50.738,51.004,51.866z M57.465,47.814    c0.861-0.845,0.665-2.443-0.44-3.57c-1.105-1.127-2.703-1.356-3.563-0.511c-0.862,0.845-0.663,2.442,0.442,3.572    C55.009,48.431,56.602,48.66,57.465,47.814z M51.456,56.789c0.859-0.846,0.662-2.443-0.443-3.571    c-1.105-1.127-2.699-1.355-3.561-0.51c-0.863,0.846-0.664,2.443,0.442,3.573C49,57.403,50.593,57.633,51.456,56.789z     M44.974,57.059c-0.863,0.846-0.663,2.443,0.441,3.571c1.105,1.124,2.698,1.354,3.562,0.508c0.86-0.844,0.664-2.441-0.442-3.568    C47.431,56.441,45.835,56.213,44.974,57.059z M92.459,23.606c0,0-7.535-5.912-9.679-9.42c0,0-6.114-7.653-11.599,1.785    L56.081,42.985c0.484,0.192,0.955,0.457,1.349,0.859c0.736,0.747,1.151,1.705,1.142,2.626c-0.007,0.689-0.256,1.31-0.708,1.751    c-0.395,0.388-0.914,0.617-1.503,0.665c-0.61,0.049-1.231-0.156-1.822-0.471c0.728,0.745,1.144,1.698,1.134,2.616    c-0.006,0.689-0.256,1.311-0.707,1.751c-0.396,0.39-0.915,0.616-1.504,0.665c-0.683,0.054-1.376-0.211-2.025-0.607    c0.726,0.744,1.138,1.69,1.127,2.604c-0.005,0.689-0.256,1.311-0.708,1.753c-0.395,0.388-0.914,0.614-1.502,0.663    c-0.35,0.027-0.706-0.083-1.059-0.177c0.476,0.652,0.8,1.378,0.792,2.111c-0.007,0.689-0.258,1.311-0.708,1.751    c-0.396,0.388-0.914,0.616-1.504,0.665c-0.764,0.062-1.544-0.266-2.249-0.76l-5.378,9.501c0,0-8.469,12.586-4.875,4.371    c0,0,9.008-14.479,9.084-25.91c2.509-1.261,4.444-2.791,4.261-4.271c-0.358-2.814-7.005-4.435-14.322-3.516    c-7.321,0.92-13.484,4.032-13.132,6.845c0.355,2.809,7.089,4.344,14.409,3.424c1.177-0.147,2.288-0.366,3.361-0.612    c-1.125,0.889-4.103,1.916-10.831,2.498c0,0,1.166,10.213-4.362,21.372c0,0-10.591,18.83,3.026,22.36    c0,0,9.766,2.731,18.254-16.644l3.094-6.262c4.74-5.622,12.304-16.709,15.609-31.589l7.862-15.906c0,0,5.105-12.404,7.943-9.923    c4.027,3.523,8.625,11.461,15.016,10.452C94.646,27.642,97.566,27.116,92.459,23.606z M35.678,49.123    c-3.59,0.484-6.647-0.191-6.826-1.514c-0.181-1.318,2.589-2.782,6.179-3.266c3.596-0.486,6.649,0.189,6.829,1.511    C42.042,47.174,39.272,48.638,35.678,49.123z M50.456,70.074l11.227-22.717C58.824,57.05,54.272,64.806,50.456,70.074z     M19.996,24.28c-4.964,1.227-7.724,5.548-8.139,10.309c-4.036,1.879-6.072,3.381-7.349,5.76c-1.55,2.892-0.804,6.729,2.557,8.451    c0.617,0.316,1.226,0.52,1.819,0.631c-1.385,2.991-2.617,3.604-3.221,3.454c-0.244-0.062-0.219-0.209-0.082-0.262    c1.011-0.372,1.356-2.29-0.018-2.994c-1.076-0.552-2.147,0.059-2.618,1.007c-0.495,0.999-0.325,2.371,1.202,3.154    c1.592,0.816,3.932,0.153,5.792-4.253c2.536,0.025,4.647-1.588,5.55-3.347c1.611-3.143,0.06-6.566-3.12-7.21    c0.139-0.963,0.258-1.875,0.358-2.686c1.906-0.92,4.77-2.624,6.14-4.531C20.522,29.459,20.713,26.506,19.996,24.28z M9.363,48.31    c-0.671,0.02-1.313-0.101-1.853-0.378c-2.441-1.251-3.397-4.161-2.134-6.623c1.198-2.337,3.348-3.343,6.293-4.541    c-0.072,0.693-0.159,1.409-0.258,2.129c-2.282,0.101-4.495,2.258-4.097,4.615l0.651,0.074c0.393-1.932,1.767-3.007,3.197-3.019    C10.661,43.683,9.98,46.681,9.363,48.31z M13.756,45.777c-0.622,1.212-1.93,2.06-3.298,2.386c0.678-2.054,1.228-4.829,1.648-7.451    C14.357,41.425,14.812,43.718,13.756,45.777z M17.565,31.183c-1.3,1.167-2.6,1.924-4.516,2.843    c0.338-1.501,1.034-2.849,2.28-4.465c1.29-1.672,2.721-2.442,4.171-3.081C19.66,27.961,18.85,30.03,17.565,31.183z M28.725,21.792    c-0.54,3.333-0.464,5.252,0.486,7.067c1.154,2.205,3.88,3.371,6.394,1.996c0.46-0.252,0.847-0.548,1.171-0.873    c1.287,2.145,1.146,3.178,0.795,3.492c-0.144,0.128-0.225,0.049-0.2-0.059c0.198-0.793-0.859-1.827-1.887-1.264    c-0.806,0.44-0.876,1.372-0.483,2.071c0.417,0.737,1.351,1.215,2.492,0.59c1.191-0.652,1.771-2.403-0.202-5.448    c1.096-1.582,0.983-3.593,0.264-4.909c-1.286-2.351-4.095-2.835-5.855-1.113c-0.545-0.497-1.067-0.961-1.533-1.369    c0.234-1.59,0.385-4.112-0.228-5.784c-0.741-2.021-2.513-3.4-4.215-3.898C24.377,15.93,25.915,19.503,28.725,21.792z     M36.557,25.366c0.495,0.908,0.471,2.09,0.092,3.087c-1-1.301-2.508-2.829-3.975-4.208C34.083,23.136,35.714,23.827,36.557,25.366    z M30.013,22.837c0.405,0.342,0.817,0.701,1.227,1.07c-0.909,1.475-0.497,3.783,1.15,4.538l0.326-0.378    c-1.046-1.069-1.135-2.389-0.535-3.292c1.742,1.642,3.334,3.347,4.093,4.429c-0.273,0.428-0.623,0.781-1.025,1.002    c-1.825,0.999-4.06,0.359-5.067-1.483C29.226,26.975,29.511,25.197,30.013,22.837z M26.892,13.54    c0.998,0.532,1.951,1.922,2.127,3.219c0.179,1.312,0.1,2.452-0.139,4.046c-0.799-0.852-1.348-1.863-1.831-3.333    C26.549,15.949,26.675,14.723,26.892,13.54z M43.662,14.219c1.22,0.328,2.438-0.187,3.091-0.923    c1.167-1.314,0.844-3.157-0.608-3.863c0.188-0.447,0.359-0.871,0.507-1.25c1.033-0.206,2.625-0.671,3.522-1.42    c1.083-0.904,1.542-2.304,1.475-3.465c-2.546-0.026-4.413,1.713-5.205,3.956c-2.179,0.404-3.347,0.874-4.257,1.862    c-1.108,1.2-1.225,3.143,0.181,4.391c0.258,0.229,0.526,0.403,0.798,0.531c-1.04,1.269-1.709,1.41-1.981,1.263    c-0.11-0.061-0.08-0.128-0.008-0.136c0.534-0.053,0.939-0.935,0.364-1.445c-0.45-0.398-1.042-0.238-1.386,0.161    c-0.363,0.419-0.453,1.102,0.187,1.669C41.008,16.141,42.218,16.111,43.662,14.219z M48.745,5.263    c0.828-0.646,1.614-0.838,2.393-0.966c-0.108,0.733-0.755,1.629-1.517,2.025c-0.772,0.401-1.494,0.604-2.532,0.809    C47.44,6.45,47.943,5.886,48.745,5.263z M45.969,12.882c-0.45,0.507-1.186,0.753-1.886,0.739c0.582-0.905,1.192-2.174,1.721-3.385    C46.8,10.86,46.734,12.021,45.969,12.882z M42.691,13.144c-1.021-0.907-1.119-2.427-0.205-3.457    c0.869-0.979,2.029-1.195,3.599-1.406c-0.122,0.325-0.253,0.659-0.391,0.994c-1.112-0.235-2.446,0.529-2.548,1.714l0.305,0.117    c0.43-0.882,1.226-1.23,1.915-1.058c-0.629,1.44-1.329,2.799-1.829,3.507C43.212,13.481,42.917,13.344,42.691,13.144z"/></g></g><text x="0" y="115" fill="#000000" font-size="5px" font-weight="bold" font-family="'Helvetica Neue', Helvetica, Arial-Unicode, Arial, Sans-serif"></text><text x="0" y="120" fill="#000000" font-size="5px" font-weight="bold" font-family="'Helvetica Neue', Helvetica, Arial-Unicode, Arial, Sans-serif"></text></svg>
