<svg xmlns="http://www.w3.org/2000/svg" xmlns:xlink="http://www.w3.org/1999/xlink" version="1.1" x="0px" y="0px" viewBox="0 0 96 120" enable-background="new 0 0 96 96" xml:space="preserve"><g><rect x="51.142" y="23.415" transform="matrix(0.8091 -0.5877 0.5877 0.8091 -6.9428 35.7603)" width="0.845" height="10.301"/><rect x="41.598" y="25.253" transform="matrix(-0.5881 -0.8088 0.8088 -0.5881 63.8572 86.2639)" width="24.596" height="3.234"/><rect x="46.591" y="26.724" transform="matrix(0.8095 -0.5872 0.5872 0.8095 -9.7578 33.6786)" width="0.846" height="10.301"/><path d="M38.756,22.67l-0.356,0.259c-5.037,3.661-7.163,9.708-5.655,14.788l-6.618,6.618c-0.013,0-0.024-0.002-0.037-0.002   c-3.094,0-5.602,2.508-5.602,5.6c0,1.388,0.509,2.655,1.344,3.634V88h6.607V55.012c1.918-0.889,3.251-2.825,3.251-5.078   c0-0.709-0.138-1.386-0.379-2.011l4.911-4.912c4.353,3.641,11.276,3.716,16.644-0.187l-0.002-0.001l0.355-0.26L38.756,22.67z    M25.959,53.368c-1.947,0-3.524-1.578-3.524-3.524c0-1.947,1.577-3.525,3.524-3.525s3.524,1.578,3.524,3.525   C29.483,51.79,27.906,53.368,25.959,53.368z"/><rect x="36.991" y="28.672" transform="matrix(-0.588 -0.8088 0.8088 -0.588 53.8278 87.8564)" width="24.596" height="3.095"/><rect x="55.806" y="20.025" transform="matrix(0.8087 -0.5883 0.5883 0.8087 -4.0511 37.8945)" width="0.844" height="10.3"/><path d="M75.374,17.528l-4.712,3.425l-0.993-1.365l5.283-3.84c-0.098-0.3-0.197-0.6-0.321-0.892   c-0.212-0.501-0.478-0.984-0.77-1.458l-5.687,4.134l-0.992-1.365l5.687-4.134c-0.361-0.423-0.737-0.825-1.149-1.183   c-0.237-0.206-0.491-0.39-0.744-0.575l-5.289,3.835l-0.991-1.366l4.718-3.421c-4.272-2.156-9.938-1.712-14.489,1.595l-0.356,0.259   l14.464,19.895v0l0.355-0.258C73.936,27.507,76.104,22.258,75.374,17.528z"/><rect x="60.352" y="16.719" transform="matrix(0.8091 -0.5877 0.5877 0.8091 -1.2489 39.8946)" width="0.845" height="10.301"/><rect x="46.204" y="21.978" transform="matrix(-0.588 -0.8088 0.8088 -0.588 73.8775 84.6726)" width="24.595" height="3.088"/></g><text x="0" y="111" fill="#000000" font-size="5px" font-weight="bold" font-family="'Helvetica Neue', Helvetica, Arial-Unicode, Arial, Sans-serif">Created by Fahmihorizon</text><text x="0" y="116" fill="#000000" font-size="5px" font-weight="bold" font-family="'Helvetica Neue', Helvetica, Arial-Unicode, Arial, Sans-serif">from the Noun Project</text></svg>