<svg xmlns="http://www.w3.org/2000/svg" xmlns:xlink="http://www.w3.org/1999/xlink" viewBox="0 0 98 57.5" version="1.1" x="0px" y="0px"><g stroke="none" stroke-width="1" fill="none" fill-rule="evenodd"><g fill="#000000"><path d="M18.0248826,19.4468031 C18.6458441,19.6125876 18.7834971,20.2145152 18.783497,20.2145152 C19.1822833,20.3756353 19.2884927,20.8747961 19.2884927,20.8747961 L19.4681892,20.9473982 C19.3319282,21.0272933 19.2457857,21.3313202 19.2457857,21.3313202 L19.1239354,21.2820895 C19.1239354,21.2820895 18.7008707,21.5734232 18.2999137,21.411426 C18.2999137,21.411426 17.7855892,21.7417932 17.2237433,21.4296924 C17.2237433,21.4296924 17.6171345,20.4560151 17.6171345,20.4560151 C17.6171345,20.4560151 17.811471,19.9750152 18.0248826,19.4468031 L18.0248826,19.4468031 Z"/><path d="M37.6333635,6.96579254 C33.3409403,6.69437998 4.54672302,1.59673481 4.54672313,1.59673485 C1.75821736,0.804341332 -3.49247016,8.17542189 3.55613075,13.3813423 C4.90543003,14.0694696 25.5335141,20.0681123 25.5335141,20.0681123 L22.109141,21.1797261 L20.3446337,20.5250754 C19.748422,20.4240527 18.8555887,21.4864083 19.4874265,22.0582734 C19.4874258,22.0582734 24.4906833,24.1018692 24.4906833,24.1018692 C24.4906833,24.1018692 24.598406,25.2319569 26.2864328,24.6669135 C26.2864321,24.6669133 88.9492194,45.229637 88.9492194,45.229637 C88.9492194,45.229637 93.2034179,46.6320778 96.9406068,44.0751948 C99.77505,41.0634993 95.4489342,39.7861117 95.4489342,39.7861117 L26.9628942,18.5139563 C26.9628942,18.5139563 25.7330419,17.8508547 24.9022448,17.8508535 C24.7147186,17.8508533 24.0158476,17.6576701 24.0158476,17.6576701 L23.612298,8.17542176 L37.0617819,11.9190254 C37.0617819,11.9190254 40.7617484,12.8190649 41.755515,13.9376092 C42.7492817,15.0561534 41.4461624,22.8452131 47.3613342,23.6223774 C53.2765061,24.3995417 55.8595476,14.5351948 55.9835551,11.9190252 C56.1075626,9.30285569 56.2706393,1.19250707 51.6281263,0.205634529 C46.9856134,-0.781238011 43.283635,6.83579281 43.283635,6.83579281 C43.283635,6.83579281 41.9257866,7.23720509 37.6333635,6.96579254 Z M5.07364168,3.68385622 C4.95300706,3.61485963 1.79389189,2.76748346 1.79389189,7.47399991 C1.79389189,12.1805164 5.04190862,12.7429958 5.04190862,12.7429958 C5.10743602,12.7595669 5.43757878,12.8122055 5.43757878,12.7429958 L5.43757878,10.5663838 C5.43757878,10.5663838 4.08812974,9.76292545 4.08812958,8.30577751 C4.08812943,6.84862958 5.43757878,6.42734339 5.43757878,6.42734339 L5.43757878,3.89771291 C5.43757878,3.89771291 5.22478655,3.77030306 5.07364168,3.68385622 Z M6.69336607,4.05446139 L10.289866,4.91246208 C10.4230777,4.94159749 10.5214553,5.07385336 10.5234295,5.21006586 L10.6636549,14.0567763 C10.6656299,14.1930444 10.5609965,14.274616 10.428684,14.2386272 L6.69336608,13.2226284 C6.56162024,13.1867938 6.3312378,13.0474173 6.3312378,12.9105751 L6.3312378,10.6279948 C6.3312378,10.6279948 7.49441622,9.68626802 7.49441622,8.27994953 C7.49441622,6.87363104 6.3312378,6.46291214 6.3312378,6.46291214 L6.30264817,4.21691982 C6.30264817,4.21691982 6.56096945,4.02550424 6.69336607,4.05446139 Z M11.4502306,5.48908675 C11.4467527,5.35211897 11.5502994,5.26786357 11.6836417,5.30143406 L22.311021,7.85341948 C22.4434083,7.88674954 22.5534585,8.02333335 22.5569138,8.16205788 L22.7802861,17.1300345 C22.7837017,17.2671607 22.6801233,17.3505634 22.5468048,17.3157629 L11.9213264,14.5421675 C11.7889627,14.5076163 11.6788253,14.3679442 11.6753633,14.2316049 L11.4502306,5.36550542 L11.4502306,5.48908675 Z M33.27598,22.2210836 C32.9508273,22.1195984 32.427583,22.1342631 32.109377,22.2530558 L29.7199589,23.1450741 C29.2723823,23.3121635 29.2776628,23.5670034 29.7319665,23.7143441 L89.9488046,43.2439977 C89.9488046,43.2439977 93.6919524,44.4503394 95.2837862,43.2439977 C96.87562,42.037656 93.1554175,40.910393 93.1554175,40.910393 L33.27598,22.2210836 L33.27598,22.2210836 Z M27.6642001,20.7812096 C27.9235247,20.6937565 28.3426856,20.6977633 28.5989015,20.789614 L30.1382092,21.3414393 C30.3314726,21.4107222 30.335245,21.5326547 30.1484154,21.6130174 L27.9089792,22.5762867 C27.5325576,22.7382003 26.9142404,22.7580665 26.5277999,22.620613 L25.0084061,22.080178 C24.6869277,21.9658309 24.6884943,21.7847194 25.0117255,21.6757148 L27.6642001,20.7812096 Z M47.8702006,5.0058834 C47.9099129,5.0165243 42.6458679,11.3674138 47.6383468,20.4665312 C47.6383469,20.4665312 40.8541729,13.032699 47.8702006,5.0058834 Z"/><path d="M95.5458197,42.7104084 C95.5458197,42.7104084 94.8987074,42.4986668 94.1100241,42.5603483 C93.8374873,42.670952 94.0618783,42.8917601 94.1543832,42.8663333 C94.9993586,42.9487385 94.6598493,42.9112884 95.3205237,43.053591 C95.5013926,42.8975907 95.5458197,42.7104084 95.5458197,42.7104084 Z"/><path d="M96.8392904,44.2908149 C96.8392904,44.2908149 97.0817161,44.1690363 97.3747014,43.7583757 C97.5390742,43.8578126 97.5562416,43.9408589 97.5562416,43.9408589 C97.498426,44.6559622 96.8392904,44.2908149 96.8392904,44.2908149 Z"/></g></g><text x="0" y="61" fill="#000000" font-size="5px" font-weight="bold" font-family="'Helvetica Neue', Helvetica, Arial-Unicode, Arial, Sans-serif">Created by Tim Shedor</text><text x="0" y="66" fill="#000000" font-size="5px" font-weight="bold" font-family="'Helvetica Neue', Helvetica, Arial-Unicode, Arial, Sans-serif">from the Noun Project</text></svg>