<svg xmlns="http://www.w3.org/2000/svg" xmlns:xlink="http://www.w3.org/1999/xlink" version="1.1" x="0px" y="0px" viewBox="0 0 100 125" enable-background="new 0 0 100 100" xml:space="preserve"><path d="M35.825,42.193l3.92,6.731l-1.934,1.092l-3.895-6.688L35.825,42.193z M37.982,50.309l0.336,0.578l1.927-1.104l-0.33-0.565  L37.982,50.309z M38.49,51.181l0.357,0.613l1.922-1.112l-0.353-0.605L38.49,51.181z M77.649,24.472  c0.766-0.442,1.064-0.863,0.69-1.511s-1.28-1.282-2.048-0.839c-0.768,0.443-0.687,1.553-0.312,2.202  C76.354,24.972,76.882,24.916,77.649,24.472z M81.438,24.432l0.83-0.426l-0.618-1.069l-0.806,0.465L81.438,24.432z M80.972,22.676  c0.767-0.442,1.066-0.861,0.692-1.51c-0.375-0.649-1.283-1.283-2.051-0.84c-0.766,0.442-0.686,1.555-0.31,2.203  C79.677,23.178,80.206,23.119,80.972,22.676z M86.173,20.452l-1.291,0.631l0.421,0.731l1.29-0.632L86.173,20.452z M39.018,52.087  l0.353,0.606l1.917-1.12l-0.348-0.599L39.018,52.087z M45.357,58.56l-3.898-6.694l-1.917,1.121l3.877,6.658L45.357,58.56z   M78.097,26.195l0.83-0.426l-0.601-1.038l-0.806,0.466L78.097,26.195z M15.163,68.606l0.326-0.189  c-0.147-0.354-0.327-0.734-0.513-1.131c-0.109-0.229-0.218-0.462-0.326-0.698l-0.037-0.073c-0.024-0.05-0.625-1.234-0.746-2.165  l-0.026-0.188l0.023-0.014c-0.051-0.611,0.072-1.156,0.508-1.564c1.263-1.172,5.206-5.31,2.936-9.243  c-0.775-1.342-2.211-2.54-4.266-3.568c-0.493,0.459-2.729,3.482-2.277,8.465c0.272,3.006,1.656,5.932,2.769,7.859  c0.001,0.001,0.001,0.001,0.001,0.001C13.893,66.719,14.458,67.644,15.163,68.606z M42.447,47.596l-0.083-0.146l34.101-19.226  l0.165,0.298L42.531,47.742l0.487,0.845l-0.167-0.295l33.995-19.403l0.167,0.295L43.018,48.587l0.343,0.594l33.873-19.613  l0.169,0.293L43.531,49.473l0.34,0.59l33.725-19.866l0.17,0.291l-33.723,19.87l-0.172-0.295l0.476,0.824l34.092-20.368l-1.719-2.977  l-34.685,19.34L42.447,47.596z M77.206,27.259l7.406-3.813l1.374,2.383l-7.067,4.397L77.206,27.259z M81.377,28.362l-0.174-0.29  l-2.146,1.269l0.171,0.291L81.377,28.362z M84.602,25.299L78.7,28.718l0.17,0.294l5.901-3.418L84.602,25.299z M82.64,25.571  l-4.326,2.474l0.168,0.295l4.325-2.473L82.64,25.571z M78.1,27.684l1.049-0.59l-0.165-0.297l-1.047,0.591L78.1,27.684z   M85.421,26.892l-0.786,0.508l0.595,1.028l0.809-0.467L85.421,26.892z M85.976,28.77c-0.766,0.443-1.082,0.868-0.707,1.517  c0.375,0.649,1.298,1.275,2.063,0.833c0.768-0.443,0.671-1.544,0.297-2.195C87.255,28.276,86.743,28.327,85.976,28.77z   M20.334,63.351c1.188-0.487,2.177-0.597,3.134-0.701c0.667-0.072,1.299-0.142,1.982-0.336l-2.772-4.802  c-0.485,0.457-0.862,0.952-1.262,1.473c-0.608,0.795-1.234,1.615-2.318,2.426c-1.205,0.901-3.662,2.461-4.617,3.032  c0.094,0.479,0.288,1.013,0.522,1.554C15.95,65.5,19.074,63.872,20.334,63.351z M87.68,25.929l0.423,0.732l1.192-0.801l-0.423-0.73  L87.68,25.929z M87.402,21.509l-2.411,1.157l1.797,3.113l2.237-1.46L87.402,21.509z M42.983,59.89l-0.843,0.472  c-5.597,3.231-2.787,7.368-2.612,7.671c-0.692,0.083-1.642,0.454-1.854,0.761c-4.371,6.229-14.813,9.88-22.391,0.396l0.913-0.526  l-0.088-0.226c-0.171-0.436-0.391-0.9-0.623-1.39c-0.082-0.177-0.167-0.355-0.25-0.535c0.891-0.467,4.078-2.126,5.315-2.637  c1.111-0.461,2.062-0.563,2.98-0.663c0.69-0.077,1.407-0.155,2.175-0.384l0.592-0.18l-3.481-6.03l-0.471,0.433  c-0.544,0.504-0.95,1.031-1.376,1.589c-0.583,0.766-1.188,1.555-2.207,2.316c-1.108,0.828-3.277,2.216-4.339,2.861  c0.017-0.326,0.111-0.611,0.334-0.818c1.34-1.247,5.518-5.646,3.039-9.939c-0.848-1.469-2.406-2.765-4.632-3.855  c-0.039-0.02-0.092-0.033-0.154-0.031c2.497-3.223,6.431-5.15,10.173-5.479c0.369-0.033,1.166-0.669,1.585-1.225  c0.174,0.301,2.351,4.803,7.949,1.571l0.77-0.457l3.889,6.677l-4.682,2.644l0.166,0.296l4.688-2.646l0.338,0.581l-4.668,2.676  l0.168,0.296l4.671-2.679l0.358,0.616l-4.661,2.697l0.17,0.294l4.661-2.699l0.354,0.609l-4.653,2.721l0.171,0.293l4.653-2.722  L42.983,59.89z M24.428,48.812c0.845,1.464,2.876,1.931,5.482,0.427c3.216-1.856,4.079-2.629,4.62-1.694  c0.146,0.254,0.184,0.461,0.003,0.675c-0.14-0.169-0.392-0.218-0.603-0.094c-0.235,0.135-0.326,0.42-0.201,0.637  c0.124,0.215,0.417,0.279,0.652,0.142c0.058-0.033,0.102-0.073,0.142-0.12c0.586-0.385,0.731-0.875,0.392-1.462  c-0.858-1.486-2.826-0.505-5.508,1.043c-2.386,1.378-3.889,1.45-4.597,0.225c-0.137-0.237-0.331-0.791,0.285-1.352  c0.145,0.213,0.443,0.276,0.687,0.136c0.257-0.147,0.353-0.457,0.218-0.692c-0.136-0.235-0.451-0.307-0.708-0.157  c-0.064,0.038-0.118,0.089-0.161,0.142C23.815,47.547,24.305,48.6,24.428,48.812z M30.693,52.831l2.821,4.886l0.979-0.564  l-2.822-4.889L30.693,52.831z M31.428,55.229l-0.168-0.296l-6.325,3.622l0.168,0.295L31.428,55.229z M25.494,59.524l0.168,0.293  l6.306-3.651l-0.169-0.294L25.494,59.524z M24.55,57.896l6.349-3.577l-0.166-0.296l-6.35,3.577L24.55,57.896z M26.232,60.801  l6.276-3.705l-0.172-0.294l-6.276,3.706L26.232,60.801z M40.396,56.819c-0.336-0.584-0.831-0.705-1.453-0.395  c-0.063,0.008-0.125,0.028-0.187,0.063c-0.235,0.135-0.325,0.421-0.199,0.639c0.124,0.214,0.417,0.281,0.652,0.145  c0.212-0.122,0.295-0.366,0.221-0.57c0.274-0.05,0.435,0.089,0.58,0.34c0.541,0.937-0.559,1.297-3.775,3.154  c-2.605,1.505-3.218,3.497-2.374,4.959c0.124,0.215,0.789,1.167,2.21,0.468c0.07-0.009,0.14-0.034,0.204-0.07  c0.257-0.148,0.354-0.457,0.218-0.692s-0.453-0.307-0.709-0.158c-0.244,0.141-0.336,0.433-0.224,0.663  c-0.793,0.255-1.176-0.189-1.314-0.428c-0.708-1.229,0.106-2.493,2.492-3.871C39.42,59.518,41.255,58.306,40.396,56.819z   M44.66,51.434l-0.487,0.282l-2.942-5.097l0.487-0.281l0.001,0.004l14.875-8.247c-5.389-7.731-11.024-7.122-15.957-2.949  c-0.315,0.267-1.038,0.516-1.666,0.522c0,0,1.623,2.863-1.768,5.618l-0.447,0.353l-0.072,0.042l3.932,6.75l1.244-0.702l0.167,0.296  l-1.24,0.7l0.326,0.56l1.235-0.708l0.167,0.295l-1.232,0.706l0.351,0.603l1.228-0.711l0.169,0.294l-1.227,0.71l0.346,0.594  l1.221-0.713l0.17,0.292l-1.221,0.714l3.908,6.71l0.011-0.006l0.528-0.21c4.081-1.559,5.748,1.276,5.748,1.276  c0.322-0.539,0.898-1.041,1.285-1.184c6.078-2.181,9.424-6.756,5.435-15.277l-14.578,8.761L44.66,51.434z M82.223,28.902  l-0.785,0.508l0.576,0.997l0.808-0.467L82.223,28.902z M82.762,30.749c-0.77,0.444-1.081,0.87-0.706,1.52  c0.375,0.649,1.295,1.274,2.063,0.83c0.764-0.44,0.672-1.542,0.299-2.193C84.041,30.255,83.524,30.307,82.762,30.749z"/><path d="M63.815,88.678l1.326-0.766l-44.219-76.59c-2.177,1.257-5.133,1.16-5.133,1.16l1.965,3.402l0.237-0.137L54.16,78.396  l-0.927,0.54l4.307,7.456l3.71-2.157l-4.307-7.459l-2.037,1.187L18.737,15.317l2.042-1.179L63.815,88.678z M56.553,81.24  c0.313-0.181,0.715-0.074,0.895,0.233c0.179,0.312,0.07,0.714-0.241,0.896c-0.317,0.182-0.718,0.074-0.899-0.238  C56.13,81.823,56.238,81.422,56.553,81.24z"/><text x="0" y="115" fill="#000000" font-size="5px" font-weight="bold" font-family="'Helvetica Neue', Helvetica, Arial-Unicode, Arial, Sans-serif"></text><text x="0" y="120" fill="#000000" font-size="5px" font-weight="bold" font-family="'Helvetica Neue', Helvetica, Arial-Unicode, Arial, Sans-serif"></text></svg>
